<svg width="70" height="70" viewBox="0 0 70 70" fill="none" xmlns="http://www.w3.org/2000/svg">
<g id="finger-print-outline 1">
<g id="Group 1000000914">
<path id="Vector" d="M52.2959 2.36719H17.7784C16.4456 2.36719 15.3652 3.4555 15.3652 4.79801V61.4313C15.3652 62.7738 16.4456 63.8621 17.7784 63.8621H52.2959C53.6286 63.8621 54.709 62.7738 54.709 61.4313V4.79801C54.709 3.4555 53.6286 2.36719 52.2959 2.36719Z" fill="#E81896"/>
<path id="Vector_2" d="M52.2962 64.2267H17.7823C17.0452 64.2267 16.3382 63.932 15.8166 63.4073C15.295 62.8825 15.0015 62.1707 15.0005 61.4282V4.79857C15.0015 4.056 15.295 3.34419 15.8166 2.81946C16.3382 2.29473 17.0452 2 17.7823 2H52.2962C53.0333 2 53.7403 2.29473 54.2619 2.81946C54.7835 3.34419 55.077 4.056 55.078 4.79857V61.4318C55.0761 62.1738 54.7821 62.8846 54.2607 63.4086C53.7392 63.9325 53.0327 64.2267 52.2962 64.2267ZM17.7823 2.7355C17.2388 2.7355 16.7175 2.95274 16.3329 3.33953C15.9482 3.72633 15.7316 4.25107 15.7306 4.79857V61.4318C15.7316 61.9793 15.9482 62.5041 16.3329 62.8909C16.7175 63.2777 17.2388 63.4949 17.7823 63.4949H52.2962C52.8397 63.4949 53.361 63.2777 53.7457 62.8909C54.1303 62.5041 54.3469 61.9793 54.3479 61.4318V4.79857C54.3469 4.25107 54.1303 3.72633 53.7457 3.33953C53.361 2.95274 52.8397 2.7355 52.2962 2.7355H17.7823Z" fill="#093F68"/>
<path id="Vector_3" d="M54.709 8.08594H15.3652V56.1286H54.709V8.08594Z" fill="white"/>
<path id="Vector_4" d="M54.7129 56.4969H15.3656C15.2687 56.4969 15.1759 56.4582 15.1074 56.3892C15.039 56.3202 15.0005 56.2267 15.0005 56.1292V8.0865C15.0005 7.98897 15.039 7.89543 15.1074 7.82646C15.1759 7.75749 15.2687 7.71875 15.3656 7.71875H54.7129C54.8098 7.71875 54.9026 7.75749 54.9711 7.82646C55.0396 7.89543 55.078 7.98897 55.078 8.0865V56.1292C55.078 56.2267 55.0396 56.3202 54.9711 56.3892C54.9026 56.4582 54.8098 56.4969 54.7129 56.4969ZM15.7306 55.7614H54.3479V8.45425H15.7306V55.7614Z" fill="#093F68"/>
<path id="Vector_5" d="M26.132 28.0773C26.2571 26.3998 26.8242 24.7862 27.7749 23.4032C28.9436 21.675 30.6989 20.4365 32.7106 19.9206C34.759 19.3634 36.9374 19.5587 38.8558 20.4718C40.7742 21.3848 42.3074 22.9558 43.1809 24.9036C43.6117 25.9043 43.8234 26.9867 43.8015 28.0773C43.751 28.908 43.3916 29.689 42.7951 30.2648C42.1985 30.8405 41.4085 31.1688 40.5824 31.1841C39.7564 31.1994 38.9549 30.9006 38.3377 30.3473C37.7205 29.7941 37.3329 29.0269 37.2521 28.1986C37.2653 27.7444 37.1353 27.2976 36.8808 26.9223C36.6264 26.5471 36.2605 26.2627 35.8356 26.1098C35.4076 25.9399 34.939 25.9023 34.4897 26.0019C34.0404 26.1014 33.6307 26.3336 33.313 26.6688C32.6121 27.4227 32.696 28.3347 32.8676 29.243C33.4152 32.0563 35.1347 33.8436 37.7742 34.7887C37.88 34.8255 37.9896 34.8586 38.0991 34.888C38.4861 34.9799 38.7489 35.1932 38.6138 35.6235C38.4787 36.0537 38.1283 35.9912 37.7669 35.8993C36.0949 35.4675 34.6049 34.5061 33.5164 33.1568C32.428 31.8074 31.7987 30.1415 31.7213 28.4046C31.6729 27.5268 31.9726 26.6656 32.5545 26.0104C33.1365 25.3552 33.953 24.9597 34.8244 24.911C35.6958 24.8622 36.5507 25.1641 37.2011 25.7503C37.8516 26.3365 38.2442 27.159 38.2926 28.0368C38.3025 28.3295 38.3695 28.6174 38.49 28.884C38.6104 29.1506 38.7818 29.3906 38.9944 29.5904C39.207 29.7902 39.4566 29.9459 39.7289 30.0484C40.0012 30.151 40.291 30.1985 40.5816 30.1881C40.8736 30.1882 41.1626 30.1295 41.4318 30.0154C41.7009 29.9013 41.9447 29.7342 42.1488 29.5238C42.3529 29.3134 42.5131 29.0641 42.6202 28.7904C42.7272 28.5167 42.7788 28.2242 42.772 27.9302C42.7282 24.4733 40.096 21.513 36.4453 20.8216C32.9187 20.1523 29.2461 22.0057 27.8515 25.2346C26.9534 27.3124 27.209 29.4306 27.8515 31.5304C27.8734 31.604 27.899 31.6775 27.9245 31.7474C28.0742 32.1151 28.1618 32.4829 27.6763 32.641C27.1907 32.7992 27.0192 32.4388 26.9461 32.0637C26.7636 31.2473 26.5482 30.4492 26.3292 29.6549C26.1814 29.1428 26.1149 28.6103 26.132 28.0773Z" fill="#E81896"/>
<path id="Vector_6" d="M30.0439 28.3485C30.0695 30.761 31.0625 32.7615 32.6688 34.4679C32.9572 34.7768 33.4537 35.1004 32.9974 35.5711C32.541 36.0418 32.1833 35.527 31.9022 35.2034C30.164 33.4507 29.1348 31.1098 29.0144 28.6354C28.8757 25.5904 30.6427 23.1596 33.5924 22.4278C36.9365 21.6004 40.3244 23.6818 40.9961 26.9879C41.0655 27.3336 41.2808 28.5545 40.5361 28.4147C40.0067 28.3118 39.941 26.9695 39.784 26.5392C39.5465 25.8981 39.1727 25.3169 38.6888 24.8365C37.7228 23.8557 36.4097 23.3015 35.0381 23.2957C33.8872 23.2768 32.7655 23.6611 31.8647 24.3828C30.9638 25.1045 30.3396 26.1188 30.0987 27.2526C30.0562 27.6163 30.0379 27.9824 30.0439 28.3485Z" fill="#E81896"/>
<path id="Vector_7" d="M44.6845 22.1449C44.6692 22.2363 44.635 22.3236 44.584 22.4009C44.5331 22.4781 44.4666 22.5438 44.3888 22.5935C44.2207 22.6583 44.0348 22.6583 43.8668 22.5935C43.7426 22.5494 43.6514 22.3913 43.5601 22.2699C42.5489 20.964 41.2554 19.9076 39.7779 19.181C38.3005 18.4544 36.678 18.0768 35.0339 18.0768C33.3897 18.0768 31.7673 18.4544 30.2898 19.181C28.8124 19.9076 27.5188 20.964 26.5076 22.2699L26.4091 22.4096C26.2083 22.6928 25.96 22.8473 25.6388 22.6119C25.5684 22.5686 25.5094 22.5088 25.4668 22.4377C25.4241 22.3666 25.399 22.2862 25.3937 22.2033C25.3883 22.1204 25.4028 22.0374 25.4359 21.9613C25.469 21.8852 25.5198 21.8183 25.584 21.7661C26.1512 21.0703 26.7608 20.4108 27.4094 19.7913C30.2095 17.331 34.1632 16.5183 37.7555 17.3421C40.5592 17.9856 42.746 19.5486 44.5239 21.7808C44.596 21.8576 44.6508 21.9492 44.6845 22.0492C44.6905 22.0808 44.6905 22.1133 44.6845 22.1449Z" fill="#E81896"/>
<path id="Vector_8" d="M35.3204 14.4171C37.4027 14.4455 39.449 14.9684 41.293 15.9433C41.658 16.1271 41.9245 16.3772 41.7018 16.7928C41.4792 17.2083 41.1469 17.0686 40.8111 16.8994C36.9535 14.9749 33.0983 14.9749 29.2456 16.8994C28.9025 17.0686 28.5629 17.1532 28.3694 16.745C28.176 16.3368 28.4388 16.1124 28.7783 15.9359C30.8002 14.891 33.0484 14.369 35.3204 14.4171Z" fill="#E81896"/>
<path id="Vector_9" d="M40.455 33.7527C37.1438 33.7527 34.7125 31.5021 34.4715 28.4057C34.4656 28.2539 34.4919 28.1026 34.5485 27.9618C34.6052 27.8211 34.6909 27.6941 34.8001 27.5893C35.1031 27.3576 35.4755 27.6702 35.5047 28.1924C35.5329 29.0571 35.8066 29.8956 36.2932 30.6085C36.9497 31.5952 37.9573 32.2903 39.1079 32.5502C39.7109 32.6507 40.3235 32.6803 40.9333 32.6385C41.1912 32.6242 41.4498 32.6415 41.7036 32.69C42.149 32.7929 42.3096 33.1864 41.919 33.4512C41.4668 33.6826 40.9611 33.7867 40.455 33.7527Z" fill="#E81896"/>
<path id="Vector_10" d="M32.687 49.1009V28.7497C32.687 28.1164 32.9365 27.509 33.3807 27.0608C33.8249 26.6126 34.4276 26.3603 35.0563 26.3594C35.6856 26.3594 36.2892 26.6112 36.7342 27.0595C37.1792 27.5078 37.4292 28.1158 37.4292 28.7497V37.7302C37.5501 37.1502 37.8581 36.6269 38.3052 36.2417C38.7523 35.8566 39.3133 35.6313 39.9008 35.6009C42.0656 35.395 42.6863 37.2116 42.5804 40.6905C42.5804 40.6905 43.0988 38.7157 45.1578 38.7157C47.2168 38.7157 47.5819 39.819 47.4797 42.3528C47.4797 42.3528 47.8666 40.5876 50.0023 40.6905C51.1377 40.7457 52.1416 41.6246 52.2657 43.5001C52.3606 44.9527 52.2657 57.1914 52.2657 59.3722C52.2657 61.5529 50.8054 67.3744 43.3032 67.7385C36.8889 68.051 33.8114 65.0907 31.8619 61.3543C29.9124 57.618 25.9039 48.2257 25.4549 46.0376C24.8525 43.1287 29.0801 42.4557 30.2629 44.7909C31.0259 46.2619 32.687 49.1009 32.687 49.1009Z" fill="#FFC9B0"/>
<path id="Vector_11" d="M42.4187 68.1288C35.789 68.1288 33.0401 64.3925 31.5396 61.5093C29.5427 57.6995 25.5524 48.3182 25.0961 46.097C24.9373 45.496 25.0169 44.8563 25.3181 44.3134C25.6192 43.7704 26.1183 43.3669 26.7097 43.1881C28.024 42.7211 29.8347 43.1256 30.5868 44.6113C31.0176 45.4571 31.7696 46.781 32.3209 47.7335V28.7503C32.3209 28.0188 32.6093 27.3173 33.1228 26.8C33.6363 26.2828 34.3327 25.9922 35.0589 25.9922C35.7851 25.9922 36.4815 26.2828 36.995 26.8C37.5085 27.3173 37.7969 28.0188 37.7969 28.7503V36.234C38.3365 35.6474 39.0784 35.2908 39.8705 35.2374C40.2253 35.1798 40.5884 35.202 40.9336 35.3025C41.2789 35.4029 41.5978 35.5791 41.8675 35.8184C42.5319 36.4473 42.8787 37.5505 42.9627 39.3157C43.2418 39.0051 43.5836 38.7582 43.9651 38.5914C44.3467 38.4246 44.7592 38.3418 45.175 38.3485C46.1132 38.3485 46.7485 38.5618 47.1829 39.0178C47.6173 39.4738 47.8108 40.1726 47.8619 41.0515C48.1562 40.7822 48.503 40.5777 48.8802 40.451C49.2573 40.3244 49.6566 40.2784 50.0524 40.316C51.2169 40.3712 52.513 41.2317 52.6626 43.4676C52.7356 44.5708 52.6991 51.5912 52.6626 56.2321C52.6626 57.6774 52.6626 58.8064 52.6626 59.3617C52.6626 59.4463 52.5568 67.6544 43.3533 68.0994C43.0138 68.1215 42.7071 68.1288 42.4187 68.1288ZM27.8159 43.7508C27.5215 43.7493 27.229 43.7978 26.9507 43.8942C26.5267 44.0166 26.1682 44.3031 25.9534 44.6911C25.7386 45.0791 25.685 45.537 25.8043 45.9646C26.2461 48.0902 30.2509 57.4972 32.1785 61.182C33.7811 64.238 36.49 67.7022 43.2803 67.3713C51.7974 66.9594 51.896 59.4463 51.896 59.369C51.896 58.8321 51.896 57.6811 51.896 56.2321C51.9179 51.8854 51.9544 44.6076 51.896 43.5228C51.7974 42.0334 51.0819 41.1103 49.983 41.0588C48.1576 40.9596 47.8437 42.3717 47.8291 42.4305C47.817 42.5281 47.7669 42.6168 47.6899 42.6771C47.6129 42.7375 47.5152 42.7645 47.4184 42.7523C47.3216 42.7401 47.2335 42.6897 47.1736 42.6121C47.1137 42.5345 47.0868 42.4361 47.0989 42.3386C47.161 40.761 47.0259 39.9482 46.6243 39.5253C46.3359 39.2238 45.8687 39.084 45.1422 39.084C44.6396 39.0892 44.152 39.2572 43.7516 39.5632C43.3512 39.8692 43.0592 40.2969 42.9189 40.783C42.8964 40.8707 42.8427 40.9469 42.7679 40.9971C42.6931 41.0473 42.6026 41.068 42.5136 41.0552C42.4259 41.0427 42.3457 40.9985 42.2879 40.9308C42.2302 40.8632 42.1988 40.7767 42.1997 40.6874C42.2691 38.3522 41.9989 36.9768 41.3491 36.3627C41.1524 36.1998 40.9226 36.0824 40.676 36.0189C40.4293 35.9553 40.1718 35.9472 39.9216 35.9949C39.4149 36.0195 38.9301 36.2109 38.5417 36.5397C38.1532 36.8686 37.8826 37.3167 37.7714 37.8153C37.757 37.9062 37.7092 37.9885 37.6376 38.0456C37.5659 38.1028 37.4756 38.1309 37.3844 38.1242C37.2927 38.1168 37.2072 38.0748 37.1449 38.0066C37.0827 37.9384 37.0482 37.8491 37.0485 37.7565V28.7503C37.0485 28.2139 36.837 27.6994 36.4604 27.3201C36.0839 26.9408 35.5732 26.7277 35.0406 26.7277C34.5081 26.7277 33.9974 26.9408 33.6208 27.3201C33.2443 27.6994 33.0327 28.2139 33.0327 28.7503V49.1015C33.0327 49.1821 33.0064 49.2604 32.9579 49.3245C32.9094 49.3885 32.8414 49.4348 32.7642 49.4561C32.6871 49.4774 32.6051 49.4726 32.531 49.4424C32.4568 49.4122 32.3945 49.3583 32.3537 49.2891C32.2844 49.1714 30.6634 46.4243 29.9187 44.9607C29.7129 44.5842 29.4081 44.2721 29.0378 44.0587C28.6675 43.8452 28.246 43.7387 27.8195 43.7508H27.8159Z" fill="#093F68"/>
<path id="Vector_12" d="M42.578 46.8738C42.4811 46.8738 42.3883 46.8351 42.3198 46.7661C42.2514 46.6971 42.2129 46.6036 42.2129 46.5061V40.692C42.2129 40.5944 42.2514 40.5009 42.3198 40.4319C42.3883 40.363 42.4811 40.3242 42.578 40.3242C42.6748 40.3242 42.7676 40.363 42.8361 40.4319C42.9046 40.5009 42.943 40.5944 42.943 40.692V46.5061C42.943 46.6036 42.9046 46.6971 42.8361 46.7661C42.7676 46.8351 42.6748 46.8738 42.578 46.8738Z" fill="#093F68"/>
<path id="Vector_13" d="M37.4256 47.1305C37.3288 47.1305 37.2359 47.0917 37.1675 47.0227C37.099 46.9538 37.0605 46.8602 37.0605 46.7627V37.7271C37.0605 37.6296 37.099 37.5361 37.1675 37.4671C37.2359 37.3981 37.3288 37.3594 37.4256 37.3594C37.5224 37.3594 37.6153 37.3981 37.6838 37.4671C37.7522 37.5361 37.7907 37.6296 37.7907 37.7271V46.7627C37.7907 46.8602 37.7522 46.9538 37.6838 47.0227C37.6153 47.0917 37.5224 47.1305 37.4256 47.1305Z" fill="#093F68"/>
<path id="Vector_14" d="M47.4769 46.8678C47.3801 46.8678 47.2872 46.8291 47.2187 46.7601C47.1503 46.6912 47.1118 46.5976 47.1118 46.5001V42.3482C47.1118 42.2507 47.1503 42.1571 47.2187 42.0882C47.2872 42.0192 47.3801 41.9805 47.4769 41.9805C47.5737 41.9805 47.6666 42.0192 47.735 42.0882C47.8035 42.1571 47.842 42.2507 47.842 42.3482V46.5001C47.842 46.5484 47.8325 46.5962 47.8142 46.6408C47.7958 46.6854 47.7689 46.726 47.735 46.7601C47.7011 46.7943 47.6609 46.8214 47.6166 46.8398C47.5723 46.8583 47.5248 46.8678 47.4769 46.8678Z" fill="#093F68"/>
<path id="Vector_15" d="M47.5249 20.1703C50.1138 20.1703 52.2124 18.0563 52.2124 15.4485C52.2124 12.8406 50.1138 10.7266 47.5249 10.7266C44.9361 10.7266 42.8374 12.8406 42.8374 15.4485C42.8374 18.0563 44.9361 20.1703 47.5249 20.1703Z" fill="#70CC40"/>
<path id="Vector_16" d="M47.5237 20.5386C46.5237 20.5415 45.5452 20.2454 44.7123 19.6878C43.8794 19.1301 43.2296 18.336 42.845 17.4061C42.4605 16.4761 42.3585 15.4521 42.5521 14.4638C42.7457 13.4754 43.2261 12.5671 43.9325 11.854C44.6389 11.1409 45.5395 10.655 46.5203 10.4578C47.501 10.2606 48.5178 10.3611 49.4418 10.7464C50.3658 11.1318 51.1556 11.7847 51.711 12.6225C52.2663 13.4603 52.5624 14.4453 52.5617 15.4527C52.5598 16.7991 52.0287 18.0899 51.0847 19.043C50.1406 19.996 48.8603 20.5338 47.5237 20.5386ZM47.5237 11.0985C46.6682 11.0956 45.8311 11.3485 45.1183 11.8252C44.4056 12.3018 43.8493 12.9808 43.5199 13.7762C43.1905 14.5716 43.1028 15.4475 43.268 16.2931C43.4331 17.1387 43.8436 17.9159 44.4475 18.5263C45.0515 19.1367 45.8216 19.5528 46.6605 19.722C47.4993 19.8912 48.3692 19.8059 49.1599 19.4768C49.9505 19.1476 50.6265 18.5896 51.1021 17.8732C51.5777 17.1569 51.8316 16.3145 51.8316 15.4527C51.8306 14.3007 51.3769 13.196 50.5697 12.3801C49.7624 11.5642 48.6673 11.1034 47.5237 11.0985Z" fill="#093F68"/>
<path id="Vector_17" d="M46.2927 18.2266L44.252 15.417L45.4275 14.5454L46.5264 16.0532L49.728 13.2031L50.6955 14.3064L46.2927 18.2266Z" fill="white"/>
<path id="Vector_18" d="M32.3411 5.36831H31.7899C31.6931 5.36831 31.6002 5.32957 31.5317 5.2606C31.4633 5.19163 31.4248 5.09809 31.4248 5.00056C31.4248 4.90303 31.4633 4.80949 31.5317 4.74052C31.6002 4.67156 31.6931 4.63281 31.7899 4.63281H32.3411C32.438 4.63281 32.5308 4.67156 32.5993 4.74052C32.6677 4.80949 32.7062 4.90303 32.7062 5.00056C32.7062 5.09809 32.6677 5.19163 32.5993 5.2606C32.5308 5.32957 32.438 5.36831 32.3411 5.36831Z" fill="#093F68"/>
<path id="Vector_19" d="M38.2888 5.36831H33.4881C33.3913 5.36831 33.2984 5.32957 33.23 5.2606C33.1615 5.19163 33.123 5.09809 33.123 5.00056C33.123 4.90303 33.1615 4.80949 33.23 4.74052C33.2984 4.67156 33.3913 4.63281 33.4881 4.63281H38.2888C38.3856 4.63281 38.4785 4.67156 38.5469 4.74052C38.6154 4.80949 38.6539 4.90303 38.6539 5.00056C38.6539 5.09809 38.6154 5.19163 38.5469 5.2606C38.4785 5.32957 38.3856 5.36831 38.2888 5.36831Z" fill="#093F68"/>
</g>
</g>
</svg>
