<svg width="400" height="400" viewBox="0 0 400 400" fill="none" xmlns="http://www.w3.org/2000/svg">
<path d="M341.312 187.12C337.114 189.647 332.224 190.78 327.342 190.356C322.461 189.932 317.839 187.974 314.139 184.762C310.439 181.55 307.851 177.249 306.746 172.475C305.641 167.702 306.076 162.701 307.988 158.19C309.9 153.678 313.191 149.888 317.39 147.363C321.588 144.837 326.479 143.705 331.36 144.13C336.242 144.555 340.863 146.515 344.562 149.728C348.261 152.941 350.848 157.243 351.952 162.016C353.063 166.788 352.631 171.79 350.72 176.301C348.808 180.812 345.514 184.6 341.312 187.12Z" fill="#EBEBEB"/>
<path d="M336.44 164.68C336.422 166.075 335.991 167.433 335.202 168.584C334.413 169.734 333.3 170.624 332.004 171.143C330.709 171.661 329.289 171.783 327.924 171.494C326.559 171.206 325.31 170.519 324.336 169.521C323.361 168.523 322.704 167.258 322.448 165.886C322.192 164.515 322.348 163.098 322.897 161.816C323.446 160.533 324.362 159.442 325.531 158.68C326.7 157.918 328.068 157.52 329.464 157.536C330.391 157.546 331.307 157.739 332.16 158.104C333.012 158.469 333.785 158.998 334.432 159.662C335.08 160.325 335.591 161.11 335.936 161.971C336.28 162.832 336.451 163.752 336.44 164.68Z" fill="white"/>
<path d="M341.344 184.208V187.12C337.651 189.339 333.413 190.486 329.105 190.433C324.797 190.379 320.589 189.127 316.952 186.816L316.992 183.912C317.012 182.311 317.346 180.729 317.977 179.258C318.608 177.786 319.522 176.453 320.668 175.334C321.814 174.216 323.169 173.334 324.655 172.74C326.142 172.145 327.731 171.849 329.332 171.868C330.933 171.888 332.515 172.222 333.987 172.853C335.458 173.483 336.791 174.398 337.91 175.544C339.028 176.69 339.91 178.044 340.505 179.531C341.099 181.018 341.396 182.607 341.376 184.208H341.344Z" fill="white"/>
<path d="M80.4721 118.075C78.0503 119.532 75.27 120.286 72.4436 120.25C69.6172 120.215 66.8566 119.392 64.4721 117.875C61.683 116.099 59.5487 113.463 58.3928 110.366C57.237 107.268 57.1225 103.878 58.0668 100.71C59.0111 97.5418 60.9626 94.7676 63.6256 92.8084C66.2886 90.8491 69.5177 89.8114 72.8236 89.8528C76.1294 89.8941 79.3316 91.0121 81.9448 93.0373C84.558 95.0626 86.4396 97.8846 87.3044 101.076C88.1692 104.267 87.97 107.653 86.7371 110.72C85.5041 113.788 83.3046 116.37 80.4721 118.075Z" fill="#EBEBEB"/>
<path d="M77.28 103.368C77.2704 104.282 76.9897 105.174 76.4734 105.929C75.957 106.684 75.2283 107.269 74.3793 107.61C73.5303 107.951 72.5993 108.033 71.7041 107.844C70.8088 107.656 69.9896 107.206 69.35 106.552C68.7104 105.898 68.2792 105.069 68.111 104.169C67.9429 103.27 68.0452 102.341 68.4051 101.5C68.7651 100.659 69.3664 99.9436 70.133 99.4444C70.8997 98.9452 71.7972 98.6846 72.712 98.6956C73.3188 98.7019 73.9185 98.8278 74.4767 99.0661C75.0349 99.3044 75.5406 99.6504 75.9648 100.084C76.3891 100.518 76.7237 101.032 76.9494 101.595C77.175 102.158 77.2874 102.761 77.28 103.368Z" fill="white"/>
<path d="M80.4961 116.163V118.075C78.0743 119.532 75.294 120.286 72.4676 120.251C69.6412 120.215 66.8807 119.393 64.4961 117.875V115.979C64.5205 113.857 65.3867 111.832 66.9043 110.349C68.4218 108.866 70.4664 108.046 72.5881 108.071C74.7098 108.095 76.735 108.961 78.218 110.479C79.701 111.997 80.5205 114.041 80.4961 116.163Z" fill="white"/>
<path d="M148.36 120.257H47.0479V50.9453H148.36V120.257ZM47.8479 119.457H147.56V51.7453H47.8479V119.457Z" fill="#EBEBEB"/>
<path d="M54.9675 55.4105C54.9675 55.8093 54.8493 56.199 54.6278 56.5306C54.4063 56.8621 54.0914 57.1205 53.723 57.2731C53.3547 57.4257 52.9493 57.4656 52.5582 57.3878C52.1672 57.31 51.808 57.118 51.526 56.8361C51.2441 56.5541 51.0521 56.1949 50.9743 55.8038C50.8965 55.4128 50.9364 55.0074 51.089 54.639C51.2416 54.2707 51.5 53.9558 51.8315 53.7343C52.163 53.5128 52.5528 53.3945 52.9515 53.3945C53.4862 53.3945 53.999 53.6069 54.3771 53.985C54.7551 54.3631 54.9675 54.8759 54.9675 55.4105Z" fill="#A6A6A6"/>
<path d="M63.2 55.4105C63.2 55.8093 63.0817 56.199 62.8602 56.5306C62.6387 56.8621 62.3238 57.1205 61.9555 57.2731C61.5871 57.4257 61.1817 57.4656 60.7907 57.3878C60.3996 57.31 60.0404 57.118 59.7584 56.8361C59.4765 56.5541 59.2845 56.1949 59.2067 55.8038C59.1289 55.4128 59.1688 55.0074 59.3214 54.639C59.474 54.2707 59.7324 53.9558 60.0639 53.7343C60.3955 53.5128 60.7852 53.3945 61.184 53.3945C61.7186 53.3945 62.2314 53.6069 62.6095 53.985C62.9876 54.3631 63.2 54.8759 63.2 55.4105Z" fill="#EBEBEB"/>
<path d="M71.4314 55.4105C71.4314 55.8093 71.3132 56.199 71.0917 56.5306C70.8701 56.8621 70.5553 57.1205 70.1869 57.2731C69.8185 57.4257 69.4132 57.4656 69.0221 57.3878C68.631 57.31 68.2718 57.118 67.9899 56.8361C67.7079 56.5541 67.5159 56.1949 67.4382 55.8038C67.3604 55.4128 67.4003 55.0074 67.5529 54.639C67.7055 54.2707 67.9639 53.9558 68.2954 53.7343C68.6269 53.5128 69.0167 53.3945 69.4154 53.3945C69.9501 53.3945 70.4629 53.6069 70.8409 53.985C71.219 54.3631 71.4314 54.8759 71.4314 55.4105Z" fill="#E61C50"/>
<path d="M147.96 58.9609H47.4482V59.7609H147.96V58.9609Z" fill="#EBEBEB"/>
<path d="M188.872 363.103C252.138 363.103 303.424 359.131 303.424 354.231C303.424 349.332 252.138 345.359 188.872 345.359C125.607 345.359 74.3203 349.332 74.3203 354.231C74.3203 359.131 125.607 363.103 188.872 363.103Z" fill="#EBEBEB"/>
<path d="M228 51.1992H227.2V110.399H228V51.1992Z" fill="#C7C7C7"/>
<path d="M194.592 141.528L197.224 147.304H257.288L259.904 141.528L234.336 123.824H220.168L194.592 141.528Z" fill="#E61C50"/>
<path d="M218.392 106.773L220.168 123.821H234.336L236.112 106.773H218.392Z" fill="#E61C50"/>
<path opacity="0.1" d="M194.6 141.527L197.224 147.303H257.296L259.912 141.527H194.6Z" fill="black"/>
<path opacity="0.1" d="M220.168 123.822L219.976 121.99L234.632 120.934L234.336 123.822H220.168Z" fill="black"/>
<path d="M172.8 51.1992H172V91.1992H172.8V51.1992Z" fill="#C7C7C7"/>
<path d="M140.088 106.895L142.72 112.671H202.784L205.4 106.895L179.832 89.1992H165.664L140.088 106.895Z" fill="#E61C50"/>
<path d="M163.888 72.1445L165.664 89.2005H179.832L181.608 72.1445H163.888Z" fill="#E61C50"/>
<path opacity="0.1" d="M140.096 106.902L142.72 112.67H202.784L205.408 106.902H140.096Z" fill="black"/>
<path opacity="0.1" d="M165.664 89.1975L165.456 87.2215L180.136 86.2695L179.832 89.1975H165.664Z" fill="black"/>
<path d="M309.84 250.958C310.079 246.918 310.652 242.904 311.552 238.958C312.4 235.398 313.6 231.758 315.848 228.806C316.837 227.419 318.09 226.241 319.536 225.34C320.981 224.44 322.591 223.834 324.272 223.558C327.576 223.158 330.672 224.63 333.144 226.702C336.2 229.278 338.544 232.694 340.744 235.998C343.153 239.696 345.343 243.532 347.304 247.486C347.376 247.614 347.176 247.726 347.112 247.598C345.408 244.25 343.445 241.04 341.24 237.998C339.23 235.078 336.968 232.34 334.48 229.814C332.216 227.606 329.336 225.534 326.048 225.43C322.76 225.326 319.768 227.158 317.808 229.678C315.608 232.494 314.488 236.006 313.648 239.43C312.798 243.183 312.247 246.998 312 250.838C311.352 258.766 311.2 266.742 311 274.686C310.896 279.182 310.84 283.686 310.792 288.182L310.744 295.022C310.824 297.223 310.736 299.427 310.48 301.614C310.4 302.054 309.68 302.014 309.6 301.614C309.333 299.543 309.234 297.453 309.304 295.366C309.272 293.206 309.245 291.046 309.224 288.886C309.181 284.689 309.165 280.489 309.176 276.286C309.16 267.83 309.264 259.374 309.84 250.958Z" fill="#263238"/>
<path d="M321.168 244.983C321.584 242.743 322.344 239.823 323.616 238.087C325.912 234.967 328.416 236.319 326.104 239.775C324.416 242.342 323.323 245.252 322.904 248.295C322.904 248.295 326.76 253.807 331.416 256.519C331.216 254.399 330.616 251.143 331.032 247.999C331.928 241.191 336.048 241.599 335.032 246.983C334.232 251.319 333.88 255.927 334.104 257.919C335.659 258.928 337.33 259.747 339.08 260.359C338.808 259.559 338.528 258.623 338.216 257.471C336.56 251.367 340.616 249.471 340.76 252.903C341.03 255.831 341.565 258.728 342.36 261.559C344.592 262.311 346.448 262.823 347.576 263.215C350.509 264.302 353.13 266.093 355.208 268.431C357.328 266.516 359.089 264.238 360.408 261.703C358.984 260.479 356.736 258.663 353.616 256.455C347.768 252.327 349.8 247.111 354.416 250.351C357.76 252.695 360.352 257.031 361.536 259.255C363.114 255.377 364.01 251.255 364.184 247.071C359.592 242.759 348.224 236.743 351.648 236.743C354.736 236.743 361.632 241.263 364.16 243.007C364.1 241.822 363.971 240.642 363.776 239.471C359.448 236.631 345.376 232.223 347.624 230.951C350.08 229.559 359.896 234.103 362.864 235.535C362.306 233.607 361.427 231.787 360.264 230.151C354.28 222.151 343.464 219.391 338.792 220.911C335.464 221.991 336.392 230.439 335.72 230.151C322.328 224.799 316.248 228.575 321.168 244.983ZM353.968 244.055C354.92 242.911 359.304 246.287 358.04 248.127C356.776 249.967 352.728 245.527 353.952 244.055H353.968ZM331.032 236.855C332.184 237.591 330.48 241.855 328.696 240.567C327.2 239.463 329.856 236.111 331.016 236.855H331.032Z" fill="#E61C50"/>
<path d="M332.8 238.16C333.4 236.968 334.032 235.76 334.72 234.632C335.353 233.498 336.092 232.426 336.928 231.432C336.744 231.2 336.56 230.96 336.36 230.728C336.28 230.632 336.416 230.504 336.496 230.592C336.72 230.848 336.936 231.112 337.152 231.392C337.174 231.403 337.195 231.419 337.211 231.438C337.228 231.458 337.24 231.48 337.248 231.504C338.075 232.496 338.856 233.512 339.592 234.552C340.908 234.855 342.206 235.231 343.48 235.68C344.792 236.12 346.096 236.576 347.368 237.112C347.504 237.168 347.432 237.392 347.304 237.328C346.04 236.776 344.76 236.232 343.448 235.792C342.136 235.352 340.952 235.048 339.696 234.696C340.104 235.272 340.496 235.848 340.888 236.44C343.25 237.187 345.548 238.124 347.76 239.24C350.08 240.344 352.312 241.64 354.536 242.912C354.664 242.984 354.536 243.184 354.416 243.104C352.229 241.826 349.978 240.662 347.672 239.616C345.52 238.608 343.296 237.784 341.128 236.824C346.592 245.344 349.864 255.184 354.248 264.288C354.312 264.424 354.104 264.528 354.048 264.4C352.712 261.2 351.168 258.096 349.712 254.952C348.408 252.128 347.128 249.296 345.824 246.472C345.44 245.672 345.024 244.824 344.64 244.008C344.88 248.56 344.784 253.192 345.536 257.688C345.536 257.703 345.533 257.717 345.527 257.731C345.522 257.744 345.513 257.757 345.503 257.767C345.493 257.778 345.48 257.786 345.467 257.791C345.453 257.797 345.439 257.8 345.424 257.8C345.409 257.8 345.395 257.797 345.381 257.791C345.367 257.786 345.355 257.778 345.345 257.767C345.334 257.757 345.326 257.744 345.32 257.731C345.315 257.717 345.312 257.703 345.312 257.688C344.992 252.824 344.136 248.032 344.168 243.144C344.168 243.144 344.168 243.104 344.168 243.08C343.24 241.216 342.248 239.384 341.184 237.6C339.376 241.856 337.472 246.184 336.632 250.76C336.632 250.896 336.376 250.84 336.408 250.696C337.64 246.112 338.808 241.52 340.992 237.28C339.833 235.349 338.547 233.497 337.144 231.736C336.536 232.864 335.76 233.936 335.072 235.016C334.384 236.096 333.736 237.136 333.112 238.216C331.766 240.512 330.623 242.921 329.696 245.416C329.64 245.552 329.424 245.48 329.48 245.352C330.52 242.96 331.576 240.52 332.8 238.16Z" fill="#263238"/>
<path d="M289.711 248.526C293.215 245.006 297.287 240.398 302.703 240.406C307.935 240.406 311.783 244.622 313.991 248.966C316.303 253.51 317.135 258.654 317.791 263.654C318.565 269.645 319.034 275.672 319.199 281.71C319.295 285.062 319.279 288.422 319.199 291.774C319.189 295.174 318.922 298.567 318.399 301.926C318.303 302.462 317.431 302.486 317.399 301.926C317.239 299.102 317.351 296.262 317.399 293.438C317.447 290.614 317.399 287.838 317.271 285.094C317.063 279.494 316.655 273.894 315.991 268.294C315.415 263.406 314.959 258.39 313.495 253.67C312.183 249.414 309.711 244.55 305.399 242.678C299.511 240.134 293.759 244.79 289.911 248.726C289.783 248.798 289.599 248.63 289.711 248.526Z" fill="#263238"/>
<path d="M271.832 256.385C271.832 257.105 271.896 257.809 271.944 258.505C273.63 257.241 275.604 256.416 277.688 256.105C282.664 255.577 282.344 259.353 279.024 259.513C276.684 259.542 274.37 260.006 272.2 260.881C273 267.449 274.816 272.729 275.088 272.801C279.501 272.572 283.893 272.038 288.232 271.201C286.992 268.561 284.176 265.057 285.616 264.801C287.056 264.545 288.616 267.633 289.416 270.985C292.68 270.362 295.89 269.482 299.016 268.353C296.824 266.457 293.416 264.097 294.736 263.097C296.056 262.097 298.736 265.409 300.336 267.825C301.802 267.227 303.191 266.453 304.472 265.521C301.52 261.185 294.336 260.305 295.272 257.177C296.208 254.049 302.936 258.385 305.952 264.185C309.496 260.505 310.536 255.305 310.16 250.857C307.072 250.497 301.136 251.153 301.568 248.937C302 246.721 306.288 247.137 309.8 248.433C309.478 246.672 308.773 245.004 307.736 243.545C304.488 239.369 294.552 244.681 294.552 244.681C294.552 244.681 295.616 234.697 291.832 232.977C289.648 231.985 285.792 231.993 281.928 234.265C284.096 234.449 286.728 235.137 287.768 236.665C289.12 238.577 286.968 239.625 285.64 238.737C284.688 238.113 282.912 236.137 279.704 235.873C278.334 237.038 277.128 238.384 276.12 239.873C275.752 240.393 275.416 240.937 275.072 241.529C276.905 240.701 278.9 240.291 280.911 240.327C282.923 240.363 284.901 240.844 286.704 241.737C291.008 243.873 288.6 248.345 284.896 246.609C281.192 244.873 277.696 243.161 273.736 244.145C272.344 247.66 271.683 251.422 271.792 255.201C273.72 253.797 275.889 252.758 278.192 252.137C282.472 251.017 283.792 253.569 279.064 254.049C276.519 254.324 274.057 255.119 271.832 256.385ZM277.04 249.513C276.744 248.121 279.776 247.729 280.28 248.849C280.704 249.809 277.328 250.897 277.04 249.513ZM303.008 257.193C303.296 256.433 305.328 257.297 305.144 258.241C304.888 259.497 302.728 257.945 303.008 257.193ZM288.672 262.057C290.152 261.465 292.464 265.145 290.848 265.985C289.232 266.825 287.456 262.545 288.672 262.057Z" fill="#E61C50"/>
<path d="M275.664 272.07C277.896 268.342 280.104 264.598 282.448 260.934C283.536 259.23 284.68 257.558 285.864 255.918L285.336 255.79L284.448 255.622C283.76 255.502 283.072 255.406 282.376 255.334C281.68 255.262 281.072 255.23 280.416 255.222C279.718 255.184 279.018 255.221 278.328 255.334C278.313 255.334 278.299 255.329 278.288 255.318C278.278 255.308 278.272 255.293 278.272 255.278C278.272 255.264 278.278 255.249 278.288 255.239C278.299 255.228 278.313 255.222 278.328 255.222C279.024 255.222 279.736 255.158 280.432 255.15C281.128 255.142 281.792 255.15 282.464 255.198C283.099 255.233 283.732 255.299 284.36 255.398C284.712 255.446 285.056 255.51 285.4 255.574C285.613 255.608 285.824 255.654 286.032 255.71C287.24 254.046 288.496 252.422 289.792 250.822C285.934 248.949 281.829 247.637 277.6 246.926C277.528 246.926 277.56 246.806 277.6 246.814C281.899 247.411 286.078 248.68 289.984 250.574L292.136 247.958C292.936 246.99 293.808 246.038 294.536 245.014C294.584 244.942 294.68 245.014 294.632 245.078C293.625 246.18 292.68 247.337 291.8 248.542C293.396 249.65 294.915 250.866 296.344 252.182C297.827 253.5 299.272 254.86 300.68 256.262C300.736 256.31 300.68 256.39 300.6 256.342C299.208 254.958 297.768 253.638 296.264 252.382C294.76 251.126 293.168 249.982 291.656 248.742C291.312 249.206 290.968 249.662 290.616 250.11C290.44 250.334 290.272 250.566 290.096 250.798L290.056 250.846C289.472 251.598 288.896 252.358 288.32 253.118C288.996 254.097 289.575 255.139 290.048 256.23C290.544 257.278 290.984 258.366 291.384 259.43C292.183 261.71 292.803 264.047 293.24 266.422C293.24 266.486 293.152 266.518 293.136 266.422C292.66 264.082 291.98 261.788 291.104 259.566C290.672 258.43 290.176 257.318 289.672 256.206C289.168 255.094 288.64 254.23 288.208 253.206C287.712 253.87 287.208 254.542 286.72 255.214C286.576 255.406 286.44 255.606 286.304 255.806C286.304 255.846 286.304 255.902 286.256 255.91C284.72 258.046 283.264 260.238 281.848 262.454C281.932 262.606 281.996 262.767 282.04 262.934C282.128 263.206 282.216 263.478 282.296 263.734C282.455 264.282 282.586 264.837 282.688 265.398C282.776 265.918 282.856 266.454 282.904 266.998C282.917 267.603 282.963 268.207 283.04 268.806C283.04 268.894 282.912 268.902 282.928 268.806C282.968 268.244 282.927 267.678 282.808 267.126C282.728 266.55 282.616 265.974 282.488 265.406C282.36 264.838 282.224 264.382 282.072 263.878C282 263.63 281.92 263.374 281.832 263.126C281.744 262.878 281.72 262.854 281.672 262.718C281.008 263.758 280.352 264.798 279.704 265.854C278.424 267.942 277.152 270.03 275.864 272.118C275.858 272.145 275.841 272.168 275.818 272.182C275.794 272.196 275.766 272.201 275.74 272.194C275.713 272.188 275.691 272.171 275.676 272.148C275.662 272.125 275.658 272.097 275.664 272.07Z" fill="#263238"/>
<path d="M310.072 300.719C310.128 298.607 310.464 296.471 310.696 294.375C310.928 292.279 311.16 290.151 311.384 288.039C311.824 283.967 312.064 279.807 312.984 275.815C313.693 272.342 315.423 269.161 317.952 266.679C319.264 265.367 320.987 264.545 322.832 264.351C324.687 264.3 326.506 264.862 328.008 265.951C329.717 267.215 331.19 268.769 332.36 270.543C333.625 272.296 334.762 274.138 335.76 276.055C335.76 276.127 335.68 276.175 335.64 276.103C333.757 272.903 331.262 270.105 328.296 267.871C326.975 266.787 325.364 266.116 323.664 265.943C322.835 265.928 322.01 266.079 321.24 266.387C320.469 266.694 319.768 267.153 319.176 267.735C316.712 269.879 315.28 273.031 314.432 276.127C313.424 279.791 313.104 283.655 312.6 287.415C312.296 289.647 312.016 291.887 311.72 294.127C311.424 296.367 311.24 298.631 310.768 300.823C310.734 300.894 310.678 300.952 310.609 300.989C310.539 301.026 310.46 301.04 310.382 301.028C310.304 301.017 310.232 300.98 310.176 300.925C310.12 300.869 310.084 300.797 310.072 300.719Z" fill="#263238"/>
<path d="M320.471 284.304C321.123 285.189 321.896 285.978 322.767 286.648C322.423 284.592 321.967 280.92 323.039 278.976C324.639 275.944 326.575 277.456 325.607 280.088C324.643 282.464 324.117 284.996 324.055 287.56C326.256 288.936 328.61 290.048 331.071 290.872C330.812 289.685 330.733 288.466 330.839 287.256C331.167 284.016 333.647 284.056 332.999 287.448C332.759 288.751 332.647 290.075 332.663 291.4C336.243 292.503 339.901 293.33 343.607 293.872C345.498 291.417 347.024 288.7 348.135 285.808C345.495 285.152 340.135 285.008 340.271 283.112C340.423 280.576 345.591 282.528 348.623 284.368C349.314 282.162 349.622 279.854 349.535 277.544C347.162 276.884 344.723 276.481 342.263 276.344C336.831 275.872 337.095 272.792 341.031 272.864C343.935 272.92 347.607 274.696 349.351 275.624C348.215 268.232 342.583 263.504 338.063 263.32C330.471 263.016 333.207 272.464 333.207 272.464C333.207 272.464 328.055 268.848 323.199 268.944C318.343 269.04 315.279 277.08 320.471 284.304ZM340.751 270.64C340.583 269.576 343.951 269.32 344.151 270.688C344.351 272.216 340.919 271.72 340.751 270.64ZM346.207 281.728C346.135 281.032 347.599 280.928 347.927 281.784C348.151 282.4 346.263 282.4 346.207 281.728ZM327.999 282.4C329.143 282.56 329.799 286.656 327.823 286.576C326.295 286.488 326.999 282.24 327.999 282.4Z" fill="#E61C50"/>
<path d="M329.552 286.919C329.744 286.407 329.912 285.895 330.072 285.375C329.928 285.895 329.792 286.423 329.696 286.975C329.692 286.984 329.687 286.993 329.68 287C329.673 287.008 329.665 287.014 329.655 287.018C329.646 287.022 329.636 287.024 329.626 287.024C329.616 287.024 329.606 287.023 329.596 287.019C329.587 287.015 329.578 287.01 329.571 287.003C329.563 286.996 329.557 286.987 329.553 286.978C329.549 286.969 329.547 286.959 329.547 286.949C329.547 286.939 329.548 286.928 329.552 286.919Z" fill="#263238"/>
<path d="M331.56 280.344C331.912 279.296 332.312 278.256 332.72 277.224C332.936 276.68 333.168 276.128 333.408 275.624C333.576 275.143 333.802 274.683 334.08 274.256C333.847 273.826 333.641 273.383 333.464 272.928C333.464 272.888 333.504 272.848 333.536 272.888C334.098 273.606 334.593 274.375 335.016 275.184C335.232 275.536 335.432 275.904 335.632 276.264C336.062 276.302 336.49 276.369 336.912 276.464C337.368 276.544 337.824 276.64 338.272 276.744C338.72 276.848 339.176 276.944 339.624 277.056C340.072 277.168 340.52 277.312 340.976 277.376C341.08 277.376 341.032 277.56 340.936 277.52C340.472 277.357 339.996 277.234 339.512 277.152C339.08 277.056 338.64 276.976 338.2 276.92C337.76 276.864 337.32 276.8 336.872 276.752L335.872 276.672C336.048 276.992 336.24 277.304 336.416 277.624C336.439 277.679 336.466 277.732 336.496 277.784C336.862 277.779 337.228 277.822 337.584 277.912C337.976 277.984 338.384 278.056 338.76 278.144C339.56 278.32 340.36 278.504 341.12 278.72C342.768 279.184 344.384 279.704 346.008 280.232C346.096 280.232 346.008 280.4 345.952 280.368C344.339 279.829 342.699 279.375 341.04 279.008C340.24 278.832 339.488 278.656 338.712 278.496L337.536 278.248C337.23 278.198 336.928 278.129 336.632 278.04C337.432 279.584 338.232 281.16 338.976 282.76C340.576 286.24 341.88 289.832 343.232 293.408C343.232 293.496 343.128 293.552 343.096 293.464C341.791 289.912 340.279 286.439 338.568 283.064C338.264 282.448 337.952 281.84 337.648 281.216C337.648 281.344 337.592 281.472 337.568 281.6C337.488 282.016 337.416 282.44 337.344 282.864C337.2 283.712 337.056 284.56 336.928 285.408C336.566 287.146 336.363 288.913 336.32 290.688C336.32 290.8 336.152 290.792 336.168 290.688C336.304 289.848 336.304 288.968 336.36 288.12C336.416 287.272 336.48 286.336 336.584 285.456C336.688 284.576 336.792 283.752 336.936 282.904C337.008 282.48 337.08 282.056 337.16 281.632C337.179 281.313 337.258 281.001 337.392 280.712C336.952 279.824 336.512 278.928 336.056 278.04C335.6 277.152 335.208 276.368 334.776 275.544C334.592 275.192 334.392 274.84 334.2 274.48C334.06 274.917 333.892 275.345 333.696 275.76L333.112 277.2C332.672 278.256 332.272 279.328 331.864 280.4C331.288 281.92 330.656 283.472 330.184 285.056C330.648 283.456 331.04 281.872 331.56 280.344Z" fill="#263238"/>
<path d="M330.072 285.376C330.072 285.248 330.144 285.128 330.184 285.008C330.144 285.128 330.112 285.248 330.072 285.376Z" fill="#263238"/>
<path d="M297.376 296.605L297.912 307.909L299.28 337.045H329.344L330.72 307.909L331.248 296.605H297.376Z" fill="#37474F"/>
<path d="M297.376 296.605L297.912 307.909H330.72L331.248 296.605H297.376Z" fill="#263238"/>
<path d="M295.232 301.176H333.384V292.032H295.232V301.176Z" fill="#37474F"/>
<path d="M326.912 337.047H321.632V341.831H326.912V337.047Z" fill="#37474F"/>
<path d="M326.912 337.047H321.632V339.439H326.912V337.047Z" fill="#263238"/>
<path d="M306.992 337.047H301.72V341.831H306.992V337.047Z" fill="#37474F"/>
<path d="M306.992 337.047H301.72V339.439H306.992V337.047Z" fill="#263238"/>
<path d="M32.5039 341.951L74.3759 341.759L116.248 341.687L200 341.551L283.752 341.687L325.624 341.759L367.496 341.951L325.624 342.151L283.752 342.215L200 342.351L116.248 342.215L74.3759 342.151L32.5039 341.951Z" fill="#263238"/>
<path d="M200.184 237.674C199.304 237.674 198.384 237.674 197.464 237.618V237.018C198.392 237.058 199.328 237.074 200.216 237.074H200.648V237.674H200.16H200.184ZM204.688 237.53L204.648 236.93C205.712 236.858 206.776 236.762 207.848 236.634L207.92 237.234C206.84 237.354 205.76 237.458 204.688 237.53ZM193.488 237.362C192.448 237.266 191.368 237.154 190.288 237.018L190.36 236.418C191.432 236.554 192.496 236.674 193.56 236.762L193.488 237.362ZM211.888 236.61L211.768 236.026C212.816 235.818 213.856 235.586 214.872 235.322L215.024 235.906C213.976 236.17 212.92 236.41 211.864 236.61H211.888ZM186.288 236.418C185.24 236.234 184.176 236.034 183.136 235.818L183.256 235.234C184.296 235.45 185.352 235.65 186.392 235.826L186.288 236.418ZM179.2 234.922C178.152 234.666 177.112 234.386 176.096 234.122L176.256 233.546C177.264 233.834 178.304 234.114 179.344 234.346L179.2 234.922ZM218.824 234.73L218.624 234.162C219.632 233.81 220.624 233.418 221.584 233.002L221.824 233.546C220.88 233.97 219.872 234.402 218.848 234.73H218.824ZM172.256 232.906C170.344 232.274 169.232 231.818 169.216 231.818L169.448 231.258C169.448 231.258 170.552 231.706 172.448 232.338L172.256 232.906ZM225.432 231.762L225.136 231.234C226.056 230.722 226.968 230.162 227.848 229.578L228.176 230.082C227.312 230.674 226.4 231.202 225.456 231.762H225.432ZM231.432 227.722L231.064 227.25C231.912 226.594 232.744 225.922 233.536 225.242L233.928 225.698C233.152 226.402 232.312 227.066 231.456 227.722H231.432ZM236.888 222.986L236.472 222.554C237.224 221.81 237.968 221.042 238.68 220.266L239.12 220.674C238.4 221.458 237.68 222.234 236.912 222.986H236.888ZM241.728 217.61L241.256 217.242C241.92 216.442 242.56 215.546 243.16 214.69L243.656 215.034C243.064 215.906 242.4 216.802 241.752 217.602L241.728 217.61ZM245.84 211.666L245.328 211.354C245.88 210.442 246.4 209.506 246.888 208.578L247.416 208.858C246.952 209.794 246.4 210.738 245.864 211.666H245.84ZM249.144 205.226L248.6 204.986C249.008 204.034 249.4 203.034 249.776 202.034L250.344 202.242C249.992 203.258 249.6 204.258 249.168 205.226H249.144ZM251.584 198.418L251.008 198.25C251.304 197.242 251.568 196.202 251.808 195.17L252.392 195.306C252.176 196.346 251.904 197.394 251.608 198.402L251.584 198.418ZM253.136 191.354L252.544 191.258C252.704 190.218 252.832 189.154 252.936 188.106L253.528 188.162C253.456 189.226 253.32 190.298 253.16 191.354H253.136ZM253.776 184.154H253.176C253.176 183.69 253.176 183.226 253.176 182.762C253.176 182.162 253.176 181.562 253.176 180.97H253.776C253.776 181.57 253.776 182.17 253.776 182.778C253.816 183.202 253.808 183.674 253.8 184.146L253.776 184.154ZM256.792 183.458C256.36 183.458 255.936 183.458 255.504 183.458V182.858C256.556 182.918 257.611 182.918 258.664 182.858L258.704 183.458C258.12 183.426 257.464 183.45 256.8 183.45L256.792 183.458ZM251.496 182.978C250.435 182.785 249.386 182.537 248.352 182.234L248.52 181.658C249.533 181.955 250.561 182.198 251.6 182.386L251.496 182.978ZM262.736 182.842L262.616 182.258C263.649 182.051 264.67 181.784 265.672 181.458L265.856 182.026C264.84 182.355 263.807 182.624 262.76 182.834L262.736 182.842ZM244.592 180.802C243.61 180.357 242.654 179.858 241.728 179.306L242.032 178.794C242.94 179.331 243.877 179.817 244.84 180.25L244.592 180.802ZM269.608 180.426L269.344 179.89C270.285 179.408 271.198 178.874 272.08 178.29L272.408 178.786C271.504 179.39 270.567 179.943 269.6 180.442L269.608 180.426ZM238.408 177.01C237.88 176.586 237.352 176.13 236.848 175.658C236.56 175.386 236.28 175.114 236.048 174.858L236.472 174.434C236.736 174.706 237.008 174.97 237.272 175.234C237.768 175.698 238.28 176.138 238.8 176.562L238.408 177.01ZM252.92 176.962C252.8 175.898 252.648 174.842 252.472 173.818L253.064 173.714C253.248 174.754 253.4 175.826 253.512 176.914L252.92 176.962ZM275.624 176.346L275.224 175.898C276.017 175.199 276.77 174.457 277.48 173.674L277.92 174.082C277.195 174.884 276.425 175.645 275.616 176.362L275.624 176.346ZM233.472 171.682C232.873 170.781 232.379 169.815 232 168.802L232.56 168.602C232.92 169.581 233.387 170.517 233.952 171.394L233.472 171.682ZM280.44 170.882L279.944 170.538C280.4 169.898 280.832 169.218 281.24 168.538C281.376 168.314 281.512 168.09 281.64 167.858L282.16 168.154C282.024 168.386 281.896 168.618 281.76 168.842C281.336 169.602 280.888 170.282 280.432 170.938L280.44 170.882ZM251.64 169.898C251.352 168.842 251.032 167.826 250.68 166.874L251.248 166.666C251.6 167.634 251.928 168.666 252.216 169.738L251.64 169.898ZM231.944 164.802H231.344C231.381 163.701 231.62 162.616 232.048 161.602L232.6 161.834C232.206 162.776 231.984 163.781 231.944 164.802ZM283.944 164.642L283.4 164.41C283.8 163.466 284.2 162.466 284.544 161.45L285.112 161.642C284.744 162.642 284.352 163.65 283.936 164.602L283.944 164.642ZM249.04 163.362C248.545 162.438 247.967 161.563 247.312 160.746L247.776 160.362C248.455 161.209 249.055 162.117 249.568 163.074L249.04 163.362ZM234.904 158.762L234.536 158.298C235.401 157.601 236.396 157.084 237.464 156.778L237.624 157.354C236.633 157.626 235.706 158.091 234.896 158.722L234.904 158.762ZM244.344 158.266C243.442 157.757 242.464 157.398 241.448 157.202L241.56 156.61C242.64 156.823 243.68 157.206 244.64 157.746L244.344 158.266ZM286.28 157.794L285.696 157.642C285.952 156.69 286.2 155.674 286.456 154.546L287.04 154.674C286.776 155.778 286.528 156.802 286.272 157.754L286.28 157.794ZM287.88 150.754L287.288 150.634L287.904 147.498L288.488 147.61L287.88 150.754ZM289.304 143.706L288.72 143.57C288.976 142.418 289.232 141.394 289.52 140.45L290.096 140.61C289.784 141.506 289.528 142.522 289.272 143.666L289.304 143.706ZM291.304 136.834L290.744 136.626C291.101 135.593 291.521 134.583 292 133.602L292.536 133.874C292.061 134.826 291.639 135.803 291.272 136.802L291.304 136.834ZM294.64 130.586L294.152 130.226C294.791 129.358 295.488 128.534 296.24 127.762L296.664 128.178C295.926 128.92 295.239 129.711 294.608 130.546L294.64 130.586ZM299.64 125.602L299.28 125.114C300.151 124.481 301.057 123.896 301.992 123.362L302.288 123.89C301.36 124.405 300.465 124.977 299.608 125.602H299.64ZM305.84 122.154L305.6 121.602C306.44 121.25 307.328 120.914 308.248 120.602L308.44 121.17C307.504 121.434 306.632 121.762 305.808 122.114L305.84 122.154Z" fill="#263238"/>
<path d="M306.568 108.353L300.448 125.169L313.304 115.129L362.44 97.3125L306.568 108.353Z" fill="#E61C50"/>
<path opacity="0.1" d="M306.568 108.353L300.448 125.169L313.304 115.129L362.44 97.3125L306.568 108.353Z" fill="black"/>
<path d="M314.952 119.049L300.448 125.169L313.304 115.129L314.952 119.049Z" fill="#263238"/>
<path d="M313.304 115.129L362.44 97.3125L322.136 136.641L313.304 115.129Z" fill="#E61C50"/>
<path d="M306.567 108.352L286.151 95.168L362.439 97.312L306.567 108.352Z" fill="#E61C50"/>
<path d="M66.7362 341.822L200 342.398C232.392 316.966 235.736 279.278 212.624 256.438C198.648 242.614 180.888 245.398 164 243.198H163.952C158.064 242.398 152.288 241.062 146.8 238.166C129.384 228.982 119.6 207.31 104.92 189.078C103.096 186.798 101.184 184.574 99.1842 182.43C87.1362 169.566 63.1842 169.15 50.6162 187.23C18.7282 233.174 33.3202 301.598 66.7362 341.822Z" fill="#E61C50"/>
<path opacity="0.1" d="M63.7763 236.681C67.2643 291.361 130.416 311.769 169.848 295.393C204.144 281.145 192.92 248.641 164 243.201H163.952C158.064 242.401 152.288 241.065 146.8 238.169C129.384 228.985 119.6 207.313 104.92 189.081C83.0723 177.737 61.2163 196.649 63.7763 236.681Z" fill="black"/>
<path d="M189.241 350.399C187.185 349.647 140.737 312.527 139.865 309.991C139.529 309.031 144.537 301.991 150.833 293.567C152.193 291.759 153.609 289.895 155.057 288.015C164.441 275.783 174.689 263.031 174.689 263.031L205.833 287.767L185.345 312.079L180.849 317.415C180.849 317.415 192.273 339.583 192.937 342.463C193.601 345.343 191.297 351.199 189.241 350.399Z" fill="#D3766A"/>
<path d="M189.24 350.402C187.184 349.602 140.744 312.53 139.864 309.994C139.584 309.194 142.848 304.394 147.472 298.098C154.224 306.17 177.768 330.202 184.2 333.418C188.28 335.458 187.472 331.45 185.944 327.466C189.08 333.73 192.576 340.906 192.936 342.458C193.6 345.378 191.296 351.202 189.24 350.402Z" fill="#263238"/>
<path d="M237.28 240.23C235.152 256.406 195.28 303.11 190.672 308.47L189.6 309.686L156.64 284.342L157.016 283.854L186.064 245.822C186.064 245.822 138.064 273.822 114.008 261.126C103.2 255.414 95.2002 245.262 95.2002 245.262L126.56 228.542C126.56 228.542 135.24 231.35 140.784 230.542C159.904 227.742 202.744 211.478 212.912 211.886C226.04 212.422 239.24 225.382 237.28 240.23Z" fill="#37474F"/>
<path d="M196.497 231.69C195.417 232.905 194.415 234.188 193.497 235.53C192.473 236.882 191.425 238.21 190.401 239.53V239.57C190.585 239.17 190.761 238.77 190.953 238.386C191.601 237.042 192.121 235.658 192.881 234.386C192.885 234.37 192.885 234.354 192.879 234.339C192.873 234.323 192.863 234.311 192.849 234.302C192.835 234.294 192.819 234.291 192.803 234.293C192.787 234.295 192.772 234.302 192.761 234.314C191.961 235.586 191.065 236.794 190.361 238.13C190.041 238.762 189.745 239.402 189.465 240.05C189.313 240.402 189.153 240.762 189.017 241.122C188.942 241.291 188.877 241.464 188.825 241.642C188.369 242.266 187.913 242.89 187.473 243.53C186.497 244.946 185.633 246.442 184.641 247.85C184.585 247.922 184.705 247.994 184.761 247.922C185.761 246.602 186.889 245.37 187.905 244.058C188.921 242.746 189.929 241.354 190.897 239.97C191.865 238.586 192.769 237.258 193.721 235.906C194.756 234.575 195.71 233.183 196.577 231.738C196.601 231.706 196.537 231.65 196.497 231.69Z" fill="#263238"/>
<path d="M89.9922 185.032C89.5522 194.68 87.4082 206.192 91.4962 215.328C94.6962 222.48 101.456 227.328 108.432 230.4C123.792 237.192 145.288 238.08 156.048 222.832C160.344 216.744 161.08 204.056 153.952 199.416C150.296 197.016 145.952 196.488 141.808 195.368C139.228 194.767 136.817 193.592 134.755 191.93C132.692 190.267 131.031 188.161 129.896 185.768C124.96 175.872 125.944 168.632 125.008 157.928C124.987 156.864 124.745 155.816 124.295 154.852C123.846 153.888 123.201 153.028 122.4 152.328C120.642 150.597 118.446 149.378 116.048 148.8C114.003 147.908 111.768 147.539 109.544 147.728C104.808 148.224 100.256 152.592 96.5842 155.312C92.9122 158.032 91.1682 160.912 90.8802 165.608C90.4882 172.064 90.2882 178.552 89.9922 185.032Z" fill="#263238"/>
<path d="M88.7998 189.6C89.7758 180.8 90.9118 172 91.9998 163.2C91.9998 163.152 92.0878 163.152 92.0798 163.2C91.3998 170.464 90.8158 177.736 90.0398 184.992C89.2398 192.112 88.0078 199.392 87.8718 206.536C87.5678 222.608 104.096 229.144 117.76 228.36C118.384 228.36 118.368 229.32 117.76 229.336C105.76 229.648 91.3998 225.544 87.7678 212.48C85.7518 205.312 87.9998 196.8 88.7998 189.6Z" fill="#263238"/>
<path d="M124.233 157.08C124.233 156.912 124.489 156.92 124.497 157.08C124.897 165.88 124.497 176.28 129.569 183.952C132.047 187.744 135.618 190.695 139.809 192.416C143.129 193.768 146.649 193.888 150.113 194.568C163.713 197.232 163.817 215.552 153.953 222.696C153.745 222.848 153.481 222.496 153.681 222.336C160.625 216.808 162.913 206.752 157.257 199.376C152.713 193.456 143.993 195.376 137.801 192.176C124.969 185.52 124.001 169.912 124.233 157.08Z" fill="#263238"/>
<path d="M110.344 195.464C116.216 203.896 136.272 227.064 150.192 230.232C157.864 231.984 194.92 237.168 200 232.544C205.952 227.128 203.2 206.728 198.464 206.544C184.024 205.976 157.312 208.8 150.64 207.344C147.624 206.672 131.624 196.352 114.536 188.096C108.072 184.96 106.552 190.024 110.344 195.464Z" fill="#D3766A"/>
<path d="M124.68 215.672L130.28 195.04C130.28 195.04 120.88 189.824 115.272 187.672C107.848 184.824 105.048 186.872 109.6 195.528C112.656 201.296 124.68 215.672 124.68 215.672Z" fill="#EBEBEB"/>
<path d="M123.296 213.047C123.904 209.991 124.552 206.943 125.336 203.927C125.728 202.423 126.136 200.919 126.584 199.431C127.032 197.943 127.616 196.488 128.024 194.992C128.024 194.912 128.184 194.952 128.152 194.992C127.664 196.464 127.352 198.015 126.952 199.511C126.552 201.007 126.152 202.511 125.736 204.015C124.936 207.023 124.136 210.031 123.416 213.047C123.4 213.175 123.28 213.135 123.296 213.047Z" fill="#263238"/>
<path d="M129.408 198.287L124.68 215.679C124.68 215.679 112.68 201.279 109.608 195.527C108.208 192.863 107.496 190.823 107.416 189.367L129.408 198.287Z" fill="#263238"/>
<path d="M80.1602 252.569C82.0082 253.169 134.432 237.993 134.432 237.993L128.24 219.793C128.24 219.793 131.304 213.937 129.84 208.305C127.944 200.785 114.016 188.417 112.928 187.689C108.576 184.801 104.456 184.801 100.8 186.761C85.6562 194.817 80.1602 252.569 80.1602 252.569Z" fill="#EBEBEB"/>
<path d="M120.16 194.241C121.512 195.841 122.96 197.313 124.352 198.849C123.704 197.705 123.056 196.553 122.368 195.425C123.387 196.747 124.277 198.164 125.024 199.657C126.07 200.821 127.035 202.056 127.912 203.353C128.998 204.893 129.81 206.609 130.312 208.425C130.746 210.261 130.801 212.167 130.472 214.025C130.071 216.164 129.48 218.263 128.704 220.297C128.608 220.569 128.224 220.393 128.296 220.129C129.28 216.577 130.4 212.825 129.608 209.113C128.816 205.401 126.528 202.345 124.296 199.425C122.983 197.641 121.558 195.942 120.032 194.337C120 194.265 120.096 194.177 120.16 194.241Z" fill="#263238"/>
<path d="M111.424 218.482C113.679 218.048 115.962 217.78 118.256 217.682C119.392 217.682 120.528 217.682 121.664 217.738C122.232 217.738 122.8 217.738 123.368 217.738C123.962 217.757 124.556 217.703 125.136 217.578C125.184 217.578 125.208 217.642 125.136 217.658C124.613 217.834 124.078 217.975 123.536 218.082C123.007 218.165 122.472 218.213 121.936 218.226C120.776 218.226 119.624 218.226 118.464 218.274C116.136 218.322 113.8 218.37 111.48 218.594C111.336 218.682 111.32 218.498 111.424 218.482Z" fill="#263238"/>
<path d="M106.536 221.952C108.293 221.255 110.088 220.657 111.912 220.16C112.832 219.912 113.752 219.728 114.68 219.56L116.024 219.344C116.512 219.272 117.016 219.264 117.504 219.184C117.56 219.184 117.584 219.256 117.504 219.264C117.04 219.352 116.592 219.52 116.144 219.632L114.768 219.976C113.856 220.208 112.944 220.456 112.024 220.68C110.192 221.128 108.368 221.592 106.552 222.104C106.535 222.1 106.52 222.092 106.508 222.079C106.497 222.066 106.49 222.05 106.488 222.033C106.486 222.016 106.49 221.999 106.498 221.985C106.507 221.97 106.52 221.958 106.536 221.952Z" fill="#263238"/>
<path d="M104.088 187.783C104.296 188.735 108.736 194.983 113.072 194.807C114.48 194.759 114.56 187.047 114.56 187.047L114.696 186.479L116.6 178.519L105.96 171.551C105.96 171.551 104 187.375 104.088 187.783Z" fill="#D3766A"/>
<path d="M116.601 178.514L114.697 186.514C112.553 185.673 110.61 184.392 108.992 182.754C107.374 181.115 106.118 179.156 105.305 177.002C105.633 174.258 105.913 171.978 105.953 171.642C105.954 171.626 105.954 171.61 105.953 171.594L107.305 172.394L116.601 178.514Z" fill="#263238"/>
<path d="M126.912 163.857C130.456 177.777 122.52 181.457 119.52 182.257C116.792 182.945 107.432 184.953 102.472 171.481C97.5119 158.009 102.864 151.961 109.008 150.049C115.152 148.137 123.376 149.945 126.912 163.857Z" fill="#D3766A"/>
<path d="M124.24 162.127C123.904 162.127 123.584 162.127 123.248 162.127C122.897 162.166 122.542 162.087 122.24 161.903C122.157 161.826 122.102 161.724 122.083 161.613C122.065 161.501 122.083 161.387 122.136 161.287C122.267 161.105 122.444 160.961 122.65 160.871C122.855 160.781 123.081 160.748 123.304 160.775C123.768 160.759 124.221 160.916 124.576 161.215C124.645 161.289 124.692 161.38 124.712 161.479C124.732 161.578 124.724 161.68 124.689 161.775C124.654 161.869 124.594 161.952 124.515 162.014C124.435 162.077 124.34 162.116 124.24 162.127Z" fill="#263238"/>
<path d="M114.88 165.057C115.208 164.953 115.488 164.809 115.8 164.681C116.14 164.591 116.442 164.395 116.664 164.121C116.715 164.02 116.731 163.906 116.711 163.795C116.691 163.683 116.635 163.582 116.552 163.505C116.364 163.38 116.147 163.308 115.922 163.295C115.696 163.282 115.472 163.33 115.272 163.433C114.833 163.58 114.465 163.885 114.24 164.289C114.192 164.384 114.172 164.491 114.184 164.597C114.196 164.702 114.239 164.802 114.307 164.884C114.375 164.966 114.465 165.026 114.567 165.057C114.669 165.087 114.778 165.088 114.88 165.057Z" fill="#263238"/>
<path d="M117.264 166.809C117.264 166.809 117.2 166.865 117.208 166.905C117.44 167.857 117.536 168.985 116.736 169.481C116.736 169.481 116.736 169.545 116.736 169.529C117.784 169.169 117.6 167.673 117.264 166.809Z" fill="#263238"/>
<path d="M116.208 165.983C114.608 166.183 115.152 169.295 116.608 169.111C118.064 168.927 117.52 165.815 116.208 165.983Z" fill="#263238"/>
<path d="M115.624 166.25C115.376 166.466 115.16 166.826 114.824 166.914C114.488 167.002 114.112 166.73 113.808 166.458C113.808 166.458 113.76 166.458 113.76 166.506C113.856 167.106 114.184 167.674 114.84 167.658C115.496 167.642 115.768 167.05 115.816 166.426C115.84 166.306 115.72 166.162 115.624 166.25Z" fill="#263238"/>
<path d="M122.801 165.602C122.801 165.602 122.881 165.642 122.889 165.682C123.009 166.65 123.313 167.738 124.233 167.922V167.978C123.145 167.954 122.761 166.506 122.801 165.602Z" fill="#263238"/>
<path d="M123.504 164.416C125.04 164.056 125.648 167.152 124.224 167.488C122.8 167.824 122.216 164.72 123.504 164.416Z" fill="#263238"/>
<path d="M124.192 164.495C124.464 164.607 124.768 164.863 125.064 164.823C125.36 164.783 125.592 164.391 125.744 164.023C125.744 164.023 125.792 164.023 125.8 164.023C125.928 164.607 125.856 165.263 125.312 165.487C124.768 165.711 124.328 165.263 124.072 164.687C124 164.631 124.08 164.447 124.192 164.495Z" fill="#263238"/>
<path d="M118.552 175.37C118.808 175.578 119.064 175.866 119.424 175.866C119.786 175.826 120.135 175.708 120.448 175.522C120.448 175.522 120.512 175.522 120.496 175.57C120.374 175.774 120.198 175.942 119.988 176.054C119.778 176.167 119.542 176.221 119.304 176.21C119.107 176.169 118.927 176.072 118.785 175.929C118.642 175.787 118.545 175.607 118.504 175.41C118.44 175.362 118.512 175.338 118.552 175.37Z" fill="#263238"/>
<path d="M122.104 170.951C122.31 171.64 122.481 172.34 122.616 173.047C122.616 173.111 122.464 173.167 122.24 173.215C121.672 173.408 121.061 173.441 120.475 173.31C119.89 173.178 119.352 172.888 118.92 172.471C118.908 172.458 118.901 172.442 118.9 172.425C118.9 172.407 118.905 172.39 118.916 172.377C118.926 172.363 118.942 172.354 118.959 172.351C118.976 172.347 118.993 172.35 119.008 172.359C119.963 172.827 121.044 172.97 122.088 172.767C122.088 172.575 121.288 170.367 121.408 170.367C121.945 170.341 122.482 170.384 123.008 170.495C122.208 167.519 120.984 164.695 120.256 161.695C120.254 161.675 120.259 161.654 120.269 161.637C120.279 161.619 120.295 161.606 120.314 161.598C120.333 161.59 120.353 161.588 120.373 161.592C120.393 161.597 120.411 161.607 120.424 161.623C121.856 164.606 122.985 167.726 123.792 170.935C123.872 171.335 122.4 171.031 122.104 170.951Z" fill="#263238"/>
<path d="M122.168 172.951C121.892 173.583 121.46 174.134 120.912 174.551C120.607 174.772 120.24 174.89 119.864 174.887C119.064 174.887 118.848 174.175 118.84 173.535C118.839 173.196 118.877 172.858 118.952 172.527C119.952 173.007 121.078 173.155 122.168 172.951Z" fill="#263238"/>
<path d="M120.912 174.545C120.607 174.766 120.24 174.884 119.864 174.881C119.064 174.881 118.848 174.169 118.84 173.529C119.249 173.442 119.675 173.495 120.051 173.679C120.427 173.864 120.73 174.168 120.912 174.545Z" fill="#FF9CBD"/>
<path d="M103.464 172.488C104.968 171.992 107.808 166.744 105.96 159.36C105.96 159.36 107.16 166.104 106.92 167.2C106.68 168.296 108.52 164.256 107.104 158.28C109.326 159.116 111.657 159.631 114.024 159.808C117.032 159.808 118.744 159.36 118.888 159.104C119.032 158.848 114.568 158.648 113.112 157.664C113.112 157.664 121.48 159.128 124.984 158.464C125.392 158.392 123.68 150.104 117.448 148.064C111.216 146.024 103.808 152.008 102.136 154.8C102.136 154.8 99.5763 155.888 97.7443 160.584C95.9123 165.28 101.856 173.024 103.464 172.488Z" fill="#263238"/>
<path d="M104.952 171.951C104.952 171.951 101.136 168.039 99.3524 169.471C97.5684 170.903 100.904 176.927 103.4 177.415C103.716 177.505 104.047 177.528 104.373 177.485C104.698 177.441 105.011 177.331 105.292 177.162C105.573 176.992 105.817 176.767 106.007 176.499C106.198 176.232 106.332 175.928 106.4 175.607L104.952 171.951Z" fill="#D3766A"/>
<path d="M100.32 171.2C100.28 171.2 100.28 171.256 100.32 171.264C102.08 171.656 103.2 173.048 104.072 174.536C103.946 174.389 103.789 174.271 103.613 174.19C103.437 174.109 103.246 174.068 103.052 174.068C102.858 174.068 102.667 174.109 102.491 174.19C102.315 174.271 102.158 174.389 102.032 174.536C101.992 174.536 102.032 174.632 102.096 174.616C102.37 174.475 102.682 174.423 102.988 174.467C103.293 174.512 103.577 174.65 103.8 174.864C104.173 175.206 104.508 175.587 104.8 176C104.904 176.136 105.152 176 105.072 175.848C104.736 173.696 102.616 171.016 100.32 171.2Z" fill="#263238"/>
<path d="M93.3123 199.585C89.0963 223.497 93.1763 241.409 97.2323 243.633C108.168 249.601 134.432 237.489 141.84 235.081C144.8 234.113 131.2 211.201 128.128 212.625C120.928 215.953 110.84 221.601 110.432 221.553C109.632 221.473 108.672 215.369 104.496 197.553C101.112 183.201 95.0403 189.809 93.3123 199.585Z" fill="#D3766A"/>
<path d="M165.712 201.288C166.464 204.296 158.896 205.512 158.896 205.512C160.154 205.964 161.215 206.841 161.896 207.992C163 210.072 160.216 212.704 160.216 212.704C161.422 213.442 162.379 214.527 162.96 215.816C163.816 217.912 161.36 220.976 161.36 220.976C162.094 222.266 162.338 223.777 162.048 225.232C161.12 229.088 155.208 230.608 151.736 232.272C148.016 234.056 141.856 234.712 139.064 235.968L126.96 213.792C126.96 213.792 138.656 201.408 145.36 199.488C149.064 198.4 164.568 196.696 165.712 201.288Z" fill="#D3766A"/>
<path d="M158.816 205.448C154.608 205.264 150.36 206.088 146.272 206.928C146.258 206.933 146.246 206.942 146.237 206.954C146.228 206.966 146.224 206.981 146.224 206.996C146.224 207.011 146.228 207.025 146.237 207.038C146.246 207.05 146.258 207.059 146.272 207.064C150.328 206.184 154.72 206.368 158.8 205.648C158.822 205.644 158.843 205.632 158.858 205.615C158.873 205.598 158.882 205.577 158.884 205.554C158.886 205.531 158.88 205.509 158.868 205.489C158.856 205.47 158.837 205.456 158.816 205.448Z" fill="#263238"/>
<path d="M160 212.434C159.04 212.483 158.09 212.658 157.176 212.954C156.192 213.21 155.216 213.482 154.232 213.754C152.28 214.33 150.336 214.946 148.416 215.618C148.328 215.618 148.352 215.786 148.416 215.762C150.36 215.194 152.32 214.658 154.296 214.162C155.28 213.914 156.272 213.682 157.256 213.45C158.208 213.285 159.138 213.017 160.032 212.65C160.045 212.634 160.055 212.615 160.061 212.596C160.067 212.576 160.068 212.555 160.065 212.534C160.062 212.514 160.055 212.494 160.044 212.477C160.032 212.459 160.017 212.445 160 212.434Z" fill="#263238"/>
<path d="M161.312 221C160.443 221.055 159.59 221.261 158.792 221.608L156.128 222.408C154.352 222.952 152.576 223.488 150.784 223.968C150.696 223.968 150.72 224.136 150.784 224.112C152.608 223.632 154.44 223.184 156.264 222.688C157.152 222.448 158.048 222.2 158.936 221.944C159.783 221.801 160.597 221.502 161.336 221.064C161.339 221.058 161.34 221.052 161.34 221.046C161.341 221.039 161.34 221.033 161.337 221.027C161.335 221.021 161.332 221.016 161.327 221.011C161.323 221.006 161.318 221.003 161.312 221Z" fill="#263238"/>
<path d="M110.4 221.552C113.264 219.904 116.168 218.352 119.08 216.752L123.488 214.464L125.704 213.352C126.458 212.96 127.235 212.615 128.032 212.32L127.888 212.4C129.84 210.504 131.8 208.624 133.872 206.856C134.896 205.968 135.936 205.088 137.016 204.264C138.081 203.412 139.216 202.652 140.408 201.992C139.284 202.742 138.215 203.571 137.208 204.472C136.184 205.352 135.168 206.248 134.176 207.176C132.208 209.032 130.232 210.888 128.328 212.776L128.28 212.816L128.184 212.856C127.504 213.104 126.72 213.512 125.992 213.848L123.76 214.936L119.336 217.152C116.376 218.664 113.424 220.144 110.4 221.552Z" fill="#263238"/>
<path d="M89.248 220.383L108.36 210.783C108.36 210.783 105.96 200.303 103.824 194.687C100.992 187.263 97.576 186.575 94.224 195.711C91.936 201.831 89.248 220.383 89.248 220.383Z" fill="#EBEBEB"/>
<path d="M90.2798 217.602C92.9598 216.002 95.6638 214.466 98.4318 213.042C99.8158 212.33 101.216 211.634 102.616 210.962C104.016 210.29 105.496 209.77 106.888 209.082C106.96 209.082 107.016 209.17 106.936 209.202C105.52 209.81 104.16 210.626 102.776 211.322C101.392 212.018 99.9918 212.714 98.6078 213.426C95.8398 214.842 93.0638 216.25 90.3278 217.73C90.2558 217.762 90.2078 217.642 90.2798 217.602Z" fill="#263238"/>
<path d="M91.5366 219.2C90.8006 219.648 90.0566 220.064 89.3206 220.488L89.0566 220.64L89.0966 220.328C89.3846 217.68 89.7606 215.056 90.2246 212.44C90.6886 209.824 91.2246 207.216 91.9366 204.656C91.7766 205.976 91.6006 207.288 91.4006 208.6C91.2006 209.912 91.0166 211.224 90.8006 212.536C90.3846 215.152 89.9126 217.768 89.4006 220.376L89.1766 220.208C89.9606 219.904 90.7366 219.552 91.5366 219.2Z" fill="#263238"/>
<path d="M90.8882 207.32C90.9241 207.933 90.9241 208.548 90.8882 209.16C90.8697 209.773 90.819 210.385 90.7362 210.992C90.6348 209.768 90.6723 208.536 90.8482 207.32H90.8882Z" fill="#263238"/>
<path d="M106.032 212.001C106.768 211.555 107.527 211.146 108.304 210.777C107.992 209.545 107.664 208.329 107.368 207.097C107.216 206.481 107.08 205.865 106.952 205.249C106.824 204.633 106.608 203.793 106.48 203.193C106.48 203.097 106.584 203.065 106.608 203.153C106.856 203.953 107.008 204.505 107.216 205.169C107.424 205.833 107.568 206.369 107.728 206.969C108.056 208.241 108.464 209.585 108.736 210.873C107.874 211.334 106.982 211.735 106.064 212.073C106.055 212.075 106.046 212.074 106.037 212.07C106.029 212.066 106.022 212.059 106.018 212.051C106.014 212.042 106.014 212.032 106.016 212.023C106.019 212.014 106.025 212.006 106.032 212.001Z" fill="#263238"/>
<path d="M107.56 204C107.688 204.755 107.688 205.525 107.56 206.28C107.421 205.526 107.421 204.754 107.56 204Z" fill="#263238"/>
<path d="M182.712 233.914H127.08V236.41H182.712V233.914Z" fill="#C7C7C7"/>
<path d="M138.984 233.914L137.08 236.41H182.712V233.914H138.984Z" fill="#A6A6A6"/>
<path d="M141.368 236.402H195.584L200.096 199.586H145.88L141.368 236.402Z" fill="#C7C7C7"/>
<path d="M167.432 217.991C167.418 218.424 167.492 218.854 167.649 219.257C167.806 219.66 168.043 220.027 168.346 220.336C168.649 220.645 169.011 220.889 169.411 221.054C169.811 221.219 170.24 221.301 170.672 221.295C171.553 221.292 172.397 220.944 173.024 220.327C173.652 219.709 174.014 218.872 174.032 217.991C174.045 217.563 173.972 217.137 173.817 216.737C173.662 216.338 173.428 215.974 173.13 215.666C172.831 215.359 172.474 215.115 172.08 214.948C171.685 214.781 171.261 214.695 170.832 214.695C169.946 214.687 169.092 215.028 168.455 215.645C167.819 216.262 167.451 217.105 167.432 217.991Z" fill="white"/>
<path d="M199.656 203.145C201.696 206.297 206.744 209.985 207.44 212.689C207.636 213.35 207.614 214.056 207.376 214.704C207.138 215.351 206.698 215.904 206.12 216.281C206.12 216.281 209.04 217.289 209.264 219.849C209.384 221.161 207.376 222.505 207.376 222.505C207.376 222.505 209.688 223.409 209.776 225.705C209.824 227.529 207.808 228.601 207.808 228.601C207.808 228.601 209.616 230.505 209.072 232.377C207.96 236.177 192.44 238.225 189.288 232.825C187.816 230.313 191.64 230.017 191.64 230.017C191.64 230.017 186.04 229.113 185.536 225.921C185.032 222.729 190.016 222.649 190.016 222.649C190.016 222.649 184.608 221.729 184.416 218.369C184.216 214.873 189.216 215.649 189.216 215.649C189.216 215.649 185.456 213.761 185.904 211.153C186.632 206.857 195.504 211.425 198.792 210.169L199.656 203.145Z" fill="#D3766A"/>
<path d="M207.488 228.801C207.499 228.801 207.509 228.805 207.516 228.812C207.524 228.82 207.528 228.83 207.528 228.841C207.528 228.851 207.524 228.862 207.516 228.869C207.509 228.877 207.499 228.881 207.488 228.881C202.36 230.894 196.74 231.298 191.376 230.041C191.208 229.993 191.2 229.705 191.376 229.713C196.763 230.195 202.19 229.888 207.488 228.801Z" fill="#263238"/>
<path d="M207.456 222.528C207.52 222.528 207.536 222.608 207.456 222.632C202.352 224.584 195.56 225.032 189.8 222.808C189.6 222.728 189.504 222.464 189.736 222.536C193.704 223.744 202.512 223.616 207.456 222.528Z" fill="#263238"/>
<path d="M188.8 215.338C194.4 217.29 200.08 217.25 205.896 216.37C205.968 216.37 205.976 216.466 205.896 216.498C203.168 217.698 199.4 217.874 196.456 217.762C193.724 217.712 191.054 216.945 188.712 215.538C188.656 215.482 188.696 215.298 188.8 215.338Z" fill="#263238"/>
<path d="M309.64 308.362C308.88 310.418 271.616 356.746 269.08 357.61C268.12 357.946 261.08 352.914 252.688 346.586C250.888 345.218 249.032 343.802 247.152 342.346C234.952 332.922 222.232 322.634 222.232 322.634L247.032 291.578L271.272 312.138L276.592 316.65C276.592 316.65 298.792 305.298 301.68 304.65C304.568 304.002 310.4 306.314 309.64 308.362Z" fill="#D3766A"/>
<path d="M309.649 308.368C308.849 310.416 271.617 356.744 269.081 357.616C268.241 357.912 262.737 354.096 255.769 348.904C262.881 343.728 289.873 319.416 293.497 312.832C295.401 309.368 292.617 309.392 289.209 310.352C294.809 307.608 300.369 304.952 301.721 304.64C304.601 304 310.401 306.312 309.649 308.368Z" fill="#263238"/>
<path d="M270.008 307.447L244.16 342.327L156.96 281.799L148.52 275.999C148.52 275.999 146.12 277.599 142.552 279.583C137.576 282.335 130.28 285.823 123.824 286.783C112.992 288.383 94.9119 288.215 85.7839 276.007C78.0959 265.735 82.2719 252.327 82.2719 252.327L94.1599 247.199C94.1599 247.199 122.296 223.759 140.56 223.055C148.296 222.743 159.568 228.655 170.008 234.743C180.448 240.831 270.008 307.447 270.008 307.447Z" fill="#37474F"/>
<path d="M148.521 275.999C148.521 275.999 146.121 277.599 142.553 279.583C136.217 271.999 122.801 258.215 122.393 257.727L148.521 275.999Z" fill="#263238"/>
<path d="M104.472 239.318C102.792 240.486 101.16 241.718 99.5043 242.926C97.8483 244.134 96.1843 245.214 94.6323 246.502C93.0803 247.79 91.5603 249.214 90.0723 250.622C89.3603 251.302 88.6483 251.99 87.9523 252.694C87.2203 253.373 86.5435 254.109 85.9283 254.894C85.8723 254.966 85.9843 255.054 86.0483 255.014C86.839 254.45 87.5926 253.836 88.3043 253.174C89.1043 252.51 89.9043 251.838 90.6563 251.174C92.1683 249.886 93.7123 248.638 95.2163 247.35C96.7203 246.062 98.1043 244.67 99.5923 243.35C101.08 242.03 102.856 240.662 104.504 239.35C104.536 239.35 104.504 239.294 104.472 239.318Z" fill="#263238"/>
<path d="M263.944 306.2C262.264 308.008 260.744 309.96 259.144 311.872C257.544 313.784 256.016 315.72 254.464 317.648C251.368 321.528 248.24 325.376 245.192 329.296C243.52 331.448 241.864 333.616 240.312 335.848C240.24 335.952 240.4 336.065 240.48 335.977C243.816 332.305 246.88 328.393 249.96 324.529C253.04 320.665 256.144 316.8 259.2 312.84C260.864 310.696 262.584 308.561 264.112 306.313C264.152 306.225 264 306.12 263.944 306.2Z" fill="#263238"/>
<path d="M192.352 306.56C188.016 303.136 183.512 299.904 179.016 296.696C174.52 293.488 170.064 290.296 165.52 287.208C164.216 286.32 162.896 285.448 161.584 284.576C160.272 283.704 158.904 282.896 157.624 281.992C157.544 281.944 157.48 282.064 157.552 282.12C158.736 282.968 159.848 283.912 161.008 284.792C162.168 285.672 163.216 286.48 164.328 287.304C166.512 288.904 168.712 290.504 170.912 292.104C175.371 295.304 179.864 298.477 184.392 301.624C186.968 303.384 189.528 305.16 192.16 306.84C192.32 306.92 192.504 306.672 192.352 306.56Z" fill="#263238"/>
<path d="M220.248 270.566C216.248 267.246 211.944 264.254 207.736 261.182C203.528 258.11 199.256 254.934 194.984 251.854C190.712 248.774 186.52 245.726 182.28 242.67C178.176 239.702 174.088 236.686 169.752 234.054C167.352 232.622 164.952 231.286 162.448 230.054C160.023 228.813 157.497 227.78 154.896 226.966C154.878 226.959 154.858 226.959 154.84 226.967C154.822 226.974 154.808 226.988 154.8 227.006C154.793 227.025 154.793 227.045 154.801 227.063C154.808 227.081 154.822 227.095 154.84 227.102C156.984 228.294 159.224 229.294 161.392 230.446C163.56 231.598 165.632 232.782 167.704 234.038C172.008 236.654 176.072 239.638 180.152 242.55C188.632 248.646 197.096 254.774 205.64 260.79C210.44 264.15 215.096 267.702 220.04 270.798C220.216 270.926 220.392 270.686 220.248 270.566Z" fill="#263238"/>
<path d="M208.501 186.308C210.731 172.704 201.511 159.869 187.907 157.639C174.304 155.409 161.468 164.629 159.238 178.232C157.008 191.836 166.228 204.671 179.831 206.901C193.435 209.131 206.27 199.911 208.501 186.308Z" fill="#E61C50"/>
<rect x="169.6" y="168" width="28.8" height="28.8" rx="6.05752" fill="black"/>
<mask id="path-113-outside-1_2994_16257" maskUnits="userSpaceOnUse" x="177.078" y="173.734" width="13" height="17" fill="black">
<rect fill="white" x="177.078" y="173.734" width="13" height="17"/>
<path fill-rule="evenodd" clip-rule="evenodd" d="M178.647 174.734H187.758C187.985 174.741 188.199 174.838 188.355 175.004C188.51 175.17 188.594 175.39 188.587 175.618V180.996C188.594 181.223 188.51 181.444 188.355 181.61C188.199 181.776 187.985 181.873 187.758 181.881H178.078V175.334C178.075 175.179 178.133 175.03 178.24 174.918C178.346 174.805 178.492 174.739 178.647 174.734ZM185.701 179.684C185.719 179.636 185.728 179.585 185.726 179.533L185.731 177.081C185.734 176.978 185.695 176.878 185.625 176.803C185.554 176.728 185.457 176.684 185.354 176.681H180.943V179.935H185.349C185.4 179.934 185.451 179.922 185.497 179.901C185.544 179.88 185.586 179.85 185.621 179.813C185.656 179.775 185.683 179.732 185.701 179.684ZM189.988 189.283V183.588H189.985C189.986 183.492 189.967 183.398 189.93 183.309C189.893 183.221 189.839 183.141 189.771 183.073C189.703 183.006 189.623 182.953 189.534 182.916C189.445 182.88 189.35 182.862 189.254 182.863H178.078V190.009H189.257C189.353 190.009 189.448 189.99 189.536 189.954C189.625 189.918 189.706 189.864 189.774 189.797C189.841 189.729 189.895 189.649 189.932 189.561C189.969 189.473 189.988 189.379 189.988 189.283Z"/>
</mask>
<path fill-rule="evenodd" clip-rule="evenodd" d="M178.647 174.734H187.758C187.985 174.741 188.199 174.838 188.355 175.004C188.51 175.17 188.594 175.39 188.587 175.618V180.996C188.594 181.223 188.51 181.444 188.355 181.61C188.199 181.776 187.985 181.873 187.758 181.881H178.078V175.334C178.075 175.179 178.133 175.03 178.24 174.918C178.346 174.805 178.492 174.739 178.647 174.734ZM185.701 179.684C185.719 179.636 185.728 179.585 185.726 179.533L185.731 177.081C185.734 176.978 185.695 176.878 185.625 176.803C185.554 176.728 185.457 176.684 185.354 176.681H180.943V179.935H185.349C185.4 179.934 185.451 179.922 185.497 179.901C185.544 179.88 185.586 179.85 185.621 179.813C185.656 179.775 185.683 179.732 185.701 179.684ZM189.988 189.283V183.588H189.985C189.986 183.492 189.967 183.398 189.93 183.309C189.893 183.221 189.839 183.141 189.771 183.073C189.703 183.006 189.623 182.953 189.534 182.916C189.445 182.88 189.35 182.862 189.254 182.863H178.078V190.009H189.257C189.353 190.009 189.448 189.99 189.536 189.954C189.625 189.918 189.706 189.864 189.774 189.797C189.841 189.729 189.895 189.649 189.932 189.561C189.969 189.473 189.988 189.379 189.988 189.283Z" fill="white"/>
<path d="M187.758 174.734L187.759 174.69H187.758V174.734ZM178.647 174.734V174.69L178.645 174.69L178.647 174.734ZM188.355 175.004L188.323 175.034V175.034L188.355 175.004ZM188.587 175.618L188.543 175.616V175.618H188.587ZM188.587 180.996H188.543L188.543 180.997L188.587 180.996ZM188.355 181.61L188.323 181.58L188.355 181.61ZM187.758 181.881V181.924L187.759 181.924L187.758 181.881ZM178.078 181.881H178.034V181.924H178.078V181.881ZM178.078 175.334H178.122L178.122 175.333L178.078 175.334ZM178.24 174.918L178.272 174.948L178.24 174.918ZM185.726 179.533L185.682 179.533L185.682 179.535L185.726 179.533ZM185.701 179.684L185.742 179.699L185.701 179.684ZM185.731 177.081L185.687 177.08L185.687 177.081L185.731 177.081ZM185.625 176.803L185.657 176.773V176.773L185.625 176.803ZM185.354 176.681L185.355 176.637H185.354V176.681ZM180.943 176.681V176.637H180.899V176.681H180.943ZM180.943 179.935H180.899V179.979H180.943V179.935ZM185.349 179.935V179.979L185.351 179.979L185.349 179.935ZM185.497 179.901L185.479 179.861L185.497 179.901ZM185.621 179.813L185.653 179.843L185.621 179.813ZM189.988 183.588H190.032V183.544H189.988V183.588ZM189.988 189.283L190.032 189.283V189.283H189.988ZM189.985 183.588L189.941 183.588L189.941 183.632H189.985V183.588ZM189.534 182.916L189.55 182.876L189.534 182.916ZM189.254 182.863V182.906L189.254 182.906L189.254 182.863ZM178.078 182.863V182.819H178.034V182.863H178.078ZM178.078 190.009H178.034V190.053H178.078V190.009ZM189.257 190.009L189.257 189.965H189.257V190.009ZM189.536 189.954L189.553 189.994L189.536 189.954ZM189.932 189.561L189.892 189.544L189.892 189.544L189.932 189.561ZM187.758 174.69H178.647V174.778H187.758V174.69ZM188.387 174.974C188.223 174.8 187.998 174.698 187.759 174.69L187.757 174.778C187.972 174.785 188.175 174.877 188.323 175.034L188.387 174.974ZM188.631 175.619C188.638 175.38 188.55 175.148 188.387 174.974L188.323 175.034C188.47 175.191 188.549 175.401 188.543 175.616L188.631 175.619ZM188.631 180.996V175.618H188.543V180.996H188.631ZM188.387 181.64C188.55 181.466 188.638 181.233 188.631 180.994L188.543 180.997C188.549 181.213 188.47 181.422 188.323 181.58L188.387 181.64ZM187.759 181.924C187.998 181.917 188.224 181.814 188.387 181.64L188.323 181.58C188.175 181.737 187.972 181.83 187.756 181.837L187.759 181.924ZM178.078 181.924H187.758V181.837H178.078V181.924ZM178.034 175.334V181.881H178.122V175.334H178.034ZM178.208 174.887C178.094 175.008 178.031 175.169 178.034 175.335L178.122 175.333C178.119 175.19 178.173 175.052 178.272 174.948L178.208 174.887ZM178.645 174.69C178.479 174.696 178.322 174.767 178.208 174.887L178.272 174.948C178.37 174.844 178.505 174.783 178.648 174.778L178.645 174.69ZM185.682 179.535C185.684 179.58 185.676 179.626 185.66 179.668L185.742 179.699C185.762 179.646 185.772 179.589 185.77 179.532L185.682 179.535ZM185.687 177.081L185.682 179.533L185.77 179.534L185.775 177.082L185.687 177.081ZM185.593 176.833C185.656 176.9 185.689 176.989 185.687 177.08L185.775 177.083C185.778 176.968 185.735 176.857 185.657 176.773L185.593 176.833ZM185.352 176.725C185.444 176.728 185.53 176.767 185.593 176.833L185.657 176.773C185.578 176.689 185.47 176.641 185.355 176.637L185.352 176.725ZM180.943 176.725H185.354V176.637H180.943V176.725ZM180.987 179.935V176.681H180.899V179.935H180.987ZM185.349 179.891H180.943V179.979H185.349V179.891ZM185.479 179.861C185.438 179.88 185.393 179.89 185.348 179.892L185.351 179.979C185.407 179.978 185.463 179.965 185.515 179.941L185.479 179.861ZM185.589 179.783C185.558 179.816 185.52 179.842 185.479 179.861L185.515 179.941C185.567 179.918 185.614 179.884 185.653 179.843L185.589 179.783ZM185.66 179.668C185.644 179.711 185.62 179.75 185.589 179.783L185.653 179.843C185.692 179.801 185.722 179.752 185.742 179.699L185.66 179.668ZM189.944 183.588V189.283H190.032V183.588H189.944ZM189.985 183.632H189.988V183.544H189.985V183.632ZM189.889 183.326C189.924 183.409 189.942 183.498 189.941 183.588L190.029 183.588C190.029 183.487 190.01 183.386 189.971 183.293L189.889 183.326ZM189.741 183.105C189.804 183.168 189.855 183.243 189.889 183.326L189.971 183.293C189.932 183.199 189.874 183.114 189.802 183.042L189.741 183.105ZM189.517 182.957C189.601 182.991 189.677 183.041 189.741 183.105L189.802 183.042C189.73 182.971 189.645 182.914 189.55 182.876L189.517 182.957ZM189.254 182.906C189.344 182.906 189.434 182.923 189.517 182.957L189.55 182.876C189.456 182.837 189.355 182.818 189.254 182.819L189.254 182.906ZM178.078 182.906H189.254V182.819H178.078V182.906ZM178.122 190.009V182.863H178.034V190.009H178.122ZM189.257 189.965H178.078V190.053H189.257V189.965ZM189.52 189.913C189.436 189.947 189.347 189.965 189.257 189.965L189.257 190.053C189.359 190.053 189.459 190.033 189.553 189.994L189.52 189.913ZM189.743 189.766C189.679 189.829 189.603 189.879 189.52 189.913L189.553 189.994C189.647 189.956 189.732 189.899 189.804 189.828L189.743 189.766ZM189.892 189.544C189.857 189.627 189.806 189.702 189.743 189.766L189.804 189.828C189.876 189.757 189.934 189.672 189.973 189.578L189.892 189.544ZM189.944 189.283C189.944 189.373 189.926 189.462 189.892 189.544L189.973 189.578C190.012 189.485 190.032 189.385 190.032 189.283L189.944 189.283Z" fill="#E51E2A" mask="url(#path-113-outside-1_2994_16257)"/>
</svg>
