<svg width="70" height="70" viewBox="0 0 70 70" fill="none" xmlns="http://www.w3.org/2000/svg">
<g id="Frame 1000003331">
<g id="#139_authentication_outline">
<path id="Vector" d="M69.5674 5.91172V48.7029C69.5674 49.6958 69.173 50.648 68.4709 51.3501C67.7688 52.0522 66.8166 52.4466 65.8237 52.4466H4.14323C3.63423 52.4454 3.13082 52.3403 2.66378 52.1379C2.19674 51.9355 1.77589 51.64 1.42693 51.2694C0.771216 50.5765 0.408996 49.6568 0.416119 48.7029V5.91172C0.416119 4.91882 0.810549 3.96658 1.51264 3.26449C2.21473 2.5624 3.16697 2.16797 4.15987 2.16797H65.8403C66.8303 2.17237 67.7783 2.56874 68.4768 3.27035C69.1753 3.97197 69.5675 4.92169 69.5674 5.91172Z" fill="#E81896"/>
<path id="Vector_2" d="M65.8403 52.8606H4.14318C3.57714 52.8591 3.01734 52.7422 2.49806 52.5169C1.97879 52.2916 1.51096 51.9627 1.12322 51.5503C0.395325 50.7809 -0.00707839 49.76 9.42643e-05 48.7009V5.90973C9.42643e-05 4.8065 0.43835 3.74846 1.21845 2.96836C1.99855 2.18826 3.05659 1.75 4.15982 1.75H65.8403C66.9435 1.75 68.0015 2.18826 68.7816 2.96836C69.5617 3.74846 70 4.8065 70 5.90973V48.7009C70 49.8041 69.5617 50.8621 68.7816 51.6422C68.0015 52.4223 66.9435 52.8606 65.8403 52.8606ZM4.14318 2.59858C3.2606 2.59858 2.41417 2.94919 1.79009 3.57327C1.16601 4.19735 0.815401 5.04378 0.815401 5.92637V48.7009C0.813263 49.5425 1.13498 50.3528 1.7139 50.9637C2.02371 51.2933 2.39743 51.5561 2.81225 51.7364C3.22707 51.9166 3.67427 52.0104 4.12654 52.012H65.8403C66.7229 52.012 67.5693 51.6614 68.1934 51.0373C68.8175 50.4132 69.1681 49.5668 69.1681 48.6842V5.90973C69.1681 5.02715 68.8175 4.18071 68.1934 3.55663C67.5693 2.93255 66.7229 2.58195 65.8403 2.58195L4.14318 2.59858Z" fill="#093F68"/>
<path id="Vector_3" d="M65.8401 5.61328H4.14307V42.1607H65.8401V5.61328Z" fill="#093F68"/>
<path id="Vector_4" d="M65.8411 42.5785H4.144C4.03368 42.5785 3.92787 42.5347 3.84986 42.4567C3.77185 42.3787 3.72803 42.2729 3.72803 42.1626V5.61519C3.72803 5.50487 3.77185 5.39906 3.84986 5.32105C3.92787 5.24304 4.03368 5.19922 4.144 5.19922H65.8411C65.9514 5.19922 66.0572 5.24304 66.1352 5.32105C66.2132 5.39906 66.2571 5.50487 66.2571 5.61519V42.1626C66.2571 42.2729 66.2132 42.3787 66.1352 42.4567C66.0572 42.5347 65.9514 42.5785 65.8411 42.5785ZM4.55997 41.7466H65.4251V6.03116H4.55997V41.7466Z" fill="#093F68"/>
<path id="Vector_5" d="M48.1494 67.6049H21.835L24.6178 52.4219H45.3665L48.1494 67.6049Z" fill="#E81896"/>
<path id="Vector_6" d="M48.1487 68.0228H21.8343C21.7732 68.0229 21.7128 68.0096 21.6574 67.9837C21.6021 67.9578 21.5531 67.92 21.514 67.8731C21.4754 67.8261 21.4475 67.7712 21.4324 67.7122C21.4173 67.6533 21.4154 67.5918 21.4266 67.532L24.2095 52.349C24.2272 52.2521 24.2787 52.1646 24.3549 52.1021C24.4311 52.0397 24.527 52.0063 24.6255 52.0079H45.3742C45.4727 52.0063 45.5686 52.0397 45.6447 52.1021C45.7209 52.1646 45.7724 52.2521 45.7902 52.349L48.573 67.532C48.5843 67.5918 48.5823 67.6533 48.5672 67.7122C48.5521 67.7712 48.5243 67.8261 48.4857 67.8731C48.4448 67.9223 48.3931 67.9613 48.3347 67.9873C48.2763 68.0133 48.2126 68.0254 48.1487 68.0228ZM22.3334 67.1909H47.6704L45.0164 52.8606H24.9666L22.3334 67.1909Z" fill="#093F68"/>
<path id="Vector_7" d="M34.9917 48.537C35.8853 48.537 36.6098 47.8126 36.6098 46.9189C36.6098 46.0252 35.8853 45.3008 34.9917 45.3008C34.098 45.3008 33.3735 46.0252 33.3735 46.9189C33.3735 47.8126 34.098 48.537 34.9917 48.537Z" fill="#093F68"/>
<path id="Vector_8" d="M34.9916 48.9549C34.5893 48.9549 34.1961 48.8356 33.8615 48.6121C33.527 48.3886 33.2663 48.0709 33.1124 47.6992C32.9584 47.3276 32.9181 46.9186 32.9966 46.524C33.0751 46.1294 33.2688 45.767 33.5533 45.4825C33.8378 45.198 34.2002 45.0043 34.5948 44.9258C34.9894 44.8473 35.3984 44.8876 35.7701 45.0416C36.1417 45.1955 36.4594 45.4562 36.6829 45.7907C36.9064 46.1252 37.0257 46.5185 37.0257 46.9208C37.0257 47.4603 36.8114 47.9777 36.43 48.3592C36.0485 48.7406 35.5311 48.9549 34.9916 48.9549ZM34.9916 45.7187C34.7539 45.7187 34.5214 45.7892 34.3237 45.9213C34.126 46.0534 33.972 46.2411 33.881 46.4608C33.79 46.6804 33.7662 46.9222 33.8126 47.1554C33.859 47.3886 33.9734 47.6028 34.1416 47.7709C34.3097 47.939 34.5239 48.0535 34.7571 48.0999C34.9903 48.1463 35.232 48.1225 35.4517 48.0315C35.6713 47.9405 35.8591 47.7864 35.9912 47.5887C36.1233 47.391 36.1938 47.1586 36.1938 46.9208C36.1938 46.602 36.0671 46.2962 35.8417 46.0708C35.6162 45.8453 35.3105 45.7187 34.9916 45.7187Z" fill="#093F68"/>
<path id="Vector_9" d="M52.6871 63.6133H17.3003C16.3354 63.6133 15.5532 64.3955 15.5532 65.3604V66.1299C15.5532 67.0948 16.3354 67.877 17.3003 67.877H52.6871C53.652 67.877 54.4342 67.0948 54.4342 66.1299V65.3604C54.4342 64.3955 53.652 63.6133 52.6871 63.6133Z" fill="#E81896"/>
<path id="Vector_10" d="M52.6832 68.2949H17.3047C16.731 68.2949 16.1808 68.067 15.7751 67.6613C15.3695 67.2557 15.1416 66.7055 15.1416 66.1318V65.3623C15.1416 64.7886 15.3695 64.2384 15.7751 63.8328C16.1808 63.4271 16.731 63.1992 17.3047 63.1992H52.6873C53.261 63.1992 53.8112 63.4271 54.2168 63.8328C54.6225 64.2384 54.8504 64.7886 54.8504 65.3623V66.1318C54.8504 66.4162 54.7943 66.6979 54.6853 66.9606C54.5764 67.2233 54.4167 67.4619 54.2154 67.6628C54.0141 67.8637 53.7751 68.023 53.5122 68.1314C53.2493 68.2399 52.9676 68.2954 52.6832 68.2949ZM17.3047 64.0312C16.9516 64.0312 16.6131 64.1714 16.3634 64.421C16.1138 64.6707 15.9735 65.0092 15.9735 65.3623V66.1318C15.9735 66.4849 16.1138 66.8234 16.3634 67.0731C16.6131 67.3227 16.9516 67.4629 17.3047 67.4629H52.6873C53.0403 67.4629 53.3789 67.3227 53.6285 67.0731C53.8782 66.8234 54.0184 66.4849 54.0184 66.1318V65.3623C54.0184 65.0092 53.8782 64.6707 53.6285 64.421C53.3789 64.1714 53.0403 64.0312 52.6873 64.0312H17.3047Z" fill="#093F68"/>
<path id="Vector_11" d="M53.2443 25.3711H16.7343C14.0441 25.3711 11.8633 27.5519 11.8633 30.2421C11.8633 32.9323 14.0441 35.1132 16.7343 35.1132H53.2443C55.9345 35.1132 58.1153 32.9323 58.1153 30.2421C58.1153 27.5519 55.9345 25.3711 53.2443 25.3711Z" fill="white"/>
<path id="Vector_12" d="M53.2442 35.5311H16.7343C15.3321 35.5311 13.9873 34.974 12.9958 33.9825C12.0043 32.991 11.4473 31.6463 11.4473 30.244C11.4473 28.8418 12.0043 27.4971 12.9958 26.5056C13.9873 25.5141 15.3321 24.957 16.7343 24.957H53.2442C54.6464 24.957 55.9912 25.5141 56.9827 26.5056C57.9742 27.4971 58.5312 28.8418 58.5312 30.244C58.5312 31.6463 57.9742 32.991 56.9827 33.9825C55.9912 34.974 54.6464 35.5311 53.2442 35.5311ZM16.7343 25.789C15.5527 25.789 14.4196 26.2583 13.5841 27.0938C12.7486 27.9293 12.2792 29.0625 12.2792 30.244C12.2792 31.4256 12.7486 32.5588 13.5841 33.3943C14.4196 34.2297 15.5527 34.6991 16.7343 34.6991H53.2442C54.4258 34.6991 55.5589 34.2297 56.3944 33.3943C57.2299 32.5588 57.6993 31.4256 57.6993 30.244C57.6993 29.0625 57.2299 27.9293 56.3944 27.0938C55.5589 26.2583 54.4258 25.789 53.2442 25.789H16.7343Z" fill="#093F68"/>
<path id="Vector_13" d="M20.0625 33.6849C19.9521 33.6849 19.8463 33.6411 19.7683 33.563C19.6903 33.485 19.6465 33.3792 19.6465 33.2689V27.2207C19.6465 27.1103 19.6903 27.0045 19.7683 26.9265C19.8463 26.8485 19.9521 26.8047 20.0625 26.8047C20.1728 26.8047 20.2786 26.8485 20.3566 26.9265C20.4346 27.0045 20.4784 27.1103 20.4784 27.2207V33.2689C20.4784 33.3792 20.4346 33.485 20.3566 33.563C20.2786 33.6411 20.1728 33.6849 20.0625 33.6849Z" fill="#093F68"/>
<path id="Vector_14" d="M17.4295 32.1493C17.3551 32.1499 17.2819 32.1306 17.2175 32.0933C17.1531 32.0559 17.0999 32.002 17.0635 31.9372C17.0096 31.8411 16.996 31.7277 17.0256 31.6216C17.0552 31.5156 17.1257 31.4256 17.2216 31.3714L22.4919 28.3931C22.5879 28.3392 22.7014 28.3256 22.8075 28.3552C22.9135 28.3848 23.0035 28.4553 23.0577 28.5511C23.085 28.5989 23.1026 28.6515 23.1094 28.7061C23.1163 28.7607 23.1122 28.8161 23.0975 28.8691C23.0828 28.9221 23.0578 28.9716 23.0238 29.0149C22.9898 29.0581 22.9476 29.0942 22.8996 29.121L17.6334 32.0952C17.5712 32.1305 17.501 32.1491 17.4295 32.1493Z" fill="#093F68"/>
<path id="Vector_15" d="M22.7123 32.1513C22.6408 32.1511 22.5706 32.1325 22.5085 32.0972L17.2381 29.123C17.1903 29.0957 17.1483 29.0593 17.1146 29.0157C17.0809 28.9722 17.0561 28.9225 17.0416 28.8694C17.0271 28.8162 17.0233 28.7608 17.0302 28.7062C17.0371 28.6516 17.0548 28.5989 17.0821 28.5511C17.1094 28.5033 17.1459 28.4613 17.1894 28.4276C17.2329 28.3939 17.2827 28.3691 17.3358 28.3546C17.3889 28.3401 17.4443 28.3362 17.4989 28.3432C17.5535 28.3501 17.6063 28.3678 17.6541 28.3951L22.9203 31.3734C23.0001 31.4187 23.0627 31.489 23.0984 31.5736C23.1341 31.6581 23.1408 31.752 23.1176 31.8408C23.0943 31.9295 23.0424 32.0081 22.9698 32.0643C22.8973 32.1204 22.8082 32.151 22.7164 32.1513H22.7123Z" fill="#093F68"/>
<path id="Vector_16" d="M30.0127 33.6849C29.9023 33.6849 29.7965 33.6411 29.7185 33.563C29.6405 33.485 29.5967 33.3792 29.5967 33.2689V27.2207C29.5967 27.1103 29.6405 27.0045 29.7185 26.9265C29.7965 26.8485 29.9023 26.8047 30.0127 26.8047C30.123 26.8047 30.2288 26.8485 30.3068 26.9265C30.3848 27.0045 30.4286 27.1103 30.4286 27.2207V33.2689C30.4286 33.3792 30.3848 33.485 30.3068 33.563C30.2288 33.6411 30.123 33.6849 30.0127 33.6849Z" fill="#093F68"/>
<path id="Vector_17" d="M27.3796 32.1513C27.2878 32.151 27.1987 32.1204 27.1262 32.0643C27.0536 32.0081 27.0017 31.9295 26.9784 31.8408C26.9552 31.752 26.9619 31.6581 26.9976 31.5736C27.0333 31.489 27.0959 31.4187 27.1757 31.3734L32.4419 28.3951C32.5385 28.3399 32.653 28.3254 32.7602 28.3546C32.8675 28.3839 32.9587 28.4545 33.0139 28.5511C33.0691 28.6476 33.0836 28.7621 33.0544 28.8694C33.0251 28.9766 32.9544 29.0679 32.8579 29.123L27.5875 32.0972C27.5241 32.1332 27.4524 32.1518 27.3796 32.1513Z" fill="#093F68"/>
<path id="Vector_18" d="M32.6455 32.1493C32.5741 32.1491 32.5039 32.1305 32.4417 32.0952L27.1755 29.121C27.1275 29.0942 27.0853 29.0581 27.0513 29.0149C27.0173 28.9716 26.9922 28.9221 26.9775 28.8691C26.9628 28.8161 26.9588 28.7607 26.9656 28.7061C26.9725 28.6515 26.9901 28.5989 27.0174 28.5511C27.0716 28.4553 27.1616 28.3848 27.2676 28.3552C27.3737 28.3256 27.4871 28.3392 27.5831 28.3931L32.8535 31.3714C32.9487 31.4263 33.0182 31.5166 33.0471 31.6226C33.0759 31.7286 33.0617 31.8416 33.0074 31.9372C32.9713 32.0014 32.9188 32.0549 32.8552 32.0922C32.7916 32.1295 32.7192 32.1492 32.6455 32.1493Z" fill="#093F68"/>
<path id="Vector_19" d="M39.9628 33.6849C39.8525 33.6849 39.7467 33.6411 39.6687 33.563C39.5907 33.485 39.5469 33.3792 39.5469 33.2689V27.2207C39.5469 27.1103 39.5907 27.0045 39.6687 26.9265C39.7467 26.8485 39.8525 26.8047 39.9628 26.8047C40.0732 26.8047 40.179 26.8485 40.257 26.9265C40.335 27.0045 40.3788 27.1103 40.3788 27.2207V33.2689C40.3788 33.3792 40.335 33.485 40.257 33.563C40.179 33.6411 40.0732 33.6849 39.9628 33.6849Z" fill="#093F68"/>
<path id="Vector_20" d="M37.3292 32.1493C37.2555 32.1492 37.1831 32.1295 37.1195 32.0922C37.0559 32.0549 37.0034 32.0014 36.9673 31.9372C36.9134 31.8411 36.8998 31.7277 36.9294 31.6216C36.959 31.5156 37.0295 31.4256 37.1254 31.3714L42.3957 28.3931C42.4918 28.3392 42.6052 28.3256 42.7113 28.3552C42.8173 28.3848 42.9073 28.4553 42.9615 28.5511C42.9888 28.5989 43.0064 28.6515 43.0132 28.7061C43.0201 28.7607 43.016 28.8161 43.0013 28.8691C42.9866 28.9221 42.9616 28.9716 42.9276 29.0149C42.8936 29.0581 42.8514 29.0942 42.8034 29.121L37.533 32.0952C37.4708 32.1305 37.4006 32.1491 37.3292 32.1493Z" fill="#093F68"/>
<path id="Vector_21" d="M42.5999 32.1493C42.5284 32.1491 42.4582 32.1305 42.3961 32.0952L37.1257 29.121C37.0777 29.0942 37.0354 29.0581 37.0015 29.0149C36.9675 28.9716 36.9424 28.9221 36.9277 28.8691C36.913 28.8161 36.909 28.7607 36.9158 28.7061C36.9227 28.6515 36.9403 28.5989 36.9676 28.5511C37.0218 28.4553 37.1118 28.3848 37.2178 28.3552C37.3238 28.3256 37.4373 28.3392 37.5333 28.3931L42.8037 31.3714C42.8996 31.4256 42.97 31.5156 42.9997 31.6216C43.0293 31.7277 43.0157 31.8411 42.9618 31.9372C42.9257 32.0014 42.8731 32.0549 42.8095 32.0922C42.7459 32.1295 42.6736 32.1492 42.5999 32.1493Z" fill="#093F68"/>
<path id="Vector_22" d="M49.9169 33.6849C49.8066 33.6849 49.7008 33.6411 49.6228 33.563C49.5448 33.485 49.501 33.3792 49.501 33.2689V27.2207C49.501 27.1103 49.5448 27.0045 49.6228 26.9265C49.7008 26.8485 49.8066 26.8047 49.9169 26.8047C50.0273 26.8047 50.1331 26.8485 50.2111 26.9265C50.2891 27.0045 50.3329 27.1103 50.3329 27.2207V33.2689C50.3329 33.3792 50.2891 33.485 50.2111 33.563C50.1331 33.6411 50.0273 33.6849 49.9169 33.6849Z" fill="#093F68"/>
<path id="Vector_23" d="M47.2838 32.1513C47.2101 32.1512 47.1378 32.1315 47.0742 32.0942C47.0106 32.0569 46.958 32.0034 46.9219 31.9392C46.8677 31.8437 46.8534 31.7306 46.8823 31.6246C46.9111 31.5186 46.9807 31.4283 47.0758 31.3734L52.3462 28.3951C52.4427 28.3399 52.5572 28.3254 52.6645 28.3546C52.7718 28.3839 52.863 28.4545 52.9182 28.5511C52.9733 28.6476 52.9879 28.7621 52.9586 28.8694C52.9294 28.9766 52.8587 29.0679 52.7622 29.123L47.496 32.0972C47.4313 32.1339 47.3581 32.1526 47.2838 32.1513Z" fill="#093F68"/>
<path id="Vector_24" d="M52.5497 32.1513C52.4782 32.1511 52.408 32.1325 52.3459 32.0972L47.0755 29.123C46.979 29.0679 46.9083 28.9766 46.879 28.8694C46.8498 28.7621 46.8643 28.6476 46.9195 28.5511C46.9747 28.4545 47.0659 28.3839 47.1732 28.3546C47.2804 28.3254 47.3949 28.3399 47.4915 28.3951L52.7577 31.3734C52.8375 31.4187 52.9001 31.489 52.9358 31.5736C52.9715 31.6581 52.9782 31.752 52.955 31.8408C52.9317 31.9295 52.8798 32.0081 52.8072 32.0643C52.7347 32.1204 52.6456 32.151 52.5538 32.1513H52.5497Z" fill="#093F68"/>
<path id="Vector_25" d="M32.0056 17.1573C31.9095 17.1596 31.8155 17.1286 31.7396 17.0694C31.6638 17.0103 31.6108 16.9267 31.5897 16.8328L31.0447 14.312C30.9557 13.9258 30.9443 13.5256 31.0111 13.1349C31.0779 12.7441 31.2216 12.3705 31.4339 12.0357C31.6461 11.701 31.9228 11.4116 32.2477 11.1846C32.5726 10.9575 32.9394 10.7972 33.3268 10.7129C33.7141 10.6287 34.1144 10.6222 34.5043 10.6938C34.8942 10.7654 35.266 10.9137 35.5981 11.1301C35.9303 11.3465 36.2161 11.6266 36.4392 11.9544C36.6622 12.2821 36.818 12.6508 36.8975 13.0392C36.9212 13.1495 36.9001 13.2647 36.8389 13.3595C36.7776 13.4543 36.6813 13.5209 36.5709 13.5446C36.4606 13.5683 36.3454 13.5472 36.2506 13.486C36.1558 13.4247 36.0893 13.3284 36.0655 13.218C36.0058 12.9402 35.8916 12.6769 35.7296 12.4434C35.5675 12.2099 35.3607 12.0109 35.1213 11.8578C34.6403 11.5576 34.0608 11.4579 33.5071 11.58C32.9535 11.702 32.4697 12.0362 32.1596 12.5109C32.0056 12.7499 31.9002 13.017 31.8495 13.2968C31.7989 13.5766 31.8038 13.8636 31.8642 14.1415L32.4133 16.6623C32.4249 16.7158 32.4258 16.7711 32.416 16.825C32.4061 16.8789 32.3857 16.9303 32.356 16.9763C32.3262 17.0223 32.2877 17.062 32.2425 17.0931C32.1974 17.1241 32.1466 17.1459 32.093 17.1573C32.064 17.1614 32.0346 17.1614 32.0056 17.1573Z" fill="white"/>
<path id="Vector_26" d="M30.5366 16.2539H37.8744V20.3221C37.8744 20.941 37.6285 21.5346 37.1909 21.9722C36.7532 22.4099 36.1597 22.6557 35.5408 22.6557H32.8702C32.2513 22.6557 31.6578 22.4099 31.2201 21.9722C30.7825 21.5346 30.5366 20.941 30.5366 20.3221V16.2539Z" fill="#F56132"/>
<path id="Vector_27" d="M35.5407 23.0736H32.8702C32.1413 23.0725 31.4426 22.7825 30.9272 22.2671C30.4117 21.7517 30.1217 21.0529 30.1206 20.324V16.2558C30.1206 16.1455 30.1644 16.0397 30.2424 15.9617C30.3205 15.8837 30.4263 15.8398 30.5366 15.8398H37.8743C37.9847 15.8398 38.0905 15.8837 38.1685 15.9617C38.2465 16.0397 38.2903 16.1455 38.2903 16.2558V20.324C38.2892 21.0529 37.9992 21.7517 37.4838 22.2671C36.9684 22.7825 36.2696 23.0725 35.5407 23.0736ZM30.965 16.6718V20.324C30.9661 20.8323 31.1685 21.3194 31.5279 21.6788C31.8873 22.0382 32.3744 22.2406 32.8827 22.2417H35.5532C36.0615 22.2406 36.5486 22.0382 36.908 21.6788C37.2674 21.3194 37.4697 20.8323 37.4708 20.324V16.6718H30.965Z" fill="#093F68"/>
<path id="Vector_28" d="M34.2466 19.2246C34.6624 19.2246 34.9995 18.8875 34.9995 18.4717C34.9995 18.0558 34.6624 17.7188 34.2466 17.7188C33.8307 17.7188 33.4937 18.0558 33.4937 18.4717C33.4937 18.8875 33.8307 19.2246 34.2466 19.2246Z" fill="#093F68"/>
<path id="Vector_29" d="M34.2465 19.6425C34.0153 19.6425 33.7893 19.5739 33.5971 19.4455C33.4049 19.317 33.2551 19.1345 33.1666 18.9209C33.0781 18.7073 33.055 18.4723 33.1001 18.2455C33.1452 18.0188 33.2565 17.8105 33.42 17.647C33.5835 17.4836 33.7917 17.3722 34.0185 17.3271C34.2452 17.282 34.4802 17.3052 34.6938 17.3937C34.9074 17.4821 35.09 17.632 35.2184 17.8242C35.3469 18.0164 35.4154 18.2424 35.4154 18.4736C35.4154 18.7836 35.2923 19.0809 35.073 19.3001C34.8538 19.5193 34.5565 19.6425 34.2465 19.6425ZM34.2465 18.1366C34.1799 18.1366 34.1147 18.1564 34.0593 18.1934C34.0039 18.2304 33.9607 18.2831 33.9352 18.3446C33.9097 18.4062 33.9031 18.4739 33.9161 18.5393C33.9291 18.6047 33.9611 18.6647 34.0083 18.7118C34.0554 18.7589 34.1154 18.791 34.1808 18.804C34.2461 18.817 34.3139 18.8104 34.3755 18.7849C34.437 18.7594 34.4896 18.7162 34.5267 18.6608C34.5637 18.6054 34.5835 18.5402 34.5835 18.4736C34.584 18.4292 34.5757 18.3851 34.5589 18.344C34.5422 18.3028 34.5174 18.2655 34.486 18.2341C34.4546 18.2027 34.4172 18.1779 34.3761 18.1611C34.335 18.1444 34.2909 18.1361 34.2465 18.1366Z" fill="#093F68"/>
<path id="Vector_30" d="M34.247 21.4391C34.1367 21.4391 34.0309 21.3953 33.9529 21.3173C33.8749 21.2392 33.8311 21.1334 33.8311 21.0231V18.7519C33.8311 18.6416 33.8749 18.5358 33.9529 18.4578C34.0309 18.3798 34.1367 18.3359 34.247 18.3359C34.3574 18.3359 34.4632 18.3798 34.5412 18.4578C34.6192 18.5358 34.663 18.6416 34.663 18.7519V21.0065C34.6652 21.0625 34.6561 21.1184 34.6362 21.1708C34.6163 21.2232 34.5861 21.271 34.5472 21.3114C34.5084 21.3518 34.4617 21.384 34.4102 21.4059C34.3586 21.4279 34.3031 21.4391 34.247 21.4391Z" fill="#093F68"/>
</g>
</g>
</svg>
