<svg width="400" height="400" viewBox="0 0 400 400" fill="none" xmlns="http://www.w3.org/2000/svg">
<path d="M230.288 89.296V72C217.032 75.296 204.864 81.104 192.928 89.28L230.288 89.296Z" fill="#E61C50"/>
<path d="M326.984 95.5273H235.496V209.079H326.984V95.5273Z" fill="#E61C50"/>
<path d="M230.288 95.5273H184.36C174.096 103.207 163.56 110.983 151.264 115.415C147.152 116.903 142.992 118.207 138.8 119.415V209.079H230.288V95.5273Z" fill="#E61C50"/>
<path d="M345.08 113.697C341.617 107.476 337.276 101.785 332.192 96.8008V209.081H341.6C356.064 180.145 360.8 142.217 345.08 113.697Z" fill="#E61C50"/>
<path d="M133.6 120.879C128.616 122.247 123.592 123.535 118.568 124.879C79.1999 135.399 54.7919 170.775 59.3119 209.079H133.6V120.879Z" fill="#E61C50"/>
<path d="M332.192 215.313V224.665C333.349 223.118 334.456 221.518 335.512 219.865C336.456 218.385 337.368 216.857 338.264 215.305L332.192 215.313Z" fill="#E61C50"/>
<path d="M326.984 215.312H235.496V263.2C243.104 263.296 250.648 263.904 258.344 263.064C283.608 260.312 309.496 249.976 326.984 230.92V215.312Z" fill="#E61C50"/>
<path d="M235.496 89.2949H323.448C305.6 75.9989 282.456 69.3909 260.552 68.8629C252.152 68.615 243.751 69.2829 235.496 70.8549V89.2949Z" fill="#E61C50"/>
<path d="M230.288 215.312H138.8V283.472C154.664 283.744 170.6 279.184 185.64 274.08C197.592 270.032 209.64 265.84 222.264 263.952C224.915 263.566 227.586 263.337 230.264 263.264L230.288 215.312Z" fill="#E61C50"/>
<path d="M133.6 215.312H60.304C66.08 243.312 88.368 268.84 116.4 279.352C121.93 281.418 127.717 282.713 133.6 283.2V215.312Z" fill="#E61C50"/>
<g opacity="0.7">
<path d="M230.288 89.296V72C217.032 75.296 204.864 81.104 192.928 89.28L230.288 89.296Z" fill="white"/>
<path d="M326.984 95.5273H235.496V209.079H326.984V95.5273Z" fill="white"/>
<path d="M230.288 95.5273H184.36C174.096 103.207 163.56 110.983 151.264 115.415C147.152 116.903 142.992 118.207 138.8 119.415V209.079H230.288V95.5273Z" fill="white"/>
<path d="M345.08 113.697C341.617 107.476 337.276 101.785 332.192 96.8008V209.081H341.6C356.064 180.145 360.8 142.217 345.08 113.697Z" fill="white"/>
<path d="M133.6 120.879C128.616 122.247 123.592 123.535 118.568 124.879C79.1999 135.399 54.7919 170.775 59.3119 209.079H133.6V120.879Z" fill="white"/>
<path d="M332.192 215.313V224.665C333.349 223.118 334.456 221.518 335.512 219.865C336.456 218.385 337.368 216.857 338.264 215.305L332.192 215.313Z" fill="white"/>
<path d="M326.984 215.312H235.496V263.2C243.104 263.296 250.648 263.904 258.344 263.064C283.608 260.312 309.496 249.976 326.984 230.92V215.312Z" fill="white"/>
<path d="M235.496 89.2949H323.448C305.6 75.9989 282.456 69.3909 260.552 68.8629C252.152 68.615 243.751 69.2829 235.496 70.8549V89.2949Z" fill="white"/>
<path d="M230.288 215.312H138.8V283.472C154.664 283.744 170.6 279.184 185.64 274.08C197.592 270.032 209.64 265.84 222.264 263.952C224.915 263.566 227.586 263.337 230.264 263.264L230.288 215.312Z" fill="white"/>
<path d="M133.6 215.312H60.304C66.08 243.312 88.368 268.84 116.4 279.352C121.93 281.418 127.717 282.713 133.6 283.2V215.312Z" fill="white"/>
</g>
<path d="M344.936 234.414H341.544H188.368H184.976V241.198H188.368V310.158H341.544V241.198H344.936V234.414Z" fill="#E61C50"/>
<path opacity="0.5" d="M344.936 234.414H341.544H188.368H184.976V241.198H188.368V310.158H341.544V241.198H344.936V234.414Z" fill="white"/>
<path d="M192.464 270.445H234.248V248.125H192.464V270.445ZM193.312 248.973H233.4V269.597H193.312V248.973Z" fill="white"/>
<path d="M244.352 270.445H286.128V248.125H244.352V270.445ZM245.2 248.973H285.28V269.597H245.2V248.973Z" fill="white"/>
<path d="M296.232 248.125V270.445H338.008V248.125H296.232ZM337.16 269.597H297.08V248.973H337.16V269.597Z" fill="white"/>
<path d="M192.464 300.406H234.248V278.078H192.464V300.406ZM193.312 278.926H233.4V299.558H193.312V278.926Z" fill="white"/>
<path d="M244.352 300.406H286.128V278.078H244.352V300.406ZM245.2 278.926H285.28V299.558H245.2V278.926Z" fill="white"/>
<path d="M296.232 300.406H338.008V278.078H296.232V300.406ZM297.08 278.926H337.16V299.558H297.08V278.926Z" fill="white"/>
<path d="M213.8 262.111C217.547 262.111 220.584 260.972 220.584 259.567C220.584 258.162 217.547 257.023 213.8 257.023C210.053 257.023 207.016 258.162 207.016 259.567C207.016 260.972 210.053 262.111 213.8 262.111Z" fill="white"/>
<path d="M265.432 262.111C269.179 262.111 272.216 260.972 272.216 259.567C272.216 258.162 269.179 257.023 265.432 257.023C261.685 257.023 258.648 258.162 258.648 259.567C258.648 260.972 261.685 262.111 265.432 262.111Z" fill="white"/>
<path d="M318.568 262.111C322.315 262.111 325.352 260.972 325.352 259.567C325.352 258.162 322.315 257.023 318.568 257.023C314.821 257.023 311.784 258.162 311.784 259.567C311.784 260.972 314.821 262.111 318.568 262.111Z" fill="white"/>
<path d="M213.8 286.98C210.056 286.98 207.024 288.116 207.024 289.524C207.024 290.932 210.056 292.068 213.8 292.068C217.544 292.068 220.584 290.932 220.584 289.524C220.584 288.116 217.552 286.98 213.8 286.98Z" fill="white"/>
<path d="M265.432 286.98C261.688 286.98 258.656 288.116 258.656 289.524C258.656 290.932 261.688 292.068 265.432 292.068C269.176 292.068 272.216 290.932 272.216 289.524C272.216 288.116 269.184 286.98 265.432 286.98Z" fill="white"/>
<path d="M318.568 286.98C314.824 286.98 311.784 288.116 311.784 289.524C311.784 290.932 314.824 292.068 318.568 292.068C322.312 292.068 325.352 290.932 325.352 289.524C325.352 288.116 322.312 286.98 318.568 286.98Z" fill="white"/>
<path d="M126.688 228.495C123.6 233.071 119.296 239.031 117 243.815C117.872 240.663 118.728 237.687 119.504 235.015C120.68 232.711 123.832 226.871 127.504 223.015C132.12 218.071 134.096 214.903 131.608 214.623C129.888 214.431 124.848 221.143 121.688 227.815C122.376 225.535 122.92 223.815 123.248 222.775C123.4 222.319 123.544 221.807 123.688 221.271C126.959 216.702 129.936 211.93 132.6 206.983C137.264 198.263 138.768 190.039 135.656 193.583C132.792 196.839 127.808 213.023 123.856 220.647C124.184 219.335 124.504 217.879 124.784 216.447C125.344 215.063 126.08 213.655 126.496 212.375C127.144 210.415 127.712 208.423 128.168 206.407C128.919 203.262 129.301 200.04 129.304 196.807C129.383 193.009 128.349 189.271 126.328 186.055C125.792 185.255 122.52 180.359 121.528 182.855C121.4 183.272 121.375 183.714 121.456 184.143C121.936 188.311 123.448 192.143 124.384 196.199C125.784 202.271 124.856 212.471 124.384 216.807C124.208 217.487 123.984 218.343 123.72 219.327C124.368 211.767 121.096 202.815 118.064 201.255C114.312 199.319 117.992 206.919 120.888 213.551C122.263 216.456 122.908 219.652 122.768 222.863C122.176 225.047 121.496 227.495 120.792 229.975C120.656 230.319 120.52 230.655 120.392 230.991C120.716 229.372 120.85 227.721 120.792 226.071C120.512 221.735 115.6 213.055 112.336 214.279C109.072 215.503 114.6 220.087 117.552 225.415C119.061 228.337 119.636 231.651 119.2 234.911C119.2 235.103 119.136 235.295 119.112 235.487C118.776 236.615 118.44 237.711 118.112 238.743C117.312 241.143 116.632 243.447 115.952 245.671C116.788 242.447 117.154 239.119 117.04 235.791C116.632 229.431 112.912 223.431 109.84 222.615C106.768 221.799 112.632 232.159 114.6 237.983C115.67 241.384 115.852 245.003 115.128 248.495C114.176 251.647 113.28 254.751 112.36 258.047C112.62 253.74 112.529 249.419 112.088 245.127C111.488 238.055 107.288 233.535 104.384 233.719C101.48 233.903 104.512 237.919 108.688 246.519C110.892 251.035 111.874 256.049 111.536 261.063C111.16 262.455 110.736 263.879 110.384 265.367C109.936 267.063 109.584 268.903 109.272 270.791C108.848 269.111 108.224 266.647 107.496 263.927C106.648 260.917 106.033 257.847 105.656 254.743C105.264 251.135 104.312 246.639 100.776 244.759C100.537 244.59 100.263 244.476 99.975 244.425C99.6867 244.374 99.3907 244.387 99.1081 244.464C98.8255 244.54 98.5632 244.678 98.3398 244.867C98.1165 245.056 97.9376 245.293 97.816 245.559C97.484 246.331 97.4083 247.189 97.6 248.007C98.0698 250.458 98.8775 252.833 100 255.063C99.2998 256.393 98.9814 257.891 99.08 259.391C99.08 259.959 99.128 260.519 99.168 261.071C98.856 260.503 98.56 259.975 98.28 259.471C97.7737 258.623 97.1487 257.853 96.424 257.183C96.6047 255.857 96.6956 254.521 96.696 253.183C96.696 251.423 94.64 246.959 92.784 250.271C92.048 251.591 92.184 254.199 92.112 255.927C91.608 256.399 91.456 257.375 91.88 258.919C91.4592 262.927 91.6698 266.976 92.504 270.919L91.872 269.799C90.963 265.172 90.4279 260.479 90.272 255.767C89.968 247.999 91.2 241.599 89.088 239.199C86.976 236.799 85.784 245.239 86.688 254.399C87.1174 258.599 88.2364 262.699 90 266.535C87.92 262.799 85.864 258.991 83.92 255.335C83.12 253.367 81.136 248.071 81.624 242.695C82.24 235.911 82.688 230.367 80.112 226.551C77.536 222.735 77 225.207 78.264 233.159C79.128 238.623 80.048 245.919 81.64 250.983C80.128 248.079 78.712 245.319 77.448 242.815C76.728 240.327 75.048 233.911 75.048 228.591C75.048 221.831 74.32 218.191 72.32 219.655C70.928 220.695 71.824 229.039 74.064 236.063C73.016 233.927 72.224 232.287 71.768 231.319C71.56 230.879 71.328 230.415 71.064 229.919C70.349 224.35 69.2802 218.832 67.864 213.399C65.328 203.799 60.816 196.807 60.952 201.511C61.08 205.847 68.488 221.079 70.8 229.351C70.144 228.167 69.384 226.887 68.616 225.647C68.08 224.255 67.656 222.727 67.088 221.503C66.216 219.631 65.28 217.783 64.232 215.999C62.6357 213.18 60.7131 210.56 58.504 208.191C55.9684 205.36 52.6585 203.336 48.984 202.367C48.04 202.143 42.312 200.767 43.288 203.327C43.4749 203.715 43.7486 204.054 44.088 204.319C47.288 207.039 51 208.807 54.488 211.135C59.656 214.615 65.936 222.703 68.528 226.207L69.76 228.511C65.08 222.543 56.576 218.231 53.296 219.159C49.232 220.303 57.112 223.351 63.752 226.223C66.7407 227.407 69.3939 229.305 71.48 231.751C72.536 233.743 73.712 235.999 74.888 238.295C75.024 238.639 75.152 238.975 75.296 239.303C74.426 237.9 73.395 236.603 72.224 235.439C69.024 232.463 59.544 229.471 58 232.591C56.456 235.711 63.6 235.287 69.408 237.167C72.538 238.257 75.2524 240.292 77.176 242.991L77.504 243.479C78.032 244.535 78.528 245.559 79 246.543C80.088 248.831 81.128 250.983 82.152 253.079C80.5645 250.139 78.5597 247.444 76.2 245.079C71.56 240.711 64.744 238.863 61.92 240.383C59.096 241.903 70.48 245.455 75.888 248.383C78.9916 250.137 81.5943 252.657 83.448 255.703C84.904 258.655 86.368 261.543 87.944 264.575C85.1771 261.25 82.1459 258.155 78.88 255.319C73.616 250.567 67.456 250.135 65.464 252.239C63.472 254.343 68.424 255.223 77.336 258.639C82.0252 260.439 86.162 263.434 89.336 267.327C90.008 268.599 90.696 269.903 91.432 271.255C92.3125 272.88 93.2765 274.458 94.32 275.983C92.864 275.039 90.72 273.663 88.336 272.175C85.6626 270.556 83.119 268.732 80.728 266.719C77.976 264.319 74.208 261.711 70.328 262.719C70.0398 262.762 69.7646 262.868 69.5216 263.029C69.2786 263.19 69.0737 263.402 68.9213 263.651C68.7689 263.899 68.6726 264.178 68.6392 264.467C68.6058 264.757 68.6361 265.05 68.728 265.327C69.0105 266.118 69.5408 266.797 70.24 267.263C73.888 270.095 78.792 271.455 83.04 273.119C86.9331 274.652 90.9231 275.927 94.984 276.935C95.992 278.383 97.048 279.807 98.096 281.175L96.192 281.231C93.936 281.295 83.76 276.687 78.592 275.199C73.424 273.711 68.592 276.527 74.008 279.439C79.424 282.351 94.152 281.703 94.152 281.703L98.4 281.599C99.4 282.879 100.384 284.087 101.304 285.199H81.128V290.799H85.128L88.328 310.703H115.2L118.4 290.815H122.4V285.215H109.024C108.916 282.797 108.98 280.375 109.216 277.967C110.107 277.059 111.097 276.254 112.168 275.567C118.04 271.511 127.992 271.175 130.64 263.367C131.28 261.479 130.56 259.063 128.304 259.167C126.704 259.247 124.968 260.663 123.96 261.831C120.6 265.711 118.072 269.735 113.704 272.671C113.504 272.807 110.752 274.999 109.384 276.359C109.536 275.087 109.728 273.727 109.976 272.263C111.031 270.391 112.235 268.606 113.576 266.927C117.152 262.495 122.592 259.895 126.456 255.663C127.64 254.367 129.2 249.711 125.584 250.863C123.984 251.383 122.08 253.815 120.824 254.935C117.272 258.135 113.624 261.543 111.304 265.751C111.4 265.335 111.504 264.951 111.6 264.495C114.097 260.5 116.905 256.71 120 253.159C125.136 247.311 130.4 243.487 130.488 240.295C130.576 237.103 123.952 242.455 118.328 249.783C115.777 253.145 113.798 256.904 112.472 260.911C113.504 256.759 114.6 252.575 115.672 248.559C116.408 246.559 118.592 241.359 122.616 237.751C127.696 233.215 131.808 229.471 132.536 224.951C133.264 220.431 131.2 221.815 126.688 228.495ZM98.28 279.951C97.5227 278.916 96.7227 277.785 95.88 276.559C95.3763 274.469 95.0419 272.342 94.88 270.199C94.7704 268.363 94.8536 266.521 95.128 264.703C96.4914 266.393 97.9413 268.011 99.472 269.551C99.4356 271.153 99.2399 272.747 98.888 274.311C98.864 274.543 98.352 278.023 98.28 279.951ZM102.632 285.215C101.6 284.119 100.472 282.815 99.248 281.215C99.2787 279.946 99.4532 278.684 99.768 277.455C100.258 275.516 100.961 273.638 101.864 271.855C103.76 273.655 105.152 274.855 105.152 274.855L108.352 277.655C108.104 280.455 107.96 283.071 107.872 285.199L102.632 285.215ZM108.392 277.167L106.96 275.911C106.16 275.191 104.72 272.407 103.152 269.207C103.826 267.856 104.419 266.467 104.928 265.047C106.624 268.191 108.128 270.647 109.016 271.951C108.8 273.695 108.56 275.455 108.392 277.167Z" fill="#E61C50"/>
<path opacity="0.5" d="M126.688 228.495C123.6 233.071 119.296 239.031 117 243.815C117.872 240.663 118.728 237.687 119.504 235.015C120.68 232.711 123.832 226.871 127.504 223.015C132.12 218.071 134.096 214.903 131.608 214.623C129.888 214.431 124.848 221.143 121.688 227.815C122.376 225.535 122.92 223.815 123.248 222.775C123.4 222.319 123.544 221.807 123.688 221.271C126.959 216.702 129.936 211.93 132.6 206.983C137.264 198.263 138.768 190.039 135.656 193.583C132.792 196.839 127.808 213.023 123.856 220.647C124.184 219.335 124.504 217.879 124.784 216.447C125.344 215.063 126.08 213.655 126.496 212.375C127.144 210.415 127.712 208.423 128.168 206.407C128.919 203.262 129.301 200.04 129.304 196.807C129.383 193.009 128.349 189.271 126.328 186.055C125.792 185.255 122.52 180.359 121.528 182.855C121.4 183.272 121.375 183.714 121.456 184.143C121.936 188.311 123.448 192.143 124.384 196.199C125.784 202.271 124.856 212.471 124.384 216.807C124.208 217.487 123.984 218.343 123.72 219.327C124.368 211.767 121.096 202.815 118.064 201.255C114.312 199.319 117.992 206.919 120.888 213.551C122.263 216.456 122.908 219.652 122.768 222.863C122.176 225.047 121.496 227.495 120.792 229.975C120.656 230.319 120.52 230.655 120.392 230.991C120.716 229.372 120.85 227.721 120.792 226.071C120.512 221.735 115.6 213.055 112.336 214.279C109.072 215.503 114.6 220.087 117.552 225.415C119.061 228.337 119.636 231.651 119.2 234.911C119.2 235.103 119.136 235.295 119.112 235.487C118.776 236.615 118.44 237.711 118.112 238.743C117.312 241.143 116.632 243.447 115.952 245.671C116.788 242.447 117.154 239.119 117.04 235.791C116.632 229.431 112.912 223.431 109.84 222.615C106.768 221.799 112.632 232.159 114.6 237.983C115.67 241.384 115.852 245.003 115.128 248.495C114.176 251.647 113.28 254.751 112.36 258.047C112.62 253.74 112.529 249.419 112.088 245.127C111.488 238.055 107.288 233.535 104.384 233.719C101.48 233.903 104.512 237.919 108.688 246.519C110.892 251.035 111.874 256.049 111.536 261.063C111.16 262.455 110.736 263.879 110.384 265.367C109.936 267.063 109.584 268.903 109.272 270.791C108.848 269.111 108.224 266.647 107.496 263.927C106.648 260.917 106.033 257.847 105.656 254.743C105.264 251.135 104.312 246.639 100.776 244.759C100.537 244.59 100.263 244.476 99.975 244.425C99.6867 244.374 99.3907 244.387 99.1081 244.464C98.8255 244.54 98.5632 244.678 98.3398 244.867C98.1165 245.056 97.9376 245.293 97.816 245.559C97.484 246.331 97.4083 247.189 97.6 248.007C98.0698 250.458 98.8775 252.833 100 255.063C99.2998 256.393 98.9814 257.891 99.08 259.391C99.08 259.959 99.128 260.519 99.168 261.071C98.856 260.503 98.56 259.975 98.28 259.471C97.7737 258.623 97.1487 257.853 96.424 257.183C96.6047 255.857 96.6956 254.521 96.696 253.183C96.696 251.423 94.64 246.959 92.784 250.271C92.048 251.591 92.184 254.199 92.112 255.927C91.608 256.399 91.456 257.375 91.88 258.919C91.4592 262.927 91.6698 266.976 92.504 270.919L91.872 269.799C90.963 265.172 90.4279 260.479 90.272 255.767C89.968 247.999 91.2 241.599 89.088 239.199C86.976 236.799 85.784 245.239 86.688 254.399C87.1174 258.599 88.2364 262.699 90 266.535C87.92 262.799 85.864 258.991 83.92 255.335C83.12 253.367 81.136 248.071 81.624 242.695C82.24 235.911 82.688 230.367 80.112 226.551C77.536 222.735 77 225.207 78.264 233.159C79.128 238.623 80.048 245.919 81.64 250.983C80.128 248.079 78.712 245.319 77.448 242.815C76.728 240.327 75.048 233.911 75.048 228.591C75.048 221.831 74.32 218.191 72.32 219.655C70.928 220.695 71.824 229.039 74.064 236.063C73.016 233.927 72.224 232.287 71.768 231.319C71.56 230.879 71.328 230.415 71.064 229.919C70.349 224.35 69.2802 218.832 67.864 213.399C65.328 203.799 60.816 196.807 60.952 201.511C61.08 205.847 68.488 221.079 70.8 229.351C70.144 228.167 69.384 226.887 68.616 225.647C68.08 224.255 67.656 222.727 67.088 221.503C66.216 219.631 65.28 217.783 64.232 215.999C62.6357 213.18 60.7131 210.56 58.504 208.191C55.9684 205.36 52.6585 203.336 48.984 202.367C48.04 202.143 42.312 200.767 43.288 203.327C43.4749 203.715 43.7486 204.054 44.088 204.319C47.288 207.039 51 208.807 54.488 211.135C59.656 214.615 65.936 222.703 68.528 226.207L69.76 228.511C65.08 222.543 56.576 218.231 53.296 219.159C49.232 220.303 57.112 223.351 63.752 226.223C66.7407 227.407 69.3939 229.305 71.48 231.751C72.536 233.743 73.712 235.999 74.888 238.295C75.024 238.639 75.152 238.975 75.296 239.303C74.426 237.9 73.395 236.603 72.224 235.439C69.024 232.463 59.544 229.471 58 232.591C56.456 235.711 63.6 235.287 69.408 237.167C72.538 238.257 75.2524 240.292 77.176 242.991L77.504 243.479C78.032 244.535 78.528 245.559 79 246.543C80.088 248.831 81.128 250.983 82.152 253.079C80.5645 250.139 78.5597 247.444 76.2 245.079C71.56 240.711 64.744 238.863 61.92 240.383C59.096 241.903 70.48 245.455 75.888 248.383C78.9916 250.137 81.5943 252.657 83.448 255.703C84.904 258.655 86.368 261.543 87.944 264.575C85.1771 261.25 82.1459 258.155 78.88 255.319C73.616 250.567 67.456 250.135 65.464 252.239C63.472 254.343 68.424 255.223 77.336 258.639C82.0252 260.439 86.162 263.434 89.336 267.327C90.008 268.599 90.696 269.903 91.432 271.255C92.3125 272.88 93.2765 274.458 94.32 275.983C92.864 275.039 90.72 273.663 88.336 272.175C85.6626 270.556 83.119 268.732 80.728 266.719C77.976 264.319 74.208 261.711 70.328 262.719C70.0398 262.762 69.7646 262.868 69.5216 263.029C69.2786 263.19 69.0737 263.402 68.9213 263.651C68.7689 263.899 68.6726 264.178 68.6392 264.467C68.6058 264.757 68.6361 265.05 68.728 265.327C69.0105 266.118 69.5408 266.797 70.24 267.263C73.888 270.095 78.792 271.455 83.04 273.119C86.9331 274.652 90.9231 275.927 94.984 276.935C95.992 278.383 97.048 279.807 98.096 281.175L96.192 281.231C93.936 281.295 83.76 276.687 78.592 275.199C73.424 273.711 68.592 276.527 74.008 279.439C79.424 282.351 94.152 281.703 94.152 281.703L98.4 281.599C99.4 282.879 100.384 284.087 101.304 285.199H81.128V290.799H85.128L88.328 310.703H115.2L118.4 290.815H122.4V285.215H109.024C108.916 282.797 108.98 280.375 109.216 277.967C110.107 277.059 111.097 276.254 112.168 275.567C118.04 271.511 127.992 271.175 130.64 263.367C131.28 261.479 130.56 259.063 128.304 259.167C126.704 259.247 124.968 260.663 123.96 261.831C120.6 265.711 118.072 269.735 113.704 272.671C113.504 272.807 110.752 274.999 109.384 276.359C109.536 275.087 109.728 273.727 109.976 272.263C111.031 270.391 112.235 268.606 113.576 266.927C117.152 262.495 122.592 259.895 126.456 255.663C127.64 254.367 129.2 249.711 125.584 250.863C123.984 251.383 122.08 253.815 120.824 254.935C117.272 258.135 113.624 261.543 111.304 265.751C111.4 265.335 111.504 264.951 111.6 264.495C114.097 260.5 116.905 256.71 120 253.159C125.136 247.311 130.4 243.487 130.488 240.295C130.576 237.103 123.952 242.455 118.328 249.783C115.777 253.145 113.798 256.904 112.472 260.911C113.504 256.759 114.6 252.575 115.672 248.559C116.408 246.559 118.592 241.359 122.616 237.751C127.696 233.215 131.808 229.471 132.536 224.951C133.264 220.431 131.2 221.815 126.688 228.495ZM98.28 279.951C97.5227 278.916 96.7227 277.785 95.88 276.559C95.3763 274.469 95.0419 272.342 94.88 270.199C94.7704 268.363 94.8536 266.521 95.128 264.703C96.4914 266.393 97.9413 268.011 99.472 269.551C99.4356 271.153 99.2399 272.747 98.888 274.311C98.864 274.543 98.352 278.023 98.28 279.951ZM102.632 285.215C101.6 284.119 100.472 282.815 99.248 281.215C99.2787 279.946 99.4532 278.684 99.768 277.455C100.258 275.516 100.961 273.638 101.864 271.855C103.76 273.655 105.152 274.855 105.152 274.855L108.352 277.655C108.104 280.455 107.96 283.071 107.872 285.199L102.632 285.215ZM108.392 277.167L106.96 275.911C106.16 275.191 104.72 272.407 103.152 269.207C103.826 267.856 104.419 266.467 104.928 265.047C106.624 268.191 108.128 270.647 109.016 271.951C108.8 273.695 108.56 275.455 108.392 277.167Z" fill="white"/>
<path d="M131.192 330.942C149.74 330.942 164.776 327.687 164.776 323.67C164.776 319.654 149.74 316.398 131.192 316.398C112.644 316.398 97.6079 319.654 97.6079 323.67C97.6079 327.687 112.644 330.942 131.192 330.942Z" fill="#E61C50"/>
<path opacity="0.5" d="M131.192 330.942C149.74 330.942 164.776 327.687 164.776 323.67C164.776 319.654 149.74 316.398 131.192 316.398C112.644 316.398 97.6079 319.654 97.6079 323.67C97.6079 327.687 112.644 330.942 131.192 330.942Z" fill="white"/>
<path d="M253.048 330.942C271.596 330.942 286.632 327.687 286.632 323.67C286.632 319.654 271.596 316.398 253.048 316.398C234.5 316.398 219.464 319.654 219.464 323.67C219.464 327.687 234.5 330.942 253.048 330.942Z" fill="#E61C50"/>
<path opacity="0.5" d="M253.048 330.942C271.596 330.942 286.632 327.687 286.632 323.67C286.632 319.654 271.596 316.398 253.048 316.398C234.5 316.398 219.464 319.654 219.464 323.67C219.464 327.687 234.5 330.942 253.048 330.942Z" fill="white"/>
<path d="M196.68 190.902C198.033 191.749 199.19 192.876 200.072 194.206C201.08 196.038 205.304 197.23 205.304 197.23H206.864L207.504 204.566C205.896 204.619 204.292 204.774 202.704 205.03C201.768 205.237 200.814 205.357 199.856 205.39C199.856 205.39 194.904 199.158 194.08 197.966C193.256 196.774 193.168 194.302 193.536 193.838C193.904 193.374 196.68 190.902 196.68 190.902Z" fill="white" stroke="#263238" stroke-width="0.75" stroke-linecap="round" stroke-linejoin="round"/>
<path d="M190.08 203.375C190.08 203.375 187.328 204.295 188.52 205.031C189.133 205.303 189.815 205.379 190.473 205.247C191.131 205.115 191.731 204.783 192.192 204.295C192.648 203.559 191.2 203.007 190.08 203.375Z" fill="white" stroke="#263238" stroke-width="0.75" stroke-linecap="round" stroke-linejoin="round"/>
<path d="M187.056 194.944C187.056 194.944 195.216 192.008 195.584 192.28C195.952 192.552 196.592 195.032 196.592 195.032C196.592 195.032 202.272 198.424 202.736 199.712C203.104 201.711 203.104 203.76 202.736 205.76C202.456 206.224 200.904 206.768 200.336 206.952C199.763 207.093 199.165 207.093 198.592 206.952C198.32 206.864 193.912 203.752 193.912 203.752C193.912 203.752 189.424 204.208 188.416 204.208C187.408 204.208 186.392 204.12 186.392 204.12L187.056 194.944Z" fill="white" stroke="#263238" stroke-width="0.75" stroke-linecap="round" stroke-linejoin="round"/>
<path d="M197.232 198.398C197.232 198.398 200.256 200.054 200.904 200.966C201.552 201.878 202.184 205.83 202.184 205.83" stroke="#263238" stroke-width="0.75" stroke-linecap="round" stroke-linejoin="round"/>
<path d="M195.952 200.078C195.952 200.078 199.528 201.998 199.888 202.918C200.23 204.092 200.497 205.286 200.688 206.494" stroke="#263238" stroke-width="0.75" stroke-linecap="round" stroke-linejoin="round"/>
<path d="M197.784 192.648C197.784 192.648 193.84 197.048 192.92 197.512C192 197.976 191.824 197.416 191.32 197.048C190.816 196.68 194.256 191.736 194.168 191.368C194.649 191.013 195.234 190.829 195.831 190.845C196.428 190.861 197.003 191.076 197.464 191.456" fill="white"/>
<path d="M197.784 192.648C197.784 192.648 193.84 197.048 192.92 197.512C192 197.976 191.824 197.416 191.32 197.048C190.816 196.68 194.256 191.736 194.168 191.368C194.649 191.013 195.234 190.829 195.831 190.845C196.428 190.861 197.003 191.076 197.464 191.456" stroke="#263238" stroke-width="0.75" stroke-linecap="round" stroke-linejoin="round"/>
<path d="M192 202.4L191.856 202.896C191.566 203.774 191.396 204.686 191.352 205.608C191.536 205.976 192.64 206.344 193.008 205.792C193.376 205.24 194.104 202.496 193.92 202.128C193.736 201.76 193.016 200.168 192 202.4Z" fill="white" stroke="#263238" stroke-width="0.75" stroke-linecap="round" stroke-linejoin="round"/>
<path d="M195.488 202C195.2 202.36 193.888 206.312 194.208 206.8C194.528 207.288 195.856 207.448 196.224 206.896C196.592 206.344 197.872 202.896 197.504 202.096C197.136 201.296 196.8 200.44 195.488 202Z" fill="white" stroke="#263238" stroke-width="0.75" stroke-linecap="round" stroke-linejoin="round"/>
<path d="M197.784 202.823L197.648 203.143C197.248 204.095 196.104 206.967 196.408 207.503C196.712 208.039 198.512 208.303 198.88 207.415C199.248 206.527 200.536 203.103 199.68 202.279C199.546 202.12 199.368 202.002 199.168 201.942C198.969 201.881 198.756 201.879 198.555 201.936C198.355 201.994 198.175 202.108 198.038 202.266C197.902 202.423 197.813 202.617 197.784 202.823Z" fill="white" stroke="#263238" stroke-width="0.75" stroke-linecap="round" stroke-linejoin="round"/>
<path d="M134.672 125.712C134.672 125.712 135.152 128.664 134.6 129.84C134.048 131.016 133.224 133.48 133.224 133.48L145.4 144.28C145.4 144.28 149.112 139.6 149.8 138.68C150.488 137.76 151.4 136.544 151.4 136.544C151.4 136.544 145.416 132.76 144.2 130.008C142.984 127.256 143.584 123.752 141 123.2C138.416 122.648 135.432 124.064 134.672 125.712Z" fill="white" stroke="#263238" stroke-width="0.75" stroke-linecap="round" stroke-linejoin="round"/>
<path d="M157.848 107.487C157.848 107.487 162.936 107.415 161.904 102.535C160.872 97.6547 148.976 96.6147 146.776 98.8867C144.576 101.159 144.92 102.087 144.92 102.087C144.92 102.087 134.672 101.815 132.056 107.383C129.44 112.951 130.616 120.183 132.336 123.959C134.056 127.735 136.944 128.151 138.456 127.671C139.968 127.191 141.064 126.295 141.064 124.919C141.064 123.543 142.032 120.247 143.2 121.071C144.368 121.895 145.6 122.167 147.672 120.175C149.744 118.183 152.688 115.703 151.592 113.711C150.496 111.719 148.632 111.647 149.664 110.751C150.696 109.855 156.544 109.151 157.088 108.551C157.391 108.234 157.647 107.876 157.848 107.487Z" fill="#263238" stroke="#263238" stroke-width="0.75" stroke-linecap="round" stroke-linejoin="round"/>
<path d="M157.6 104.559C157.6 104.559 158.32 106.007 151.472 107.807C144.624 109.607 133.072 109.967 132.728 114.295" stroke="white" stroke-width="0.75" stroke-linecap="round" stroke-linejoin="round"/>
<path d="M144.28 112.855C144.28 112.855 135.992 115.375 134.184 118.263C132.376 121.151 134.912 123.663 134.912 123.663" stroke="white" stroke-width="0.75" stroke-linecap="round" stroke-linejoin="round"/>
<path d="M157.848 107.488C157.848 107.488 159.776 114.016 159.776 115.328C159.776 116.64 158.4 117.936 159.016 119.384C159.632 120.832 161.696 123.648 161.696 124.544C161.696 125.44 158.672 126.328 158.672 126.328C158.672 126.328 156.128 135.928 155.576 137.128C155.024 138.328 153.176 138.504 150.968 137.928C148.76 137.352 142.928 134.28 141.368 131.88C139.808 129.48 140.952 125.408 140.952 125.408C140.952 125.408 137.752 123.968 137.104 120.944C136.456 117.92 138.824 115.92 140.888 116.608C141.468 116.78 142.006 117.071 142.467 117.462C142.929 117.853 143.304 118.336 143.568 118.88C143.568 118.88 143.776 119.632 144.368 119.432C144.96 119.232 145.536 117.984 146.088 117.912C146.64 117.84 150.56 116.472 150.088 114.96C149.616 113.448 144.72 113.36 145.064 111.656C145.408 109.952 157.848 107.488 157.848 107.488Z" fill="white" stroke="#263238" stroke-width="0.75" stroke-linecap="round" stroke-linejoin="round"/>
<path d="M151.728 124.949L149.736 126.325" stroke="#263238" stroke-width="0.75" stroke-linecap="round" stroke-linejoin="round"/>
<path d="M150.968 125.848C150.968 125.848 151.592 127.496 154.168 128.048L150.968 125.848Z" fill="white"/>
<path d="M150.968 125.848C150.968 125.848 151.592 127.496 154.168 128.048" stroke="#263238" stroke-width="0.75" stroke-linecap="round" stroke-linejoin="round"/>
<path d="M151.04 126.328C151.04 126.328 149.872 129.528 151.312 130.248C152.752 130.968 153.376 127.984 153.376 127.984L151.04 126.328Z" fill="black"/>
<path d="M158.808 119.904C158.728 121.576 158.304 122.912 157.864 122.888C157.424 122.864 157.144 121.496 157.232 119.824C157.32 118.152 157.736 116.824 158.176 116.84C158.616 116.856 158.896 118.232 158.808 119.904Z" fill="white" stroke="#263238" stroke-width="0.75" stroke-linecap="round" stroke-linejoin="round"/>
<path d="M157.232 118.215H143.2" stroke="#263238" stroke-width="0.75" stroke-linecap="round" stroke-linejoin="round"/>
<path d="M156.264 116.357C156.369 115.982 156.56 115.637 156.823 115.349C157.085 115.061 157.412 114.84 157.776 114.701C158.952 114.357 159.152 114.981 159.152 114.981" fill="white"/>
<path d="M156.264 116.357C156.369 115.982 156.56 115.637 156.823 115.349C157.085 115.061 157.412 114.84 157.776 114.701C158.952 114.357 159.152 114.981 159.152 114.981" stroke="#263238" stroke-width="0.75" stroke-linecap="round" stroke-linejoin="round"/>
<path d="M108.56 232.901L151.2 231.621C151.2 231.621 153.856 261.141 153.216 261.789C152.576 262.437 110.304 264.189 110.304 264.189C110.304 264.189 107.032 264.421 106.568 262.957C106.104 261.493 108.56 232.901 108.56 232.901Z" fill="white" stroke="#263238" stroke-width="0.75" stroke-linecap="round" stroke-linejoin="round"/>
<path d="M108.56 232.902C108.56 232.902 104.56 262.15 105.256 262.982C105.952 263.814 109.256 264.414 110.304 264.174C111.264 263.998 108.56 232.902 108.56 232.902Z" fill="white" stroke="#263238" stroke-width="0.75" stroke-linecap="round" stroke-linejoin="round"/>
<path d="M121.12 313.047C118.776 314.479 117.64 316.895 118.192 318.823C118.744 320.751 118.92 320.935 120.392 321.223C121.864 321.511 128.456 320.487 135.592 319.295C142.728 318.103 143.76 317.831 144.392 316.823C145.024 315.815 146.136 314.807 139.072 313.623C132.008 312.439 131.368 311.143 131.368 311.143C131.368 311.143 124.88 310.751 121.12 313.047Z" fill="#E61C50" stroke="#263238" stroke-width="0.75" stroke-linecap="round" stroke-linejoin="round"/>
<path d="M144.2 314.949C143.72 315.933 142.216 317.701 137.488 318.269C132.488 318.869 123.44 319.773 118.664 320.181C118.992 320.861 119.392 320.981 120.392 321.205C121.856 321.477 128.456 320.469 135.592 319.277C142.728 318.085 143.76 317.813 144.392 316.805C144.8 316.197 145.352 315.589 144.2 314.949Z" fill="#263238" stroke="#263238" stroke-width="0.75" stroke-linecap="round" stroke-linejoin="round"/>
<path d="M133.776 315.52C133.776 315.52 141.112 319.008 145.152 319.832C149.192 320.656 150.192 320.752 149.736 322.032C149.28 323.312 149.184 323.688 143.04 325.152C136.896 326.616 130.2 324.968 127.264 324.416C124.328 323.864 123.416 324.696 122.136 324.144C120.856 323.592 121.216 320.84 121.216 320.84L133.776 315.52Z" fill="#E61C50" stroke="#263238" stroke-width="0.75" stroke-linecap="round" stroke-linejoin="round"/>
<path d="M143.04 325.152C148.2 323.92 149.088 323.464 149.512 322.584C143.912 324.984 136.488 323.992 130.824 323.344C127.176 322.92 123.696 322.544 121.224 322.344C121.211 322.699 121.29 323.052 121.455 323.367C121.619 323.683 121.862 323.95 122.16 324.144C123.44 324.696 124.36 323.872 127.288 324.416C130.216 324.96 136.896 326.616 143.04 325.152Z" fill="#263238" stroke="#263238" stroke-width="0.75" stroke-linecap="round" stroke-linejoin="round"/>
<path d="M125.528 248.125C125.528 248.125 124.24 258.573 121.672 263.069C119.104 267.565 115.624 270.677 115.072 277.189C114.52 283.701 116.352 310.293 116.536 312.589C116.72 314.885 115.736 315.613 116.72 317.077C117.337 317.975 118.01 318.833 118.736 319.645L121.768 316.989C121.768 316.989 123.968 309.925 123.416 296.445C122.864 282.965 122.96 273.893 125.344 264.901C127.728 255.909 128.184 253.533 127.08 250.045C125.976 246.557 125.528 248.125 125.528 248.125Z" fill="#263238" stroke="#263238" stroke-width="0.75" stroke-linecap="round" stroke-linejoin="round"/>
<path d="M119.752 226.462C119.752 226.462 122.776 232.166 123.464 233.662C124.152 235.158 125.728 252.51 124.496 258.286C123.264 264.062 118.464 273.878 118.896 282.494C119.328 291.11 119.696 313.95 119.696 314.222C119.42 315.584 119.42 316.988 119.696 318.35C120.152 320.822 121.528 321.55 121.528 321.55C123.862 320.463 126.284 319.575 128.768 318.894C133.264 317.606 134.544 315.774 134.544 315.774C134.151 314.586 133.692 313.421 133.168 312.286C132.528 311.006 131.432 308.99 131.616 308.342C131.8 307.694 132.992 286.614 135.376 279.646C137.76 272.678 139.128 265.342 141.152 258.918C143.176 252.494 148 235.286 148 230.886V225.478L119.392 224.926L119.752 226.462Z" fill="#263238" stroke="#263238" stroke-width="0.75" stroke-linecap="round" stroke-linejoin="round"/>
<path d="M122.112 267.551C121.312 270.007 120.424 272.759 119.752 274.943C118.152 280.143 119.752 309.343 119.752 309.343C119.927 311.471 119.978 313.608 119.904 315.743C119.752 318.391 119.904 319.439 120.56 320.151" stroke="white" stroke-width="0.75" stroke-linecap="round" stroke-linejoin="round"/>
<path d="M124.152 261.344C124.152 261.344 123.56 263.112 122.768 265.536" stroke="white" stroke-width="0.75" stroke-linecap="round" stroke-linejoin="round"/>
<path d="M132.336 131.008C132.336 131.008 135.536 132.104 140.336 136.304C145.136 140.504 150.032 144.488 149 145.904C147.968 147.32 146.04 152.304 146.04 152.304C146.04 152.304 144.256 149.344 138.96 145.104C133.664 140.864 129.6 137.056 129.6 137.056C129.6 137.056 131.784 131.904 132.336 131.008Z" fill="white" stroke="#263238" stroke-width="0.75" stroke-linecap="round" stroke-linejoin="round"/>
<path d="M128.072 137.742C128.072 137.742 117.824 145.03 116.072 152.046C114.32 159.062 113.592 162.502 113.736 175.91C113.88 189.318 114.696 197.782 114.696 198.398C114.696 199.014 112 223.918 112 224.19C112 224.462 116.8 228.87 130.224 229.142C139.334 229.2 148.433 228.488 157.424 227.014L151.576 178.734C151.576 178.734 149.304 158.166 146.968 154.318C144.632 150.47 128.072 137.742 128.072 137.742Z" fill="#E61C50" stroke="#263238" stroke-width="0.75" stroke-linecap="round" stroke-linejoin="round"/>
<path d="M133.984 204.662C133.984 204.662 142.512 206.382 148.384 204.246" stroke="#263238" stroke-width="0.75" stroke-linecap="round" stroke-linejoin="round"/>
<path d="M133.984 207.197C133.984 207.197 142.512 208.917 148.384 206.789" stroke="#263238" stroke-width="0.75" stroke-linecap="round" stroke-linejoin="round"/>
<path d="M185.584 193.566L187.696 194.574L186.408 204.11L184.304 203.742L185.584 193.566Z" fill="white" stroke="#263238" stroke-width="0.75" stroke-linecap="round" stroke-linejoin="round"/>
<path d="M137.168 150.285C135.968 150.664 134.892 151.361 134.056 152.301C132.68 153.901 125.256 163.117 125.8 167.157C126.344 171.197 136 185.949 139.2 190.541C143.14 196.36 148.814 200.789 155.416 203.197C163.488 206.133 184.488 204.669 184.488 204.669L185.6 193.285C185.6 193.285 174.144 189.621 166.256 187.237C161.869 185.94 157.578 184.336 153.416 182.437C153.416 182.437 151.584 177.941 150.296 177.213C149.008 176.485 148.832 176.021 148.832 176.021C148.832 176.021 146.36 162.541 145.072 158.133C143.784 153.725 142.048 152.637 142.048 152.637" fill="#E61C50"/>
<path d="M137.168 150.285C135.968 150.664 134.892 151.361 134.056 152.301C132.68 153.901 125.256 163.117 125.8 167.157C126.344 171.197 136 185.949 139.2 190.541C143.14 196.36 148.814 200.789 155.416 203.197C163.488 206.133 184.488 204.669 184.488 204.669L185.6 193.285C185.6 193.285 174.144 189.621 166.256 187.237C161.869 185.94 157.578 184.336 153.416 182.437C153.416 182.437 151.584 177.941 150.296 177.213C149.008 176.485 148.832 176.021 148.832 176.021C148.832 176.021 146.36 162.541 145.072 158.133C143.784 153.725 142.048 152.637 142.048 152.637" stroke="#263238" stroke-width="0.75" stroke-linecap="round" stroke-linejoin="round"/>
<path d="M244.368 310.918C241.097 312.807 237.697 314.461 234.192 315.87C229.512 317.614 228.408 318.27 229.328 319.262C230.248 320.254 238.224 321.006 242.712 320.062C247.2 319.118 248.952 318.51 250.968 318.598C252.984 318.686 255.768 319.238 256.744 317.862C257.72 316.486 258.12 316.214 257.384 313.918C256.648 311.622 244.368 310.918 244.368 310.918Z" fill="#E61C50" stroke="#263238" stroke-width="0.75" stroke-linecap="round" stroke-linejoin="round"/>
<path d="M242.712 320.085C247.208 319.173 248.952 318.533 250.968 318.621C252.984 318.709 255.768 319.261 256.744 317.885C257.464 316.901 257.856 316.477 257.752 315.485C254.488 315.213 248.192 316.245 240.688 317.885C236.89 318.81 232.952 319.01 229.08 318.477C229.036 318.62 229.036 318.772 229.081 318.915C229.125 319.058 229.211 319.184 229.328 319.277C230.248 320.269 238.224 321.005 242.712 320.085Z" fill="#263238" stroke="#263238" stroke-width="0.75" stroke-linecap="round" stroke-linejoin="round"/>
<path d="M261.696 316.977C259.859 318.963 257.901 320.833 255.832 322.577C252.8 325.049 247.576 328.449 248.128 329.913C248.68 331.377 252.432 332.753 260.32 330.713C265.368 329.333 270.143 327.101 274.44 324.113C275.321 323.949 276.107 323.457 276.64 322.737C277.288 321.633 276.552 319.897 276.552 319.897L261.696 316.977Z" fill="#E61C50" stroke="#263238" stroke-width="0.75" stroke-linecap="round" stroke-linejoin="round"/>
<path d="M260.32 330.725C265.368 329.345 270.143 327.113 274.44 324.125C275.321 323.962 276.107 323.47 276.64 322.749C276.989 321.904 276.989 320.955 276.64 320.109C265.232 328.741 254.56 330.509 248.912 330.765C250.4 331.789 254.064 332.325 260.32 330.725Z" fill="#263238" stroke="#263238" stroke-width="0.75" stroke-linecap="round" stroke-linejoin="round"/>
<path d="M248 210.143C248 210.143 243.144 210.791 239.656 209.503C236.168 208.215 232.872 207.215 232.872 207.215C232.872 207.215 230.944 232.247 233.056 242.335C235.168 252.423 240.76 264.735 240.848 267.551C240.96 270.938 241.359 274.311 242.04 277.631C242.68 280.199 245.8 300.031 245.984 302.207C246.106 303.305 246.106 304.413 245.984 305.511C245.984 305.511 243.784 306.247 243.784 306.887V311.559C245.598 312.513 247.504 313.282 249.472 313.855C252.864 314.863 257.632 315.687 257.632 315.687C258.041 313.839 258.346 311.969 258.544 310.087C258.544 308.807 257.744 305.415 257.744 303.575C257.744 301.735 258.208 279.735 258.208 279.735C258.208 279.735 262.696 298.535 262.696 304.767C262.696 310.999 262.608 313.023 262.608 313.023C262.608 313.023 260.592 312.383 260.592 313.759C260.592 315.135 260.496 318.431 260.496 318.431C260.496 318.431 267.648 320.263 271.04 321.271C273.062 321.881 275.2 322.007 277.28 321.639C277.28 321.639 279.112 314.671 278.928 312.383C278.744 310.095 276.456 308.159 276.456 306.879C276.456 305.599 277.648 292.943 275.904 281.935C274.16 270.927 269.576 265.887 269.392 260.479C269.208 255.071 270.192 235.631 270.312 232.479C270.432 229.327 273.608 222.759 274.072 219.823C274.536 216.887 274.16 208.183 274.16 208.183C274.16 208.183 253.6 211.151 248 210.143Z" fill="#263238" stroke="#263238" stroke-width="0.75" stroke-linecap="round" stroke-linejoin="round"/>
<path d="M239.232 222.711L244.184 225.919" stroke="white" stroke-width="0.75" stroke-linecap="round" stroke-linejoin="round"/>
<path d="M257.104 276.926C257.792 278.71 258.216 279.742 258.216 279.742" stroke="white" stroke-width="0.75" stroke-linecap="round" stroke-linejoin="round"/>
<path d="M242.536 225.094C242.536 225.094 245.832 244.438 249.776 256.542C251.8 262.75 253.968 268.702 255.6 273.014" stroke="white" stroke-width="0.75" stroke-linecap="round" stroke-linejoin="round"/>
<path d="M205.304 195.951C205.392 196.223 205.848 206.223 205.848 206.223L232.168 203.823L231.624 190.895L205.304 195.951Z" fill="#263238" stroke="#263238" stroke-width="0.75" stroke-linecap="round" stroke-linejoin="round"/>
<path d="M256.928 143.576C256.928 143.576 250.968 145.68 249.776 147.152C248.584 148.624 241.52 173.464 239.2 180.8C236.88 188.136 236.176 210.328 236.176 210.328C237.458 210.803 238.777 211.172 240.12 211.432C241.441 211.655 242.781 211.746 244.12 211.704C244.12 211.704 251.824 185.752 255.584 176.864C259.344 167.976 265.664 155.224 268.056 150.272C270.448 145.32 272.544 144.4 272.272 142.016C272 139.632 270.896 138.712 269.52 138.528C268.144 138.344 256.928 143.576 256.928 143.576Z" fill="white" stroke="#263238" stroke-width="0.75" stroke-linecap="round" stroke-linejoin="round"/>
<path d="M257.672 142.846C257.672 142.846 251.712 144.95 250.52 146.422C249.328 147.894 242.272 172.734 240 180.07C237.728 187.406 236.952 209.598 236.952 209.598C238.234 210.072 239.553 210.441 240.896 210.702C242.217 210.92 243.557 211.011 244.896 210.974C244.896 210.974 252.6 185.022 256.36 176.126C260.12 167.23 266.448 154.526 268.832 149.534C271.216 144.542 273.32 143.67 273.048 141.286C272.776 138.902 271.672 137.982 270.296 137.798C268.92 137.614 257.672 142.846 257.672 142.846Z" fill="#E61C50" stroke="#263238" stroke-width="0.75" stroke-linecap="round" stroke-linejoin="round"/>
<path d="M265.728 145.863C261.99 152.257 258.713 158.908 255.92 165.767C252.16 175.487 249.136 184.167 245.28 197.127C242.962 205.13 242.186 213.499 242.992 221.791C242.992 221.791 244.824 224.911 255.648 225.279C266.472 225.647 280.04 222.159 280.04 222.159C280.04 222.159 278.2 211.151 278.016 204.647C277.832 198.143 283.064 175.303 285.264 169.343C287.464 163.383 292.232 157.423 287.664 151.647C283.096 145.871 272.168 139.359 272.168 139.359C272.168 139.359 266.92 143.847 265.728 145.863Z" fill="#263238" stroke="#263238" stroke-width="0.75" stroke-linecap="round" stroke-linejoin="round"/>
<path d="M253.352 145.774C253.352 145.774 250.512 149.35 247.944 156.974C245.376 164.598 240.608 184.854 238.408 193.47C236.208 202.086 235.104 221.254 235.104 221.254C235.104 221.254 233.912 221.166 231.44 221.166C229.811 221.117 228.213 220.71 226.76 219.974C226.76 219.974 228.504 201.174 230.064 192.374C231.624 183.574 236.208 167.886 237.032 161.742C237.856 155.598 238.128 154.046 239.232 153.214C240.336 152.382 248.952 147.166 250.696 145.974C252.44 144.782 253.352 145.774 253.352 145.774Z" fill="#263238" stroke="#263238" stroke-width="0.75" stroke-linecap="round" stroke-linejoin="round"/>
<path d="M274.992 141.375C274.992 141.375 269.768 151.735 268.392 153.663C267.594 154.764 266.888 155.927 266.28 157.143L261.696 158.887L263.528 161.823C263.528 161.823 254.272 178.399 251.888 183.919C249.504 189.439 247.088 195.383 247.088 195.383" stroke="white" stroke-width="0.75" stroke-linecap="round" stroke-linejoin="round"/>
<path d="M237.32 188.055C237.152 189.887 237.12 190.615 237.12 190.615" stroke="white" stroke-width="0.75" stroke-linecap="round" stroke-linejoin="round"/>
<path d="M248.68 148.984L243.544 156.872L244.736 158.704L241.888 162.192C241.888 162.192 238.864 174.752 238.04 181.536C237.88 182.856 237.744 184.008 237.64 185.008" stroke="white" stroke-width="0.75" stroke-linecap="round" stroke-linejoin="round"/>
<path d="M249.688 145.59L248.68 150.446L253.904 146.966L249.688 145.59Z" fill="white" stroke="#263238" stroke-width="0.75" stroke-linecap="round" stroke-linejoin="round"/>
<path d="M254.088 141.742C253.992 142.014 249.688 145.59 249.688 145.59L254.544 147.606L255.552 143.662L254.088 141.742Z" fill="white" stroke="#263238" stroke-width="0.75" stroke-linecap="round" stroke-linejoin="round"/>
<path d="M252.344 105.151C250.274 106.441 248.643 108.326 247.664 110.559C246.016 114.319 244.736 115.879 245.104 117.071C245.368 117.878 245.55 118.708 245.648 119.551C245.648 119.823 241.8 123.495 241.704 124.591C241.608 125.687 244.184 127.711 244.184 127.711C244.184 127.711 244.456 134.039 244.456 134.591C244.456 135.143 244.64 137.983 247.304 138.711C249.116 139.129 251.002 139.099 252.8 138.623L254.544 147.607C254.544 147.607 266.744 140.087 268.024 139.447C269.304 138.807 270.864 137.983 270.96 136.975C271.056 135.967 270.224 130.367 270.224 130.367C270.224 130.367 276.736 124.407 276.624 117.439C276.512 110.471 272.8 106.071 266.008 103.999C259.216 101.927 252.344 105.151 252.344 105.151Z" fill="white" stroke="#263238" stroke-width="0.75" stroke-linecap="round" stroke-linejoin="round"/>
<path d="M276.64 117.439C276.552 110.471 272.792 106.071 266.008 103.959C259.224 101.847 252.344 105.151 252.344 105.151C251.808 105.473 251.304 105.845 250.84 106.263C253.08 105.863 256.768 105.583 259.408 107.263C263.408 109.831 260.872 112.399 259.496 113.775C258.12 115.151 257.848 115.695 258.856 116.975C259.864 118.255 261.792 118.255 261.328 119.447C260.864 120.639 259.496 122.295 260.6 122.751C261.704 123.207 262.704 122.199 263.168 120.823C263.632 119.447 265.912 119.447 266.832 122.295C267.165 123.366 267.159 124.514 266.813 125.581C266.468 126.648 265.801 127.582 264.904 128.255C264.165 128.802 263.252 129.061 262.336 128.983C263.911 129.783 265.573 130.4 267.288 130.823C268.283 130.906 269.286 130.828 270.256 130.591C270.256 130.447 270.256 130.359 270.256 130.359C270.256 130.359 276.736 124.407 276.64 117.439Z" fill="#263238" stroke="#263238" stroke-width="0.75" stroke-linecap="round" stroke-linejoin="round"/>
<path d="M249.96 121.014C249.96 121.726 249.736 122.302 249.456 122.302C249.176 122.302 248.952 121.726 248.952 121.014C248.952 120.302 249.176 119.734 249.456 119.734C249.736 119.734 249.96 120.31 249.96 121.014Z" fill="black"/>
<path d="M247.576 117.166C247.576 117.166 247.944 115.878 249.976 115.974C252.008 116.07 252.088 117.534 252.088 117.534" fill="white"/>
<path d="M247.576 117.166C247.576 117.166 247.944 115.878 249.976 115.974C252.008 116.07 252.088 117.534 252.088 117.534" stroke="#263238" stroke-width="0.75" stroke-linecap="round" stroke-linejoin="round"/>
<path d="M244.184 127.711C244.744 127.913 245.345 127.978 245.936 127.898C246.526 127.819 247.089 127.598 247.576 127.255C249.04 126.063 247.848 125.047 247.848 125.047" fill="white"/>
<path d="M244.184 127.711C244.744 127.913 245.345 127.978 245.936 127.898C246.526 127.819 247.089 127.598 247.576 127.255C249.04 126.063 247.848 125.047 247.848 125.047" stroke="#263238" stroke-width="0.75" stroke-linecap="round" stroke-linejoin="round"/>
<path d="M244.552 129.176C244.552 129.176 249.408 126.776 251.608 126.704C253.808 126.632 256.104 130.4 255.2 133.6C254.296 136.8 253.28 138.4 250.16 139.656C247.04 140.912 244.104 140.664 243.56 138.552C243.016 136.44 245.48 133.424 246.672 132.872C247.864 132.32 248.784 132.232 248.6 133.24C248.416 134.248 247.864 134.976 250.16 134.52C252.456 134.064 253.736 133.424 253.824 130.944C253.912 128.464 253.024 127.552 250.624 127.92C248.224 128.288 244.664 130.208 244.664 130.208L244.552 129.176Z" fill="#263238" stroke="#263238" stroke-width="0.75" stroke-linecap="round" stroke-linejoin="round"/>
<path d="M246.472 131.103C246.472 131.103 250.328 130.919 251.704 129.359L246.472 131.103Z" fill="white"/>
<path d="M246.472 131.103C246.472 131.103 250.328 130.919 251.704 129.359" stroke="#263238" stroke-width="0.75" stroke-linecap="round" stroke-linejoin="round"/>
<path d="M261.976 128.902C261.982 129.655 261.82 130.4 261.501 131.082C261.183 131.764 260.717 132.367 260.136 132.846" fill="white"/>
<path d="M261.976 128.902C261.982 129.655 261.82 130.4 261.501 131.082C261.183 131.764 260.717 132.367 260.136 132.846" stroke="#263238" stroke-width="0.75" stroke-linecap="round" stroke-linejoin="round"/>
<path d="M254.544 147.608L257.208 153.752C257.208 153.752 267.288 146.232 269.768 143.296C272.248 140.36 274.168 138.896 272.792 136.896C271.416 134.896 269.4 136.528 269.032 136.712C268.664 136.896 254.544 147.608 254.544 147.608Z" fill="white" stroke="#263238" stroke-width="0.75" stroke-linecap="round" stroke-linejoin="round"/>
<path d="M234.4 201.8C233.258 198.085 232.342 194.305 231.656 190.48C231.104 186.968 230.856 183.392 230.856 183.392C226.426 182.988 222.097 181.842 218.048 180C212 177.072 210.712 176 210.712 176C210.712 176 218.872 202.592 220.528 208.184C222.184 213.776 222.544 214.968 222.544 214.968C225.161 216.264 227.933 217.221 230.792 217.816C233.062 218.239 235.363 218.483 237.672 218.544L234.4 201.8Z" fill="white" stroke="#263238" stroke-width="0.75" stroke-linecap="round" stroke-linejoin="round"/>
<path d="M243.544 201.799C241.605 201.439 239.721 200.823 237.944 199.967C236.61 199.194 235.155 198.653 233.64 198.367H233.272L234.368 201.759C233.015 202.058 231.634 202.214 230.248 202.223C228.048 202.223 223.456 201.487 223.28 201.759C223.11 202.417 223.048 203.098 223.096 203.775C223.096 204.423 226.392 208.367 228.32 209.743C230.248 211.119 231.984 212.031 233.728 212.031C235.472 212.031 244.824 210.751 244.824 210.751L243.544 201.799Z" fill="white" stroke="#263238" stroke-width="0.75" stroke-linecap="round" stroke-linejoin="round"/>
<path d="M270.224 166.04C270.224 166.04 270.68 176.312 270.96 183.736C271.24 191.16 271.696 191.808 271.696 191.808C271.696 191.808 251.152 199.512 248.032 200.152C244.912 200.792 242.536 201.528 242.536 201.528L243.912 211.52C250.634 212.088 257.404 211.467 263.912 209.688C273.912 206.752 289.312 203.816 289.592 202.448C289.872 201.08 289.592 196.944 289.592 196.048C289.592 195.152 289.312 175.416 289.312 166.616C289.312 157.816 289.952 155.792 288.856 153.96C287.76 152.128 282.16 151.208 278.952 153.04" fill="#263238"/>
<path d="M270.224 166.04C270.224 166.04 270.68 176.312 270.96 183.736C271.24 191.16 271.696 191.808 271.696 191.808C271.696 191.808 251.152 199.512 248.032 200.152C244.912 200.792 242.536 201.528 242.536 201.528L243.912 211.52C250.634 212.088 257.404 211.467 263.912 209.688C273.912 206.752 289.312 203.816 289.592 202.448C289.872 201.08 289.592 196.944 289.592 196.048C289.592 195.152 289.312 175.416 289.312 166.616C289.312 157.816 289.952 155.792 288.856 153.96C287.76 152.128 282.16 151.208 278.952 153.04" stroke="#263238" stroke-width="0.75" stroke-linecap="round" stroke-linejoin="round"/>
<path d="M254.712 197.704L271.696 191.808L270.192 169.176" stroke="white" stroke-width="0.75" stroke-linecap="round" stroke-linejoin="round"/>
<path d="M249.944 199.36L252.4 198.512" stroke="white" stroke-width="0.75" stroke-linecap="round" stroke-linejoin="round"/>
<path d="M276.08 157.766C276.08 157.766 282.48 149.766 288.84 153.934" stroke="white" stroke-width="0.75" stroke-linecap="round" stroke-linejoin="round"/>
<path d="M223.456 202.719C223.456 202.719 227.68 205.559 230.52 206.023" stroke="#263238" stroke-width="0.75" stroke-linecap="round" stroke-linejoin="round"/>
<path d="M224.192 205.473C225.437 206.568 226.863 207.437 228.408 208.041L230.336 208.585" stroke="#263238" stroke-width="0.75" stroke-linecap="round" stroke-linejoin="round"/>
<path d="M228.8 210.055C229.891 210.455 231.033 210.702 232.192 210.791" stroke="#263238" stroke-width="0.75" stroke-linecap="round" stroke-linejoin="round"/>
<path d="M150.928 175.717C150.928 175.717 149.664 162.797 148.176 153.693C147.376 148.661 144.328 144.373 141.144 140.533C138.512 137.333 134.536 134.405 132.344 131.005C131.584 129.837 127.6 138.285 127.592 138.293C126.792 140.093 136.272 145.797 137.552 147.093C139.232 148.773 140.752 150.757 142.28 152.565C142.976 153.365 144.808 156.413 145.856 156.669L147.552 157.093L146.28 160.909L150.928 175.717Z" fill="#E61C50" stroke="#263238" stroke-width="0.75" stroke-linecap="round" stroke-linejoin="round"/>
</svg>
