<svg width="400" height="400" viewBox="0 0 400 400" fill="none" xmlns="http://www.w3.org/2000/svg">
<path d="M315.6 129.599C315.6 129.599 318.6 89.1512 276.648 62.1832C234.696 35.2152 174.768 40.4552 134.312 61.4312C93.856 82.4072 99.856 130.319 86.4 161.031C72.944 191.743 42.2 197.031 44.448 238.943C46.696 280.855 72.92 301.119 102.848 307.863C132.776 314.607 160.536 306.367 187.504 310.855C214.472 315.343 251.928 324.343 295.376 307.111C338.824 289.879 347.064 242.687 341.072 205.231C335.08 167.775 315.6 154.295 315.6 129.599Z" fill="#E61C50"/>
<path opacity="0.7" d="M315.6 129.599C315.6 129.599 318.6 89.1512 276.648 62.1832C234.696 35.2152 174.768 40.4552 134.312 61.4312C93.856 82.4072 99.856 130.319 86.4 161.031C72.944 191.743 42.2 197.031 44.448 238.943C46.696 280.855 72.92 301.119 102.848 307.863C132.776 314.607 160.536 306.367 187.504 310.855C214.472 315.343 251.928 324.343 295.376 307.111C338.824 289.879 347.064 242.687 341.072 205.231C335.08 167.775 315.6 154.295 315.6 129.599Z" fill="white"/>
<path d="M275.28 288.893H121.056L133.232 277.141H263.104L275.28 288.893Z" fill="white" stroke="#263238" stroke-linecap="round" stroke-linejoin="round"/>
<path d="M258.144 281.677C258.144 284.077 230.216 286.053 195.744 286.053C161.272 286.053 133.344 284.093 133.344 281.677C133.344 279.261 161.272 277.293 195.744 277.293C230.216 277.293 258.144 279.253 258.144 281.677Z" fill="#E61C50"/>
<path opacity="0.5" d="M258.144 281.677C258.144 284.077 230.216 286.053 195.744 286.053C161.272 286.053 133.344 284.093 133.344 281.677C133.344 279.261 161.272 277.293 195.744 277.293C230.216 277.293 258.144 279.253 258.144 281.677Z" fill="white"/>
<path d="M275.28 288.895H121.056V299.783H275.28V288.895Z" fill="#263238" stroke="#263238" stroke-linecap="round" stroke-linejoin="round"/>
<path d="M286.192 311.525H110.144L121.056 299.781H275.28L286.192 311.525Z" fill="white" stroke="#263238" stroke-linecap="round" stroke-linejoin="round"/>
<path d="M286.16 311.527H110.176V322.983H286.16V311.527Z" fill="#263238" stroke="#263238" stroke-linecap="round" stroke-linejoin="round"/>
<path d="M196.464 172.743V99.5189H224.328V68.7109" stroke="#263238" stroke-miterlimit="10"/>
<path d="M207.352 99.1749V68.7109" stroke="#263238" stroke-miterlimit="10"/>
<path d="M198.544 184.416H326.832V166.176H351.352" stroke="#263238" stroke-miterlimit="10"/>
<path d="M192.256 183.781H70.264V164.293H43.856" stroke="#263238" stroke-miterlimit="10"/>
<path d="M171.504 49.2148V76.8868H155.784V94.4868H175.28V153.599" stroke="#263238" stroke-miterlimit="10"/>
<path d="M257.656 130.959V91.3432H268.344V74.3672H277.152" stroke="#263238" stroke-miterlimit="10"/>
<path d="M128.12 127.191V97.0074L119.312 88.1994V66.1914" stroke="#263238" stroke-miterlimit="10"/>
<path d="M281.552 144.8H303.56V130.336H318.024V122.16H330.6" stroke="#263238" stroke-miterlimit="10"/>
<path d="M106.104 149.83H82.84V131.59H50.144" stroke="#263238" stroke-miterlimit="10"/>
<path d="M127.488 248.551V264.903H116.8V283.143H85.9839" stroke="#263238" stroke-miterlimit="10"/>
<path d="M245.08 251.07V268.046H269.6V261.134H276.52V275.59H297.904" stroke="#263238" stroke-miterlimit="10"/>
<path d="M226.12 68.7102C226.119 69.0642 226.012 69.4099 225.814 69.7036C225.616 69.9972 225.336 70.2256 225.008 70.36C224.681 70.4944 224.321 70.5288 223.974 70.4587C223.627 70.3887 223.308 70.2174 223.058 69.9665C222.808 69.7155 222.638 69.3962 222.57 69.0488C222.501 68.7014 222.537 68.3415 222.673 68.0146C222.809 67.6876 223.039 67.4082 223.333 67.2116C223.628 67.0151 223.974 66.9102 224.328 66.9102C224.564 66.9102 224.798 66.9568 225.016 67.0473C225.234 67.1379 225.432 67.2706 225.598 67.4378C225.765 67.6051 225.896 67.8036 225.986 68.0219C226.076 68.2403 226.121 68.4742 226.12 68.7102Z" fill="#263238" stroke="#263238" stroke-linecap="round" stroke-linejoin="round"/>
<path d="M209.208 68.7102C209.206 69.0642 209.1 69.4099 208.902 69.7036C208.704 69.9972 208.424 70.2256 208.096 70.36C207.769 70.4944 207.409 70.5288 207.062 70.4587C206.714 70.3887 206.396 70.2174 206.146 69.9665C205.896 69.7155 205.726 69.3962 205.658 69.0488C205.589 68.7014 205.625 68.3415 205.761 68.0146C205.897 67.6876 206.127 67.4082 206.421 67.2116C206.716 67.0151 207.062 66.9102 207.416 66.9102C207.652 66.9102 207.886 66.9568 208.104 67.0473C208.322 67.1379 208.519 67.2706 208.686 67.4378C208.852 67.6051 208.984 67.8036 209.074 68.0219C209.163 68.2403 209.209 68.4742 209.208 68.7102Z" fill="#263238" stroke="#263238" stroke-linecap="round" stroke-linejoin="round"/>
<path d="M173.312 48.6945C173.312 49.0509 173.206 49.3992 173.008 49.6954C172.81 49.9916 172.528 50.2223 172.199 50.3583C171.87 50.4943 171.507 50.5295 171.158 50.4594C170.808 50.3893 170.488 50.217 170.236 49.9645C169.985 49.712 169.814 49.3905 169.746 49.0408C169.677 48.6911 169.714 48.3289 169.851 48.0002C169.989 47.6714 170.221 47.3908 170.518 47.194C170.815 46.9972 171.164 46.893 171.52 46.8945C171.756 46.8945 171.99 46.9412 172.208 47.0317C172.425 47.1223 172.623 47.255 172.79 47.4222C172.956 47.5895 173.088 47.788 173.178 48.0063C173.267 48.2247 173.313 48.4585 173.312 48.6945Z" fill="#263238" stroke="#263238" stroke-linecap="round" stroke-linejoin="round"/>
<path d="M121.12 65.2883C121.119 65.6424 121.012 65.988 120.814 66.2817C120.616 66.5753 120.336 66.8038 120.008 66.9382C119.681 67.0726 119.321 67.1069 118.974 67.0369C118.627 66.9668 118.308 66.7955 118.058 66.5446C117.808 66.2937 117.638 65.9743 117.57 65.627C117.501 65.2796 117.537 64.9197 117.673 64.5927C117.809 64.2657 118.039 63.9863 118.333 63.7897C118.628 63.5932 118.974 63.4883 119.328 63.4883C119.564 63.4883 119.798 63.5349 120.016 63.6255C120.234 63.716 120.432 63.8487 120.598 64.016C120.765 64.1832 120.896 64.3817 120.986 64.6001C121.076 64.8184 121.121 65.0523 121.12 65.2883Z" fill="#263238" stroke="#263238" stroke-linecap="round" stroke-linejoin="round"/>
<path d="M51.9359 131.589C51.9375 131.946 51.8331 132.295 51.6359 132.592C51.4387 132.889 51.1577 133.121 50.8285 133.258C50.4992 133.396 50.1366 133.432 49.7867 133.363C49.4368 133.293 49.1154 133.122 48.8631 132.87C48.6109 132.617 48.4393 132.296 48.3701 131.946C48.3009 131.596 48.3373 131.234 48.4745 130.904C48.6117 130.575 48.8437 130.294 49.1409 130.097C49.4381 129.9 49.7872 129.795 50.1439 129.797C50.6192 129.797 51.075 129.986 51.4111 130.322C51.7471 130.658 51.9359 131.114 51.9359 131.589Z" fill="#263238" stroke="#263238" stroke-linecap="round" stroke-linejoin="round"/>
<path d="M45.704 164.238C45.704 164.594 45.5984 164.942 45.4006 165.238C45.2029 165.534 44.9217 165.764 44.5928 165.9C44.2639 166.037 43.902 166.072 43.5528 166.003C43.2037 165.933 42.8829 165.762 42.6312 165.51C42.3795 165.259 42.208 164.938 42.1386 164.589C42.0691 164.239 42.1048 163.878 42.241 163.549C42.3773 163.22 42.608 162.939 42.904 162.741C43.2 162.543 43.548 162.438 43.904 162.438C44.3814 162.438 44.8392 162.627 45.1768 162.965C45.5144 163.302 45.704 163.76 45.704 164.238Z" fill="#263238" stroke="#263238" stroke-linecap="round" stroke-linejoin="round"/>
<path d="M87.9359 282.8C87.9359 283.156 87.8302 283.505 87.632 283.801C87.4339 284.097 87.1523 284.328 86.8229 284.464C86.4935 284.6 86.1312 284.635 85.7818 284.565C85.4324 284.495 85.1117 284.322 84.8603 284.07C84.6089 283.817 84.4381 283.496 84.3696 283.146C84.301 282.797 84.3378 282.434 84.4753 282.106C84.6127 281.777 84.8447 281.496 85.1417 281.299C85.4388 281.103 85.7876 280.998 86.1439 281C86.3799 281 86.6136 281.047 86.8316 281.137C87.0495 281.228 87.2474 281.36 87.4139 281.528C87.5804 281.695 87.7122 281.893 87.8018 282.112C87.8914 282.33 87.937 282.564 87.9359 282.8Z" fill="#263238" stroke="#263238" stroke-linecap="round" stroke-linejoin="round"/>
<path d="M300.608 275.237C300.609 275.594 300.505 275.942 300.308 276.24C300.112 276.537 299.831 276.769 299.502 276.906C299.173 277.043 298.811 277.08 298.462 277.012C298.112 276.943 297.79 276.772 297.538 276.521C297.285 276.27 297.113 275.949 297.043 275.599C296.973 275.25 297.008 274.888 297.144 274.558C297.28 274.229 297.511 273.947 297.807 273.749C298.103 273.551 298.451 273.445 298.808 273.445C299.044 273.444 299.278 273.49 299.496 273.579C299.714 273.669 299.913 273.801 300.08 273.967C300.247 274.134 300.38 274.332 300.471 274.55C300.561 274.768 300.608 275.001 300.608 275.237Z" fill="#263238" stroke="#263238" stroke-linecap="round" stroke-linejoin="round"/>
<path d="M354.056 165.823C354.056 166.178 353.951 166.524 353.754 166.819C353.557 167.114 353.277 167.343 352.95 167.479C352.623 167.614 352.262 167.65 351.915 167.581C351.567 167.512 351.248 167.341 350.997 167.09C350.746 166.84 350.576 166.52 350.507 166.173C350.437 165.825 350.473 165.465 350.609 165.137C350.744 164.81 350.974 164.53 351.269 164.333C351.563 164.136 351.91 164.031 352.264 164.031C352.739 164.031 353.195 164.22 353.531 164.556C353.867 164.892 354.056 165.348 354.056 165.823Z" fill="#263238" stroke="#263238" stroke-linecap="round" stroke-linejoin="round"/>
<path d="M333.24 121.776C333.24 122.131 333.135 122.477 332.938 122.772C332.741 123.067 332.461 123.296 332.134 123.432C331.807 123.568 331.446 123.603 331.099 123.534C330.751 123.465 330.432 123.294 330.181 123.044C329.93 122.793 329.76 122.474 329.691 122.126C329.622 121.778 329.657 121.418 329.793 121.091C329.928 120.763 330.158 120.483 330.453 120.286C330.747 120.089 331.094 119.984 331.448 119.984C331.924 119.984 332.379 120.173 332.715 120.509C333.051 120.845 333.24 121.301 333.24 121.776Z" fill="#263238" stroke="#263238" stroke-linecap="round" stroke-linejoin="round"/>
<path d="M280.104 74.3193C280.104 74.6738 279.999 75.0202 279.802 75.3149C279.605 75.6096 279.325 75.8393 278.998 75.9749C278.67 76.1106 278.31 76.1461 277.962 76.0769C277.615 76.0078 277.296 75.8371 277.045 75.5865C276.794 75.3359 276.624 75.0166 276.554 74.6689C276.485 74.3213 276.521 73.961 276.656 73.6336C276.792 73.3061 277.022 73.0263 277.316 72.8293C277.611 72.6324 277.958 72.5273 278.312 72.5273C278.787 72.5273 279.243 72.7161 279.579 73.0522C279.915 73.3883 280.104 73.8441 280.104 74.3193Z" fill="#263238" stroke="#263238" stroke-linecap="round" stroke-linejoin="round"/>
<path d="M219.936 264.397V248.797H172.992V264.397C172.977 269.497 171.216 274.438 168 278.397L165.944 280.941H226.968L224.92 278.397C221.704 274.439 219.945 269.497 219.936 264.397Z" fill="white"/>
<mask id="mask0_2993_16023" style="mask-type:luminance" maskUnits="userSpaceOnUse" x="165" y="248" width="62" height="33">
<path d="M219.936 264.397V248.797H172.992V264.397C172.977 269.497 171.216 274.438 168 278.397L165.944 280.941H226.968L224.92 278.397C221.704 274.439 219.945 269.497 219.936 264.397Z" fill="white"/>
</mask>
<g mask="url(#mask0_2993_16023)">
<path d="M170.112 275.325H222.816C220.93 271.991 219.938 268.227 219.936 264.397V248.797H172.992V264.397C172.99 268.227 171.998 271.991 170.112 275.325Z" fill="#E61C50"/>
<path opacity="0.3" d="M170.112 275.325H222.816C220.93 271.991 219.938 268.227 219.936 264.397V248.797H172.992V264.397C172.99 268.227 171.998 271.991 170.112 275.325Z" fill="white"/>
<path d="M170.112 258.876H222.816C220.93 255.542 219.938 251.778 219.936 247.948V232.348H172.992V247.948C172.99 251.778 171.998 255.542 170.112 258.876Z" fill="#263238"/>
</g>
<path d="M219.936 264.397V248.797H172.992V264.397C172.977 269.497 171.216 274.438 168 278.397L165.944 280.941H226.968L224.92 278.397C221.704 274.439 219.945 269.497 219.936 264.397Z" stroke="#263238" stroke-linecap="round" stroke-linejoin="round"/>
<path d="M284.008 115.191H108.92C105.174 115.191 102.136 118.229 102.136 121.975V246.927C102.136 250.674 105.174 253.711 108.92 253.711H284.008C287.755 253.711 290.792 250.674 290.792 246.927V121.975C290.792 118.229 287.755 115.191 284.008 115.191Z" fill="#263238" stroke="#263238" stroke-linecap="round" stroke-linejoin="round"/>
<path d="M102.136 232.184H290.792V246.928C290.792 248.727 290.077 250.452 288.805 251.725C287.533 252.997 285.807 253.712 284.008 253.712H108.92C107.121 253.712 105.395 252.997 104.123 251.725C102.851 250.452 102.136 248.727 102.136 246.928V232.184Z" fill="white" stroke="#263238" stroke-linecap="round" stroke-linejoin="round"/>
<path d="M281.296 123.816H111.624V221.68H281.296V123.816Z" fill="white" stroke="#263238" stroke-linecap="round" stroke-linejoin="round"/>
<path d="M199.944 246.4C199.958 245.708 199.767 245.029 199.393 244.447C199.019 243.865 198.481 243.408 197.847 243.134C197.212 242.859 196.51 242.78 195.83 242.906C195.151 243.032 194.524 243.358 194.03 243.841C193.536 244.325 193.197 244.945 193.057 245.622C192.917 246.299 192.982 247.002 193.243 247.642C193.504 248.282 193.95 248.83 194.523 249.216C195.097 249.601 195.773 249.808 196.464 249.808C197.377 249.816 198.256 249.462 198.909 248.823C199.561 248.184 199.934 247.313 199.944 246.4Z" fill="#263238" stroke="#263238" stroke-linecap="round" stroke-linejoin="round"/>
<path d="M226.984 280.965H165.952V283.749H226.984V280.965Z" fill="white" stroke="#263238" stroke-linecap="round" stroke-linejoin="round"/>
<path d="M196.72 118.734C188.192 126.734 166.32 134.734 140.872 151.766C140.872 151.766 142.472 209.366 196.72 240.814V118.734Z" fill="#E61C50" stroke="#263238" stroke-linecap="round" stroke-linejoin="round"/>
<path d="M196.72 118.734C205.256 126.734 227.12 134.734 252.576 151.766C252.576 151.766 250.976 209.366 196.72 240.814V118.734Z" fill="#263238" stroke="#263238" stroke-linecap="round" stroke-linejoin="round"/>
<path d="M196.72 123.637C186.4 130.789 168.568 137.597 144.968 153.389C144.968 153.389 146.448 206.749 196.72 235.917C247 206.749 248.48 153.389 248.48 153.389C224.88 137.597 207.104 130.789 196.72 123.637Z" fill="#263238" stroke="#263238" stroke-linecap="round" stroke-linejoin="round"/>
<path d="M248.48 153.389C224.88 137.605 207.104 130.789 196.72 123.637V235.917C247 206.749 248.48 153.389 248.48 153.389Z" fill="#E61C50" stroke="#263238" stroke-linecap="round" stroke-linejoin="round"/>
<path d="M291.376 181.637H101.552V193.925H291.376V181.637Z" fill="#263238" stroke="#263238" stroke-linecap="round" stroke-linejoin="round"/>
<path d="M105.288 183.592C105.293 183.844 105.222 184.093 105.085 184.305C104.948 184.517 104.752 184.684 104.52 184.784C104.288 184.884 104.031 184.913 103.783 184.866C103.534 184.82 103.306 184.701 103.125 184.524C102.945 184.347 102.821 184.12 102.77 183.873C102.719 183.626 102.743 183.369 102.839 183.135C102.934 182.901 103.097 182.701 103.307 182.56C103.516 182.419 103.763 182.344 104.016 182.344C104.182 182.342 104.346 182.372 104.5 182.434C104.653 182.496 104.793 182.587 104.912 182.703C105.03 182.819 105.124 182.957 105.188 183.11C105.253 183.262 105.287 183.426 105.288 183.592Z" fill="white"/>
<path d="M103.288 184.277C103.427 184.424 103.607 184.525 103.804 184.569C104.002 184.613 104.207 184.597 104.396 184.523C104.584 184.449 104.745 184.321 104.86 184.154C104.975 183.988 105.038 183.791 105.04 183.589C105.037 183.349 104.946 183.119 104.784 182.941C104.256 183.352 103.756 183.799 103.288 184.277Z" fill="#263238"/>
<path d="M110.28 183.592C110.286 183.846 110.217 184.097 110.08 184.311C109.943 184.526 109.745 184.695 109.512 184.797C109.279 184.899 109.021 184.929 108.77 184.883C108.52 184.837 108.289 184.718 108.107 184.54C107.924 184.363 107.799 184.135 107.747 183.886C107.695 183.636 107.719 183.377 107.815 183.142C107.91 182.906 108.074 182.704 108.285 182.562C108.497 182.42 108.745 182.344 109 182.344C109.166 182.342 109.331 182.372 109.485 182.434C109.639 182.496 109.779 182.587 109.898 182.703C110.017 182.819 110.112 182.957 110.178 183.109C110.243 183.262 110.278 183.426 110.28 183.592Z" fill="white"/>
<path d="M108.272 184.277C108.411 184.424 108.591 184.525 108.788 184.569C108.986 184.613 109.191 184.597 109.379 184.523C109.567 184.449 109.729 184.321 109.844 184.154C109.959 183.988 110.022 183.791 110.024 183.589C110.021 183.349 109.93 183.119 109.768 182.941C109.241 183.354 108.741 183.8 108.272 184.277Z" fill="#263238"/>
<path d="M115.264 183.589C115.238 183.91 115.093 184.21 114.857 184.428C114.62 184.647 114.31 184.768 113.988 184.768C113.666 184.768 113.356 184.647 113.119 184.428C112.883 184.21 112.737 183.91 112.712 183.589C112.737 183.268 112.883 182.968 113.119 182.75C113.356 182.531 113.666 182.41 113.988 182.41C114.31 182.41 114.62 182.531 114.857 182.75C115.093 182.968 115.238 183.268 115.264 183.589Z" fill="white"/>
<path d="M113.256 184.277C113.351 184.376 113.466 184.455 113.592 184.508C113.719 184.562 113.855 184.589 113.992 184.589C114.124 184.59 114.256 184.565 114.378 184.516C114.501 184.466 114.613 184.393 114.707 184.3C114.801 184.207 114.876 184.096 114.928 183.975C114.98 183.853 115.007 183.722 115.008 183.589C115.008 183.349 114.917 183.117 114.752 182.941C114.225 183.354 113.725 183.8 113.256 184.277Z" fill="#263238"/>
<path d="M120.248 183.592C120.253 183.844 120.182 184.093 120.045 184.305C119.908 184.517 119.711 184.684 119.48 184.784C119.248 184.884 118.991 184.913 118.743 184.866C118.494 184.82 118.266 184.701 118.085 184.524C117.905 184.347 117.781 184.12 117.73 183.873C117.679 183.626 117.703 183.369 117.799 183.135C117.894 182.901 118.057 182.701 118.267 182.56C118.476 182.419 118.723 182.344 118.976 182.344C119.141 182.342 119.306 182.372 119.46 182.434C119.613 182.496 119.753 182.587 119.872 182.703C119.99 182.819 120.084 182.957 120.148 183.11C120.213 183.262 120.247 183.426 120.248 183.592Z" fill="white"/>
<path d="M118.24 184.277C118.381 184.423 118.561 184.523 118.758 184.566C118.956 184.609 119.161 184.593 119.349 184.519C119.537 184.446 119.7 184.318 119.815 184.153C119.931 183.987 119.996 183.791 120 183.589C119.998 183.349 119.906 183.119 119.744 182.941C119.213 183.352 118.711 183.799 118.24 184.277Z" fill="#263238"/>
<path d="M125.232 183.592C125.237 183.844 125.166 184.093 125.029 184.305C124.892 184.517 124.695 184.684 124.463 184.784C124.231 184.884 123.975 184.913 123.727 184.866C123.478 184.82 123.249 184.701 123.069 184.524C122.889 184.347 122.765 184.12 122.714 183.873C122.663 183.626 122.687 183.369 122.782 183.135C122.878 182.901 123.041 182.701 123.251 182.56C123.46 182.419 123.707 182.344 123.96 182.344C124.125 182.342 124.29 182.372 124.443 182.434C124.597 182.496 124.737 182.587 124.855 182.703C124.974 182.819 125.068 182.957 125.132 183.11C125.197 183.262 125.231 183.426 125.232 183.592Z" fill="white"/>
<path d="M123.2 184.277C123.296 184.376 123.41 184.454 123.537 184.508C123.663 184.561 123.799 184.589 123.936 184.589C124.069 184.592 124.201 184.567 124.325 184.518C124.449 184.469 124.561 184.396 124.656 184.303C124.752 184.21 124.828 184.099 124.88 183.976C124.932 183.854 124.959 183.722 124.96 183.589C124.957 183.349 124.866 183.119 124.704 182.941C124.175 183.354 123.673 183.8 123.2 184.277Z" fill="#263238"/>
<path d="M130.216 183.592C130.221 183.844 130.15 184.093 130.014 184.305C129.877 184.517 129.68 184.684 129.448 184.784C129.216 184.884 128.959 184.913 128.711 184.866C128.463 184.82 128.234 184.701 128.054 184.524C127.873 184.347 127.75 184.12 127.699 183.873C127.648 183.626 127.671 183.369 127.767 183.135C127.862 182.901 128.025 182.701 128.235 182.56C128.445 182.419 128.692 182.344 128.944 182.344C129.11 182.342 129.274 182.372 129.428 182.434C129.582 182.496 129.722 182.587 129.84 182.703C129.958 182.819 130.052 182.957 130.117 183.11C130.181 183.262 130.215 183.426 130.216 183.592Z" fill="white"/>
<path d="M128.216 184.277C128.355 184.424 128.535 184.525 128.732 184.569C128.929 184.613 129.135 184.597 129.323 184.523C129.511 184.449 129.673 184.321 129.788 184.154C129.903 183.988 129.965 183.791 129.968 183.589C129.965 183.349 129.874 183.119 129.712 182.941C129.183 183.352 128.683 183.799 128.216 184.277Z" fill="#263238"/>
<path d="M135.2 183.592C135.207 183.846 135.137 184.097 135 184.311C134.864 184.526 134.666 184.695 134.433 184.797C134.199 184.899 133.941 184.929 133.691 184.883C133.44 184.837 133.209 184.718 133.027 184.54C132.845 184.363 132.72 184.135 132.668 183.886C132.616 183.636 132.639 183.377 132.735 183.142C132.831 182.906 132.995 182.704 133.206 182.562C133.417 182.42 133.666 182.344 133.92 182.344C134.086 182.342 134.251 182.372 134.405 182.434C134.559 182.496 134.7 182.587 134.819 182.703C134.938 182.819 135.032 182.957 135.098 183.109C135.163 183.262 135.198 183.426 135.2 183.592Z" fill="white"/>
<path d="M133.2 184.277C133.339 184.424 133.519 184.525 133.716 184.569C133.914 184.613 134.12 184.597 134.308 184.523C134.496 184.449 134.657 184.321 134.772 184.154C134.887 183.988 134.95 183.791 134.952 183.589C134.949 183.349 134.858 183.119 134.696 182.941C134.169 183.354 133.67 183.8 133.2 184.277Z" fill="#263238"/>
<path d="M140.192 183.592C140.197 183.844 140.126 184.093 139.99 184.305C139.853 184.517 139.656 184.684 139.424 184.784C139.192 184.884 138.935 184.913 138.687 184.866C138.439 184.82 138.21 184.701 138.03 184.524C137.849 184.347 137.726 184.12 137.675 183.873C137.624 183.626 137.647 183.369 137.743 183.135C137.838 182.901 138.001 182.701 138.211 182.56C138.421 182.419 138.668 182.344 138.92 182.344C139.086 182.342 139.25 182.372 139.404 182.434C139.558 182.496 139.698 182.587 139.816 182.703C139.934 182.819 140.028 182.957 140.093 183.11C140.157 183.262 140.191 183.426 140.192 183.592Z" fill="white"/>
<path d="M138.184 184.277C138.28 184.376 138.394 184.455 138.52 184.508C138.647 184.562 138.783 184.589 138.92 184.589C139.052 184.59 139.184 184.565 139.306 184.516C139.429 184.466 139.541 184.393 139.635 184.3C139.73 184.207 139.805 184.096 139.856 183.975C139.908 183.853 139.935 183.722 139.936 183.589C139.936 183.349 139.845 183.117 139.68 182.941C139.153 183.354 138.654 183.8 138.184 184.277Z" fill="#263238"/>
<path d="M145.176 183.592C145.181 183.844 145.11 184.093 144.973 184.305C144.837 184.517 144.64 184.684 144.408 184.784C144.176 184.884 143.919 184.913 143.671 184.866C143.423 184.82 143.194 184.701 143.013 184.524C142.833 184.347 142.71 184.12 142.659 183.873C142.608 183.626 142.631 183.369 142.727 183.135C142.822 182.901 142.985 182.701 143.195 182.56C143.405 182.419 143.652 182.344 143.904 182.344C144.07 182.342 144.234 182.372 144.388 182.434C144.542 182.496 144.682 182.587 144.8 182.703C144.918 182.819 145.012 182.957 145.077 183.11C145.141 183.262 145.175 183.426 145.176 183.592Z" fill="white"/>
<path d="M143.2 184.277C143.341 184.423 143.521 184.523 143.718 184.566C143.915 184.609 144.121 184.593 144.309 184.519C144.497 184.446 144.66 184.318 144.775 184.153C144.891 183.987 144.956 183.791 144.96 183.589C144.957 183.349 144.866 183.119 144.704 182.941C144.175 183.354 143.673 183.8 143.2 184.277Z" fill="#263238"/>
<path d="M150.16 183.592C150.165 183.844 150.094 184.093 149.957 184.305C149.821 184.517 149.624 184.684 149.392 184.784C149.16 184.884 148.903 184.913 148.655 184.866C148.407 184.82 148.178 184.701 147.997 184.524C147.817 184.347 147.694 184.12 147.642 183.873C147.591 183.626 147.615 183.369 147.711 183.135C147.806 182.901 147.969 182.701 148.179 182.56C148.389 182.419 148.635 182.344 148.888 182.344C149.054 182.342 149.218 182.372 149.372 182.434C149.525 182.496 149.665 182.587 149.784 182.703C149.902 182.819 149.996 182.957 150.061 183.11C150.125 183.262 150.159 183.426 150.16 183.592Z" fill="white"/>
<path d="M148.152 184.277C148.248 184.376 148.362 184.454 148.488 184.508C148.615 184.561 148.751 184.589 148.888 184.589C149.021 184.592 149.153 184.567 149.277 184.518C149.4 184.469 149.513 184.396 149.608 184.303C149.703 184.21 149.779 184.099 149.831 183.976C149.883 183.854 149.911 183.722 149.912 183.589C149.909 183.349 149.818 183.119 149.656 182.941C149.127 183.354 148.624 183.8 148.152 184.277Z" fill="#263238"/>
<path d="M155.144 183.592C155.149 183.844 155.078 184.093 154.941 184.305C154.804 184.517 154.607 184.684 154.376 184.784C154.144 184.884 153.887 184.913 153.639 184.866C153.39 184.82 153.162 184.701 152.981 184.524C152.801 184.347 152.677 184.12 152.626 183.873C152.575 183.626 152.599 183.369 152.695 183.135C152.79 182.901 152.953 182.701 153.163 182.56C153.372 182.419 153.619 182.344 153.872 182.344C154.037 182.342 154.202 182.372 154.356 182.434C154.509 182.496 154.649 182.587 154.768 182.703C154.886 182.819 154.98 182.957 155.044 183.11C155.109 183.262 155.143 183.426 155.144 183.592Z" fill="white"/>
<path d="M153.144 184.277C153.283 184.424 153.463 184.525 153.66 184.569C153.858 184.613 154.063 184.597 154.251 184.523C154.44 184.449 154.601 184.321 154.716 184.154C154.831 183.988 154.894 183.791 154.896 183.589C154.893 183.349 154.802 183.119 154.64 182.941C154.113 183.354 153.614 183.8 153.144 184.277Z" fill="#263238"/>
<path d="M160.136 183.592C160.142 183.847 160.072 184.097 159.935 184.312C159.798 184.527 159.6 184.696 159.366 184.798C159.133 184.899 158.874 184.929 158.623 184.882C158.373 184.836 158.142 184.716 157.96 184.538C157.778 184.359 157.653 184.13 157.602 183.881C157.551 183.631 157.576 183.372 157.673 183.136C157.77 182.901 157.935 182.699 158.147 182.558C158.359 182.417 158.609 182.342 158.864 182.344C159.029 182.342 159.194 182.372 159.347 182.434C159.501 182.496 159.641 182.587 159.759 182.703C159.878 182.819 159.972 182.957 160.036 183.11C160.101 183.262 160.135 183.426 160.136 183.592Z" fill="white"/>
<path d="M158.128 184.277C158.267 184.424 158.447 184.525 158.644 184.569C158.841 184.613 159.047 184.597 159.235 184.523C159.423 184.449 159.585 184.321 159.7 184.154C159.815 183.988 159.877 183.791 159.88 183.589C159.88 183.349 159.789 183.117 159.624 182.941C159.097 183.354 158.597 183.8 158.128 184.277Z" fill="#263238"/>
<path d="M165.12 183.592C165.125 183.844 165.054 184.093 164.917 184.305C164.781 184.517 164.584 184.684 164.352 184.784C164.12 184.884 163.863 184.913 163.615 184.866C163.367 184.82 163.138 184.701 162.957 184.524C162.777 184.347 162.653 184.12 162.602 183.873C162.551 183.626 162.575 183.369 162.671 183.135C162.766 182.901 162.929 182.701 163.139 182.56C163.348 182.419 163.595 182.344 163.848 182.344C164.014 182.342 164.178 182.372 164.332 182.434C164.485 182.496 164.625 182.587 164.744 182.703C164.862 182.819 164.956 182.957 165.021 183.11C165.085 183.262 165.119 183.426 165.12 183.592Z" fill="white"/>
<path d="M163.112 184.277C163.252 184.423 163.432 184.523 163.63 184.566C163.827 184.609 164.033 184.593 164.221 184.519C164.409 184.446 164.571 184.318 164.687 184.153C164.803 183.987 164.867 183.791 164.872 183.589C164.869 183.349 164.778 183.119 164.616 182.941C164.085 183.352 163.582 183.799 163.112 184.277Z" fill="#263238"/>
<path d="M170.104 183.592C170.109 183.844 170.038 184.093 169.901 184.305C169.764 184.517 169.567 184.684 169.335 184.784C169.103 184.884 168.847 184.913 168.599 184.866C168.35 184.82 168.122 184.701 167.941 184.524C167.761 184.347 167.637 184.12 167.586 183.873C167.535 183.626 167.559 183.369 167.655 183.135C167.75 182.901 167.913 182.701 168.123 182.56C168.332 182.419 168.579 182.344 168.832 182.344C168.997 182.342 169.162 182.372 169.316 182.434C169.469 182.496 169.609 182.587 169.727 182.703C169.846 182.819 169.94 182.957 170.004 183.11C170.069 183.262 170.103 183.426 170.104 183.592Z" fill="white"/>
<path d="M168.096 184.277C168.192 184.376 168.306 184.454 168.433 184.508C168.559 184.561 168.695 184.589 168.832 184.589C168.965 184.592 169.097 184.567 169.221 184.518C169.345 184.469 169.457 184.396 169.552 184.303C169.648 184.21 169.724 184.099 169.776 183.976C169.828 183.854 169.855 183.722 169.856 183.589C169.853 183.349 169.762 183.119 169.6 182.941C169.071 183.354 168.569 183.8 168.096 184.277Z" fill="#263238"/>
<path d="M105.288 191.517C105.295 191.77 105.225 192.019 105.09 192.233C104.954 192.446 104.757 192.614 104.526 192.715C104.294 192.816 104.037 192.846 103.788 192.801C103.539 192.755 103.31 192.637 103.129 192.46C102.948 192.284 102.823 192.057 102.772 191.81C102.72 191.562 102.743 191.305 102.838 191.07C102.934 190.836 103.097 190.635 103.306 190.494C103.516 190.353 103.763 190.278 104.016 190.277C104.181 190.275 104.345 190.306 104.498 190.367C104.651 190.428 104.791 190.519 104.909 190.634C105.027 190.749 105.121 190.886 105.187 191.038C105.252 191.19 105.286 191.352 105.288 191.517Z" fill="white"/>
<path d="M103.288 192.215C103.382 192.314 103.495 192.392 103.62 192.446C103.745 192.5 103.88 192.527 104.016 192.527C104.15 192.528 104.282 192.503 104.406 192.453C104.529 192.403 104.642 192.329 104.737 192.235C104.832 192.141 104.908 192.03 104.96 191.907C105.012 191.784 105.039 191.652 105.04 191.519C105.035 191.282 104.944 191.054 104.784 190.879C104.256 191.29 103.756 191.736 103.288 192.215Z" fill="#263238"/>
<path d="M110.28 191.517C110.288 191.772 110.22 192.023 110.084 192.239C109.948 192.455 109.751 192.625 109.518 192.728C109.285 192.831 109.027 192.862 108.776 192.818C108.525 192.773 108.293 192.654 108.11 192.477C107.927 192.299 107.801 192.072 107.748 191.822C107.696 191.573 107.719 191.314 107.814 191.077C107.91 190.841 108.074 190.639 108.285 190.496C108.496 190.354 108.745 190.278 109 190.277C109.334 190.273 109.656 190.401 109.896 190.633C110.136 190.866 110.274 191.184 110.28 191.517Z" fill="white"/>
<path d="M108.272 192.215C108.366 192.314 108.479 192.392 108.604 192.446C108.729 192.5 108.864 192.527 109 192.527C109.133 192.528 109.266 192.503 109.389 192.453C109.513 192.403 109.626 192.329 109.721 192.235C109.816 192.141 109.892 192.03 109.944 191.907C109.996 191.784 110.023 191.652 110.024 191.519C110.019 191.282 109.928 191.054 109.768 190.879C109.241 191.292 108.741 191.738 108.272 192.215Z" fill="#263238"/>
<path d="M115.264 191.517C115.272 191.772 115.203 192.024 115.067 192.24C114.931 192.456 114.734 192.626 114.5 192.729C114.267 192.832 114.008 192.862 113.757 192.817C113.506 192.772 113.274 192.652 113.091 192.474C112.908 192.296 112.783 192.067 112.731 191.817C112.679 191.567 112.703 191.308 112.8 191.072C112.897 190.836 113.062 190.634 113.275 190.492C113.487 190.351 113.737 190.276 113.992 190.277C114.157 190.275 114.321 190.306 114.474 190.367C114.627 190.428 114.767 190.519 114.885 190.634C115.003 190.749 115.097 190.886 115.162 191.038C115.227 191.19 115.262 191.352 115.264 191.517Z" fill="white"/>
<path d="M113.256 192.215C113.396 192.362 113.576 192.463 113.774 192.507C113.972 192.55 114.179 192.534 114.367 192.459C114.555 192.384 114.717 192.254 114.831 192.087C114.945 191.919 115.007 191.722 115.008 191.519C115.007 191.281 114.915 191.052 114.752 190.879C114.225 191.292 113.725 191.738 113.256 192.215Z" fill="#263238"/>
<path d="M120.248 191.517C120.255 191.77 120.185 192.019 120.05 192.233C119.914 192.446 119.717 192.614 119.486 192.715C119.254 192.816 118.997 192.846 118.748 192.801C118.499 192.755 118.27 192.637 118.089 192.46C117.908 192.284 117.783 192.057 117.731 191.81C117.68 191.562 117.703 191.305 117.798 191.07C117.894 190.836 118.056 190.635 118.266 190.494C118.476 190.353 118.723 190.278 118.976 190.277C119.141 190.275 119.305 190.306 119.458 190.367C119.611 190.428 119.751 190.519 119.869 190.634C119.987 190.749 120.081 190.886 120.146 191.038C120.212 191.19 120.246 191.352 120.248 191.517Z" fill="white"/>
<path d="M118.24 192.215C118.381 192.361 118.562 192.461 118.76 192.504C118.958 192.547 119.164 192.53 119.353 192.455C119.541 192.381 119.703 192.252 119.819 192.085C119.934 191.919 119.997 191.722 120 191.519C119.996 191.282 119.905 191.054 119.744 190.879C119.213 191.29 118.711 191.736 118.24 192.215Z" fill="#263238"/>
<path d="M125.232 191.517C125.238 191.77 125.169 192.019 125.033 192.233C124.898 192.446 124.701 192.614 124.469 192.715C124.238 192.816 123.981 192.846 123.732 192.801C123.483 192.755 123.254 192.637 123.073 192.46C122.891 192.284 122.767 192.057 122.715 191.81C122.664 191.562 122.687 191.305 122.782 191.07C122.877 190.836 123.04 190.635 123.25 190.494C123.46 190.353 123.707 190.278 123.96 190.277C124.125 190.275 124.289 190.306 124.442 190.367C124.595 190.428 124.735 190.519 124.853 190.634C124.971 190.749 125.065 190.886 125.13 191.038C125.195 191.19 125.23 191.352 125.232 191.517Z" fill="white"/>
<path d="M123.2 192.215C123.296 192.313 123.41 192.391 123.537 192.445C123.663 192.499 123.799 192.526 123.936 192.527C124.07 192.528 124.202 192.503 124.326 192.453C124.449 192.403 124.562 192.329 124.657 192.235C124.752 192.141 124.828 192.03 124.88 191.907C124.932 191.784 124.959 191.652 124.96 191.519C124.956 191.282 124.865 191.054 124.704 190.879C124.175 191.292 123.673 191.738 123.2 192.215Z" fill="#263238"/>
<path d="M130.216 191.517C130.222 191.77 130.153 192.019 130.017 192.233C129.881 192.446 129.685 192.614 129.453 192.715C129.222 192.816 128.965 192.846 128.716 192.801C128.467 192.755 128.238 192.637 128.056 192.46C127.875 192.284 127.751 192.057 127.699 191.81C127.648 191.562 127.671 191.305 127.766 191.07C127.861 190.836 128.024 190.635 128.234 190.494C128.444 190.353 128.691 190.278 128.944 190.277C129.109 190.275 129.273 190.306 129.426 190.367C129.579 190.428 129.719 190.519 129.837 190.634C129.955 190.749 130.049 190.886 130.114 191.038C130.179 191.19 130.214 191.352 130.216 191.517Z" fill="white"/>
<path d="M128.216 192.215C128.31 192.314 128.422 192.392 128.548 192.446C128.673 192.5 128.808 192.527 128.944 192.527C129.077 192.528 129.21 192.503 129.333 192.453C129.457 192.403 129.569 192.329 129.665 192.235C129.76 192.141 129.835 192.03 129.887 191.907C129.939 191.784 129.967 191.652 129.968 191.519C129.963 191.282 129.872 191.054 129.712 190.879C129.183 191.29 128.683 191.736 128.216 192.215Z" fill="#263238"/>
<path d="M135.2 191.517C135.208 191.772 135.14 192.023 135.004 192.239C134.868 192.455 134.671 192.625 134.438 192.728C134.205 192.831 133.947 192.862 133.696 192.818C133.445 192.773 133.213 192.654 133.03 192.477C132.847 192.299 132.721 192.072 132.668 191.822C132.616 191.573 132.639 191.314 132.734 191.077C132.83 190.841 132.994 190.639 133.205 190.496C133.416 190.354 133.665 190.278 133.92 190.277C134.254 190.273 134.576 190.401 134.816 190.633C135.056 190.866 135.194 191.184 135.2 191.517Z" fill="white"/>
<path d="M133.2 192.215C133.294 192.314 133.407 192.392 133.532 192.446C133.657 192.5 133.792 192.527 133.928 192.527C134.062 192.528 134.194 192.503 134.318 192.453C134.441 192.403 134.554 192.329 134.649 192.235C134.744 192.141 134.82 192.03 134.872 191.907C134.924 191.784 134.951 191.652 134.952 191.519C134.948 191.282 134.857 191.054 134.696 190.879C134.169 191.292 133.67 191.738 133.2 192.215Z" fill="#263238"/>
<path d="M140.192 191.517C140.198 191.77 140.129 192.019 139.993 192.233C139.858 192.446 139.661 192.614 139.429 192.715C139.198 192.816 138.941 192.846 138.692 192.801C138.443 192.755 138.214 192.637 138.033 192.46C137.851 192.284 137.727 192.057 137.675 191.81C137.624 191.562 137.647 191.305 137.742 191.07C137.837 190.836 138 190.635 138.21 190.494C138.42 190.353 138.667 190.278 138.92 190.277C139.085 190.275 139.249 190.306 139.402 190.367C139.555 190.428 139.695 190.519 139.813 190.634C139.931 190.749 140.025 190.886 140.09 191.038C140.155 191.19 140.19 191.352 140.192 191.517Z" fill="white"/>
<path d="M138.184 192.215C138.324 192.362 138.504 192.463 138.702 192.507C138.9 192.55 139.107 192.534 139.295 192.459C139.484 192.384 139.645 192.254 139.759 192.087C139.874 191.919 139.935 191.722 139.936 191.519C139.935 191.281 139.844 191.052 139.68 190.879C139.153 191.292 138.654 191.738 138.184 192.215Z" fill="#263238"/>
<path d="M145.176 191.517C145.182 191.77 145.113 192.019 144.977 192.233C144.841 192.446 144.645 192.614 144.413 192.715C144.181 192.816 143.925 192.846 143.676 192.801C143.427 192.755 143.198 192.637 143.016 192.46C142.835 192.284 142.711 192.057 142.659 191.81C142.607 191.562 142.631 191.305 142.726 191.07C142.821 190.836 142.984 190.635 143.194 190.494C143.404 190.353 143.651 190.278 143.904 190.277C144.069 190.275 144.233 190.306 144.386 190.367C144.539 190.428 144.679 190.519 144.797 190.634C144.915 190.749 145.009 190.886 145.074 191.038C145.139 191.19 145.174 191.352 145.176 191.517Z" fill="white"/>
<path d="M143.2 192.215C143.341 192.361 143.522 192.461 143.72 192.504C143.918 192.547 144.124 192.53 144.313 192.455C144.501 192.381 144.663 192.252 144.779 192.085C144.894 191.919 144.957 191.722 144.96 191.519C144.956 191.282 144.865 191.054 144.704 190.879C144.175 191.292 143.673 191.738 143.2 192.215Z" fill="#263238"/>
<path d="M150.16 191.517C150.166 191.77 150.097 192.019 149.961 192.233C149.825 192.446 149.629 192.614 149.397 192.715C149.165 192.816 148.909 192.846 148.66 192.801C148.411 192.755 148.181 192.637 148 192.46C147.819 192.284 147.695 192.057 147.643 191.81C147.591 191.562 147.615 191.305 147.71 191.07C147.805 190.836 147.968 190.635 148.178 190.494C148.388 190.353 148.635 190.278 148.888 190.277C149.053 190.275 149.217 190.306 149.37 190.367C149.523 190.428 149.663 190.519 149.781 190.634C149.899 190.749 149.993 190.886 150.058 191.038C150.123 191.19 150.158 191.352 150.16 191.517Z" fill="white"/>
<path d="M148.152 192.215C148.248 192.313 148.362 192.391 148.488 192.445C148.615 192.499 148.751 192.526 148.888 192.527C149.021 192.528 149.154 192.503 149.277 192.453C149.401 192.403 149.514 192.329 149.609 192.235C149.704 192.141 149.779 192.03 149.831 191.907C149.883 191.784 149.911 191.652 149.912 191.519C149.907 191.282 149.816 191.054 149.656 190.879C149.127 191.292 148.624 191.738 148.152 192.215Z" fill="#263238"/>
<path d="M155.144 191.517C155.151 191.77 155.081 192.019 154.946 192.233C154.81 192.446 154.613 192.614 154.382 192.715C154.15 192.816 153.893 192.846 153.644 192.801C153.395 192.755 153.166 192.637 152.985 192.46C152.804 192.284 152.679 192.057 152.627 191.81C152.576 191.562 152.599 191.305 152.694 191.07C152.79 190.836 152.952 190.635 153.162 190.494C153.372 190.353 153.619 190.278 153.872 190.277C154.037 190.275 154.201 190.306 154.354 190.367C154.507 190.428 154.647 190.519 154.765 190.634C154.883 190.749 154.977 190.886 155.042 191.038C155.108 191.19 155.142 191.352 155.144 191.517Z" fill="white"/>
<path d="M153.144 192.215C153.238 192.314 153.351 192.392 153.476 192.446C153.601 192.5 153.736 192.527 153.872 192.527C154.005 192.528 154.138 192.503 154.261 192.453C154.385 192.403 154.498 192.329 154.593 192.235C154.688 192.141 154.764 192.03 154.816 191.907C154.868 191.784 154.895 191.652 154.896 191.519C154.891 191.282 154.8 191.054 154.64 190.879C154.113 191.292 153.614 191.738 153.144 192.215Z" fill="#263238"/>
<path d="M160.136 191.517C160.144 191.772 160.076 192.024 159.939 192.24C159.803 192.456 159.606 192.626 159.372 192.729C159.139 192.832 158.88 192.862 158.629 192.817C158.378 192.772 158.146 192.652 157.963 192.474C157.78 192.296 157.655 192.067 157.603 191.817C157.552 191.567 157.576 191.308 157.672 191.072C157.769 190.836 157.934 190.634 158.147 190.492C158.359 190.351 158.609 190.276 158.864 190.277C159.029 190.275 159.193 190.306 159.346 190.367C159.499 190.428 159.639 190.519 159.757 190.634C159.875 190.749 159.969 190.886 160.034 191.038C160.099 191.19 160.134 191.352 160.136 191.517Z" fill="white"/>
<path d="M158.128 192.215C158.268 192.362 158.448 192.463 158.646 192.507C158.844 192.55 159.051 192.534 159.239 192.459C159.427 192.384 159.589 192.254 159.703 192.087C159.818 191.919 159.879 191.722 159.88 191.519C159.879 191.281 159.788 191.052 159.624 190.879C159.097 191.292 158.597 191.738 158.128 192.215Z" fill="#263238"/>
<path d="M165.12 191.517C165.126 191.77 165.057 192.019 164.921 192.233C164.785 192.446 164.589 192.614 164.357 192.715C164.125 192.816 163.869 192.846 163.62 192.801C163.371 192.755 163.141 192.637 162.96 192.46C162.779 192.284 162.655 192.057 162.603 191.81C162.551 191.562 162.575 191.305 162.67 191.07C162.765 190.836 162.928 190.635 163.138 190.494C163.348 190.353 163.595 190.278 163.848 190.277C164.013 190.275 164.176 190.306 164.33 190.367C164.483 190.428 164.622 190.519 164.741 190.634C164.859 190.749 164.953 190.886 165.018 191.038C165.083 191.19 165.118 191.352 165.12 191.517Z" fill="white"/>
<path d="M163.112 192.215C163.253 192.361 163.434 192.461 163.632 192.504C163.83 192.547 164.036 192.53 164.225 192.455C164.413 192.381 164.575 192.252 164.69 192.085C164.805 191.919 164.869 191.722 164.872 191.519C164.867 191.282 164.776 191.054 164.616 190.879C164.085 191.29 163.582 191.736 163.112 192.215Z" fill="#263238"/>
<path d="M170.104 191.517C170.111 191.77 170.041 192.019 169.906 192.233C169.77 192.446 169.573 192.614 169.342 192.715C169.11 192.816 168.853 192.846 168.604 192.801C168.355 192.755 168.126 192.637 167.945 192.46C167.764 192.284 167.639 192.057 167.587 191.81C167.536 191.562 167.559 191.305 167.654 191.07C167.749 190.836 167.912 190.635 168.122 190.494C168.332 190.353 168.579 190.278 168.832 190.277C168.997 190.275 169.161 190.306 169.314 190.367C169.467 190.428 169.607 190.519 169.725 190.634C169.843 190.749 169.937 190.886 170.002 191.038C170.067 191.19 170.102 191.352 170.104 191.517Z" fill="white"/>
<path d="M168.096 192.215C168.192 192.313 168.306 192.391 168.433 192.445C168.559 192.499 168.695 192.526 168.832 192.527C168.966 192.528 169.098 192.503 169.222 192.453C169.345 192.403 169.458 192.329 169.553 192.235C169.648 192.141 169.724 192.03 169.776 191.907C169.828 191.784 169.855 191.652 169.856 191.519C169.852 191.282 169.761 191.054 169.6 190.879C169.071 191.292 168.569 191.738 168.096 192.215Z" fill="#263238"/>
<path d="M225.344 183.592C225.349 183.844 225.278 184.093 225.141 184.305C225.005 184.517 224.808 184.684 224.576 184.784C224.344 184.884 224.087 184.913 223.839 184.866C223.591 184.82 223.362 184.701 223.181 184.524C223.001 184.347 222.878 184.12 222.827 183.873C222.775 183.626 222.799 183.369 222.895 183.135C222.99 182.901 223.153 182.701 223.363 182.56C223.573 182.419 223.819 182.344 224.072 182.344C224.238 182.342 224.402 182.372 224.556 182.434C224.709 182.496 224.849 182.587 224.968 182.703C225.086 182.819 225.18 182.957 225.245 183.11C225.309 183.262 225.343 183.426 225.344 183.592Z" fill="white"/>
<path d="M223.344 184.277C223.483 184.424 223.663 184.525 223.86 184.569C224.057 184.613 224.263 184.597 224.451 184.523C224.639 184.449 224.801 184.321 224.916 184.154C225.031 183.988 225.093 183.791 225.096 183.589C225.093 183.349 225.002 183.119 224.84 182.941C224.313 183.354 223.813 183.8 223.344 184.277Z" fill="#263238"/>
<path d="M230.336 183.592C230.342 183.847 230.273 184.097 230.135 184.312C229.998 184.527 229.8 184.696 229.567 184.798C229.333 184.899 229.074 184.929 228.823 184.882C228.573 184.836 228.342 184.716 228.16 184.538C227.978 184.359 227.854 184.13 227.802 183.881C227.751 183.631 227.776 183.372 227.873 183.136C227.97 182.901 228.135 182.699 228.347 182.558C228.56 182.417 228.809 182.342 229.064 182.344C229.23 182.342 229.394 182.372 229.548 182.434C229.701 182.496 229.841 182.587 229.96 182.703C230.078 182.819 230.172 182.957 230.237 183.11C230.301 183.262 230.335 183.426 230.336 183.592Z" fill="white"/>
<path d="M228.328 184.277C228.467 184.424 228.647 184.525 228.844 184.569C229.042 184.613 229.248 184.597 229.436 184.523C229.624 184.449 229.785 184.321 229.9 184.154C230.015 183.988 230.078 183.791 230.08 183.589C230.081 183.349 229.989 183.117 229.824 182.941C229.297 183.354 228.798 183.8 228.328 184.277Z" fill="#263238"/>
<path d="M235.32 183.592C235.325 183.844 235.254 184.093 235.118 184.305C234.981 184.517 234.784 184.684 234.552 184.784C234.32 184.884 234.063 184.913 233.815 184.866C233.567 184.82 233.338 184.701 233.158 184.524C232.977 184.347 232.854 184.12 232.803 183.873C232.752 183.626 232.775 183.369 232.871 183.135C232.966 182.901 233.129 182.701 233.339 182.56C233.549 182.419 233.796 182.344 234.048 182.344C234.214 182.342 234.378 182.372 234.532 182.434C234.686 182.496 234.826 182.587 234.944 182.703C235.062 182.819 235.156 182.957 235.221 183.11C235.285 183.262 235.319 183.426 235.32 183.592Z" fill="white"/>
<path d="M233.312 184.277C233.452 184.423 233.633 184.523 233.83 184.566C234.027 184.609 234.233 184.593 234.421 184.519C234.609 184.446 234.771 184.318 234.887 184.153C235.003 183.987 235.067 183.791 235.072 183.589C235.069 183.349 234.978 183.119 234.816 182.941C234.285 183.352 233.783 183.799 233.312 184.277Z" fill="#263238"/>
<path d="M240.304 183.592C240.309 183.844 240.238 184.093 240.101 184.305C239.965 184.517 239.768 184.684 239.536 184.784C239.304 184.884 239.047 184.913 238.799 184.866C238.551 184.82 238.322 184.701 238.141 184.524C237.961 184.347 237.838 184.12 237.787 183.873C237.735 183.626 237.759 183.369 237.855 183.135C237.95 182.901 238.113 182.701 238.323 182.56C238.533 182.419 238.779 182.344 239.032 182.344C239.198 182.342 239.362 182.372 239.516 182.434C239.669 182.496 239.809 182.587 239.928 182.703C240.046 182.819 240.14 182.957 240.205 183.11C240.269 183.262 240.303 183.426 240.304 183.592Z" fill="white"/>
<path d="M238.296 184.277C238.392 184.376 238.506 184.454 238.632 184.508C238.759 184.561 238.895 184.589 239.032 184.589C239.165 184.592 239.297 184.567 239.421 184.518C239.544 184.469 239.657 184.396 239.752 184.303C239.847 184.21 239.923 184.099 239.975 183.976C240.027 183.854 240.055 183.722 240.056 183.589C240.053 183.349 239.962 183.119 239.8 182.941C239.271 183.354 238.768 183.8 238.296 184.277Z" fill="#263238"/>
<path d="M245.288 183.592C245.293 183.844 245.222 184.093 245.085 184.305C244.948 184.517 244.752 184.684 244.52 184.784C244.288 184.884 244.031 184.913 243.783 184.866C243.534 184.82 243.306 184.701 243.125 184.524C242.945 184.347 242.821 184.12 242.77 183.873C242.719 183.626 242.743 183.369 242.839 183.135C242.934 182.901 243.097 182.701 243.307 182.56C243.516 182.419 243.763 182.344 244.016 182.344C244.182 182.342 244.346 182.372 244.5 182.434C244.653 182.496 244.793 182.587 244.912 182.703C245.03 182.819 245.124 182.957 245.188 183.11C245.253 183.262 245.287 183.426 245.288 183.592Z" fill="white"/>
<path d="M243.288 184.277C243.427 184.424 243.607 184.525 243.804 184.569C244.002 184.613 244.207 184.597 244.396 184.523C244.584 184.449 244.745 184.321 244.86 184.154C244.975 183.988 245.038 183.791 245.04 183.589C245.037 183.349 244.946 183.119 244.784 182.941C244.256 183.352 243.756 183.799 243.288 184.277Z" fill="#263238"/>
<path d="M250.28 183.592C250.286 183.846 250.217 184.097 250.08 184.311C249.943 184.526 249.745 184.695 249.512 184.797C249.279 184.899 249.021 184.929 248.77 184.883C248.52 184.837 248.289 184.718 248.107 184.54C247.924 184.363 247.799 184.135 247.747 183.886C247.695 183.636 247.719 183.377 247.814 183.142C247.91 182.906 248.074 182.704 248.285 182.562C248.497 182.42 248.745 182.344 249 182.344C249.166 182.342 249.331 182.372 249.485 182.434C249.639 182.496 249.779 182.587 249.898 182.703C250.017 182.819 250.112 182.957 250.178 183.109C250.243 183.262 250.278 183.426 250.28 183.592Z" fill="white"/>
<path d="M248.272 184.277C248.411 184.424 248.591 184.525 248.788 184.569C248.986 184.613 249.191 184.597 249.379 184.523C249.567 184.449 249.729 184.321 249.844 184.154C249.959 183.988 250.022 183.791 250.024 183.589C250.021 183.349 249.93 183.119 249.768 182.941C249.241 183.354 248.741 183.8 248.272 184.277Z" fill="#263238"/>
<path d="M255.264 183.592C255.271 183.847 255.201 184.097 255.064 184.312C254.927 184.527 254.728 184.696 254.495 184.798C254.261 184.899 254.002 184.929 253.752 184.882C253.501 184.836 253.27 184.716 253.088 184.538C252.906 184.359 252.782 184.13 252.731 183.881C252.679 183.631 252.704 183.372 252.801 183.136C252.898 182.901 253.063 182.699 253.276 182.558C253.488 182.417 253.737 182.342 253.992 182.344C254.158 182.342 254.322 182.372 254.476 182.434C254.63 182.496 254.77 182.587 254.888 182.703C255.006 182.819 255.1 182.957 255.165 183.11C255.229 183.262 255.263 183.426 255.264 183.592Z" fill="white"/>
<path d="M253.256 184.277C253.395 184.424 253.575 184.525 253.772 184.569C253.969 184.613 254.175 184.597 254.363 184.523C254.551 184.449 254.713 184.321 254.828 184.154C254.943 183.988 255.005 183.791 255.008 183.589C255.008 183.349 254.917 183.117 254.752 182.941C254.225 183.354 253.725 183.8 253.256 184.277Z" fill="#263238"/>
<path d="M260.248 183.592C260.253 183.844 260.182 184.093 260.045 184.305C259.908 184.517 259.711 184.684 259.48 184.784C259.248 184.884 258.991 184.913 258.743 184.866C258.494 184.82 258.266 184.701 258.085 184.524C257.905 184.347 257.781 184.12 257.73 183.873C257.679 183.626 257.703 183.369 257.799 183.135C257.894 182.901 258.057 182.701 258.267 182.56C258.476 182.419 258.723 182.344 258.976 182.344C259.141 182.342 259.306 182.372 259.46 182.434C259.613 182.496 259.753 182.587 259.872 182.703C259.99 182.819 260.084 182.957 260.148 183.11C260.213 183.262 260.247 183.426 260.248 183.592Z" fill="white"/>
<path d="M258.24 184.277C258.381 184.423 258.561 184.523 258.758 184.566C258.956 184.609 259.161 184.593 259.349 184.519C259.537 184.446 259.7 184.318 259.815 184.153C259.931 183.987 259.996 183.791 260 183.589C259.998 183.349 259.906 183.119 259.744 182.941C259.213 183.352 258.711 183.799 258.24 184.277Z" fill="#263238"/>
<path d="M265.232 183.592C265.237 183.844 265.166 184.093 265.03 184.305C264.893 184.517 264.696 184.684 264.464 184.784C264.232 184.884 263.975 184.913 263.727 184.866C263.479 184.82 263.25 184.701 263.07 184.524C262.889 184.347 262.766 184.12 262.715 183.873C262.664 183.626 262.687 183.369 262.783 183.135C262.878 182.901 263.041 182.701 263.251 182.56C263.461 182.419 263.708 182.344 263.96 182.344C264.126 182.342 264.29 182.372 264.444 182.434C264.598 182.496 264.738 182.587 264.856 182.703C264.974 182.819 265.068 182.957 265.133 183.11C265.197 183.262 265.231 183.426 265.232 183.592Z" fill="white"/>
<path d="M263.2 184.277C263.296 184.376 263.41 184.454 263.537 184.508C263.663 184.561 263.799 184.589 263.936 184.589C264.069 184.592 264.201 184.567 264.325 184.518C264.449 184.469 264.561 184.396 264.656 184.303C264.752 184.21 264.828 184.099 264.88 183.976C264.932 183.854 264.959 183.722 264.96 183.589C264.958 183.349 264.866 183.119 264.704 182.941C264.175 183.354 263.673 183.8 263.2 184.277Z" fill="#263238"/>
<path d="M270.216 183.592C270.221 183.844 270.15 184.093 270.014 184.305C269.877 184.517 269.68 184.684 269.448 184.784C269.216 184.884 268.959 184.913 268.711 184.866C268.463 184.82 268.234 184.701 268.054 184.524C267.873 184.347 267.75 184.12 267.699 183.873C267.648 183.626 267.671 183.369 267.767 183.135C267.862 182.901 268.025 182.701 268.235 182.56C268.445 182.419 268.692 182.344 268.944 182.344C269.11 182.342 269.274 182.372 269.428 182.434C269.582 182.496 269.722 182.587 269.84 182.703C269.958 182.819 270.052 182.957 270.117 183.11C270.181 183.262 270.215 183.426 270.216 183.592Z" fill="white"/>
<path d="M268.216 184.277C268.355 184.424 268.535 184.525 268.732 184.569C268.929 184.613 269.135 184.597 269.323 184.523C269.511 184.449 269.673 184.321 269.788 184.154C269.903 183.988 269.965 183.791 269.968 183.589C269.965 183.349 269.874 183.119 269.712 182.941C269.183 183.352 268.683 183.799 268.216 184.277Z" fill="#263238"/>
<path d="M275.2 183.592C275.207 183.846 275.137 184.097 275 184.311C274.864 184.526 274.666 184.695 274.433 184.797C274.199 184.899 273.941 184.929 273.691 184.883C273.44 184.837 273.209 184.718 273.027 184.54C272.845 184.363 272.72 184.135 272.668 183.886C272.616 183.636 272.639 183.377 272.735 183.142C272.831 182.906 272.995 182.704 273.206 182.562C273.417 182.42 273.666 182.344 273.92 182.344C274.086 182.342 274.251 182.372 274.405 182.434C274.559 182.496 274.7 182.587 274.819 182.703C274.938 182.819 275.032 182.957 275.098 183.109C275.163 183.262 275.198 183.426 275.2 183.592Z" fill="white"/>
<path d="M273.2 184.277C273.339 184.424 273.519 184.525 273.716 184.569C273.914 184.613 274.12 184.597 274.308 184.523C274.496 184.449 274.657 184.321 274.772 184.154C274.887 183.988 274.95 183.791 274.952 183.589C274.949 183.349 274.858 183.119 274.696 182.941C274.169 183.354 273.67 183.8 273.2 184.277Z" fill="#263238"/>
<path d="M280.192 183.592C280.197 183.844 280.126 184.093 279.99 184.305C279.853 184.517 279.656 184.684 279.424 184.784C279.192 184.884 278.935 184.913 278.687 184.866C278.439 184.82 278.21 184.701 278.03 184.524C277.849 184.347 277.726 184.12 277.675 183.873C277.624 183.626 277.647 183.369 277.743 183.135C277.838 182.901 278.001 182.701 278.211 182.56C278.421 182.419 278.668 182.344 278.92 182.344C279.086 182.342 279.25 182.372 279.404 182.434C279.558 182.496 279.698 182.587 279.816 182.703C279.934 182.819 280.028 182.957 280.093 183.11C280.157 183.262 280.191 183.426 280.192 183.592Z" fill="white"/>
<path d="M278.184 184.277C278.28 184.376 278.394 184.455 278.52 184.508C278.647 184.562 278.783 184.589 278.92 184.589C279.052 184.59 279.184 184.565 279.306 184.516C279.429 184.466 279.541 184.393 279.635 184.3C279.73 184.207 279.805 184.096 279.856 183.975C279.908 183.853 279.935 183.722 279.936 183.589C279.936 183.349 279.845 183.117 279.68 182.941C279.153 183.354 278.654 183.8 278.184 184.277Z" fill="#263238"/>
<path d="M285.176 183.592C285.181 183.844 285.11 184.093 284.973 184.305C284.837 184.517 284.64 184.684 284.408 184.784C284.176 184.884 283.919 184.913 283.671 184.866C283.423 184.82 283.194 184.701 283.014 184.524C282.833 184.347 282.71 184.12 282.659 183.873C282.608 183.626 282.631 183.369 282.727 183.135C282.822 182.901 282.985 182.701 283.195 182.56C283.405 182.419 283.652 182.344 283.904 182.344C284.07 182.342 284.234 182.372 284.388 182.434C284.542 182.496 284.682 182.587 284.8 182.703C284.918 182.819 285.012 182.957 285.077 183.11C285.141 183.262 285.175 183.426 285.176 183.592Z" fill="white"/>
<path d="M283.2 184.277C283.341 184.423 283.521 184.523 283.718 184.566C283.915 184.609 284.121 184.593 284.309 184.519C284.497 184.446 284.66 184.318 284.775 184.153C284.891 183.987 284.956 183.791 284.96 183.589C284.958 183.349 284.866 183.119 284.704 182.941C284.175 183.354 283.673 183.8 283.2 184.277Z" fill="#263238"/>
<path d="M290.16 183.592C290.165 183.844 290.094 184.093 289.957 184.305C289.821 184.517 289.624 184.684 289.392 184.784C289.16 184.884 288.903 184.913 288.655 184.866C288.407 184.82 288.178 184.701 287.997 184.524C287.817 184.347 287.694 184.12 287.642 183.873C287.591 183.626 287.615 183.369 287.711 183.135C287.806 182.901 287.969 182.701 288.179 182.56C288.389 182.419 288.635 182.344 288.888 182.344C289.054 182.342 289.218 182.372 289.372 182.434C289.525 182.496 289.665 182.587 289.784 182.703C289.902 182.819 289.996 182.957 290.061 183.11C290.125 183.262 290.159 183.426 290.16 183.592Z" fill="white"/>
<path d="M288.152 184.277C288.248 184.376 288.362 184.454 288.488 184.508C288.615 184.561 288.751 184.589 288.888 184.589C289.021 184.592 289.153 184.567 289.277 184.518C289.4 184.469 289.513 184.396 289.608 184.303C289.703 184.21 289.779 184.099 289.831 183.976C289.883 183.854 289.911 183.722 289.912 183.589C289.909 183.349 289.818 183.119 289.656 182.941C289.127 183.354 288.624 183.8 288.152 184.277Z" fill="#263238"/>
<path d="M225.344 191.517C225.35 191.77 225.281 192.019 225.145 192.233C225.009 192.446 224.813 192.614 224.581 192.715C224.349 192.816 224.093 192.846 223.844 192.801C223.595 192.755 223.365 192.637 223.184 192.46C223.003 192.284 222.879 192.057 222.827 191.81C222.775 191.562 222.799 191.305 222.894 191.07C222.989 190.836 223.152 190.635 223.362 190.494C223.572 190.353 223.819 190.278 224.072 190.277C224.237 190.275 224.401 190.306 224.554 190.367C224.707 190.428 224.847 190.519 224.965 190.634C225.083 190.749 225.177 190.886 225.242 191.038C225.307 191.19 225.342 191.352 225.344 191.517Z" fill="white"/>
<path d="M223.344 192.215C223.437 192.314 223.55 192.392 223.676 192.446C223.801 192.5 223.936 192.527 224.072 192.527C224.205 192.528 224.338 192.503 224.461 192.453C224.585 192.403 224.697 192.329 224.793 192.235C224.888 192.141 224.963 192.03 225.015 191.907C225.067 191.784 225.095 191.652 225.096 191.519C225.091 191.282 225 191.054 224.84 190.879C224.313 191.292 223.813 191.738 223.344 192.215Z" fill="#263238"/>
<path d="M230.336 191.517C230.344 191.772 230.276 192.024 230.14 192.24C230.004 192.456 229.806 192.626 229.573 192.729C229.339 192.832 229.08 192.862 228.829 192.817C228.578 192.772 228.346 192.652 228.163 192.474C227.981 192.296 227.855 192.067 227.804 191.817C227.752 191.567 227.776 191.308 227.873 191.072C227.969 190.836 228.135 190.634 228.347 190.492C228.559 190.351 228.809 190.276 229.064 190.277C229.229 190.275 229.393 190.306 229.546 190.367C229.699 190.428 229.839 190.519 229.957 190.634C230.075 190.749 230.169 190.886 230.235 191.038C230.3 191.19 230.334 191.352 230.336 191.517Z" fill="white"/>
<path d="M228.328 192.215C228.468 192.362 228.648 192.463 228.846 192.507C229.044 192.55 229.251 192.534 229.439 192.459C229.628 192.384 229.789 192.254 229.904 192.087C230.018 191.919 230.079 191.722 230.08 191.519C230.079 191.281 229.988 191.052 229.824 190.879C229.297 191.292 228.798 191.738 228.328 192.215Z" fill="#263238"/>
<path d="M235.32 191.517C235.326 191.77 235.257 192.019 235.121 192.233C234.985 192.446 234.789 192.614 234.557 192.715C234.326 192.816 234.069 192.846 233.82 192.801C233.571 192.755 233.342 192.637 233.16 192.46C232.979 192.284 232.855 192.057 232.803 191.81C232.752 191.562 232.775 191.305 232.87 191.07C232.965 190.836 233.128 190.635 233.338 190.494C233.548 190.353 233.795 190.278 234.048 190.277C234.213 190.275 234.377 190.306 234.53 190.367C234.683 190.428 234.823 190.519 234.941 190.634C235.059 190.749 235.153 190.886 235.218 191.038C235.283 191.19 235.318 191.352 235.32 191.517Z" fill="white"/>
<path d="M233.312 192.215C233.453 192.361 233.634 192.461 233.832 192.504C234.03 192.547 234.236 192.53 234.425 192.455C234.613 192.381 234.775 192.252 234.89 192.085C235.006 191.919 235.069 191.722 235.072 191.519C235.067 191.282 234.976 191.054 234.816 190.879C234.285 191.29 233.783 191.736 233.312 192.215Z" fill="#263238"/>
<path d="M240.304 191.517C240.31 191.77 240.241 192.019 240.105 192.233C239.969 192.446 239.773 192.614 239.541 192.715C239.309 192.816 239.053 192.846 238.804 192.801C238.555 192.755 238.325 192.637 238.144 192.46C237.963 192.284 237.839 192.057 237.787 191.81C237.735 191.562 237.759 191.305 237.854 191.07C237.949 190.836 238.112 190.635 238.322 190.494C238.532 190.353 238.779 190.278 239.032 190.277C239.197 190.275 239.361 190.306 239.514 190.367C239.667 190.428 239.807 190.519 239.925 190.634C240.043 190.749 240.137 190.886 240.202 191.038C240.267 191.19 240.302 191.352 240.304 191.517Z" fill="white"/>
<path d="M238.296 192.215C238.392 192.313 238.506 192.391 238.632 192.445C238.759 192.499 238.895 192.526 239.032 192.527C239.165 192.528 239.298 192.503 239.421 192.453C239.545 192.403 239.658 192.329 239.753 192.235C239.848 192.141 239.923 192.03 239.976 191.907C240.028 191.784 240.055 191.652 240.056 191.519C240.051 191.282 239.96 191.054 239.8 190.879C239.271 191.292 238.768 191.738 238.296 192.215Z" fill="#263238"/>
<path d="M245.288 191.517C245.295 191.77 245.225 192.019 245.09 192.233C244.954 192.446 244.757 192.614 244.526 192.715C244.294 192.816 244.037 192.846 243.788 192.801C243.539 192.755 243.31 192.637 243.129 192.46C242.948 192.284 242.823 192.057 242.772 191.81C242.72 191.562 242.743 191.305 242.838 191.07C242.934 190.836 243.097 190.635 243.306 190.494C243.516 190.353 243.763 190.278 244.016 190.277C244.181 190.275 244.345 190.306 244.498 190.367C244.651 190.428 244.791 190.519 244.909 190.634C245.027 190.749 245.121 190.886 245.187 191.038C245.252 191.19 245.286 191.352 245.288 191.517Z" fill="white"/>
<path d="M243.288 192.215C243.382 192.314 243.495 192.392 243.62 192.446C243.745 192.5 243.88 192.527 244.016 192.527C244.15 192.528 244.282 192.503 244.406 192.453C244.529 192.403 244.642 192.329 244.737 192.235C244.832 192.141 244.908 192.03 244.96 191.907C245.012 191.784 245.039 191.652 245.04 191.519C245.035 191.282 244.944 191.054 244.784 190.879C244.256 191.29 243.756 191.736 243.288 192.215Z" fill="#263238"/>
<path d="M250.28 191.517C250.288 191.772 250.22 192.023 250.084 192.239C249.948 192.455 249.751 192.625 249.518 192.728C249.285 192.831 249.027 192.862 248.776 192.818C248.525 192.773 248.293 192.654 248.11 192.477C247.927 192.299 247.801 192.072 247.748 191.822C247.696 191.573 247.719 191.314 247.814 191.077C247.91 190.841 248.074 190.639 248.285 190.496C248.496 190.354 248.745 190.278 249 190.277C249.334 190.273 249.656 190.401 249.896 190.633C250.136 190.866 250.274 191.184 250.28 191.517Z" fill="white"/>
<path d="M248.272 192.215C248.366 192.314 248.479 192.392 248.604 192.446C248.729 192.5 248.864 192.527 249 192.527C249.133 192.528 249.266 192.503 249.389 192.453C249.513 192.403 249.626 192.329 249.721 192.235C249.816 192.141 249.892 192.03 249.944 191.907C249.996 191.784 250.023 191.652 250.024 191.519C250.019 191.282 249.928 191.054 249.768 190.879C249.241 191.292 248.741 191.738 248.272 192.215Z" fill="#263238"/>
<path d="M255.264 191.517C255.272 191.772 255.204 192.024 255.067 192.24C254.931 192.456 254.734 192.626 254.5 192.729C254.267 192.832 254.008 192.862 253.757 192.817C253.506 192.772 253.274 192.652 253.091 192.474C252.908 192.296 252.783 192.067 252.731 191.817C252.679 191.567 252.704 191.308 252.8 191.072C252.897 190.836 253.062 190.634 253.275 190.492C253.487 190.351 253.737 190.276 253.992 190.277C254.157 190.275 254.321 190.306 254.474 190.367C254.627 190.428 254.767 190.519 254.885 190.634C255.003 190.749 255.097 190.886 255.162 191.038C255.227 191.19 255.262 191.352 255.264 191.517Z" fill="white"/>
<path d="M253.256 192.215C253.396 192.362 253.576 192.463 253.774 192.507C253.972 192.55 254.179 192.534 254.367 192.459C254.555 192.384 254.717 192.254 254.831 192.087C254.945 191.919 255.007 191.722 255.008 191.519C255.007 191.281 254.915 191.052 254.752 190.879C254.225 191.292 253.725 191.738 253.256 192.215Z" fill="#263238"/>
<path d="M260.248 191.517C260.255 191.77 260.185 192.019 260.05 192.233C259.914 192.446 259.717 192.614 259.486 192.715C259.254 192.816 258.997 192.846 258.748 192.801C258.499 192.755 258.27 192.637 258.089 192.46C257.908 192.284 257.783 192.057 257.731 191.81C257.68 191.562 257.703 191.305 257.798 191.07C257.894 190.836 258.056 190.635 258.266 190.494C258.476 190.353 258.723 190.278 258.976 190.277C259.141 190.275 259.305 190.306 259.458 190.367C259.611 190.428 259.751 190.519 259.869 190.634C259.987 190.749 260.081 190.886 260.146 191.038C260.212 191.19 260.246 191.352 260.248 191.517Z" fill="white"/>
<path d="M258.24 192.215C258.381 192.361 258.562 192.461 258.76 192.504C258.958 192.547 259.164 192.53 259.353 192.455C259.541 192.381 259.703 192.252 259.819 192.085C259.934 191.919 259.997 191.722 260 191.519C259.996 191.282 259.905 191.054 259.744 190.879C259.213 191.29 258.711 191.736 258.24 192.215Z" fill="#263238"/>
<path d="M265.232 191.517C265.238 191.77 265.169 192.019 265.033 192.233C264.898 192.446 264.701 192.614 264.469 192.715C264.238 192.816 263.981 192.846 263.732 192.801C263.483 192.755 263.254 192.637 263.073 192.46C262.891 192.284 262.767 192.057 262.715 191.81C262.664 191.562 262.687 191.305 262.782 191.07C262.877 190.836 263.04 190.635 263.25 190.494C263.46 190.353 263.707 190.278 263.96 190.277C264.125 190.275 264.289 190.306 264.442 190.367C264.595 190.428 264.735 190.519 264.853 190.634C264.971 190.749 265.065 190.886 265.13 191.038C265.195 191.19 265.23 191.352 265.232 191.517Z" fill="white"/>
<path d="M263.2 192.215C263.296 192.313 263.41 192.391 263.537 192.445C263.663 192.499 263.799 192.526 263.936 192.527C264.07 192.528 264.202 192.503 264.326 192.453C264.449 192.403 264.562 192.329 264.657 192.235C264.752 192.141 264.828 192.03 264.88 191.907C264.932 191.784 264.959 191.652 264.96 191.519C264.956 191.282 264.865 191.054 264.704 190.879C264.175 191.292 263.673 191.738 263.2 192.215Z" fill="#263238"/>
<path d="M270.216 191.517C270.222 191.77 270.153 192.019 270.017 192.233C269.881 192.446 269.685 192.614 269.453 192.715C269.222 192.816 268.965 192.846 268.716 192.801C268.467 192.755 268.238 192.637 268.056 192.46C267.875 192.284 267.751 192.057 267.699 191.81C267.648 191.562 267.671 191.305 267.766 191.07C267.861 190.836 268.024 190.635 268.234 190.494C268.444 190.353 268.691 190.278 268.944 190.277C269.109 190.275 269.273 190.306 269.426 190.367C269.579 190.428 269.719 190.519 269.837 190.634C269.955 190.749 270.049 190.886 270.114 191.038C270.179 191.19 270.214 191.352 270.216 191.517Z" fill="white"/>
<path d="M268.216 192.215C268.31 192.314 268.422 192.392 268.548 192.446C268.673 192.5 268.808 192.527 268.944 192.527C269.077 192.528 269.21 192.503 269.333 192.453C269.457 192.403 269.57 192.329 269.665 192.235C269.76 192.141 269.835 192.03 269.887 191.907C269.939 191.784 269.967 191.652 269.968 191.519C269.963 191.282 269.872 191.054 269.712 190.879C269.183 191.29 268.683 191.736 268.216 192.215Z" fill="#263238"/>
<path d="M275.2 191.517C275.208 191.772 275.14 192.023 275.004 192.239C274.868 192.455 274.671 192.625 274.438 192.728C274.205 192.831 273.947 192.862 273.696 192.818C273.445 192.773 273.213 192.654 273.03 192.477C272.847 192.299 272.721 192.072 272.668 191.822C272.616 191.573 272.638 191.314 272.734 191.077C272.83 190.841 272.994 190.639 273.205 190.496C273.416 190.354 273.665 190.278 273.92 190.277C274.254 190.273 274.576 190.401 274.816 190.633C275.056 190.866 275.194 191.184 275.2 191.517Z" fill="white"/>
<path d="M273.2 192.215C273.294 192.314 273.407 192.392 273.532 192.446C273.657 192.5 273.792 192.527 273.928 192.527C274.062 192.528 274.194 192.503 274.318 192.453C274.441 192.403 274.554 192.329 274.649 192.235C274.744 192.141 274.82 192.03 274.872 191.907C274.924 191.784 274.951 191.652 274.952 191.519C274.948 191.282 274.857 191.054 274.696 190.879C274.169 191.292 273.67 191.738 273.2 192.215Z" fill="#263238"/>
<path d="M280.192 191.517C280.198 191.77 280.129 192.019 279.993 192.233C279.858 192.446 279.661 192.614 279.429 192.715C279.198 192.816 278.941 192.846 278.692 192.801C278.443 192.755 278.214 192.637 278.033 192.46C277.851 192.284 277.727 192.057 277.675 191.81C277.624 191.562 277.647 191.305 277.742 191.07C277.837 190.836 278 190.635 278.21 190.494C278.42 190.353 278.667 190.278 278.92 190.277C279.085 190.275 279.249 190.306 279.402 190.367C279.555 190.428 279.695 190.519 279.813 190.634C279.931 190.749 280.025 190.886 280.09 191.038C280.155 191.19 280.19 191.352 280.192 191.517Z" fill="white"/>
<path d="M278.184 192.215C278.324 192.362 278.504 192.463 278.702 192.507C278.9 192.55 279.107 192.534 279.295 192.459C279.484 192.384 279.645 192.254 279.759 192.087C279.874 191.919 279.935 191.722 279.936 191.519C279.935 191.281 279.844 191.052 279.68 190.879C279.153 191.292 278.654 191.738 278.184 192.215Z" fill="#263238"/>
<path d="M285.176 191.517C285.182 191.77 285.113 192.019 284.977 192.233C284.841 192.446 284.645 192.614 284.413 192.715C284.181 192.816 283.925 192.846 283.676 192.801C283.427 192.755 283.198 192.637 283.016 192.46C282.835 192.284 282.711 192.057 282.659 191.81C282.607 191.562 282.631 191.305 282.726 191.07C282.821 190.836 282.984 190.635 283.194 190.494C283.404 190.353 283.651 190.278 283.904 190.277C284.069 190.275 284.233 190.306 284.386 190.367C284.539 190.428 284.679 190.519 284.797 190.634C284.915 190.749 285.009 190.886 285.074 191.038C285.139 191.19 285.174 191.352 285.176 191.517Z" fill="white"/>
<path d="M283.2 192.215C283.341 192.361 283.522 192.461 283.72 192.504C283.918 192.547 284.124 192.53 284.313 192.455C284.501 192.381 284.663 192.252 284.779 192.085C284.894 191.919 284.957 191.722 284.96 191.519C284.956 191.282 284.865 191.054 284.704 190.879C284.175 191.292 283.673 191.738 283.2 192.215Z" fill="#263238"/>
<path d="M290.16 191.517C290.166 191.77 290.097 192.019 289.961 192.233C289.825 192.446 289.629 192.614 289.397 192.715C289.165 192.816 288.909 192.846 288.66 192.801C288.411 192.755 288.181 192.637 288 192.46C287.819 192.284 287.695 192.057 287.643 191.81C287.591 191.562 287.615 191.305 287.71 191.07C287.805 190.836 287.968 190.635 288.178 190.494C288.388 190.353 288.635 190.278 288.888 190.277C289.053 190.275 289.216 190.306 289.37 190.367C289.523 190.428 289.663 190.519 289.781 190.634C289.899 190.749 289.993 190.886 290.058 191.038C290.123 191.19 290.158 191.352 290.16 191.517Z" fill="white"/>
<path d="M288.152 192.215C288.248 192.313 288.362 192.391 288.488 192.445C288.615 192.499 288.751 192.526 288.888 192.527C289.021 192.528 289.154 192.503 289.277 192.453C289.401 192.403 289.514 192.329 289.609 192.235C289.704 192.141 289.779 192.03 289.831 191.907C289.883 191.784 289.911 191.652 289.912 191.519C289.907 191.282 289.816 191.054 289.656 190.879C289.127 191.292 288.624 191.738 288.152 192.215Z" fill="#263238"/>
<path d="M216.328 177.44H177.76C176.922 177.44 176.118 177.112 175.52 176.526C174.921 175.939 174.577 175.142 174.56 174.304V156.512C174.56 144.376 184.648 134.496 197.048 134.496C209.448 134.496 219.544 144.376 219.544 156.512V174.304C219.527 175.144 219.181 175.944 218.579 176.531C217.977 177.118 217.169 177.444 216.328 177.44ZM180.96 171.2H213.12V156.512C213.12 152.247 211.426 148.157 208.41 145.142C205.395 142.126 201.305 140.432 197.04 140.432C192.775 140.432 188.685 142.126 185.67 145.142C182.654 148.157 180.96 152.247 180.96 156.512V171.2Z" fill="white" stroke="#263238" stroke-linecap="round" stroke-linejoin="round"/>
<path d="M221.272 168.863H172.168V209.487H221.272V168.863Z" fill="#E61C50" stroke="#263238" stroke-linecap="round" stroke-linejoin="round"/>
<path d="M201.832 185.735C201.779 184.352 201.192 183.044 200.195 182.085C199.198 181.126 197.868 180.59 196.484 180.59C195.101 180.59 193.771 181.126 192.774 182.085C191.777 183.044 191.19 184.352 191.136 185.735C191.141 186.686 191.404 187.618 191.899 188.43C192.394 189.242 193.101 189.903 193.944 190.343L193.048 199.567H199.92L199.024 190.343C199.867 189.903 200.574 189.242 201.069 188.43C201.564 187.618 201.828 186.686 201.832 185.735Z" fill="#263238" stroke="#263238" stroke-linecap="round" stroke-linejoin="round"/>
</svg>
