<svg width="205" height="205" viewBox="0 0 205 205" fill="none" xmlns="http://www.w3.org/2000/svg">
<g clip-path="url(#clip0_2723_15569)">
<path d="M74.2058 128.994C71.8819 131.003 70.0651 133.533 68.9032 136.377C66.8637 141.475 67.0167 147.482 64.0085 152.101C61.5101 155.935 57.1864 158.219 52.7914 159.627C48.3963 161.034 43.889 161.85 39.6775 163.624C35.5571 165.38 31.8704 168.016 28.8759 171.347C25.8813 174.678 23.6513 178.624 22.342 182.907C22.15 183.334 22.0508 183.796 22.0508 184.263C22.0508 184.731 22.15 185.193 22.342 185.62C23.1476 186.823 25.7581 185.62 26.8798 185.497C32.9982 184.947 37.4443 186.813 41.615 190.984C44.7456 194.124 50.3746 198.958 55.3101 196.725C57.3496 195.807 58.971 192.727 61.1022 191.483C63.5352 190.06 66.2895 189.278 69.1072 189.209C74.2058 189.117 78.9374 191.31 83.5874 193.288C89.1858 195.644 95.0085 197.734 101.076 197.999C107.028 198.298 112.868 196.301 117.392 192.421C121.012 189.454 119.859 187.547 121.389 183.091C122.521 179.817 124.448 177.441 126.09 174.535C129.374 168.621 129.149 162.237 130.516 155.517L135.676 129.881C135.563 130.472 107.205 127.964 105.236 127.841C97.3845 127.311 89.4509 126.404 81.6193 126.098C78.875 126.113 76.2338 127.145 74.2058 128.994Z" fill="#F56132"/>
<path d="M102.31 199.021H101.127C94.8148 198.746 88.829 196.553 83.302 194.228L82.2823 193.8C78.0605 192.015 73.7063 190.149 69.2296 190.251C66.5875 190.313 64.0045 191.046 61.7243 192.383C60.7525 193.06 59.8835 193.874 59.1444 194.799C58.2428 195.966 57.12 196.943 55.8405 197.675C51.7615 199.521 46.7852 197.512 40.9931 191.73C36.9141 187.651 32.6108 186.03 27.0737 186.529C26.7294 186.587 26.3888 186.665 26.0539 186.764C24.6671 187.131 22.5766 187.692 21.5875 186.203C21.2975 185.659 21.1316 185.058 21.1016 184.443C21.0716 183.828 21.1784 183.213 21.4141 182.644C22.7553 178.211 25.0543 174.126 28.1487 170.679C31.243 167.232 35.0569 164.508 39.3207 162.698C41.93 161.679 44.6043 160.834 47.3257 160.169C49.049 159.72 50.8234 159.241 52.5161 158.68C57.6148 156.987 61.1329 154.652 63.1418 151.542C64.804 148.983 65.4362 145.964 66.099 142.772C66.5141 140.459 67.1317 138.186 67.9448 135.981C69.1712 132.988 71.0856 130.326 73.5329 128.21C75.7593 126.169 78.6704 125.038 81.6908 125.039C86.5346 125.233 91.4701 125.651 96.2527 126.059C99.2405 126.314 102.371 126.579 105.349 126.783L108.948 127.079C115.006 127.588 133.218 129.118 135.319 128.914C135.509 128.833 135.718 128.812 135.92 128.853C136.052 128.88 136.176 128.932 136.287 129.007C136.398 129.082 136.494 129.178 136.567 129.29C136.641 129.401 136.692 129.527 136.718 129.658C136.743 129.79 136.743 129.925 136.716 130.056L131.576 155.713C131.168 157.691 130.914 159.68 130.648 161.597C130.026 166.287 129.435 170.713 127.039 175.016C126.498 176.036 125.927 176.903 125.366 177.78C124.161 179.534 123.172 181.428 122.419 183.419C122.033 184.569 121.743 185.749 121.552 186.947C121.451 188.173 121.092 189.364 120.498 190.442C119.904 191.519 119.089 192.459 118.106 193.198C113.708 196.969 108.103 199.035 102.31 199.021ZM69.5151 188.191C74.2977 188.191 78.754 190.078 83.0777 191.903L84.0974 192.332C89.451 194.585 95.2329 196.706 101.229 196.961C106.926 197.25 112.516 195.337 116.841 191.618C118.983 189.854 119.207 188.62 119.574 186.519C119.784 185.218 120.098 183.936 120.512 182.685C121.321 180.547 122.383 178.514 123.673 176.628C124.214 175.771 124.775 174.884 125.285 173.966C127.497 169.999 128.058 165.808 128.66 161.26C128.925 159.312 129.19 157.293 129.598 155.244L134.513 130.892C131.617 130.892 124.887 130.413 108.826 129.067L105.257 128.781C102.198 128.578 99.1385 128.312 96.0793 128.057C91.3171 127.65 86.402 127.221 81.6194 127.038C79.1008 127.066 76.6816 128.025 74.828 129.73C72.6273 131.625 70.9079 134.016 69.8109 136.705C69.0383 138.793 68.4547 140.947 68.0671 143.139C67.3941 146.382 66.6905 149.727 64.8141 152.613C62.5401 156.1 58.6957 158.731 53.128 160.546C51.374 161.128 49.5691 161.566 47.8253 162.076C45.1889 162.709 42.5995 163.523 40.0753 164.513C36.0897 166.221 32.5283 168.784 29.6435 172.021C26.7588 175.258 24.6212 179.09 23.3822 183.246C23.1245 183.833 23.0954 184.494 23.3006 185.102C23.3822 185.224 23.8309 185.265 25.5441 184.816C25.9807 184.682 26.4274 184.583 26.8799 184.52C33.0799 183.97 37.8829 185.744 42.4411 190.302C47.5398 195.401 51.7819 197.298 54.9941 195.839C56.0086 195.215 56.9003 194.409 57.625 193.463C58.4962 192.373 59.5276 191.42 60.6842 190.639C63.2696 189.13 66.1959 188.302 69.1888 188.232L69.5151 188.191Z" fill="#093F68"/>
<path d="M177.576 150.617C177.413 158.265 172.141 165.291 161.923 171.48C157.887 173.898 153.654 175.968 149.268 177.67L142.936 160.681C150.757 157.745 159.302 150.362 159.302 150.362C159.302 150.362 154.856 145.538 141.426 141.255C139.448 140.633 137.5 140.073 135.634 139.563V180.719H79.0796V139.512C77.2135 140.022 75.276 140.531 73.2977 141.204C59.8474 145.498 55.4115 150.311 55.4115 150.311C55.4115 150.311 64.7625 158.02 71.7783 160.63L65.4559 177.619C58.899 175.182 37.4641 166.004 37.1582 150.566C36.8217 134.454 58.2974 127.112 65.3438 124.746C68.6987 123.604 80.1198 121.88 93.5497 121.126C97.6286 120.881 102.014 120.748 106.347 120.738C111.354 120.738 116.382 120.891 121.154 121.167C134.594 121.942 146.025 123.604 149.37 124.746C156.427 127.163 177.892 134.454 177.576 150.617Z" fill="#E8189D"/>
<path d="M135.655 181.686H79.08C78.8095 181.686 78.5501 181.579 78.3589 181.388C78.1677 181.197 78.0602 180.937 78.0602 180.667V140.897C76.551 141.315 75.0622 141.764 73.604 142.223C63.7227 145.374 58.7872 148.831 56.9823 150.309C59.501 152.277 66.6188 157.661 72.1356 159.721C72.3879 159.815 72.5927 160.005 72.7054 160.25C72.8181 160.494 72.8296 160.774 72.7372 161.027L66.4046 178.005C66.3106 178.258 66.1205 178.462 65.876 178.575C65.6315 178.688 65.3523 178.699 65.0994 178.607C58.3895 176.119 36.4549 166.717 36.1388 150.625C35.7921 133.8 57.7573 126.294 64.977 123.827C68.5971 122.603 80.2731 120.89 93.5297 120.145C97.8431 119.901 102.177 119.768 106.389 119.758C110.977 119.758 116.025 119.89 121.256 120.186C134.696 120.961 146.291 122.644 149.738 123.816C156.998 126.294 178.963 133.789 178.637 150.625C178.464 158.651 173.028 165.921 162.495 172.346C158.399 174.793 154.104 176.891 149.656 178.617C149.404 178.706 149.128 178.693 148.886 178.581C148.643 178.468 148.455 178.265 148.361 178.015L142.028 161.027C141.935 160.775 141.945 160.497 142.056 160.253C142.167 160.008 142.369 159.817 142.62 159.721C148.738 157.417 155.418 152.247 157.783 150.319C155.999 148.851 151.063 145.374 141.162 142.223C139.724 141.764 138.235 141.325 136.695 140.897V180.667C136.695 180.802 136.668 180.937 136.616 181.062C136.563 181.187 136.486 181.3 136.389 181.395C136.292 181.49 136.178 181.565 136.052 181.615C135.925 181.665 135.791 181.689 135.655 181.686ZM80.1201 179.647H134.635V139.52C134.634 139.363 134.669 139.207 134.738 139.066C134.807 138.924 134.908 138.801 135.033 138.705C135.158 138.609 135.302 138.544 135.456 138.514C135.61 138.484 135.769 138.49 135.92 138.531C137.96 139.072 139.897 139.653 141.753 140.234C155.295 144.548 159.884 149.412 160.108 149.616C160.291 149.824 160.386 150.094 160.373 150.37C160.365 150.507 160.329 150.641 160.268 150.764C160.206 150.886 160.121 150.995 160.017 151.084C159.68 151.38 151.859 158.049 144.292 161.21L149.921 176.292C153.901 174.676 157.753 172.76 161.444 170.561C171.346 164.555 176.455 157.825 176.608 150.544C176.914 135.197 155.999 128.109 149.136 125.723C145.771 124.571 134.411 122.95 121.144 122.185C115.964 121.889 110.947 121.746 106.399 121.756C102.228 121.756 97.9349 121.889 93.6622 122.144C80.7421 122.868 69.1069 124.561 65.7214 125.703C58.8178 128.069 37.9132 135.207 38.1885 150.544C38.474 164.677 57.5635 173.457 64.8648 176.292L70.4836 161.21C63.5392 158.294 55.1875 151.4 54.7694 151.094C54.6638 151.006 54.5771 150.898 54.5146 150.775C54.452 150.653 54.4148 150.519 54.4053 150.382C54.3958 150.245 54.4141 150.107 54.4591 149.977C54.5042 149.847 54.575 149.728 54.6675 149.626C54.8612 149.412 59.4398 144.527 73.0227 140.234C74.9194 139.633 76.8773 139.061 78.8454 138.531C78.9967 138.49 79.1554 138.484 79.3093 138.514C79.4631 138.544 79.608 138.609 79.7326 138.705C79.8574 138.801 79.9582 138.924 80.0272 139.066C80.0962 139.207 80.1315 139.363 80.1303 139.52L80.1201 179.647Z" fill="#093F68"/>
<path d="M121.155 121.163L107.358 174.291L93.5508 121.122C97.6297 120.878 102.015 120.745 106.348 120.735C111.355 120.725 116.383 120.888 121.155 121.163Z" fill="white"/>
<path d="M107.358 175.311C107.126 175.318 106.899 175.247 106.714 175.108C106.528 174.968 106.396 174.771 106.338 174.546L92.5307 121.377C92.4928 121.231 92.4878 121.079 92.5161 120.93C92.5443 120.782 92.605 120.642 92.6938 120.52C92.7825 120.399 92.897 120.298 93.0293 120.226C93.1615 120.153 93.3081 120.111 93.4586 120.102C97.7721 119.858 102.106 119.725 106.317 119.715C110.937 119.715 115.954 119.847 121.185 120.143C121.336 120.152 121.482 120.194 121.615 120.266C121.747 120.339 121.861 120.439 121.95 120.561C122.039 120.683 122.1 120.823 122.128 120.971C122.156 121.119 122.151 121.272 122.113 121.418L108.316 174.546C108.261 174.76 108.138 174.951 107.965 175.089C107.792 175.227 107.579 175.305 107.358 175.311ZM94.8658 122.06L107.368 170.222L119.86 122.101C115.128 121.856 110.6 121.744 106.358 121.744C102.575 121.765 98.7103 121.866 94.8658 122.06Z" fill="#093F68"/>
<path d="M102.186 116.512L113.79 116.601L113.739 123.28C113.738 123.929 113.608 124.572 113.358 125.171C113.108 125.77 112.741 126.314 112.28 126.771C111.819 127.228 111.272 127.59 110.67 127.835C110.069 128.079 109.425 128.203 108.775 128.198L107.042 128.185C105.736 128.175 104.487 127.646 103.57 126.715C102.654 125.785 102.144 124.528 102.154 123.222L102.206 116.542L102.186 116.512Z" fill="#FFC9B0"/>
<path d="M108.826 129.199H107.031C105.454 129.186 103.946 128.547 102.839 127.422C101.732 126.298 101.116 124.781 101.127 123.203L101.178 116.524C101.178 116.253 101.286 115.994 101.477 115.803C101.668 115.611 101.927 115.504 102.198 115.504L113.802 115.596C114.073 115.596 114.332 115.703 114.523 115.894C114.715 116.086 114.822 116.345 114.822 116.615V123.295C114.809 124.864 114.177 126.364 113.064 127.469C111.95 128.575 110.446 129.196 108.877 129.199H108.826ZM108.826 127.159C109.856 127.157 110.843 126.749 111.574 126.023C112.305 125.298 112.721 124.314 112.732 123.284V117.625L103.167 117.554V123.213C103.16 123.727 103.256 124.236 103.449 124.713C103.642 125.189 103.927 125.622 104.288 125.987C105.018 126.721 106.007 127.139 107.042 127.149L108.826 127.159Z" fill="#093F68"/>
<path d="M68.1695 84.0347C65.4996 83.0606 63.0667 81.5313 61.0313 79.5479C57.3195 75.8156 55.178 70.8495 53.1182 66.0058C55.0356 66.4541 57.0326 66.4362 58.9417 65.9536C60.8509 65.471 62.6165 64.5377 64.0905 63.2321C57.4812 63.9963 50.8208 62.3131 45.3682 58.5005C50.834 58.0416 54.6784 52.8817 56.7382 47.8034C58.7981 42.7251 59.9402 37.086 63.4787 32.8949C68.0981 27.4189 73.5435 27.3781 79.9475 27.9593C79.8047 17.3847 86.2188 7.56459 97.4563 7.01393C115.455 6.18795 125.652 25.5936 135.737 24.2271C145.823 22.8607 148.535 18.4146 148.535 18.4146C150.211 21.6608 150.887 25.3313 150.477 28.9616C150.067 32.592 148.589 36.0191 146.23 38.8094C146.23 38.8094 154.174 36.5557 155.051 47.1202C155.928 57.6847 149.402 85.6765 149.402 85.6765L142.253 84.3304C139.245 83.7798 135.462 84.4834 132.413 84.5548L109.918 85.0952C98.6494 85.3502 80.3758 88.7663 68.1695 84.0347Z" fill="#725858"/>
<path d="M85.0662 87.5319C78.9477 87.5319 72.8293 86.9404 67.802 84.9927C65.0151 83.9562 62.4759 82.3479 60.3477 80.2714C56.4523 76.3454 54.2293 71.0937 52.1898 66.4131C52.1238 66.244 52.1041 66.0604 52.1328 65.8811C52.1615 65.7018 52.2375 65.5335 52.353 65.3934C52.4748 65.248 52.6348 65.1395 52.815 65.08C52.9951 65.0206 53.1883 65.0126 53.3727 65.0569C55.6948 65.6043 58.131 65.3972 60.3273 64.4654C54.7616 64.3306 49.3593 62.5571 44.7967 59.3667C44.6272 59.2458 44.4988 59.076 44.4287 58.8799C44.3586 58.6839 44.3502 58.4711 44.4046 58.2701C44.459 58.0691 44.5736 57.8896 44.733 57.7557C44.8925 57.6218 45.0891 57.5399 45.2964 57.521C51.3026 57.0112 54.6474 50.3115 55.7997 47.446C56.3606 46.0694 56.8704 44.601 57.3599 43.1937C58.6652 39.3799 60.0316 35.4437 62.7033 32.2723C67.3941 26.7046 72.8497 26.3986 78.9477 26.8779C79.2537 16.7417 85.5352 6.56474 97.4254 6.02427C107.857 5.56539 115.872 11.7042 122.307 16.6601C127.283 20.4842 131.587 23.7983 135.615 23.2476C144.996 21.9832 147.658 17.945 147.678 17.9042C147.77 17.7573 147.898 17.6361 148.049 17.5523C148.201 17.4684 148.372 17.4246 148.545 17.4249C148.72 17.4267 148.892 17.4736 149.044 17.5612C149.196 17.6487 149.322 17.7739 149.412 17.9246C149.473 18.0266 154.888 27.7345 148.392 37.575C149.775 37.6272 151.114 38.0691 152.257 38.8496C154.459 40.369 155.744 43.1223 156.07 47.0075C156.947 57.6128 150.666 84.7378 150.401 85.8799C150.342 86.137 150.186 86.3613 149.965 86.5058C149.745 86.6503 149.477 86.7037 149.218 86.6549L142.069 85.3497C139.94 85.0796 137.785 85.0796 135.655 85.3497C134.523 85.4414 133.463 85.5332 132.443 85.5536L109.938 86.0941C107.133 86.1553 103.819 86.4204 100.342 86.7059C95.5898 87.1036 90.3076 87.5319 85.0662 87.5319ZM54.8309 67.3105C56.5645 71.3895 58.6244 75.6418 61.7958 78.8335C63.7188 80.7089 66.0155 82.1579 68.5362 83.0858C77.4487 86.5428 90.0527 85.5128 100.148 84.6868C103.666 84.4013 106.991 84.126 109.866 84.0648L132.362 83.5243C133.32 83.5243 134.35 83.4224 135.421 83.3204C137.73 83.0247 140.067 83.0247 142.375 83.3204L148.606 84.4625C149.728 79.4964 154.775 56.3687 154.011 47.1707C153.745 43.9279 152.756 41.6845 151.094 40.522C149.717 39.6647 148.055 39.3896 146.475 39.7572C146.267 39.8137 146.046 39.8026 145.844 39.7256C145.643 39.6487 145.471 39.5098 145.353 39.3289C145.234 39.1478 145.176 38.9336 145.187 38.7173C145.198 38.5009 145.278 38.2937 145.414 38.1256C147.5 35.7051 148.871 32.7519 149.373 29.5966C149.876 26.4413 149.49 23.2084 148.259 20.2598C146.618 21.8098 142.977 24.3388 135.859 25.2463C130.985 25.899 126.376 22.3605 121.032 18.2509C114.537 13.2542 107.174 7.59467 97.4866 8.05355C86.453 8.55323 80.8139 18.4447 80.9464 27.9588C80.9488 28.1021 80.921 28.2442 80.8648 28.376C80.8085 28.5078 80.7252 28.6262 80.6201 28.7236C80.5151 28.8203 80.3909 28.8939 80.2557 28.9396C80.1204 28.9852 79.977 29.002 79.8349 28.9888C73.6553 28.4381 68.6178 28.4177 64.2329 33.5776C61.806 36.4634 60.5619 40.0427 59.2566 43.8463C58.7569 45.2842 58.2369 46.773 57.6658 48.2108C56.5237 51.0049 53.4951 57.0927 47.9987 58.9996C52.8383 61.7397 58.422 62.875 63.9474 62.2424C64.1577 62.2233 64.3687 62.2699 64.5514 62.3758C64.7341 62.4818 64.8793 62.6418 64.9671 62.8339C65.0577 63.0314 65.0828 63.2527 65.0388 63.4654C64.9947 63.6782 64.8839 63.8714 64.7224 64.0168C63.378 65.1998 61.8098 66.101 60.1107 66.6667C58.4116 67.2325 56.6162 67.4514 54.8309 67.3105Z" fill="#093F68"/>
<path d="M86.3464 86.2328C86.3876 80.8658 81.3717 76.4762 75.143 76.4283C68.9144 76.3805 63.8317 80.6925 63.7904 86.0595C63.7492 91.4265 68.7651 95.8161 74.9938 95.864C81.2224 95.9118 86.3052 91.5998 86.3464 86.2328Z" fill="#FFC9B0"/>
<path d="M75.0833 96.8842H74.9813C71.8242 96.8901 68.7687 95.7692 66.3645 93.723C65.2285 92.7943 64.315 91.6228 63.6912 90.2947C63.0675 88.9665 62.7493 87.5154 62.76 86.0481C62.7708 84.5808 63.1102 83.1346 63.7534 81.8157C64.3966 80.4969 65.3271 79.3389 66.4767 78.427C68.8747 76.4234 71.9076 75.3389 75.0323 75.3677H75.1445C78.298 75.3642 81.3495 76.4851 83.751 78.5289C84.8871 79.4576 85.8006 80.6291 86.4243 81.9573C87.0481 83.2854 87.3663 84.7365 87.3555 86.2038C87.3448 87.6711 87.0053 89.1174 86.3621 90.4362C85.719 91.7551 84.7884 92.913 83.6389 93.825C81.2409 95.8285 78.208 96.913 75.0833 96.8842ZM75.0833 77.448C72.4437 77.4111 69.8772 78.3148 67.8431 79.9974C66.9126 80.7196 66.158 81.6434 65.636 82.6993C65.1139 83.7552 64.8382 84.9157 64.8293 86.0935C64.8205 87.2714 65.0788 88.4359 65.585 89.4995C66.0911 90.5631 66.8318 91.4981 67.7514 92.2342C69.8052 93.9294 72.38 94.8659 75.043 94.8864C77.7059 94.9068 80.2948 94.0099 82.3744 92.3464C83.29 91.6075 84.0321 90.6765 84.5484 89.6193C85.0647 88.562 85.3425 87.4043 85.3622 86.228C85.3537 85.0588 85.0901 83.9057 84.5899 82.8489C84.0897 81.7922 83.3649 80.8573 82.4662 80.1095C80.4285 78.3867 77.8434 77.4466 75.175 77.4582L75.0833 77.448Z" fill="#093F68"/>
<path d="M152.094 86.7367C152.136 81.3697 147.12 76.9801 140.891 76.9322C134.662 76.8844 129.58 81.1964 129.538 86.5634C129.497 91.9304 134.513 96.32 140.742 96.3679C146.97 96.4157 152.053 92.1037 152.094 86.7367Z" fill="#FFC9B0"/>
<path d="M140.825 97.3827H140.753C133.982 97.3317 128.517 92.4676 128.517 86.5531C128.517 80.6386 134.105 75.8357 140.886 75.907C147.667 75.9784 153.123 80.8222 153.123 86.7367C153.097 88.2002 152.752 89.6405 152.11 90.9564C151.469 92.2723 150.548 93.432 149.411 94.3541C147.001 96.3535 143.956 97.4274 140.825 97.3827ZM140.825 77.9465C135.206 77.9465 130.627 81.8011 130.627 86.5633C130.627 91.3255 135.155 95.3025 140.825 95.3432C143.493 95.3851 146.09 94.4821 148.157 92.7939C149.074 92.0569 149.818 91.1263 150.335 90.0687C150.851 89.011 151.128 87.8524 151.145 86.6755C151.145 81.8725 146.617 77.9363 140.947 77.8955L140.825 77.9465Z" fill="#093F68"/>
<path d="M107.99 118.071C98.9691 118.001 90.3457 114.351 84.0159 107.924C77.6862 101.497 74.1684 92.8185 74.2363 83.7979L74.4199 59.0998C76.388 62.3834 82.9959 61.1393 92.7751 44.6094C128.874 63.24 142.477 52.7673 142.477 52.7673L142.253 84.3282C142.183 93.346 138.534 101.967 132.108 108.295C125.683 114.622 117.007 118.139 107.99 118.071Z" fill="#FFC9B0"/>
<path d="M108.245 119.09H107.98C103.38 119.056 98.8316 118.115 94.5951 116.323C90.3586 114.53 86.5166 111.921 83.2885 108.644C80.0605 105.366 77.5095 101.485 75.7814 97.2222C74.0533 92.9591 73.1819 88.3972 73.2168 83.7973L73.4004 59.1094C73.4004 58.886 73.4739 58.6688 73.6094 58.4912C73.7449 58.3136 73.935 58.1854 74.1505 58.1263C74.3659 58.0672 74.5948 58.0805 74.802 58.1642C75.0091 58.2478 75.1831 58.3972 75.2971 58.5894C75.4721 58.8958 75.7288 59.1476 76.0384 59.3168C76.3481 59.4861 76.6986 59.5661 77.051 59.5479C78.3971 59.5479 83.4244 58.4262 91.9188 44.0989C92.0513 43.8746 92.2645 43.7095 92.5148 43.6375C92.7651 43.5654 93.0334 43.5919 93.2649 43.7114C128.374 61.8321 141.743 52.1242 141.876 52.0222C142.028 51.9052 142.21 51.8335 142.402 51.8154C142.593 51.7974 142.785 51.8337 142.957 51.9203C143.126 52.0058 143.269 52.137 143.368 52.2992C143.467 52.4614 143.519 52.648 143.518 52.838L143.273 84.3275C143.192 93.5682 139.467 102.404 132.908 108.913C126.349 115.423 117.486 119.08 108.245 119.09ZM108 117.051H108.245C116.945 117.041 125.29 113.598 131.466 107.471C137.643 101.344 141.153 93.0273 141.233 84.3275L141.468 54.6022C136.859 56.7844 122.358 60.8124 93.1833 45.9752C87.0649 56.0502 81.3747 61.5874 77.0612 61.5976C76.5058 61.6046 75.9545 61.5006 75.4399 61.2917L75.2665 83.8279C75.2316 88.1607 76.0511 92.458 77.6782 96.4739C79.3053 100.49 81.7082 104.146 84.7493 107.232C87.7904 110.319 91.4101 112.775 95.4014 114.462C99.3927 116.149 103.677 117.032 108.01 117.061L108 117.051Z" fill="#093F68"/>
<path d="M96.9869 83.3723C98.7272 83.3723 100.138 81.9615 100.138 80.2213C100.138 78.4811 98.7272 77.0703 96.9869 77.0703C95.2467 77.0703 93.8359 78.4811 93.8359 80.2213C93.8359 81.9615 95.2467 83.3723 96.9869 83.3723Z" fill="#093F68"/>
<path d="M121.869 83.7082C123.609 83.7082 125.02 82.2975 125.02 80.5572C125.02 78.817 123.609 77.4062 121.869 77.4062C120.129 77.4062 118.718 78.817 118.718 80.5572C118.718 82.2975 120.129 83.7082 121.869 83.7082Z" fill="#093F68"/>
<path d="M111.049 93.1706C109.98 93.1618 108.913 93.0697 107.857 92.8953C107.587 92.8466 107.347 92.6925 107.19 92.4668C107.033 92.2412 106.973 91.9625 107.021 91.692C107.07 91.4216 107.224 91.1815 107.45 91.0247C107.675 90.8679 107.954 90.8071 108.225 90.8558C109.754 91.1257 111.316 91.1566 112.854 90.9476C113.028 90.0094 111.834 86.6647 110.254 83.5341C110.192 83.4144 110.155 83.2836 110.144 83.1494C110.134 83.0153 110.15 82.8803 110.191 82.7523C110.233 82.6243 110.3 82.5059 110.388 82.4038C110.475 82.3017 110.582 82.218 110.703 82.1574C110.942 82.0357 111.22 82.0135 111.476 82.0956C111.732 82.1778 111.945 82.3576 112.069 82.5959C113.16 84.7272 115.597 89.8973 114.669 91.9061C114.569 92.1574 114.411 92.3811 114.207 92.5585C114.003 92.736 113.759 92.8619 113.497 92.9259C112.694 93.105 111.872 93.1872 111.049 93.1706Z" fill="#093F68"/>
<path d="M103.229 70.5446H103.025L88.116 68.7498C87.8482 68.7177 87.5893 68.6331 87.3542 68.5009C87.119 68.3687 86.9122 68.1915 86.7456 67.9794C86.5789 67.7673 86.4557 67.5245 86.3829 67.2647C86.3101 67.005 86.2891 66.7335 86.3213 66.4656C86.3534 66.1978 86.438 65.9389 86.5702 65.7038C86.7024 65.4686 86.8796 65.2618 87.0917 65.0952C87.3038 64.9285 87.5467 64.8053 87.8064 64.7325C88.0661 64.6597 88.3377 64.6387 88.6055 64.6709L103.514 66.4656C104.055 66.4981 104.561 66.7441 104.92 67.1495C105.28 67.5549 105.464 68.0866 105.431 68.6275C105.399 69.1684 105.153 69.6742 104.747 70.0337C104.342 70.3933 103.81 70.577 103.269 70.5446H103.229Z" fill="#093F68"/>
<path d="M118.635 71.6853C118.368 71.7027 118.099 71.6672 117.845 71.5808C117.591 71.4944 117.356 71.3588 117.154 71.1817C116.747 70.8241 116.498 70.3193 116.463 69.7784C116.428 69.2375 116.609 68.7048 116.967 68.2974C117.325 67.8901 117.829 67.6415 118.37 67.6064L133.269 65.6689C133.536 65.6347 133.808 65.6536 134.069 65.7246C134.329 65.7955 134.573 65.9171 134.787 66.0823C135 66.2476 135.179 66.4532 135.313 66.6876C135.447 66.922 135.534 67.1805 135.568 67.4483C135.602 67.7161 135.583 67.9881 135.512 68.2486C135.441 68.5091 135.32 68.7531 135.155 68.9666C134.989 69.1801 134.784 69.359 134.549 69.493C134.315 69.6271 134.056 69.7137 133.789 69.7478L118.9 71.6853H118.635Z" fill="#093F68"/>
<path d="M104.85 87.9993L89.7167 87.8871C89.1409 87.8831 88.5715 87.7657 88.041 87.5416C87.5105 87.3176 87.0294 86.9912 86.6251 86.5812C86.2207 86.1712 85.9011 85.6855 85.6845 85.152C85.4678 84.6185 85.3584 84.0475 85.3624 83.4716L85.4338 74.0901C85.4338 73.8196 85.5412 73.5602 85.7325 73.369C85.9237 73.1777 86.1831 73.0703 86.4535 73.0703L108.307 73.2335C108.577 73.2335 108.836 73.3409 109.028 73.5321C109.219 73.7234 109.326 73.9828 109.326 74.2532L109.255 83.6348C109.247 84.7969 108.779 85.9085 107.953 86.7264C107.128 87.5443 106.012 88.002 104.85 87.9993ZM104.85 85.9598C105.468 85.9598 106.062 85.7155 106.501 85.2801C106.94 84.8446 107.19 84.2533 107.195 83.6348L107.256 75.2831L87.4427 75.1506L87.3713 83.5022C87.3686 83.8102 87.4266 84.1157 87.542 84.4013C87.6574 84.6869 87.8279 84.947 88.0438 85.1667C88.2597 85.3864 88.5168 85.5614 88.8003 85.6817C89.0838 85.802 89.3883 85.8653 89.6963 85.868L104.85 85.9598Z" fill="#093F68"/>
<path d="M131.995 88.2039L116.862 88.0918C115.7 88.081 114.59 87.6104 113.773 86.7829C112.957 85.9554 112.502 84.8384 112.508 83.6763L112.579 74.3049C112.579 74.0344 112.687 73.7751 112.878 73.5838C113.069 73.3926 113.329 73.2852 113.599 73.2852L135.452 73.4585C135.586 73.4577 135.719 73.4835 135.843 73.5342C135.968 73.585 136.081 73.6597 136.176 73.7542C136.362 73.9497 136.468 74.2083 136.472 74.4782L136.4 83.8598C136.39 85.0192 135.92 86.1272 135.094 86.9413C134.269 87.7554 133.154 88.2094 131.995 88.2039ZM131.995 86.1644C132.303 86.1671 132.609 86.1091 132.894 85.9937C133.18 85.8784 133.44 85.7078 133.659 85.4919C133.879 85.276 134.054 85.019 134.175 84.7355C134.295 84.4519 134.358 84.1475 134.361 83.8394L134.422 75.4878L114.609 75.3348L114.537 83.6967C114.535 84.0028 114.593 84.3063 114.709 84.5898C114.824 84.8733 114.995 85.1312 115.21 85.3487C115.426 85.5687 115.683 85.7441 115.966 85.8648C116.25 85.9855 116.554 86.0492 116.862 86.0523L131.995 86.1644Z" fill="#093F68"/>
<path d="M86.4025 78.722L71.5959 78.6098C71.3255 78.6098 71.0661 78.5024 70.8749 78.3111C70.6836 78.1199 70.5762 77.8605 70.5762 77.5901C70.5762 77.3196 70.6836 77.0602 70.8749 76.869C71.0661 76.6777 71.3255 76.5703 71.5959 76.5703L86.4127 76.6825C86.6832 76.6825 86.9425 76.7899 87.1338 76.9812C87.325 77.1724 87.4324 77.4318 87.4324 77.7022C87.4325 77.837 87.4057 77.9704 87.3539 78.0948C87.302 78.2192 87.2259 78.3321 87.1302 78.4269C87.0344 78.5217 86.9208 78.5966 86.7959 78.6473C86.671 78.6979 86.5373 78.7233 86.4025 78.722Z" fill="#093F68"/>
<path d="M140.866 79.1293H135.472C135.201 79.1293 134.942 79.0219 134.751 78.8306C134.56 78.6394 134.452 78.38 134.452 78.1096C134.452 77.8391 134.56 77.5798 134.751 77.3885C134.942 77.1973 135.201 77.0898 135.472 77.0898H140.876C141.147 77.0898 141.406 77.1973 141.598 77.3885C141.789 77.5798 141.896 77.8391 141.896 78.1096C141.896 78.38 141.789 78.6394 141.598 78.8306C141.406 79.0219 141.147 79.1293 140.876 79.1293H140.866Z" fill="#093F68"/>
<path d="M92.8262 44.6083C95.0889 47.0448 97.644 49.1923 100.433 51.0021C102.187 52.1034 103.962 53.4188 104.747 55.336C106.45 59.4149 102.707 68.0317 108.999 69.7245C107.663 68.0317 108.326 65.411 109.825 63.861C111.324 62.311 113.425 61.536 115.413 60.6896C119.217 59.058 123.163 56.6106 124.214 52.5317C125.172 48.8912 123.347 44.9652 120.583 42.4057C117.82 39.8461 114.261 38.3267 110.774 36.9297" fill="#725858"/>
<path d="M108.969 70.7465C108.881 70.7606 108.791 70.7606 108.704 70.7465C103.829 69.4412 104.013 64.628 104.145 60.8244C104.347 59.1169 104.223 57.3867 103.778 55.7257C103.095 54.0737 101.494 52.8909 99.8625 51.8711C96.9997 50.0183 94.3791 47.8156 92.0615 45.3142C91.9572 45.2204 91.8733 45.1061 91.8152 44.9784C91.7571 44.8507 91.726 44.7124 91.7238 44.5721C91.7215 44.4319 91.7483 44.2927 91.8023 44.1632C91.8564 44.0337 91.9365 43.9168 92.0378 43.8197C92.1391 43.7227 92.2593 43.6476 92.391 43.5991C92.5226 43.5506 92.6628 43.5298 92.8029 43.538C92.9429 43.5462 93.0798 43.5832 93.2049 43.6467C93.33 43.7101 93.4406 43.7988 93.5299 43.907C95.7449 46.2868 98.2491 48.38 100.984 50.1376C102.81 51.2899 104.798 52.7583 105.706 54.9507C106.389 56.6027 106.307 58.6728 106.226 60.8652C106.113 63.9244 106.144 66.1984 107.245 67.5445C107.284 65.901 107.939 64.332 109.081 63.1494C110.604 61.7619 112.395 60.7001 114.343 60.029L114.995 59.7537C119.747 57.7142 122.439 55.277 123.214 52.2994C123.989 49.3218 122.684 45.7731 119.88 43.1218C117.229 40.654 113.762 39.2264 110.376 37.8497C110.126 37.747 109.927 37.549 109.822 37.2994C109.718 37.0499 109.717 36.7691 109.82 36.519C109.923 36.2688 110.121 36.0697 110.37 35.9655C110.62 35.8613 110.901 35.8604 111.151 35.9632C114.516 37.3399 118.34 38.9102 121.277 41.6329C124.612 44.6922 126.151 49.1076 125.193 52.7685C124.234 56.4293 121.165 59.2744 115.801 61.579L115.138 61.8543C113.447 62.4291 111.888 63.3337 110.549 64.5159C109.397 65.709 108.785 67.7688 109.795 69.0435C109.914 69.1942 109.988 69.3754 110.009 69.5663C110.029 69.7573 109.995 69.9501 109.911 70.1227C109.827 70.2953 109.696 70.4407 109.533 70.542C109.37 70.6433 109.181 70.6965 108.989 70.6955L108.969 70.7465Z" fill="#093F68"/>
<path d="M109.704 106.948C109.022 106.948 108.341 106.907 107.664 106.825C98.7213 105.805 93.2351 98.5347 93.0108 98.2288C92.9184 98.1228 92.849 97.9989 92.8068 97.8649C92.7646 97.7308 92.7506 97.5894 92.7656 97.4497C92.7807 97.3099 92.8244 97.1748 92.8942 97.0528C92.9639 96.9307 93.0582 96.8244 93.1709 96.7406C93.2837 96.6567 93.4126 96.597 93.5496 96.5653C93.6865 96.5336 93.8285 96.5306 93.9667 96.5564C94.1048 96.5822 94.2362 96.6363 94.3525 96.7153C94.4687 96.7942 94.5674 96.8964 94.6423 97.0153C94.6933 97.0867 99.8634 103.909 107.899 104.806C113.12 105.387 118.463 103.378 123.756 98.8304C123.961 98.6533 124.229 98.5651 124.499 98.5851C124.77 98.6052 125.022 98.732 125.199 98.9375C125.376 99.1431 125.464 99.4105 125.444 99.6812C125.424 99.9518 125.297 100.203 125.092 100.38C120.024 104.725 114.854 106.948 109.704 106.948Z" fill="#093F68"/>
<path d="M109.346 128.574H105.686C104.323 128.574 103.218 129.679 103.218 131.042V132.704C103.218 134.067 104.323 135.172 105.686 135.172H109.346C110.709 135.172 111.814 134.067 111.814 132.704V131.042C111.814 129.679 110.709 128.574 109.346 128.574Z" fill="#FFBC0E"/>
<path d="M109.347 136.192H105.686C104.761 136.192 103.874 135.824 103.22 135.17C102.566 134.516 102.198 133.629 102.198 132.704V131.042C102.198 130.117 102.566 129.23 103.22 128.576C103.874 127.922 104.761 127.555 105.686 127.555H109.347C110.272 127.555 111.159 127.922 111.813 128.576C112.467 129.23 112.834 130.117 112.834 131.042V132.704C112.834 133.629 112.467 134.516 111.813 135.17C111.159 135.824 110.272 136.192 109.347 136.192ZM105.686 129.594C105.302 129.594 104.933 129.747 104.662 130.018C104.39 130.29 104.238 130.658 104.238 131.042V132.704C104.238 133.088 104.39 133.457 104.662 133.728C104.933 134 105.302 134.152 105.686 134.152H109.347C109.731 134.152 110.099 134 110.371 133.728C110.642 133.457 110.795 133.088 110.795 132.704V131.042C110.795 130.658 110.642 130.29 110.371 130.018C110.099 129.747 109.731 129.594 109.347 129.594H105.686Z" fill="#093F68"/>
<path d="M112.63 153.996L107.358 174.289L101.565 151.998L105.053 135.172H109.978L112.63 153.996Z" fill="#FFBC0E"/>
<path d="M107.358 175.309C107.126 175.316 106.899 175.245 106.713 175.106C106.528 174.967 106.396 174.769 106.338 174.544L100.556 152.253C100.515 152.103 100.515 151.944 100.556 151.794L104.033 134.968C104.081 134.735 104.209 134.525 104.395 134.376C104.582 134.227 104.814 134.148 105.053 134.153H109.978C110.226 134.15 110.466 134.238 110.653 134.399C110.841 134.56 110.963 134.785 110.998 135.03L113.649 153.854C113.675 153.985 113.675 154.12 113.649 154.252L108.377 174.544C108.32 174.769 108.187 174.967 108.002 175.106C107.816 175.245 107.589 175.316 107.358 175.309ZM102.616 151.978L107.358 170.231L111.589 153.915L109.142 136.192H105.879L102.616 151.978Z" fill="#093F68"/>
<path d="M70.6467 163.664L79.08 168.936V180.663C76.9873 182.423 74.6816 183.914 72.2171 185.099C67.6895 186.894 67.2102 182.172 68.6277 181.418C70.6059 180.398 72.7066 179.001 72.7066 179.001C72.7066 179.001 67.1184 180.469 66.9043 173.596L70.6467 163.664Z" fill="#FFC9B0"/>
<path d="M70.3923 186.517C69.7406 186.543 69.0958 186.375 68.5401 186.034C67.9843 185.692 67.5428 185.193 67.272 184.6C66.5581 183.06 66.9762 181.153 68.1693 180.521C68.6078 180.296 69.0565 180.041 69.4848 179.797C69.0513 179.638 68.6426 179.418 68.2713 179.144C66.8131 178.053 66.0279 176.197 65.9463 173.637C65.9467 173.506 65.9674 173.375 66.0075 173.25L69.7091 163.318C69.7621 163.175 69.8465 163.046 69.9559 162.94C70.0653 162.834 70.197 162.754 70.3414 162.706C70.4844 162.658 70.6363 162.642 70.7862 162.659C70.9361 162.677 71.0802 162.728 71.2081 162.808L79.6414 168.08C79.7883 168.172 79.9095 168.299 79.9933 168.451C80.0772 168.603 80.121 168.773 80.1206 168.947V180.674C80.1209 180.823 80.0881 180.971 80.0247 181.107C79.9612 181.243 79.8686 181.363 79.7535 181.459C77.5779 183.287 75.1794 184.832 72.6154 186.058C71.9095 186.348 71.1555 186.504 70.3923 186.517ZM72.7683 177.981C72.9674 177.981 73.1622 178.038 73.3289 178.147C73.4956 178.256 73.6269 178.411 73.7065 178.593C73.8027 178.816 73.8165 179.065 73.7455 179.297C73.6745 179.529 73.5233 179.727 73.319 179.858C73.2272 179.919 71.1266 181.255 69.1279 182.315C69.0059 182.559 68.9476 182.831 68.9583 183.103C68.969 183.376 69.0484 183.642 69.1891 183.876C69.7193 184.763 70.943 184.518 71.8608 184.151C74.0922 183.09 76.182 181.754 78.0812 180.174V169.497L71.1877 165.194L67.996 173.76C68.0775 175.554 68.5772 176.819 69.4746 177.482C69.9238 177.769 70.4257 177.963 70.9509 178.054C71.4761 178.145 72.0142 178.131 72.5338 178.012C72.6039 177.994 72.6757 177.984 72.7479 177.981H72.7683Z" fill="#093F68"/>
<path d="M144.191 163.664L135.768 168.967V180.694C137.856 182.455 140.158 183.946 142.62 185.13C147.148 186.924 147.627 182.203 146.21 181.448C144.231 180.429 142.131 179.032 142.131 179.032C142.131 179.032 147.709 180.5 147.923 173.627L144.191 163.664Z" fill="#FFC9B0"/>
<path d="M144.466 186.517C143.703 186.499 142.949 186.34 142.243 186.048C139.679 184.822 137.281 183.277 135.105 181.449C134.992 181.352 134.901 181.231 134.839 181.096C134.778 180.96 134.747 180.812 134.748 180.663V168.967C134.748 168.794 134.792 168.623 134.875 168.472C134.959 168.32 135.08 168.192 135.227 168.1L143.65 162.828C143.779 162.747 143.924 162.696 144.074 162.679C144.225 162.661 144.378 162.677 144.521 162.726C144.665 162.775 144.796 162.855 144.904 162.961C145.013 163.067 145.097 163.196 145.149 163.338L148.851 173.27C148.901 173.393 148.922 173.526 148.912 173.658C148.831 176.217 148.056 178.073 146.597 179.164C146.224 179.435 145.816 179.654 145.384 179.817C145.812 180.062 146.251 180.317 146.689 180.541C147.882 181.183 148.3 183.09 147.587 184.62C147.313 185.21 146.87 185.704 146.314 186.042C145.759 186.38 145.116 186.545 144.466 186.517ZM136.788 180.184C138.683 181.765 140.769 183.101 142.998 184.161C143.926 184.528 145.139 184.773 145.669 183.886C145.814 183.651 145.895 183.383 145.904 183.107C145.913 182.832 145.85 182.559 145.72 182.315C143.742 181.296 141.642 179.929 141.55 179.868C141.345 179.738 141.194 179.539 141.123 179.307C141.052 179.075 141.066 178.826 141.162 178.604C141.259 178.38 141.432 178.199 141.651 178.092C141.87 177.986 142.12 177.961 142.355 178.022C142.874 178.146 143.412 178.163 143.938 178.074C144.464 177.984 144.966 177.79 145.415 177.502C145.914 177.021 146.304 176.438 146.556 175.791C146.807 175.145 146.916 174.452 146.873 173.76L143.681 165.194L136.788 169.497V180.184Z" fill="#093F68"/>
<path d="M79.0803 144.109C78.8098 144.109 78.5505 144.001 78.3592 143.81C78.168 143.619 78.0605 143.359 78.0605 143.089V129.832C78.0605 129.562 78.168 129.302 78.3592 129.111C78.5505 128.92 78.8098 128.812 79.0803 128.812C79.3507 128.812 79.6101 128.92 79.8013 129.111C79.9926 129.302 80.1 129.562 80.1 129.832V143.089C80.1 143.359 79.9926 143.619 79.8013 143.81C79.6101 144.001 79.3507 144.109 79.0803 144.109Z" fill="#093F68"/>
<path d="M135.768 144.109C135.497 144.109 135.238 144.001 135.047 143.81C134.855 143.619 134.748 143.359 134.748 143.089V129.832C134.748 129.562 134.855 129.302 135.047 129.111C135.238 128.92 135.497 128.812 135.768 128.812C136.038 128.812 136.298 128.92 136.489 129.111C136.68 129.302 136.788 129.562 136.788 129.832V143.089C136.788 143.359 136.68 143.619 136.489 143.81C136.298 144.001 136.038 144.109 135.768 144.109Z" fill="#093F68"/>
<path d="M75.0625 122.349C75.0625 122.349 81.1095 135.902 88.3191 136.473C95.5286 137.044 97.303 120.738 97.303 120.738L75.0625 122.349Z" fill="#F56132"/>
<path d="M88.747 137.496H88.2882C80.5688 136.884 74.4401 123.352 74.175 122.77C74.1092 122.621 74.0804 122.457 74.091 122.294C74.1017 122.131 74.1515 121.972 74.2362 121.832C74.3202 121.693 74.4362 121.576 74.5746 121.491C74.7129 121.406 74.8696 121.355 75.0316 121.343L97.2822 119.721C97.4307 119.711 97.5798 119.732 97.719 119.785C97.8581 119.838 97.984 119.921 98.0878 120.027C98.1923 120.134 98.272 120.263 98.3213 120.404C98.3706 120.545 98.3884 120.695 98.3734 120.843C98.2408 121.526 96.4053 137.496 88.747 137.496ZM76.6836 123.219C78.3763 126.544 83.1895 135.007 88.4513 135.456C93.0911 135.823 95.4569 126.666 96.1809 121.843L76.6836 123.219Z" fill="#093F68"/>
<path d="M88.3294 129.85C89.5177 129.85 90.481 128.887 90.481 127.699C90.481 126.51 89.5177 125.547 88.3294 125.547C87.1411 125.547 86.1777 126.51 86.1777 127.699C86.1777 128.887 87.1411 129.85 88.3294 129.85Z" fill="#093F68"/>
<path d="M88.3296 130.87C87.7023 130.87 87.0892 130.684 86.5677 130.336C86.0461 129.987 85.6396 129.492 85.3996 128.912C85.1596 128.333 85.0968 127.695 85.2191 127.08C85.3415 126.465 85.6436 125.9 86.0871 125.456C86.5306 125.013 87.0957 124.711 87.7109 124.588C88.3261 124.466 88.9637 124.529 89.5432 124.769C90.1227 125.009 90.618 125.415 90.9665 125.937C91.315 126.458 91.501 127.071 91.501 127.699C91.501 128.115 91.4189 128.528 91.2596 128.912C91.1002 129.297 90.8666 129.647 90.5721 129.941C90.2776 130.236 89.928 130.469 89.5432 130.629C89.1585 130.788 88.7461 130.87 88.3296 130.87ZM88.3296 126.567C88.1057 126.567 87.8869 126.633 87.7007 126.758C87.5146 126.882 87.3695 127.059 87.2838 127.266C87.1982 127.472 87.1757 127.7 87.2194 127.92C87.2631 128.139 87.3709 128.341 87.5292 128.499C87.6875 128.657 87.8892 128.765 88.1088 128.809C88.3283 128.853 88.5559 128.83 88.7628 128.744C88.9696 128.659 89.1463 128.514 89.2707 128.328C89.3951 128.141 89.4615 127.923 89.4615 127.699C89.4615 127.399 89.3422 127.111 89.13 126.898C88.9177 126.686 88.6298 126.567 88.3296 126.567Z" fill="#093F68"/>
<path d="M141.386 122.349C141.386 122.349 135.329 135.902 128.129 136.473C120.93 137.044 119.146 120.738 119.146 120.738L141.386 122.349Z" fill="#F56132"/>
<path d="M127.752 137.498C120.032 137.498 118.197 121.529 118.126 120.836C118.11 120.687 118.128 120.537 118.177 120.396C118.226 120.255 118.305 120.127 118.409 120.02C118.513 119.913 118.639 119.83 118.779 119.777C118.918 119.724 119.068 119.703 119.217 119.714L141.457 121.335C141.621 121.346 141.779 121.396 141.919 121.481C142.059 121.566 142.177 121.683 142.262 121.824C142.347 121.964 142.397 122.122 142.408 122.286C142.419 122.449 142.39 122.613 142.324 122.763C142.059 123.344 135.93 136.876 128.211 137.488L127.752 137.498ZM120.359 121.835C121.073 126.658 123.418 135.826 128.088 135.448C133.35 135.04 138.153 126.577 139.856 123.212L120.359 121.835Z" fill="#093F68"/>
<path d="M128.109 129.85C129.297 129.85 130.26 128.887 130.26 127.699C130.26 126.51 129.297 125.547 128.109 125.547C126.92 125.547 125.957 126.51 125.957 127.699C125.957 128.887 126.92 129.85 128.109 129.85Z" fill="#093F68"/>
<path d="M128.109 130.87C127.482 130.87 126.868 130.684 126.347 130.336C125.825 129.987 125.419 129.492 125.179 128.912C124.939 128.333 124.876 127.695 124.998 127.08C125.121 126.465 125.423 125.9 125.866 125.456C126.31 125.013 126.875 124.711 127.49 124.588C128.105 124.466 128.743 124.529 129.323 124.769C129.902 125.009 130.397 125.415 130.746 125.937C131.094 126.458 131.28 127.071 131.28 127.699C131.282 128.116 131.201 128.529 131.042 128.914C130.883 129.299 130.649 129.649 130.354 129.944C130.06 130.239 129.709 130.473 129.324 130.631C128.939 130.79 128.526 130.871 128.109 130.87ZM128.109 126.567C127.885 126.567 127.666 126.633 127.48 126.758C127.294 126.882 127.149 127.059 127.063 127.266C126.977 127.472 126.955 127.7 126.999 127.92C127.042 128.139 127.15 128.341 127.309 128.499C127.467 128.657 127.668 128.765 127.888 128.809C128.108 128.853 128.335 128.83 128.542 128.744C128.749 128.659 128.926 128.514 129.05 128.328C129.174 128.141 129.241 127.923 129.241 127.699C129.241 127.399 129.122 127.111 128.909 126.898C128.697 126.686 128.409 126.567 128.109 126.567Z" fill="#093F68"/>
<path d="M135.767 179H79.0801V198.171H135.767V179Z" fill="#093F68"/>
<path d="M135.767 199.191H79.0803C78.8098 199.191 78.5505 199.084 78.3592 198.892C78.168 198.701 78.0605 198.442 78.0605 198.171V179C78.0605 178.73 78.168 178.47 78.3592 178.279C78.5505 178.088 78.8098 177.98 79.0803 177.98H135.767C136.038 177.98 136.297 178.088 136.489 178.279C136.68 178.47 136.787 178.73 136.787 179V198.171C136.787 198.442 136.68 198.701 136.489 198.892C136.297 199.084 136.038 199.191 135.767 199.191ZM80.1 197.152H134.748V180.02H80.1V197.152Z" fill="#093F68"/>
<path d="M39.2087 98.6098H39.0557L0.886917 93.1236C0.616465 93.0858 0.372135 92.942 0.20767 92.724C0.0432053 92.506 -0.0279137 92.2316 0.00994951 91.9611C0.0478127 91.6907 0.191557 91.4464 0.409568 91.2819C0.627579 91.1174 0.901999 91.0463 1.17245 91.0842L39.3514 96.5704C39.6219 96.5893 39.8737 96.7149 40.0516 96.9195C40.2294 97.1241 40.3187 97.391 40.2998 97.6615C40.2809 97.9319 40.1553 98.1838 39.9506 98.3616C39.746 98.5395 39.4791 98.6288 39.2087 98.6098Z" fill="#DFEAEF"/>
<path d="M35.1398 72.8397C34.9396 72.8395 34.7439 72.7804 34.5771 72.6698C34.4103 72.5592 34.2797 72.4019 34.2016 72.2176C33.3246 70.8512 22.3217 61.9081 12.3588 54.1479C12.1456 53.9826 12.0066 53.7396 11.9722 53.472C11.9378 53.2044 12.0108 52.9341 12.1753 52.7202C12.2572 52.6132 12.3596 52.5235 12.4764 52.4562C12.5932 52.389 12.7222 52.3456 12.8559 52.3285C12.9896 52.3115 13.1254 52.3211 13.2554 52.3568C13.3853 52.3925 13.5069 52.4537 13.6131 52.5367C21.771 58.8693 35.4865 69.7499 36.0983 71.4834C36.1865 71.7377 36.1706 72.0165 36.0541 72.2591C35.9376 72.5017 35.7299 72.6884 35.4763 72.7785C35.3684 72.8177 35.2546 72.8384 35.1398 72.8397Z" fill="#DFEAEF"/>
<path d="M8.44324 136.191C8.20989 136.193 7.98316 136.114 7.80091 135.968C7.61865 135.822 7.49188 135.619 7.44177 135.391C7.39165 135.163 7.42121 134.925 7.52553 134.716C7.62984 134.507 7.80259 134.34 8.01495 134.244L38.7804 119.804C38.902 119.744 39.0343 119.709 39.1696 119.701C39.3048 119.693 39.4404 119.712 39.5683 119.757C39.6962 119.801 39.8139 119.871 39.9144 119.962C40.015 120.053 40.0965 120.163 40.1541 120.285C40.2117 120.408 40.2443 120.541 40.2499 120.676C40.2556 120.812 40.2342 120.947 40.187 121.074C40.1398 121.201 40.0677 121.317 39.9751 121.416C39.8824 121.515 39.7709 121.595 39.6472 121.65L8.89192 136.089C8.75286 136.159 8.59886 136.194 8.44324 136.191Z" fill="#DFEAEF"/>
<path d="M167.552 99.9497C167.419 99.9578 167.284 99.9393 167.158 99.8955C167.031 99.8517 166.914 99.7833 166.814 99.6943C166.713 99.6053 166.631 99.4974 166.573 99.3767C166.514 99.2561 166.48 99.1251 166.472 98.9912C166.464 98.8573 166.482 98.7231 166.526 98.5963C166.57 98.4695 166.638 98.3526 166.727 98.2522C166.816 98.1518 166.924 98.07 167.045 98.0113C167.165 97.9526 167.296 97.9183 167.43 97.9102L201.357 93.8313C201.624 93.7996 201.894 93.8751 202.106 94.0414C202.318 94.2076 202.456 94.451 202.489 94.7185C202.506 94.8518 202.496 94.9871 202.461 95.1168C202.426 95.2465 202.365 95.3679 202.283 95.474C202.2 95.5801 202.098 95.6689 201.981 95.7353C201.864 95.8016 201.735 95.8442 201.602 95.8606L167.675 99.9395L167.552 99.9497Z" fill="#DFEAEF"/>
<path d="M171.581 72.8374C171.366 72.8396 171.156 72.7738 170.981 72.6495C170.805 72.5251 170.674 72.3486 170.605 72.145C170.536 71.9415 170.533 71.7214 170.596 71.5161C170.66 71.3108 170.787 71.1308 170.959 71.0019L195.351 52.5243C195.567 52.362 195.839 52.2923 196.107 52.3306C196.375 52.3688 196.616 52.5119 196.779 52.7282C196.941 52.9446 197.01 53.2165 196.972 53.4843C196.934 53.752 196.791 53.9936 196.575 54.1559L172.193 72.6335C172.016 72.7659 171.801 72.8374 171.581 72.8374Z" fill="#DFEAEF"/>
<path d="M203.978 140.068C203.787 140.069 203.6 140.016 203.438 139.915L173.947 121.56C173.717 121.417 173.553 121.188 173.492 120.924C173.431 120.66 173.477 120.383 173.621 120.153C173.764 119.923 173.993 119.759 174.257 119.698C174.52 119.637 174.798 119.683 175.028 119.827L204.519 138.182C204.633 138.253 204.731 138.345 204.81 138.454C204.888 138.564 204.944 138.687 204.974 138.818C205.004 138.948 205.008 139.084 204.986 139.216C204.964 139.349 204.916 139.475 204.845 139.589C204.753 139.736 204.625 139.857 204.474 139.941C204.322 140.025 204.151 140.069 203.978 140.068Z" fill="#DFEAEF"/>
</g>
<defs>
<clipPath id="clip0_2723_15569">
<rect width="205" height="205" fill="white"/>
</clipPath>
</defs>
</svg>
