<svg width="205" height="205" viewBox="0 0 205 205" fill="none" xmlns="http://www.w3.org/2000/svg">
<path d="M58.2812 56.8789H146.677C166.118 56.8789 181.225 73.0795 178.998 91.5672L169.428 171.206H35.5302L25.9603 91.5672C23.7334 73.0795 38.8406 56.8789 58.2812 56.8789Z" fill="#093F68"/>
<path d="M169.429 172.209H35.5307C35.2827 172.21 35.043 172.12 34.8577 171.955C34.6725 171.79 34.5548 171.562 34.5276 171.316L24.9477 91.6873C24.4117 87.2878 24.8276 82.8245 26.1672 78.5998C27.5068 74.3751 29.7388 70.4876 32.7119 67.2008C35.9305 63.6146 39.8725 60.7511 44.2781 58.799C48.6837 56.8469 53.453 55.8505 58.2717 55.8755H146.668C151.486 55.8505 156.256 56.8469 160.661 58.799C165.067 60.7511 169.009 63.6146 172.227 67.2008C175.201 70.4876 177.433 74.3751 178.772 78.5998C180.112 82.8245 180.528 87.2878 179.992 91.6873L170.412 171.316C170.385 171.559 170.27 171.784 170.089 171.948C169.908 172.113 169.673 172.205 169.429 172.209ZM36.4235 170.202H168.536L178.005 91.4465C178.506 87.3302 178.117 83.1543 176.864 79.2014C175.611 75.2486 173.524 71.611 170.743 68.535C167.711 65.1584 163.998 62.463 159.848 60.6267C155.698 58.7903 151.206 57.8548 146.668 57.8817H58.2817C53.7438 57.8548 49.2517 58.7903 45.1018 60.6267C40.9519 62.463 37.2385 65.1584 34.2066 68.535C31.4258 71.611 29.3382 75.2486 28.0852 79.2014C26.8322 83.1543 26.443 87.3302 26.9439 91.4465L36.4235 170.202Z" fill="#093F68"/>
<path d="M84.7453 107.672H120.216C129.371 107.672 138.15 111.309 144.624 117.782C151.097 124.255 154.734 133.035 154.734 142.19V185.324H50.2275V142.19C50.2275 133.035 53.8642 124.255 60.3375 117.782C66.8109 111.309 75.5906 107.672 84.7453 107.672Z" fill="#E8189D"/>
<path d="M154.733 186.284H50.2268C49.9607 186.284 49.7056 186.178 49.5174 185.99C49.3293 185.802 49.2236 185.547 49.2236 185.281V142.146C49.2316 132.728 52.9765 123.697 59.6363 117.038C66.296 110.378 75.3262 106.633 84.7445 106.625H120.215C129.634 106.633 138.664 110.378 145.324 117.038C151.983 123.697 155.728 132.728 155.736 142.146V185.281C155.736 185.547 155.63 185.802 155.442 185.99C155.254 186.178 154.999 186.284 154.733 186.284ZM51.2299 184.277H153.73V142.146C153.719 133.261 150.185 124.742 143.902 118.459C137.619 112.176 129.101 108.642 120.215 108.631H84.7445C75.8592 108.642 67.3407 112.176 61.0578 118.459C54.7749 124.742 51.2405 133.261 51.2299 142.146V184.277Z" fill="#093F68"/>
<path d="M141.19 56.882C141.19 56.882 147.54 35.2845 145.002 27.8614C144.554 26.5185 143.751 25.3222 142.677 24.4001C141.602 23.4779 140.298 22.8645 138.903 22.625C138.903 22.625 134.419 11.9517 119.001 9.41378C103.583 6.87585 66.2263 20.3379 56.8069 12.2025C56.8069 12.2025 52.995 22.1134 63.1567 30.7604C60.8695 46.8908 65.1629 55.7785 65.1629 55.7785L141.19 56.882Z" fill="#725858"/>
<path d="M141.191 57.8834L65.1936 56.7298C65.008 56.7255 64.8271 56.6698 64.6713 56.5688C64.5154 56.4679 64.3907 56.3256 64.3109 56.158C64.1303 55.7868 59.9773 47.0194 62.114 31.0797C52.0827 22.1618 55.8545 11.8697 55.8946 11.7694C55.9511 11.6175 56.0436 11.4816 56.1642 11.3733C56.2847 11.265 56.4297 11.1875 56.5867 11.1475C56.7424 11.1104 56.9046 11.1111 57.0599 11.1495C57.2152 11.1879 57.3591 11.2628 57.4795 11.3681C62.5654 15.7619 77.2111 13.2641 91.3753 10.8465C102.239 8.99073 112.501 7.24528 119.162 8.33869C133.206 10.6559 138.472 19.4233 139.596 21.6502C141.069 21.9972 142.428 22.7188 143.54 23.7452C144.653 24.7715 145.481 26.0679 145.946 27.5085C148.564 35.1424 142.415 56.2382 142.154 57.131C142.099 57.345 141.974 57.5347 141.8 57.6708C141.626 57.8068 141.412 57.8815 141.191 57.8834ZM65.8858 54.7235L140.439 55.857C141.502 52.0451 146.207 34.4602 144.05 28.1806C143.675 27.0038 142.987 25.9514 142.059 25.1366C141.131 24.3217 139.999 23.7753 138.783 23.5562C138.609 23.5351 138.442 23.4684 138.301 23.3628C138.161 23.2571 138.05 23.1163 137.981 22.9543C137.981 22.854 133.477 12.7525 118.831 10.345C112.501 9.29167 101.938 11.0973 91.7465 12.8428C77.4418 15.2804 63.8795 17.5976 57.4394 13.7857C56.8175 16.6045 56.336 23.6264 63.8294 29.9361C63.9591 30.0467 64.0585 30.1886 64.1182 30.3483C64.1778 30.5081 64.1958 30.6804 64.1704 30.849C62.2745 44.2207 65.0331 52.5768 65.8858 54.7235Z" fill="#093F68"/>
<path d="M102.48 186.287C102.214 186.287 101.958 186.182 101.77 185.994C101.582 185.805 101.477 185.55 101.477 185.284V157.488C101.477 157.221 101.582 156.966 101.77 156.778C101.958 156.59 102.214 156.484 102.48 156.484C102.746 156.484 103.001 156.59 103.189 156.778C103.377 156.966 103.483 157.221 103.483 157.488V185.284C103.483 185.55 103.377 185.805 103.189 185.994C103.001 186.182 102.746 186.287 102.48 186.287Z" fill="#093F68"/>
<path d="M124.458 107.672L109.562 150.837L102.48 171.381L95.3975 150.837L80.501 107.672H124.458Z" fill="white"/>
<path d="M102.48 172.383C102.271 172.384 102.067 172.32 101.896 172.2C101.725 172.079 101.596 171.908 101.527 171.711L79.5485 107.992C79.4988 107.841 79.4856 107.681 79.51 107.524C79.5344 107.367 79.5957 107.218 79.6889 107.089C79.7813 106.96 79.9031 106.854 80.0444 106.781C80.1856 106.707 80.3423 106.669 80.5015 106.668H124.459C124.618 106.669 124.775 106.707 124.916 106.781C125.057 106.854 125.179 106.96 125.271 107.089C125.364 107.218 125.426 107.367 125.45 107.524C125.475 107.681 125.461 107.841 125.412 107.992L103.483 171.711C103.412 171.917 103.275 172.094 103.094 172.215C102.913 172.336 102.698 172.395 102.48 172.383ZM81.9059 108.674L102.48 168.3L123.054 108.674H81.9059Z" fill="#093F68"/>
<path d="M105.49 119.315H99.4707L94.2344 100.477H110.726L105.49 119.315Z" fill="#F56132"/>
<path d="M105.489 120.318H99.4702C99.245 120.326 99.0236 120.258 98.8417 120.125C98.6597 119.993 98.5277 119.802 98.467 119.585L93.2307 100.737C93.1969 100.584 93.1993 100.426 93.2376 100.274C93.276 100.123 93.3492 99.9821 93.4514 99.8639C93.5448 99.7425 93.6648 99.6441 93.8022 99.5763C93.9396 99.5085 94.0907 99.473 94.2438 99.4727H110.735C110.889 99.473 111.04 99.5085 111.177 99.5763C111.314 99.6441 111.434 99.7425 111.528 99.8639C111.621 99.9864 111.685 100.129 111.715 100.28C111.745 100.432 111.739 100.588 111.698 100.737L106.492 119.585C106.431 119.802 106.299 119.993 106.117 120.125C105.936 120.258 105.714 120.326 105.489 120.318ZM100.233 118.311H104.727L109.401 101.479H95.558L100.233 118.311Z" fill="#093F68"/>
<path d="M109.562 150.835L102.48 171.379L95.3975 150.835L99.4702 119.316H105.479L109.562 150.835Z" fill="#F56132"/>
<path d="M102.481 172.381C102.272 172.383 102.067 172.318 101.896 172.198C101.726 172.077 101.597 171.907 101.528 171.709L94.4555 151.165C94.4045 151.02 94.3874 150.866 94.4054 150.714L98.4681 119.195C98.4976 118.951 98.6162 118.725 98.8013 118.563C98.9863 118.4 99.2247 118.311 99.4712 118.313H105.49C105.736 118.311 105.975 118.4 106.16 118.563C106.345 118.725 106.464 118.951 106.493 119.195L110.576 150.704C110.594 150.856 110.577 151.01 110.526 151.155L103.484 171.709C103.412 171.915 103.276 172.092 103.095 172.213C102.914 172.334 102.698 172.393 102.481 172.381ZM96.4618 150.734L102.481 168.299L108.499 150.724L104.567 120.319H100.314L96.4618 150.734Z" fill="#093F68"/>
<path d="M70.8209 69.7529C76.8209 69.7529 81.6849 65.0731 81.6849 59.3003C81.6849 53.5275 76.8209 48.8477 70.8209 48.8477C64.821 48.8477 59.957 53.5275 59.957 59.3003C59.957 65.0731 64.821 69.7529 70.8209 69.7529Z" fill="#FFC9B0"/>
<path d="M70.8214 70.7761C68.572 70.6974 66.3955 69.9583 64.5633 68.6511C62.7311 67.3438 61.3241 65.5262 60.5178 63.4249C59.7115 61.3235 59.5415 59.0313 60.029 56.8339C60.5165 54.6366 61.64 52.6314 63.2593 51.0681C64.8786 49.5049 66.9223 48.4529 69.1354 48.0431C71.3486 47.6334 73.6334 47.8841 75.705 48.764C77.7766 49.6439 79.5435 51.1141 80.7853 52.9913C82.0271 54.8685 82.689 57.0696 82.6884 59.3204C82.6304 62.412 81.3484 65.3544 79.1237 67.5021C76.8989 69.6497 73.9132 70.8272 70.8214 70.7761ZM70.8214 49.8608C68.9696 49.9395 67.1817 50.5604 65.6797 51.6464C64.1778 52.7325 63.028 54.2358 62.3732 55.9698C61.7183 57.7037 61.5873 59.5918 61.9964 61.3996C62.4054 63.2073 63.3365 64.8551 64.6741 66.1382C66.0116 67.4213 67.6966 68.2832 69.5198 68.6169C71.343 68.9505 73.224 68.7412 74.9293 68.0149C76.6345 67.2887 78.0888 66.0775 79.1116 64.5317C80.1344 62.986 80.6805 61.1738 80.6822 59.3204C80.6295 56.7564 79.5615 54.3181 77.7127 52.5408C75.8639 50.7635 73.3855 49.7924 70.8214 49.8408V49.8608Z" fill="#093F68"/>
<path d="M134.138 69.7529C140.138 69.7529 145.002 65.0731 145.002 59.3003C145.002 53.5275 140.138 48.8477 134.138 48.8477C128.138 48.8477 123.274 53.5275 123.274 59.3003C123.274 65.0731 128.138 69.7529 134.138 69.7529Z" fill="#FFC9B0"/>
<path d="M134.139 70.7761C131.889 70.6974 129.713 69.9583 127.881 68.6511C126.048 67.3438 124.642 65.5262 123.835 63.4249C123.029 61.3235 122.859 59.0313 123.346 56.8339C123.834 54.6366 124.957 52.6314 126.577 51.0681C128.196 49.5049 130.24 48.4529 132.453 48.0431C134.666 47.6334 136.951 47.8841 139.022 48.764C141.094 49.6439 142.861 51.1141 144.103 52.9913C145.345 54.8685 146.006 57.0696 146.006 59.3204C145.948 62.412 144.666 65.3544 142.441 67.5021C140.216 69.6497 137.231 70.8272 134.139 70.7761ZM134.139 49.8608C132.287 49.9395 130.499 50.5604 128.997 51.6464C127.495 52.7325 126.345 54.2358 125.691 55.9698C125.036 57.7037 124.905 59.5918 125.314 61.3996C125.723 63.2073 126.654 64.8551 127.991 66.1382C129.329 67.4213 131.014 68.2832 132.837 68.6169C134.66 68.9505 136.541 68.7412 138.247 68.0149C139.952 67.2887 141.406 66.0775 142.429 64.5317C143.452 62.986 143.998 61.1738 144 59.3204C143.947 56.7564 142.879 54.3181 141.03 52.5408C139.181 50.7635 136.703 49.7924 134.139 49.8408V49.8608Z" fill="#093F68"/>
<path d="M123.817 27.8711C125.442 27.8711 127.052 28.1913 128.554 28.8134C130.055 29.4354 131.42 30.3472 132.57 31.4967C133.719 32.6462 134.631 34.0108 135.253 35.5126C135.875 37.0145 136.195 38.6242 136.195 40.2497V73.7844C136.195 82.3325 132.799 90.5305 126.755 96.5749C120.711 102.619 112.513 106.015 103.965 106.015H101.005C96.7719 106.016 92.5796 105.184 88.6681 103.565C84.7565 101.945 81.2023 99.5715 78.2083 96.5785C75.2144 93.5854 72.8394 90.0319 71.219 86.1209C69.5986 82.2098 68.7646 78.0179 68.7646 73.7844V40.2497C68.7646 38.6233 69.0852 37.0128 69.7079 35.5103C70.3306 34.0078 71.2433 32.6428 72.3938 31.4932C73.5443 30.3436 74.9101 29.432 76.4131 28.8105C77.9161 28.189 79.5269 27.8698 81.1533 27.8711H123.817Z" fill="#FFC9B0"/>
<path d="M103.965 106.967H101.006C92.2016 106.959 83.7596 103.463 77.5286 97.2429C71.2976 91.0232 67.7856 82.5876 67.7617 73.7837V40.249C67.767 36.6998 69.18 33.2976 71.6906 30.7889C74.2012 28.2802 77.6044 26.8698 81.1535 26.8672H123.817C127.364 26.8725 130.765 28.2841 133.273 30.7925C135.782 33.3009 137.193 36.7015 137.198 40.249V73.7837C137.177 82.5866 133.667 91.0223 127.438 97.2423C121.209 103.462 112.768 106.959 103.965 106.967ZM81.1535 28.8735C78.1356 28.8734 75.2412 30.0716 73.1063 32.2047C70.9714 34.3377 69.7706 37.2311 69.768 40.249V73.7837C69.7786 82.0642 73.0734 90.0024 78.9296 95.8566C84.7857 101.711 92.725 105.003 101.006 105.011H103.965C112.244 105.001 120.18 101.707 126.034 95.8531C131.888 89.9991 135.182 82.0624 135.192 73.7837V40.249C135.19 37.2328 133.99 34.3409 131.857 32.2082C129.725 30.0754 126.833 28.8761 123.817 28.8735H81.1535Z" fill="#093F68"/>
<path d="M85.8176 97.918L80.501 107.658L85.3461 121.692L100.624 102.352L85.8176 97.918Z" fill="white"/>
<path d="M85.3459 122.694H85.1754C84.9975 122.664 84.8309 122.587 84.6932 122.47C84.5555 122.354 84.4518 122.202 84.3929 122.032L79.5578 107.988C79.512 107.855 79.4946 107.714 79.5067 107.574C79.5188 107.434 79.5601 107.298 79.6281 107.175L84.9346 97.4351C85.0448 97.2319 85.2218 97.073 85.4357 96.9852C85.6495 96.8975 85.8871 96.8863 86.1083 96.9536L100.904 101.387C101.061 101.433 101.204 101.517 101.321 101.63C101.438 101.744 101.526 101.884 101.577 102.039C101.627 102.197 101.638 102.365 101.609 102.527C101.579 102.69 101.509 102.843 101.406 102.972L86.1284 122.313C86.0349 122.431 85.9161 122.527 85.7806 122.593C85.6452 122.659 85.4966 122.693 85.3459 122.694ZM81.5942 107.747L85.697 119.624L98.9183 102.872L86.3089 99.1003L81.5942 107.747Z" fill="#093F68"/>
<path d="M119.142 97.918L124.458 107.658L119.623 121.692L104.346 102.352L119.142 97.918Z" fill="white"/>
<path d="M119.623 122.694C119.471 122.695 119.32 122.661 119.183 122.595C119.045 122.529 118.925 122.432 118.831 122.313L103.553 102.972C103.45 102.843 103.38 102.69 103.35 102.527C103.321 102.365 103.332 102.197 103.382 102.039C103.433 101.884 103.52 101.744 103.638 101.63C103.755 101.517 103.898 101.433 104.054 101.387L118.851 96.9536C119.072 96.8863 119.309 96.8975 119.523 96.9852C119.737 97.073 119.914 97.2319 120.024 97.4351L125.341 107.175C125.407 107.299 125.447 107.435 125.457 107.575C125.468 107.715 125.448 107.856 125.401 107.988L120.566 122.032C120.507 122.202 120.403 122.354 120.266 122.47C120.128 122.587 119.961 122.664 119.783 122.694H119.623ZM106.041 102.872L119.272 119.614L123.365 107.737L118.65 99.1003L106.041 102.872Z" fill="#093F68"/>
<path d="M136.195 61.8163V73.7837C136.195 82.3318 132.799 90.5298 126.755 96.5742C120.711 102.619 112.513 106.014 103.965 106.014H101.005C96.7719 106.016 92.5796 105.183 88.6681 103.564C84.7565 101.945 81.2023 99.5707 78.2083 96.5777C75.2144 93.5847 72.8394 90.0312 71.219 86.1201C69.5986 82.2091 68.7646 78.0171 68.7646 73.7837V61.7461C72.4762 65.9392 78.0637 71.1555 82.9188 71.1555C91.0542 71.1555 90.031 63.7022 104.265 65.3975C118.5 67.0928 118.149 74.205 123.235 73.1818C126.033 72.6702 131.671 66.9022 136.195 61.8163Z" fill="#E28362"/>
<path d="M103.965 106.967H101.006C92.2016 106.959 83.7596 103.463 77.5286 97.2428C71.2976 91.0231 67.7856 82.5875 67.7617 73.7836V61.746C67.7611 61.541 67.8232 61.3408 67.9398 61.1722C68.0563 61.0036 68.2218 60.8748 68.4138 60.8031C68.6035 60.7314 68.8105 60.7188 69.0075 60.7672C69.2045 60.8156 69.3822 60.9225 69.5172 61.0739C74.6934 66.9322 79.4482 70.1021 82.919 70.1021C85.9284 70.1021 87.5635 68.9686 89.4294 67.6545C92.3385 65.6482 95.6187 63.3109 104.386 64.3541C112.973 65.3573 116.534 68.3667 118.901 70.3729C120.627 71.8375 121.449 72.4695 123.034 72.1485C124.188 71.9178 127.338 70.1422 135.443 61.114C135.578 60.9613 135.756 60.8532 135.953 60.8041C136.151 60.7549 136.359 60.7671 136.549 60.8389C136.74 60.9108 136.904 61.0389 137.02 61.2063C137.136 61.3737 137.198 61.5725 137.198 61.7761V73.7836C137.177 82.5866 133.667 91.0222 127.438 97.2422C121.209 103.462 112.768 106.959 103.965 106.967ZM69.768 64.3541V73.7836C69.7786 82.0641 73.0734 90.0023 78.9296 95.8566C84.7857 101.711 92.725 105.003 101.006 105.011H103.965C112.244 105 120.18 101.707 126.034 95.853C131.888 89.999 135.182 82.0624 135.192 73.7836V64.4745C126.826 73.583 124.298 74.0845 123.436 74.2551C120.837 74.7767 119.333 73.5127 117.607 72.0482C115.3 70.1021 112.14 67.4338 104.145 66.4808C96.1504 65.5278 93.3215 67.4839 90.583 69.4902C88.5767 70.8745 86.5704 72.299 82.919 72.299C78.4551 72.1986 73.5598 68.2764 69.768 64.3541Z" fill="#093F68"/>
<path d="M102.008 51.2031C102.008 51.2031 94.7256 68.4771 100.313 67.9755C105.9 67.4739 106.753 63.5717 106.753 63.5717" fill="#FFC9B0"/>
<path d="M100.082 68.9885C99.6698 69.0085 99.2587 68.9276 98.8846 68.7528C98.5105 68.578 98.1847 68.3146 97.9355 67.9853C95.4778 64.6248 100.132 53.129 101.085 50.8619C101.189 50.6158 101.386 50.421 101.634 50.3203C101.881 50.2197 102.158 50.2214 102.404 50.3252C102.651 50.429 102.845 50.6262 102.946 50.8736C103.047 51.121 103.045 51.3982 102.941 51.6443C100.744 56.8506 98.2364 65.006 99.5505 66.8016C99.6208 66.8919 99.7512 67.0725 100.223 67.0223C104.957 66.591 105.75 63.5314 105.78 63.401C105.837 63.135 105.998 62.9025 106.226 62.7549C106.455 62.6072 106.733 62.5564 106.999 62.6136C107.265 62.6708 107.497 62.8313 107.645 63.0599C107.793 63.2884 107.843 63.5663 107.786 63.8324C107.786 64.023 106.713 68.4568 100.463 69.0186L100.082 68.9885Z" fill="#093F68"/>
<path d="M104.014 83.9844C99.0418 83.9137 94.2104 82.3208 90.171 79.4201C89.9883 79.2476 89.8769 79.0128 89.859 78.7621C89.8411 78.5114 89.9179 78.2632 90.0743 78.0664C90.2307 77.8697 90.4552 77.7388 90.7035 77.6997C90.9517 77.6606 91.2056 77.7161 91.4149 77.8552C91.8362 78.1863 101.908 85.9806 113.674 79.38C113.789 79.3141 113.916 79.2716 114.048 79.2551C114.18 79.2386 114.313 79.2484 114.441 79.2838C114.569 79.3193 114.688 79.3797 114.793 79.4616C114.897 79.5436 114.984 79.6454 115.049 79.7612C115.113 79.8764 115.153 80.0032 115.168 80.1341C115.183 80.2651 115.172 80.3977 115.136 80.5244C115.099 80.6511 115.039 80.7694 114.956 80.8725C114.874 80.9756 114.773 81.0616 114.657 81.1254C111.42 82.9909 107.751 83.9766 104.014 83.9844Z" fill="#093F68"/>
<path d="M85.9588 58.9273C87.7261 58.9273 89.1588 57.4946 89.1588 55.7273C89.1588 53.96 87.7261 52.5273 85.9588 52.5273C84.1915 52.5273 82.7588 53.96 82.7588 55.7273C82.7588 57.4946 84.1915 58.9273 85.9588 58.9273Z" fill="#093F68"/>
<path d="M119.002 58.9273C120.769 58.9273 122.202 57.4946 122.202 55.7273C122.202 53.96 120.769 52.5273 119.002 52.5273C117.234 52.5273 115.802 53.96 115.802 55.7273C115.802 57.4946 117.234 58.9273 119.002 58.9273Z" fill="#093F68"/>
<path d="M91.4463 47.1118H76.5598C76.1368 47.1118 75.7311 46.9438 75.432 46.6447C75.1329 46.3456 74.9648 45.9399 74.9648 45.5169C74.9648 45.0938 75.1329 44.6881 75.432 44.389C75.7311 44.0899 76.1368 43.9219 76.5598 43.9219H91.4463C91.8693 43.9219 92.275 44.0899 92.5741 44.389C92.8732 44.6881 93.0413 45.0938 93.0413 45.5169C93.0413 45.9399 92.8732 46.3456 92.5741 46.6447C92.275 46.9438 91.8693 47.1118 91.4463 47.1118Z" fill="#093F68"/>
<path d="M128.401 47.1118H113.515C113.092 47.1118 112.686 46.9438 112.387 46.6447C112.088 46.3456 111.92 45.9399 111.92 45.5169C111.92 45.0938 112.088 44.6881 112.387 44.389C112.686 44.0899 113.092 43.9219 113.515 43.9219H128.381C128.804 43.9219 129.21 44.0899 129.509 44.389C129.808 44.6881 129.976 45.0938 129.976 45.5169C129.976 45.9399 129.808 46.3456 129.509 46.6447C129.21 46.9438 128.804 47.1118 128.381 47.1118H128.401Z" fill="#093F68"/>
<path d="M131.099 151.766H115.46V157.483H131.099V151.766Z" fill="#FFBC0E"/>
<path d="M131.099 158.486H115.46C115.194 158.486 114.939 158.38 114.751 158.192C114.563 158.004 114.457 157.749 114.457 157.483V151.765C114.457 151.499 114.563 151.244 114.751 151.056C114.939 150.867 115.194 150.762 115.46 150.762H131.099C131.365 150.762 131.62 150.867 131.808 151.056C131.996 151.244 132.102 151.499 132.102 151.765V157.483C132.102 157.749 131.996 158.004 131.808 158.192C131.62 158.38 131.365 158.486 131.099 158.486ZM116.463 156.48H130.096V152.768H116.463V156.48Z" fill="#093F68"/>
<path d="M68.7649 186.287C68.4988 186.287 68.2437 186.181 68.0555 185.993C67.8674 185.805 67.7617 185.55 67.7617 185.284V136.421C67.7617 136.155 67.8674 135.9 68.0555 135.712C68.2437 135.524 68.4988 135.418 68.7649 135.418C69.0309 135.418 69.286 135.524 69.4742 135.712C69.6623 135.9 69.768 136.155 69.768 136.421V185.284C69.768 185.55 69.6623 185.805 69.4742 185.993C69.286 186.181 69.0309 186.287 68.7649 186.287Z" fill="#093F68"/>
<path d="M136.195 186.287C135.928 186.287 135.673 186.181 135.485 185.993C135.297 185.805 135.191 185.55 135.191 185.284V136.421C135.191 136.155 135.297 135.9 135.485 135.712C135.673 135.524 135.928 135.418 136.195 135.418C136.461 135.418 136.716 135.524 136.904 135.712C137.092 135.9 137.198 136.155 137.198 136.421V185.284C137.198 185.55 137.092 185.805 136.904 185.993C136.716 186.181 136.461 186.287 136.195 186.287Z" fill="#093F68"/>
<path d="M198.299 162.449H6.66068C3.51388 162.449 0.962891 165 0.962891 168.147V189.965C0.962891 193.112 3.51388 195.663 6.66068 195.663H198.299C201.446 195.663 203.997 193.112 203.997 189.965V168.147C203.997 165 201.446 162.449 198.299 162.449Z" fill="white"/>
<path d="M198.299 196.679H6.70092C4.9228 196.677 3.21843 195.968 1.96205 194.71C0.705672 193.452 -1.98645e-06 191.746 0 189.968V168.15C0.0026533 166.374 0.709495 164.671 1.96559 163.415C3.22168 162.159 4.92454 161.452 6.70092 161.449H198.299C200.075 161.452 201.778 162.159 203.034 163.415C204.29 164.671 204.997 166.374 205 168.15V189.968C205 191.746 204.294 193.452 203.038 194.71C201.782 195.968 200.077 196.677 198.299 196.679ZM6.70092 163.455C5.45663 163.458 4.26407 163.954 3.38423 164.833C2.50438 165.713 2.00891 166.906 2.00626 168.15V189.968C2.00626 191.214 2.50055 192.409 3.38069 193.291C4.26082 194.173 5.4549 194.67 6.70092 194.673H198.299C199.545 194.67 200.739 194.173 201.619 193.291C202.499 192.409 202.994 191.214 202.994 189.968V168.15C202.991 166.906 202.496 165.713 201.616 164.833C200.736 163.954 199.543 163.458 198.299 163.455H6.70092Z" fill="#093F68"/>
<path d="M191.438 157.484H142.284V180.817H191.438V157.484Z" fill="white"/>
<path d="M191.438 181.823H142.284C142.018 181.823 141.763 181.718 141.575 181.53C141.387 181.342 141.281 181.086 141.281 180.82V157.488C141.281 157.221 141.387 156.966 141.575 156.778C141.763 156.59 142.018 156.484 142.284 156.484H191.438C191.704 156.484 191.959 156.59 192.147 156.778C192.335 156.966 192.441 157.221 192.441 157.488V180.82C192.441 181.086 192.335 181.342 192.147 181.53C191.959 181.718 191.704 181.823 191.438 181.823ZM143.288 179.817H190.435V158.491H143.288V179.817Z" fill="#093F68"/>
<path d="M36.2638 180.314C47.7097 180.314 56.9885 178.284 56.9885 175.78C56.9885 173.276 47.7097 171.246 36.2638 171.246C24.8178 171.246 15.5391 173.276 15.5391 175.78C15.5391 178.284 24.8178 180.314 36.2638 180.314Z" fill="#FFBC0E"/>
<path d="M36.2728 181.321C28.7593 181.321 14.5449 180.157 14.5449 175.783C14.5449 171.41 28.7593 170.246 36.2728 170.246C43.7862 170.246 58.0006 171.4 58.0006 175.783C58.0006 180.167 43.7762 181.321 36.2728 181.321ZM36.2728 172.292C23.232 172.292 16.5512 174.77 16.5512 175.824C16.5512 176.877 23.232 179.314 36.2728 179.314C49.3135 179.314 55.9943 176.837 55.9943 175.783C55.9943 174.73 49.3135 172.252 36.2728 172.252V172.292Z" fill="#093F68"/>
<path d="M25.6103 171.29H25.4698C19.0297 170.437 14.325 168 12.2285 164.418C11.6272 163.442 11.2615 162.339 11.1605 161.197C11.0595 160.055 11.226 158.905 11.6467 157.838C11.842 157.337 12.1415 156.882 12.5254 156.505C12.9093 156.128 13.3688 155.837 13.8736 155.651C17.2341 154.377 22.651 157.005 23.2529 157.306C23.3721 157.365 23.4784 157.447 23.5657 157.547C23.653 157.647 23.7196 157.763 23.7616 157.889C23.8036 158.015 23.8201 158.148 23.8103 158.28C23.8005 158.413 23.7645 158.542 23.7043 158.66C23.5841 158.897 23.3752 159.076 23.1233 159.158C22.8714 159.241 22.597 159.221 22.3601 159.102C20.9257 158.39 16.7426 156.714 14.5859 157.527C14.3414 157.614 14.1189 157.754 13.9336 157.936C13.7483 158.118 13.6046 158.337 13.5125 158.58C13.208 159.364 13.0894 160.207 13.166 161.045C13.2426 161.882 13.5123 162.69 13.9539 163.405C15.7094 166.415 19.9727 168.541 25.7307 169.294C25.8624 169.302 25.9913 169.335 26.11 169.393C26.2286 169.451 26.3348 169.531 26.4224 169.63C26.5099 169.729 26.5772 169.844 26.6203 169.968C26.6634 170.093 26.6815 170.225 26.6736 170.357C26.6657 170.489 26.6319 170.618 26.5742 170.736C26.5165 170.855 26.436 170.961 26.3372 171.049C26.2385 171.136 26.1235 171.203 25.9987 171.247C25.874 171.29 25.742 171.308 25.6103 171.3V171.29Z" fill="#093F68"/>
<path d="M35.9323 175.783H36.6044C39.9091 175.783 43.1207 174.688 45.7377 172.67C48.3546 170.652 50.2295 167.824 51.0696 164.628L54.0789 153.223H18.4678L21.4772 164.628C22.3168 167.823 24.1902 170.649 26.8051 172.667C29.42 174.685 32.6293 175.781 35.9323 175.783Z" fill="#FFBC0E"/>
<path d="M36.6046 176.782H35.9325C32.4056 176.781 28.9783 175.612 26.1855 173.458C23.3927 171.304 21.3916 168.286 20.4943 164.875L17.4849 153.469C17.4473 153.321 17.4441 153.167 17.4754 153.017C17.5067 152.868 17.5717 152.727 17.6655 152.607C17.7589 152.485 17.8789 152.387 18.0163 152.319C18.1537 152.251 18.3048 152.216 18.458 152.215H54.0591C54.2149 152.21 54.3696 152.242 54.5112 152.307C54.6527 152.372 54.777 152.47 54.8744 152.591C54.9718 152.713 55.0394 152.856 55.072 153.008C55.1046 153.161 55.1013 153.318 55.0622 153.469L52.0528 164.875C51.1567 168.288 49.1544 171.308 46.3593 173.463C43.5641 175.617 40.1337 176.785 36.6046 176.782ZM19.7721 154.222L22.4304 164.363C23.2163 167.346 24.9669 169.984 27.4092 171.868C29.8515 173.751 32.8483 174.774 35.9325 174.776H36.6046C39.6871 174.771 42.6816 173.748 45.1218 171.865C47.5621 169.981 49.3112 167.344 50.0967 164.363L52.7651 154.222H19.7721Z" fill="#093F68"/>
<path d="M194.998 181.819H137.82C137.553 181.819 137.298 181.713 137.11 181.525C136.922 181.337 136.816 181.082 136.816 180.816C136.816 180.55 136.922 180.294 137.11 180.106C137.298 179.918 137.553 179.812 137.82 179.812H194.998C195.264 179.812 195.519 179.918 195.707 180.106C195.895 180.294 196.001 180.55 196.001 180.816C196.001 181.082 195.895 181.337 195.707 181.525C195.519 181.713 195.264 181.819 194.998 181.819Z" fill="#093F68"/>
</svg>
