<svg width="844" height="845" viewBox="0 0 844 845" fill="none" xmlns="http://www.w3.org/2000/svg">
<g opacity="0.4">
<line x1="0.5" y1="1" x2="0.5" y2="845" stroke="#F1F3F5" stroke-opacity="0.4"/>
<line x1="100.5" y1="1" x2="100.5" y2="845" stroke="#F1F3F5" stroke-opacity="0.4"/>
<line x1="200.5" y1="1" x2="200.5" y2="845" stroke="#F1F3F5" stroke-opacity="0.4"/>
<line x1="300.5" y1="1" x2="300.5" y2="845" stroke="#F1F3F5" stroke-opacity="0.4"/>
<line x1="400.5" y1="1" x2="400.5" y2="845" stroke="#F1F3F5" stroke-opacity="0.4"/>
<line x1="500.5" y1="1" x2="500.5" y2="845" stroke="#F1F3F5" stroke-opacity="0.4"/>
<line x1="600.5" y1="1" x2="600.5" y2="845" stroke="#F1F3F5" stroke-opacity="0.4"/>
<line x1="700.5" y1="1" x2="700.5" y2="845" stroke="#F1F3F5" stroke-opacity="0.4"/>
<line x1="800.5" y1="1" x2="800.5" y2="845" stroke="#F1F3F5" stroke-opacity="0.4"/>
<line x1="4.37114e-08" y1="0.5" x2="844" y2="0.500074" stroke="#F1F3F5" stroke-opacity="0.4"/>
<line x1="4.37114e-08" y1="100.5" x2="844" y2="100.5" stroke="#F1F3F5" stroke-opacity="0.4"/>
<line x1="4.37114e-08" y1="200.5" x2="844" y2="200.5" stroke="#F1F3F5" stroke-opacity="0.4"/>
<line x1="4.37114e-08" y1="300.5" x2="844" y2="300.5" stroke="#F1F3F5" stroke-opacity="0.4"/>
<line x1="4.37114e-08" y1="400.5" x2="844" y2="400.5" stroke="#F1F3F5" stroke-opacity="0.4"/>
<line x1="4.37114e-08" y1="500.5" x2="844" y2="500.5" stroke="#F1F3F5" stroke-opacity="0.4"/>
<line x1="4.37114e-08" y1="600.5" x2="844" y2="600.5" stroke="#F1F3F5" stroke-opacity="0.4"/>
<line x1="4.37114e-08" y1="700.5" x2="844" y2="700.5" stroke="#F1F3F5" stroke-opacity="0.4"/>
<line x1="4.37114e-08" y1="800.5" x2="844" y2="800.5" stroke="#F1F3F5" stroke-opacity="0.4"/>
</g>
</svg>
