<svg width="10" height="12" viewBox="0 0 10 12" fill="none" xmlns="http://www.w3.org/2000/svg">
<g id="Icon">
<path id="Vector" d="M0.641377 5.20831C2.63255 4.88418 4.19212 3.25754 4.5201 1.29117L4.62988 0.345318C4.65668 0.194717 4.55424 -0.0137436 4.36158 0.000713033C2.85694 0.116382 1.43883 0.606784 0.647485 0.926094C0.256055 1.0839 0 1.46106 0 1.87916V4.96369C0 5.14682 0.165832 5.28539 0.348737 5.25647L0.641377 5.20949V5.20831Z" fill="white"/>
<path id="Vector_2" d="M5.47986 1.29234C5.80787 3.25996 7.36741 4.88539 9.35862 5.20947L9.65126 5.25646C9.83416 5.2866 9.99998 5.14685 9.99998 4.96368V1.87915C9.99998 1.46105 9.7439 1.08511 9.35251 0.926083C8.56236 0.606773 7.14306 0.116375 5.63837 0.000705896C5.44571 -0.0137548 5.34573 0.197095 5.36889 0.345307L5.47863 1.29116L5.47986 1.29234Z" fill="white"/>
<path id="Vector_3" d="M9.35728 6.07239C6.6369 6.60254 5.37366 8.38942 5.37366 11.7728C5.37366 11.9427 5.54439 12.0596 5.68704 11.9656C6.93811 11.1318 9.69136 8.95574 9.97547 6.23264C9.98646 5.88927 9.55236 6.05072 9.35728 6.07239Z" fill="white"/>
<path id="Vector_4" d="M0.642449 6.07243C3.36283 6.60257 4.62607 8.38945 4.62607 11.7728C4.62607 11.9427 4.45534 12.0595 4.31269 11.9656C3.06166 11.1318 0.308366 8.95573 0.0242521 6.23267C0.0132786 5.88926 0.447369 6.05071 0.642449 6.07243Z" fill="white"/>
</g>
</svg>
