<svg width="32" height="32" viewBox="0 0 32 32" fill="none" xmlns="http://www.w3.org/2000/svg">
<g clip-path="url(#clip0_2577_15500)">
<path d="M6.55696 10.0756C11.7722 4.99041 20.238 4.99041 25.4532 10.0756L26.081 10.6923C26.3443 10.9451 26.3443 11.3596 26.081 11.6123L23.9342 13.7051C23.8025 13.8365 23.5899 13.8365 23.4582 13.7051L22.5975 12.866C18.9519 9.31741 13.0582 9.31741 9.41266 12.866L8.49114 13.7657C8.35949 13.8972 8.14684 13.8972 8.01519 13.7657L5.86835 11.673C5.60506 11.4203 5.60506 11.0058 5.86835 10.753L6.55696 10.0756ZM29.8987 14.4027L31.8127 16.2629C32.0759 16.5156 32.0759 16.9301 31.8127 17.1829L23.1949 25.5841C22.9316 25.8369 22.5063 25.8369 22.2532 25.5841L16.1367 19.6193C16.0759 19.5587 15.9646 19.5587 15.9038 19.6193L9.78734 25.5841C9.52405 25.8369 9.09873 25.8369 8.84557 25.5841L0.197468 17.1829C-0.0658228 16.9301 -0.0658228 16.5156 0.197468 16.2629L2.11139 14.4027C2.37468 14.1499 2.8 14.1499 3.05317 14.4027L9.16962 20.3675C9.23038 20.4281 9.34177 20.4281 9.40253 20.3675L15.519 14.4027C15.7823 14.1499 16.2076 14.1499 16.4608 14.4027L22.5772 20.3675C22.638 20.4281 22.7494 20.4281 22.8101 20.3675L28.9266 14.4027C29.2101 14.1499 29.6354 14.1499 29.8987 14.4027Z" fill="white"/>
</g>
<defs>
<clipPath id="clip0_2577_15500">
<rect width="32" height="32" fill="white"/>
</clipPath>
</defs>
</svg>
