<svg width="24" height="24" viewBox="0 0 24 24" fill="none" xmlns="http://www.w3.org/2000/svg">
<g id="Frame 1000003323">
<path id="Vector" d="M12 0C5.36761 0 0 5.37532 0 12C0 18.6324 5.37532 24 12 24C18.6247 24 24 18.6247 24 12C24 5.37532 18.6324 0 12 0ZM20.7841 12.6555H15.2159C14.8535 14.491 13.0643 15.6864 11.2288 15.3239C9.39332 14.9614 8.19794 13.1722 8.56041 11.3368C8.92288 9.50129 10.7121 8.30591 12.5476 8.66838C13.9434 8.94602 15.0231 10.072 15.2391 11.4756H20.7841C21.108 11.4602 21.3856 11.7147 21.3933 12.0463C21.401 12.3779 21.1542 12.6478 20.8226 12.6555H20.7841Z" fill="#008C73"/>
</g>
</svg>
