<svg width="17" height="20" viewBox="0 0 17 20" fill="none" xmlns="http://www.w3.org/2000/svg">
<mask id="path-1-outside-1_1157_5700" maskUnits="userSpaceOnUse" x="-0.107239" y="-0.84375" width="17" height="21" fill="black">
<rect fill="white" x="-0.107239" y="-0.84375" width="17" height="21"/>
<path fill-rule="evenodd" clip-rule="evenodd" d="M1.62327 0.15625H13.3286C13.6199 0.16531 13.8957 0.289932 14.0954 0.502729C14.295 0.715525 14.4022 0.999084 14.3934 1.29109V8.20029C14.4023 8.49248 14.2951 8.77625 14.0955 8.98935C13.8959 9.20245 13.6201 9.3275 13.3286 9.33706H0.892889V0.926937C0.889247 0.728058 0.96382 0.535731 1.10049 0.39152C1.23716 0.247309 1.42495 0.162796 1.62327 0.15625ZM10.6864 6.51466C10.7096 6.45309 10.7205 6.38754 10.7185 6.32174L10.7242 3.17156C10.7279 3.03901 10.6789 2.91043 10.5881 2.814C10.4973 2.71757 10.3721 2.66116 10.2399 2.65713H4.57364V6.8381H10.2341C10.2997 6.83611 10.3643 6.82117 10.4242 6.79414C10.4841 6.7671 10.5381 6.7285 10.583 6.68055C10.628 6.63259 10.6631 6.57622 10.6864 6.51466ZM16.1941 18.8446V11.5277H16.1902C16.1905 11.4049 16.1663 11.2833 16.1192 11.1699C16.072 11.0564 16.0027 10.9534 15.9154 10.8668C15.828 10.7802 15.7243 10.7116 15.6103 10.6651C15.4962 10.6186 15.374 10.595 15.2507 10.5958H0.892761V19.7766H15.2546C15.3777 19.7768 15.4997 19.7529 15.6135 19.7062C15.7274 19.6595 15.8309 19.5909 15.9181 19.5044C16.0054 19.4179 16.0746 19.3151 16.122 19.2018C16.1694 19.0886 16.1939 18.9673 16.1941 18.8446Z"/>
</mask>
<path fill-rule="evenodd" clip-rule="evenodd" d="M1.62327 0.15625H13.3286C13.6199 0.16531 13.8957 0.289932 14.0954 0.502729C14.295 0.715525 14.4022 0.999084 14.3934 1.29109V8.20029C14.4023 8.49248 14.2951 8.77625 14.0955 8.98935C13.8959 9.20245 13.6201 9.3275 13.3286 9.33706H0.892889V0.926937C0.889247 0.728058 0.96382 0.535731 1.10049 0.39152C1.23716 0.247309 1.42495 0.162796 1.62327 0.15625ZM10.6864 6.51466C10.7096 6.45309 10.7205 6.38754 10.7185 6.32174L10.7242 3.17156C10.7279 3.03901 10.6789 2.91043 10.5881 2.814C10.4973 2.71757 10.3721 2.66116 10.2399 2.65713H4.57364V6.8381H10.2341C10.2997 6.83611 10.3643 6.82117 10.4242 6.79414C10.4841 6.7671 10.5381 6.7285 10.583 6.68055C10.628 6.63259 10.6631 6.57622 10.6864 6.51466ZM16.1941 18.8446V11.5277H16.1902C16.1905 11.4049 16.1663 11.2833 16.1192 11.1699C16.072 11.0564 16.0027 10.9534 15.9154 10.8668C15.828 10.7802 15.7243 10.7116 15.6103 10.6651C15.4962 10.6186 15.374 10.595 15.2507 10.5958H0.892761V19.7766H15.2546C15.3777 19.7768 15.4997 19.7529 15.6135 19.7062C15.7274 19.6595 15.8309 19.5909 15.9181 19.5044C16.0054 19.4179 16.0746 19.3151 16.122 19.2018C16.1694 19.0886 16.1939 18.9673 16.1941 18.8446Z" fill="url(#paint0_radial_1157_5700)"/>
<path d="M13.3286 0.15625L13.33 0.112348H13.3286V0.15625ZM1.62327 0.15625V0.112324L1.62182 0.112372L1.62327 0.15625ZM14.0954 0.502729L14.1274 0.472689L14.0954 0.502729ZM14.3934 1.29109L14.3495 1.28976V1.29109H14.3934ZM14.3934 8.20029H14.3495L14.3496 8.20162L14.3934 8.20029ZM14.0955 8.98935L14.0634 8.95934L14.0955 8.98935ZM13.3286 9.33706V9.38098L13.3301 9.38093L13.3286 9.33706ZM0.892889 9.33706H0.848987V9.38096H0.892889V9.33706ZM0.892889 0.926937H0.936798L0.936783 0.926133L0.892889 0.926937ZM1.10049 0.39152L1.06862 0.361321L1.10049 0.39152ZM10.7185 6.32174L10.6745 6.32166L10.6746 6.32311L10.7185 6.32174ZM10.6864 6.51466L10.6453 6.49915V6.49915L10.6864 6.51466ZM10.7242 3.17156L10.6803 3.17036L10.6803 3.17148L10.7242 3.17156ZM10.5881 2.814L10.6201 2.78391V2.78391L10.5881 2.814ZM10.2399 2.65713L10.2412 2.61323H10.2399V2.65713ZM4.57364 2.65713V2.61323H4.52973V2.65713H4.57364ZM4.57364 6.8381H4.52973V6.88201H4.57364V6.8381ZM10.2341 6.8381V6.88203L10.2354 6.88199L10.2341 6.8381ZM10.4242 6.79414L10.4423 6.83415H10.4423L10.4242 6.79414ZM10.583 6.68055L10.6151 6.71058L10.583 6.68055ZM16.1941 11.5277H16.238V11.4838H16.1941V11.5277ZM16.1941 18.8446L16.238 18.8447V18.8446H16.1941ZM16.1902 11.5277L16.1463 11.5276L16.1462 11.5716H16.1902V11.5277ZM15.9154 10.8668L15.9463 10.8356L15.9154 10.8668ZM15.2507 10.5958V10.6397L15.251 10.6397L15.2507 10.5958ZM0.892761 10.5958V10.5519H0.84886V10.5958H0.892761ZM0.892761 19.7766H0.84886V19.8205H0.892761V19.7766ZM15.2546 19.7766L15.2547 19.7327H15.2546V19.7766ZM15.6135 19.7062L15.6302 19.7468L15.6135 19.7062ZM16.122 19.2018L16.0815 19.1849H16.0815L16.122 19.2018ZM13.3286 0.112348H1.62327V0.200152H13.3286V0.112348ZM14.1274 0.472689C13.9197 0.251406 13.6329 0.121792 13.33 0.11237L13.3273 0.20013C13.6069 0.208827 13.8716 0.328459 14.0633 0.532769L14.1274 0.472689ZM14.4373 1.29241C14.4465 0.988809 14.335 0.693969 14.1274 0.472689L14.0633 0.532769C14.2551 0.737082 14.358 1.00936 14.3496 1.28976L14.4373 1.29241ZM14.4373 8.20029V1.29109H14.3495V8.20029H14.4373ZM14.1275 9.01936C14.3351 8.79778 14.4465 8.50274 14.4373 8.19897L14.3496 8.20162C14.358 8.48222 14.2551 8.75472 14.0634 8.95934L14.1275 9.01936ZM13.3301 9.38093C13.6332 9.37099 13.92 9.24095 14.1275 9.01936L14.0634 8.95934C13.8718 9.16396 13.607 9.284 13.3272 9.29318L13.3301 9.38093ZM0.892889 9.38096H13.3286V9.29316H0.892889V9.38096ZM0.848987 0.926937V9.33706H0.93679V0.926937H0.848987ZM1.06862 0.361321C0.924024 0.5139 0.845142 0.717365 0.848994 0.92774L0.936783 0.926133C0.933352 0.738751 1.00361 0.557562 1.13235 0.421719L1.06862 0.361321ZM1.62182 0.112372C1.41194 0.1193 1.21323 0.208739 1.06862 0.361321L1.13235 0.421719C1.26109 0.285879 1.43796 0.206292 1.62472 0.200128L1.62182 0.112372ZM10.6746 6.32311C10.6765 6.38315 10.6665 6.44297 10.6453 6.49915L10.7274 6.53016C10.7527 6.46321 10.7646 6.39192 10.7623 6.32038L10.6746 6.32311ZM10.6803 3.17148L10.6746 6.32166L10.7624 6.32182L10.7681 3.17164L10.6803 3.17148ZM10.5561 2.8441C10.639 2.93207 10.6837 3.0494 10.6803 3.17036L10.7681 3.17276C10.7721 3.02863 10.7188 2.8888 10.6201 2.78391L10.5561 2.8441ZM10.2385 2.70101C10.3591 2.70469 10.4733 2.75613 10.5561 2.8441L10.6201 2.78391C10.5213 2.67902 10.3851 2.61763 10.2412 2.61325L10.2385 2.70101ZM4.57364 2.70103H10.2399V2.61323H4.57364V2.70103ZM4.61754 6.8381V2.65713H4.52973V6.8381H4.61754ZM10.2341 6.7942H4.57364V6.88201H10.2341V6.7942ZM10.4061 6.75412C10.3515 6.77878 10.2926 6.7924 10.2328 6.79422L10.2354 6.88199C10.3069 6.87982 10.3771 6.86356 10.4423 6.83415L10.4061 6.75412ZM10.551 6.65051C10.51 6.69426 10.4608 6.72947 10.4061 6.75412L10.4423 6.83415C10.5074 6.80473 10.5661 6.76274 10.6151 6.71058L10.551 6.65051ZM10.6453 6.49915C10.6241 6.55533 10.5921 6.60676 10.551 6.65051L10.6151 6.71058C10.664 6.65842 10.7022 6.59711 10.7274 6.53016L10.6453 6.49915ZM16.1502 11.5277V18.8446H16.238V11.5277H16.1502ZM16.1902 11.5716H16.1941V11.4838H16.1902V11.5716ZM16.0786 11.1867C16.1236 11.2948 16.1466 11.4107 16.1463 11.5276L16.2341 11.5278C16.2344 11.3992 16.2091 11.2718 16.1597 11.153L16.0786 11.1867ZM15.8845 10.898C15.9677 10.9805 16.0337 11.0787 16.0786 11.1867L16.1597 11.153C16.1103 11.0342 16.0378 10.9264 15.9463 10.8356L15.8845 10.898ZM15.5937 10.7057C15.7024 10.7501 15.8012 10.8154 15.8845 10.898L15.9463 10.8356C15.8548 10.7449 15.7463 10.6731 15.6268 10.6244L15.5937 10.7057ZM15.251 10.6397C15.3685 10.6389 15.485 10.6614 15.5937 10.7057L15.6268 10.6244C15.5074 10.5757 15.3795 10.5511 15.2504 10.5519L15.251 10.6397ZM0.892761 10.6397H15.2507V10.5519H0.892761V10.6397ZM0.936663 19.7766V10.5958H0.84886V19.7766H0.936663ZM15.2546 19.7327H0.892761V19.8205H15.2546V19.7327ZM15.5969 19.6656C15.4883 19.7101 15.372 19.7329 15.2547 19.7327L15.2545 19.8205C15.3833 19.8207 15.511 19.7957 15.6302 19.7468L15.5969 19.6656ZM15.8872 19.4732C15.8041 19.5557 15.7054 19.6211 15.5969 19.6656L15.6302 19.7468C15.7494 19.698 15.8577 19.6262 15.949 19.5356L15.8872 19.4732ZM16.0815 19.1849C16.0364 19.2928 15.9704 19.3908 15.8872 19.4732L15.949 19.5356C16.0404 19.445 16.1129 19.3373 16.1625 19.2188L16.0815 19.1849ZM16.1502 18.8445C16.15 18.9614 16.1266 19.077 16.0815 19.1849L16.1625 19.2188C16.2121 19.1003 16.2377 18.9731 16.238 18.8447L16.1502 18.8445Z" fill="#E51E2A" mask="url(#path-1-outside-1_1157_5700)"/>
<defs>
<radialGradient id="paint0_radial_1157_5700" cx="0" cy="0" r="1" gradientUnits="userSpaceOnUse" gradientTransform="translate(8.49998 -2.90567) rotate(90) scale(26.028 20.2984)">
<stop stop-color="#EA13F2" stop-opacity="0.75"/>
<stop offset="0.536" stop-color="#E6213A"/>
<stop offset="1" stop-color="#EA13F2" stop-opacity="0.75"/>
</radialGradient>
</defs>
</svg>
