<svg width="115" height="48" viewBox="0 0 115 48" fill="none" xmlns="http://www.w3.org/2000/svg">
<g clip-path="url(#clip0_2405_15516)">
<mask id="mask0_2405_15516" style="mask-type:luminance" maskUnits="userSpaceOnUse" x="0" y="0" width="115" height="48">
<path d="M114.182 0H0V48H114.182V0Z" fill="white"/>
</mask>
<g mask="url(#mask0_2405_15516)">
<path d="M18.7062 40.8065L13.8473 33.7836L12.3897 35.4788V40.8065H8.0168V16.2266H12.3897V30.03H12.6327L17.9775 23.7338H23.0792L16.7627 30.9988L23.4436 40.8065H18.7062Z" fill="#09D9B9"/>
<path d="M30.9753 41.0472C29.2748 41.0472 27.8172 40.684 26.6024 39.9576C25.3877 39.2311 24.4161 38.2623 23.6872 36.9305C22.9584 35.5986 22.7154 34.1456 22.7154 32.3292C22.7154 30.6342 23.0799 29.06 23.6872 27.7281C24.2945 26.3962 25.2662 25.3065 26.4809 24.58C27.6957 23.8534 29.1534 23.3691 30.854 23.3691C32.3115 23.3691 33.6477 23.7323 34.7409 24.3378C35.9557 24.9432 36.806 25.9119 37.5347 27.1227C38.2636 28.3336 38.5065 29.9076 38.5065 31.7239V33.54H26.9668C27.0883 34.7509 27.5742 35.8406 28.1816 36.5672C28.9104 37.2936 29.7607 37.657 31.0968 37.657C32.0686 37.657 32.9188 37.4147 33.4048 36.9305C33.8907 36.4462 34.2551 35.9617 34.498 35.2353L38.385 36.3251C38.142 37.0515 37.7777 37.8992 37.1703 38.6256C36.5631 39.3522 35.8343 39.9576 34.7409 40.4419C33.6477 40.8051 32.4329 41.0472 30.9753 41.0472ZM30.7325 27.0017C29.7607 27.0017 28.9104 27.3648 28.3031 27.9703C27.6956 28.5756 27.2098 29.4233 26.9668 30.6342H34.3766C34.3766 29.6655 34.0121 28.8179 33.4048 28.0914C32.6759 27.3648 31.8256 27.0017 30.7325 27.0017Z" fill="#09D9B9"/>
<path d="M44.4577 41.5318L44.8221 40.6841L38.6271 23.7324H43.1215L46.8871 34.9932H47.1301L50.8956 23.7324H55.39L48.1017 43.3479C47.8588 43.9534 47.4944 44.6798 47.0087 45.2854C46.5228 45.8907 45.9153 46.4962 45.1865 46.8593C44.4577 47.2226 43.4859 47.4649 42.3927 47.4649C41.9068 47.4649 41.5423 47.4649 41.0566 47.3438C40.5707 47.2226 40.3278 47.1015 39.9633 46.9804L40.9351 43.5902C42.0282 43.8323 42.7571 43.8323 43.243 43.469C43.6074 43.2268 44.0933 42.5004 44.4577 41.5318Z" fill="#09D9B9"/>
<path d="M70.574 29.1812L66.5655 29.7866C66.3225 28.939 65.9581 28.3337 65.4722 27.8493C64.9863 27.3649 64.2575 27.1228 63.2857 27.1228C61.9495 27.1228 61.0993 27.6071 60.3705 28.5758C59.7631 29.5445 59.3988 30.7553 59.3988 32.3294C59.3988 33.9035 59.7631 35.2354 60.3705 36.2041C60.9779 37.1726 61.9495 37.6571 63.2857 37.6571C64.1361 37.6571 64.8649 37.4149 65.3508 36.9306C65.8367 36.4462 66.3225 35.8407 66.444 35.1143L70.4525 35.7198C70.0881 37.2938 69.2377 38.6257 68.0231 39.7154C66.687 40.6841 65.1079 41.2896 63.1643 41.2896C61.4638 41.2896 60.1276 40.9262 58.9129 40.1998C57.6981 39.4732 56.8478 38.3835 56.119 37.0516C55.5117 35.7198 55.1473 34.1457 55.1473 32.4505C55.1473 30.7553 55.5117 29.1812 56.119 27.8493C56.7263 26.5174 57.6981 25.5487 58.9129 24.8222C60.1276 24.0957 61.4638 23.7324 63.1643 23.7324C65.1079 23.7324 66.687 24.2168 68.0231 25.3065C69.4807 26.0331 70.3311 27.486 70.574 29.1812Z" fill="#09D9B9"/>
<path d="M81.8713 40.8051V38.8679H81.6284C81.3855 39.3523 80.8989 39.9577 80.1702 40.442C79.4415 40.9262 78.4698 41.1685 77.2553 41.1685C76.2829 41.1685 75.3113 40.9262 74.4611 40.5631C73.6109 40.1998 73.0036 39.5943 72.3962 38.8679C71.9103 38.1414 71.6674 37.1726 71.6674 36.083C71.6674 34.3878 72.2748 33.177 73.4895 32.3294C74.704 31.4818 76.4044 30.9974 78.5913 30.7553C79.0771 30.7553 79.5629 30.6342 80.0487 30.6342C80.5345 30.6342 80.8989 30.5131 81.2633 30.3921C81.5069 30.271 81.7498 30.0288 81.7498 29.7866V29.5445C81.7498 28.8179 81.5069 28.2126 81.0204 27.7282C80.5345 27.3649 79.9273 27.1228 79.1985 27.1228C78.3484 27.1228 77.7411 27.3649 77.1338 27.7282C76.5258 28.0915 76.2829 28.5758 76.0407 29.1812L72.0318 28.5758C72.3962 27.0017 73.2465 25.7909 74.5825 24.9433C75.9193 24.0957 77.4982 23.7324 79.32 23.7324C80.4131 23.7324 81.5069 23.9746 82.6 24.3379C83.5716 24.7011 84.4218 25.3065 85.1505 26.1541C85.7578 27.0017 86.1222 28.2126 86.1222 29.5445V41.0473H81.8713V40.8051ZM81.6284 35.1143V32.8137C81.5069 32.9348 81.2633 33.0559 81.0204 33.177C80.656 33.2981 80.2916 33.2981 79.9273 33.419C79.5629 33.5401 79.1985 33.5402 78.9556 33.5402C77.984 33.6613 77.1338 33.9035 76.648 34.2667C76.1622 34.6299 75.9193 35.2354 75.9193 35.9618C75.9193 36.5673 76.1622 37.0515 76.5258 37.4149C77.0124 37.7782 77.4982 37.8993 78.2269 37.8993C79.1985 37.8993 79.9273 37.6571 80.656 37.0515C81.3855 36.4462 81.6284 35.8407 81.6284 35.1143Z" fill="#09D9B9"/>
<path d="M99.2407 24.0957L97.9047 27.8493C97.7833 27.7282 97.5404 27.7282 97.2974 27.6071C97.0538 27.486 96.6895 27.486 96.3251 27.486C95.5964 27.486 94.9891 27.6071 94.5033 27.9702C94.0175 28.3335 93.5316 28.8179 93.2887 29.3022C93.0458 29.9077 92.8029 30.513 92.8029 31.1185V40.8051H88.4298V23.7324H92.6814V26.1541H92.9244C93.1673 25.3065 93.6531 24.5799 94.3818 24.2168C95.1105 23.7324 95.9607 23.4902 96.8109 23.4902C97.2967 23.4902 97.6618 23.4902 98.1476 23.6113C98.6335 23.7324 98.9978 23.8535 99.2407 24.0957Z" fill="#09D9B9"/>
<path d="M114.183 40.8047H109.931V38.7463H109.688C109.445 39.3516 108.959 39.8361 108.231 40.3203C107.502 40.8047 106.651 41.0469 105.436 41.0469C104.1 41.0469 103.007 40.6836 102.035 40.0783C101.063 39.3516 100.213 38.3831 99.6058 37.0511C98.9985 35.7191 98.7556 34.145 98.7556 32.2078C98.7556 30.2705 99.12 28.6964 99.7273 27.3644C100.335 26.0325 101.185 25.0639 102.156 24.4584C103.25 23.853 104.343 23.4897 105.558 23.4897C106.651 23.4897 107.623 23.7319 108.352 24.2163C109.081 24.7006 109.567 25.1849 109.809 25.7903H109.931V18.041H114.183V40.8047ZM102.764 32.2078C102.764 33.7819 103.129 35.1138 103.736 36.0825C104.343 37.0511 105.315 37.5355 106.651 37.5355C107.502 37.5355 108.231 37.2933 108.838 36.8089C109.324 36.3247 109.809 35.7192 110.052 34.8716C110.295 34.0241 110.417 33.1764 110.417 32.2078C110.417 30.7548 110.174 29.4228 109.567 28.4542C108.959 27.4855 108.108 27.0012 106.772 27.0012C105.436 27.0012 104.586 27.4855 103.857 28.4542C103.129 29.4228 102.764 30.6336 102.764 32.2078Z" fill="#09D9B9"/>
<path d="M10.082 20.2209C4.4944 20.2209 0 15.6198 0 10.0499C0 4.48009 4.4944 0 10.082 0C15.6696 0 20.1641 4.48009 20.1641 10.0499C20.2856 15.6198 15.6696 20.2209 10.082 20.2209ZM10.082 3.99575C6.68086 3.99575 4.00851 6.78067 4.00851 10.0499C4.00851 13.4403 6.80233 16.1041 10.082 16.1041C13.4832 16.1041 16.1555 13.3192 16.1555 10.0499C16.2769 6.78067 13.4832 3.99575 10.082 3.99575Z" fill="#09D9B9"/>
</g>
</g>
<defs>
<clipPath id="clip0_2405_15516">
<rect width="114.182" height="48" fill="white"/>
</clipPath>
</defs>
</svg>
