<svg width="277" height="48" viewBox="0 0 277 48" fill="none" xmlns="http://www.w3.org/2000/svg">
<g clip-path="url(#clip0_2405_15496)">
<path d="M276.545 38.3265C273.781 38.4543 271.017 38.4543 268.107 38.4543C268.107 34.2549 268.107 30.1137 268.107 25.9725C267.973 25.931 267.839 25.8895 267.704 25.8481C266.264 28.9396 264.823 32.0312 263.369 35.1502C261.922 35.1502 260.473 35.1502 259.009 35.1502C257.528 31.9692 256.046 28.7852 254.563 25.6011C254.464 25.6215 254.364 25.6419 254.264 25.6624C254.264 29.8784 254.264 34.0944 254.264 38.3814C251.361 38.3814 248.616 38.3814 245.799 38.3814C245.799 28.9078 245.799 19.4406 245.799 9.89556C248.816 9.89556 251.839 9.89556 254.926 9.89556C256.959 14.3209 259.014 18.7951 261.196 23.5465C262.512 20.7032 263.665 18.213 264.816 15.7222C265.626 13.9696 266.391 12.194 267.279 10.4816C267.457 10.1377 268.093 9.85664 268.525 9.8469C271.112 9.78854 273.701 9.81796 276.418 9.81796C276.545 19.2782 276.545 28.7384 276.545 38.3265Z" fill="#5F5F61"/>
<path d="M0.27272 20.8543C0.728045 19.4483 1.1233 18.1447 1.6516 16.8974C2.65296 14.5332 4.13491 12.5 6.01541 10.7371C7.39382 9.44482 8.68502 8.05954 10.2247 6.50391C10.7686 10.7563 13.9718 12.8102 16.6465 15.7427C15.6017 16.6719 14.5092 17.5464 13.5291 18.5326C10.0879 21.9952 10.0506 26.4302 13.4669 29.9485C16.5061 33.0785 19.6232 36.133 22.7159 39.2108C24.3173 40.8044 24.3115 42.7388 23.7156 44.6679C23.1259 46.5772 21.7577 47.7828 19.6697 48.1724C18.7196 48.2719 17.8029 48.2719 16.7605 48.1705C15.3326 46.8794 13.9969 45.724 12.7355 44.4925C10.4989 42.3091 8.34363 40.0417 6.0865 37.8803C4.03724 35.9179 2.46424 33.6722 1.43222 31.0263C1.14218 30.2827 0.66439 29.6123 0.272721 28.9083C0.272721 28.9083 0.272721 28.7719 0.36464 28.6798C0.39528 28.3308 0.334 28.0741 0.272721 27.8174C0.272721 25.539 0.272721 23.2605 0.27272 20.8543Z" fill="#5F5F61"/>
<path d="M19.7864 0.273438C21.1747 1.22084 22.5487 2.05455 23.6846 3.13799C26.5439 5.86544 29.3109 8.69069 32.0869 11.5044C35.3756 14.8378 36.9409 18.875 37.1099 23.5481C37.319 29.33 35.3127 34.1202 31.1029 38.0573C29.819 39.258 28.6684 40.6011 27.1469 42.2057C26.6975 37.7264 23.3441 35.7753 20.7361 32.7895C21.7779 31.8612 22.8612 30.9774 23.8509 29.999C27.2648 26.624 27.2724 21.9583 23.905 18.5876C20.9509 15.6306 18.0443 12.6239 15.025 9.73482C11.9073 6.75154 13.2852 1.40172 17.4173 0.365764C18.1909 0.273438 18.9273 0.273438 19.7864 0.273438Z" fill="#2384C6"/>
<path d="M0.27272 27.9199C0.334 28.0744 0.395279 28.3311 0.36464 28.6118C0.27272 28.4313 0.27272 28.2267 0.27272 27.9199Z" fill="white"/>
<path d="M79.3636 28.1187C79.3636 27.3182 79.3636 26.6492 79.3636 25.6804C78.9575 26.0551 78.6734 26.2017 78.57 26.4301C77.3584 29.1086 76.1968 31.8099 74.9534 34.4732C74.799 34.8039 74.2611 35.1227 73.88 35.1495C72.6612 35.2355 71.4325 35.1815 70.2337 35.1815C68.7877 32.1094 67.3677 29.0923 65.9476 26.0751C65.8116 26.1248 65.6757 26.1744 65.5397 26.224C65.5397 30.2341 65.5397 34.2442 65.5397 38.354C62.6887 38.354 59.942 38.354 57.0974 38.354C57.0974 28.9546 57.0974 19.4828 57.0974 9.82059C59.9575 9.82059 62.8888 9.80487 65.8192 9.84997C66.0574 9.85364 66.3836 10.23 66.5099 10.506C68.2625 14.3359 69.9823 18.1808 71.7278 22.0139C71.8764 22.3402 72.1512 22.609 72.3674 22.9044C72.6083 22.6361 72.934 22.4066 73.0771 22.0936C74.8285 18.263 76.5348 14.4116 78.3147 10.5944C78.4821 10.2354 79.0641 9.86131 79.4621 9.85184C82.1844 9.78706 84.9091 9.81787 87.7255 9.81787C87.7255 19.3269 87.7255 28.7986 87.7255 38.3623C85.035 38.3623 82.2888 38.3623 79.3636 38.3623C79.3636 35.0246 79.3636 31.6374 79.3636 28.1187Z" fill="#5F5F61"/>
<path d="M147.273 16.9099C147.273 24.1273 147.273 31.2084 147.273 38.4535C145.103 38.4535 142.965 38.6282 140.882 38.3653C140.078 38.2638 139.325 37.2355 138.677 36.5142C136.976 34.621 135.355 32.6564 133.684 30.7354C132.254 29.0902 130.799 27.466 129.09 25.5331C129.09 30.049 129.09 34.1766 129.09 38.379C126.276 38.379 123.622 38.379 120.893 38.379C120.893 28.9118 120.893 19.4426 120.893 9.81968C122.865 9.81968 124.848 9.78478 126.827 9.85143C127.188 9.86361 127.625 10.2187 127.877 10.5351C130.5 13.8315 133.097 17.1494 135.693 20.468C136.588 21.6122 137.459 22.7749 138.491 24.1257C139.098 22.4365 138.74 20.8797 138.804 19.3689C138.869 17.8272 138.818 16.2805 138.818 14.7361C138.818 13.1516 138.818 11.5672 138.818 9.90105C141.621 9.90105 144.366 9.90105 147.273 9.90105C147.273 12.1769 147.273 14.4752 147.273 16.9099Z" fill="#5F5F61"/>
<path d="M196.715 32.9229C197.558 34.7622 198.334 36.518 199.191 38.4544C196.425 38.4544 193.813 38.4801 191.203 38.4177C190.917 38.4109 190.54 37.9467 190.381 37.6113C189.323 35.3892 188.313 33.1443 187.27 30.8675C186.175 30.8675 185.058 30.8675 183.83 30.8675C183.83 33.3871 183.83 35.8611 183.83 38.3935C180.973 38.3935 178.229 38.3935 175.424 38.3935C175.424 28.8857 175.424 19.4191 175.424 9.81838C179.75 9.81838 184.049 9.81843 188.347 9.81836C190.653 9.81832 192.778 10.3508 194.701 11.7135C200.009 15.4751 200.687 23.1997 196.252 27.3941C194.679 28.8825 195.374 29.9513 195.911 31.2928C196.123 31.8219 196.401 32.3246 196.715 32.9229ZM190.574 21.4753C190.594 20.8892 190.657 20.301 190.627 19.7175C190.572 18.6364 189.303 17.2493 188.238 17.1998C186.804 17.1331 185.365 17.1832 183.818 17.1832C183.818 18.3191 183.818 19.3488 183.818 20.3784C183.818 21.3967 183.818 22.415 183.818 23.4547C185.237 23.4547 186.459 23.4685 187.68 23.451C188.971 23.4325 190.015 23.0137 190.574 21.4753Z" fill="#5F5F61"/>
<path d="M99.6166 37.9048C98.0747 37.0511 96.5504 36.328 95.2356 35.329C91.7869 32.7087 90.1689 29.1346 89.9827 24.818C89.7953 20.4723 91.2385 16.8068 94.3401 13.8173C96.593 11.6459 99.3026 10.4592 102.453 10.0517C106.206 9.56633 109.579 10.4493 112.57 12.5723C115.799 14.8639 117.777 18.0177 118.388 22.0351C119.183 27.2708 117.511 31.5717 113.681 35.0571C111.375 37.1566 108.636 38.496 105.433 38.4281C103.529 38.3878 101.631 38.091 99.6166 37.9048ZM100.091 20.0449C98.8506 21.5369 98.0854 23.1224 98.4269 25.1893C98.9648 28.4444 101.804 30.3661 104.327 30.2148C107.545 30.0218 110.011 27.7111 110.168 24.4574C110.294 21.8545 108.878 20.0326 106.725 18.8899C104.405 17.6584 102.2 18.2806 100.091 20.0449Z" fill="#5F5F61"/>
<path d="M151.091 34.6338C151.091 26.3277 151.091 18.1574 151.091 9.90234C157.886 9.90234 164.628 9.90234 171.458 9.90234C171.458 12.6091 171.458 15.3542 171.458 18.2128C167.57 18.2128 163.643 18.2128 159.631 18.2128C159.631 19.1581 159.631 19.9948 159.631 20.9453C163.523 20.9453 167.452 20.9453 171.462 20.9453C171.462 23.1626 171.462 25.2715 171.462 27.4941C167.561 27.4941 163.634 27.4941 159.627 27.4941C159.627 28.4391 159.627 29.2765 159.627 30.2266C163.533 30.2266 167.461 30.2266 171.466 30.2266C171.466 32.9898 171.466 35.6437 171.466 38.376C164.736 38.376 157.993 38.376 151.091 38.376C151.091 37.1869 151.091 35.9783 151.091 34.6338Z" fill="#5F5F61"/>
<path d="M233.727 15.8179C233.727 13.7794 233.727 11.8772 233.727 9.89682C236.446 9.89682 239.101 9.89682 241.909 9.89682C241.909 11.0023 241.909 12.1218 241.909 13.2414C241.909 17.3763 241.867 21.5116 241.919 25.6458C241.994 31.5651 237.584 36.9365 231.85 38.1615C227.097 39.1768 222.7 38.2874 219.133 34.8476C216.754 32.5539 215.263 29.658 215.206 26.2795C215.115 20.8381 215.182 15.3941 215.182 9.88477C217.926 9.88477 220.58 9.88477 223.364 9.88477C223.364 14.35 223.346 18.7883 223.376 23.2263C223.384 24.2937 223.469 25.3744 223.659 26.4236C223.986 28.228 226.462 30.1271 228.538 30.2718C230.209 30.3883 232.637 28.7932 233.159 27.0996C233.467 26.1017 233.673 25.0369 233.702 23.996C233.777 21.3173 233.727 18.6351 233.727 15.8179Z" fill="#5F5F61"/>
<path d="M211.364 16.0905C211.364 23.5809 211.364 30.935 211.364 38.3715C208.562 38.3715 205.816 38.3715 202.99 38.3715C202.99 28.9225 202.99 19.4529 202.99 9.90039C205.711 9.90039 208.456 9.90039 211.364 9.90039C211.364 11.9021 211.364 13.9281 211.364 16.0905Z" fill="#5F5F61"/>
</g>
<defs>
<clipPath id="clip0_2405_15496">
<rect width="276.273" height="48" fill="white"/>
</clipPath>
</defs>
</svg>
