<svg width="162" height="48" viewBox="0 0 162 48" fill="none" xmlns="http://www.w3.org/2000/svg">
<g id="safe">
<path id="Vector" d="M80.0845 22.5241C78.4165 21.8343 76.3791 21.2593 73.9727 20.7981H73.9216C71.5836 20.3736 69.8296 19.9839 68.6606 19.6291C67.4916 19.2763 66.5722 18.7981 65.9013 18.1958C65.2304 17.5944 64.8959 16.7624 64.8959 15.6999C64.8959 14.1423 65.4635 12.9564 66.5977 12.1424C67.733 11.3284 69.2282 10.9207 71.0844 10.9207C73.1135 10.9207 74.754 11.4516 76.01 12.5141C77.1371 13.4683 77.8274 14.6804 78.081 16.1485C78.1311 16.4412 78.3715 16.6572 78.6599 16.6604L84.3668 16.7045C84.7166 16.7077 84.9967 16.3981 84.962 16.0389C84.7708 14.0749 84.1417 12.2889 83.0761 10.6817C81.8898 8.89463 80.2564 7.50445 78.1761 6.51236C76.0958 5.52144 73.7323 5.02539 71.0844 5.02539C68.5747 5.02539 66.3144 5.50358 64.3028 6.45968C62.2919 7.41592 60.7273 8.74297 59.6093 10.4427C58.4916 12.1424 57.9331 14.0539 57.9331 16.178C57.9331 18.5148 58.4311 20.3916 59.4283 21.8069C60.4255 23.2233 61.7316 24.2944 63.3474 25.02C64.9633 25.7456 66.9056 26.3206 69.175 26.7461L69.4327 26.7988C71.8383 27.259 73.6363 27.6665 74.8226 28.0203C76.009 28.3753 76.9447 28.8702 77.6331 29.5073C78.3204 30.1446 78.664 31.0123 78.664 32.1096C78.664 33.6683 78.0452 34.8888 76.8077 35.7735C75.5702 36.6592 73.9707 37.1015 72.011 37.1015C69.672 37.1015 67.7821 36.4907 66.338 35.269C65.0238 34.1579 64.2506 32.731 64.0184 30.9891C63.9785 30.6879 63.7351 30.4594 63.4405 30.4551L57.7407 30.3668C57.3941 30.3614 57.1139 30.6627 57.1405 31.0187C57.302 33.1606 57.9526 35.0911 59.0919 36.8097C60.3468 38.7043 62.0742 40.1913 64.2751 41.2707C66.475 42.3512 69.0021 42.8905 71.8566 42.8905C74.5034 42.8905 76.8763 42.3955 78.9738 41.4035C81.0705 40.4125 82.7131 39.0403 83.8994 37.2879C85.0858 35.5355 85.679 33.5619 85.679 31.3661C85.679 29.0293 85.1625 27.1442 84.1316 25.7098C83.1007 24.2765 81.7516 23.2149 80.0845 22.5241Z" fill="white"/>
<path id="Vector_2" d="M115.131 36.8369H114.24C113.724 36.8369 113.319 36.6959 113.028 36.4114C112.735 36.1293 112.589 35.6679 112.589 35.0308V24.8872C112.589 21.6656 111.592 19.214 109.599 17.5321C107.604 15.8514 105.256 14.9941 101.577 14.9941C98.104 14.9941 95.3908 15.7713 93.2594 17.2931C91.3161 18.6811 90.1451 20.582 89.7442 22.9989C89.6818 23.3748 89.958 23.7192 90.3272 23.7192H95.5687C95.8315 23.7192 96.0667 23.5413 96.1363 23.28C96.3756 22.386 96.9034 21.6562 97.7194 21.0906C98.6645 20.4355 99.7875 20.1081 101.266 20.1081C104.055 20.1081 106.038 21.8784 106.038 24.5153V25.34C106.038 25.6769 105.774 25.9498 105.446 25.9498H100.699C96.8482 25.9498 93.9252 26.7291 91.9318 28.2866C89.9375 29.8453 88.9403 32.0579 88.9403 34.9245C88.9403 37.4035 89.8515 39.3508 91.6741 40.7661C93.0414 41.8277 94.6758 42.4406 96.3582 42.7092C97.6438 42.9146 98.9642 42.9893 100.253 42.7766C101.603 42.5544 102.699 41.9814 103.797 41.1642C104.783 40.4313 105.605 39.4919 106.355 38.3461C106.722 37.6984 107.682 37.9585 107.682 38.7073V39.6077C107.681 41.2443 108.969 42.5712 110.558 42.5712H115.131C115.458 42.5712 115.723 42.2985 115.723 41.9615V37.4456C115.723 37.1086 115.458 36.8369 115.131 36.8369ZM106.039 31.3671C106.039 32.6772 105.773 33.8187 105.24 34.7918C104.123 36.8327 102.124 37.8985 99.8754 37.8985C98.5683 37.8985 97.5201 37.5804 96.7295 36.9433C95.9379 36.3062 95.5431 35.4563 95.5431 34.3937C95.5431 33.1911 95.9819 32.2611 96.8584 31.6061C97.7348 30.952 98.9805 30.6235 100.597 30.6235H105.447C105.775 30.6235 106.039 30.8963 106.039 31.2333V31.3671Z" fill="white"/>
<path id="Vector_3" d="M134.239 5.41406H127.418C123.82 5.41406 120.903 8.41747 120.903 12.1224V15.0701C120.903 15.4071 120.638 15.6799 120.311 15.6799H116.416C116.089 15.6799 115.824 15.9526 115.824 16.2896V20.8581C115.824 21.195 116.089 21.4679 116.416 21.4679H120.311C120.638 21.4679 120.903 21.7406 120.903 22.0776V41.9627C120.903 42.2997 121.168 42.5724 121.495 42.5724H126.809C127.137 42.5724 127.402 42.2997 127.402 41.9627V22.0776C127.402 21.7406 127.666 21.4679 127.994 21.4679H134.186C134.514 21.4679 134.779 21.195 134.779 20.8581V16.2896C134.779 15.9526 134.514 15.6799 134.186 15.6799H127.994C127.666 15.6799 127.402 15.4071 127.402 15.0701V12.4215C127.402 11.7476 127.932 11.202 128.586 11.202H134.238C134.565 11.202 134.83 10.9292 134.83 10.5922V6.02374C134.83 5.68676 134.566 5.41406 134.239 5.41406Z" fill="white"/>
<path id="Vector_4" d="M160.273 21.1735C159.122 19.1915 157.547 17.6687 155.554 16.6062C153.561 15.5446 151.255 14.998 148.644 14.998C146.032 14.998 143.778 15.5889 141.784 16.7388C139.79 17.8898 138.242 19.518 137.143 21.6243C136.043 23.7317 135.492 26.2001 135.492 29.033C135.492 31.8659 136.06 34.2291 137.193 36.3354C138.33 38.4416 139.954 40.0614 142.068 41.1945C144.181 42.3277 146.666 42.8942 149.52 42.8942C151.72 42.8942 153.689 42.4783 155.426 41.6463C157.161 40.8154 158.563 39.6727 159.628 38.2216C160.54 36.9789 161.163 35.6181 161.496 34.1406C161.583 33.7573 161.303 33.3887 160.919 33.3887H155.582C155.326 33.3887 155.101 33.5594 155.019 33.809C154.643 34.9538 153.979 35.8583 153.028 36.5218C151.961 37.2653 150.638 37.637 149.056 37.637C147.749 37.637 146.606 37.3537 145.627 36.7871C144.646 36.2216 143.873 35.4244 143.305 34.3976C143.082 33.9921 142.899 33.5636 142.753 33.1222C142.596 32.6484 142.483 32.1598 142.406 31.6647C142.38 31.492 142.355 31.3173 142.335 31.1424C142.294 30.7822 142.572 30.4674 142.923 30.4674H161.333C161.632 30.4674 161.888 30.2399 161.922 29.9334C161.948 29.7091 161.965 29.4806 161.974 29.2458C161.991 28.8214 162 28.4317 162 28.0778C162 25.4587 161.423 23.1565 160.273 21.1735ZM154.742 25.8463H143.211C142.833 25.8463 142.547 25.4851 142.631 25.1048C142.816 24.2718 143.134 23.5199 143.589 22.8459C144.173 21.9792 144.93 21.3147 145.858 20.8545C146.786 20.3942 147.8 20.1636 148.9 20.1636C150.689 20.1636 152.167 20.6596 153.336 21.6507C154.339 22.5016 155 23.6515 155.32 25.1017C155.404 25.4829 155.121 25.8463 154.742 25.8463Z" fill="white"/>
<path id="Vector_5" d="M43.8815 23.9863H38.827C37.3174 23.9863 36.0943 25.2459 36.0943 26.8002V34.3544C36.0943 35.9087 34.8711 37.1682 33.3616 37.1682H13.2535C11.7439 37.1682 10.5207 38.4278 10.5207 39.9822V45.1868C10.5207 46.7411 11.7439 48.0007 13.2535 48.0007H34.5254C36.035 48.0007 37.2407 46.7411 37.2407 45.1868V41.0111C37.2407 39.4567 38.464 38.3541 39.9736 38.3541H43.8805C45.3899 38.3541 46.6132 37.0945 46.6132 35.54V26.7675C46.6132 25.2132 45.3909 23.9863 43.8815 23.9863Z" fill="white"/>
<path id="Vector_6" d="M10.5198 13.6464C10.5198 12.092 11.7431 10.8324 13.2527 10.8324H33.3484C34.858 10.8324 36.0811 9.57286 36.0811 8.01855V2.81394C36.0811 1.25953 34.858 0 33.3484 0H12.0877C10.5782 0 9.35497 1.25953 9.35497 2.81394V6.8243C9.35497 8.37861 8.13186 9.63817 6.62225 9.63817H2.73275C1.22319 9.63817 0 10.8977 0 12.4522V21.2341C0 22.7886 1.2283 23.9849 2.73787 23.9849H7.79219C9.30179 23.9849 10.5251 22.7254 10.5251 21.171L10.5198 13.6464Z" fill="white"/>
<path id="Vector_7" d="M20.9281 18.5156H25.7831C27.3653 18.5156 28.6489 19.8383 28.6489 21.4665V26.4657C28.6489 28.0947 27.3643 29.4164 25.7831 29.4164H20.9281C19.346 29.4164 18.0625 28.0937 18.0625 26.4657V21.4665C18.0625 19.8373 19.347 18.5156 20.9281 18.5156Z" fill="white"/>
</g>
</svg>
