<svg width="48" height="48" viewBox="0 0 48 48" fill="none" xmlns="http://www.w3.org/2000/svg">
<rect width="48" height="48" rx="24" fill="white"/>
<g clip-path="url(#clip0_2427_15526)">
<path fill-rule="evenodd" clip-rule="evenodd" d="M20.328 7.8436L18.6864 6.1012C21.5376 5.7412 29.04 6.202 36.312 11.0116C36.4128 11.674 36.384 12.3364 36.384 12.3364L36.9168 12.6244H36.9312C37.2336 13.1428 37.536 13.906 37.7232 14.8132C37.9536 15.9076 38.0256 17.1604 37.752 18.37C37.4784 19.5796 36.9456 20.5876 36.4416 21.322C36.0672 21.8692 35.7072 22.2436 35.4624 22.4452C34.5408 22.4596 32.7984 23.0932 32.3088 25.2388C30.8256 26.0884 28.4784 26.938 25.3968 26.938C22.4448 26.938 19.4352 26.0884 17.1744 24.4324C14.928 22.7908 13.4016 20.3572 13.4016 17.146C13.4016 14.5972 14.5536 12.5956 15.9936 11.1412C17.448 9.6724 19.4352 8.4772 20.6016 8.0884L20.3136 7.8436H20.328ZM33.0864 12.034C32.5104 12.6532 31.9776 12.9556 31.8192 13.042C28.4784 12.2932 27.2688 10.4932 27.2688 10.4932C30.4224 10.4788 33.2736 11.2564 35.3472 12.5812C35.3472 12.5812 34.224 12.1924 33.072 12.034H33.0864Z" fill="#3164FA"/>
<path d="M18.6288 8.31909C11.4576 9.75909 6 16.2103 6 24.0007C6 33.8503 14.3232 42.0007 24.6048 42.0007C32.28 42.0007 38.6592 37.3063 42 31.0279C37.5648 32.0791 32.2512 30.2071 32.2224 26.1175C30.624 26.9383 28.32 27.6727 25.3968 27.6727C22.3152 27.6727 19.1616 26.7799 16.7568 25.0231C14.3376 23.2663 12.696 20.6167 12.696 17.1463C12.696 14.3527 13.9488 12.1927 15.504 10.6231C16.3968 9.73029 17.6352 8.88069 18.6432 8.30469L18.6288 8.31909Z" fill="#3164FA"/>
<path d="M38.4432 14.6695C38.3424 14.2231 38.2272 13.7911 38.0832 13.4023C40.0128 14.8423 41.5104 16.8007 41.3808 19.5511C41.1936 23.4967 38.8176 25.0519 37.2912 25.2967C38.0256 24.0727 37.4064 23.2951 37.176 23.0359C37.0608 22.9063 36.816 22.7047 36.3984 22.5607C36.6 22.3303 36.8304 22.0567 37.0608 21.7399C37.6224 20.9479 38.184 19.8535 38.4864 18.5431C38.7888 17.2183 38.7168 15.8503 38.4576 14.6695H38.4432Z" fill="#3164FA"/>
</g>
<defs>
<clipPath id="clip0_2427_15526">
<rect width="36" height="36" fill="white" transform="translate(6 6)"/>
</clipPath>
</defs>
</svg>
