<svg width="48" height="48" viewBox="0 0 48 48" fill="none" xmlns="http://www.w3.org/2000/svg">
<rect width="48" height="48" rx="24" fill="black"/>
<path d="M31.816 32.2086C24.0008 32.2086 16.2002 32.2087 8.39963 32.2082C8.16148 32.2081 8.19272 32.2375 8.19227 31.9994C8.19094 31.2823 8.19436 30.5652 8.18919 29.8482C8.18836 29.7328 8.22177 29.6881 8.33549 29.7044C8.3687 29.7092 8.40317 29.7051 8.43707 29.7051C19.0655 29.7051 29.6939 29.7051 40.3222 29.7052C40.3707 29.7052 40.4192 29.7078 40.4675 29.7048C40.5361 29.7006 40.5608 29.7298 40.5606 29.7984C40.5592 30.5687 40.559 31.3391 40.561 32.1095C40.5612 32.186 40.5336 32.2155 40.4591 32.2091C40.4207 32.2057 40.3817 32.2086 40.343 32.2086C37.5055 32.2086 34.668 32.2086 31.816 32.2086Z" fill="#EC1C24"/>
<path fill-rule="evenodd" clip-rule="evenodd" d="M17.375 19.0557C17.0813 17.9329 16.4873 17.0376 15.412 16.5001C15.35 16.4707 15.2978 16.4458 15.2447 16.4228C14.4088 16.0591 13.5231 15.9481 12.6247 15.9361C11.9 15.9264 11.1752 15.9274 10.4504 15.9284C10.0083 15.929 9.56614 15.9296 9.12403 15.9277C9.01797 15.9273 9.00019 15.9608 9.00026 16.058C9.00275 19.6287 9.00305 23.1993 8.99939 26.77C8.99927 26.8909 9.03861 26.9103 9.14646 26.9099C9.69332 26.908 10.2402 26.9081 10.7871 26.9082C11.2812 26.9083 11.7754 26.9083 12.2695 26.9069C12.9281 26.9051 13.5837 26.8683 14.2341 26.7492C15.79 26.4643 16.82 25.586 17.2956 24.0679C17.5011 23.4118 17.5921 22.7376 17.6226 22.0541C17.6677 21.0446 17.6325 20.0402 17.375 19.0557ZM14.9884 23.6685C15.1797 23.2591 15.2481 22.8208 15.2888 22.3628C15.3607 21.5166 15.356 20.6851 15.214 19.8596C15.1377 19.4158 14.9872 19 14.6617 18.668C14.2828 18.2816 13.7974 18.1358 13.2835 18.0556C12.7734 17.976 12.2597 17.9737 11.7459 17.9713C11.6355 17.9708 11.5251 17.9703 11.4148 17.969C11.2794 17.9674 11.2383 17.9937 11.2387 18.139C11.2431 19.9082 11.2428 21.6775 11.2426 23.4467C11.2425 23.8621 11.2425 24.2776 11.2425 24.693C11.2425 24.7021 11.2427 24.7112 11.2429 24.7202C11.2433 24.7403 11.2437 24.7603 11.2421 24.7801C11.2378 24.8318 11.2495 24.8593 11.3116 24.859C11.4416 24.8582 11.5717 24.8587 11.7017 24.8592C12.3167 24.8615 12.9317 24.8639 13.5389 24.7332C14.1802 24.5952 14.6992 24.2872 14.9884 23.6685Z" fill="#FEFEFE"/>
<path fill-rule="evenodd" clip-rule="evenodd" d="M32.0059 16.6469C31.4562 17.1109 31.0977 17.7068 30.8289 18.3763C30.7167 18.6615 30.6328 18.9437 30.567 19.2313C30.3347 20.2458 30.2944 21.2735 30.3721 22.307C30.4349 23.1409 30.5973 23.9534 30.9434 24.7214C31.4321 25.8059 32.2129 26.5669 33.3687 26.9105C34.1165 27.1328 34.8818 27.1717 35.654 27.1098C36.3408 27.0548 36.9961 26.8837 37.5958 26.5335C38.5103 25.9994 39.0703 25.1884 39.399 24.2007C39.6831 23.3469 39.7761 22.4644 39.785 21.5698C39.7954 20.5233 39.7022 19.4914 39.3446 18.4979C38.8874 17.2274 38.0835 16.3033 36.7483 15.9206C35.8592 15.6658 34.9545 15.6416 34.0442 15.7758C33.2897 15.8871 32.5961 16.1486 32.0059 16.6469ZM35.8792 25.0453C36.2332 24.9465 36.5323 24.7613 36.7777 24.4724C37.0396 24.1443 37.1843 23.7726 37.2794 23.3799C37.4819 22.5442 37.5055 21.6944 37.4664 20.8409C37.4388 20.2401 37.3667 19.6465 37.1653 19.0744C36.9335 18.4157 36.5147 17.95 35.8218 17.7733C35.3212 17.6455 34.8152 17.6442 34.3141 17.7701C33.7636 17.9084 33.3549 18.2318 33.1008 18.7445C32.9976 18.9529 32.9178 19.1698 32.8597 19.3948C32.6522 20.1995 32.629 21.0199 32.6532 21.8443C32.6718 22.4801 32.7397 23.1082 32.9457 23.7147C33.1825 24.4115 33.6199 24.9034 34.3586 25.0746C34.8662 25.1922 35.3748 25.1861 35.8792 25.0453Z" fill="#FEFEFE"/>
<path fill-rule="evenodd" clip-rule="evenodd" d="M26.5882 26.2793C26.6126 26.3534 26.637 26.4276 26.6615 26.502C26.6713 26.5308 26.6812 26.5588 26.6908 26.5862C26.7171 26.6605 26.7419 26.7306 26.7578 26.8026C26.7778 26.8931 26.8264 26.912 26.9107 26.9101C27.0772 26.9065 27.2437 26.9071 27.4102 26.9078C27.4761 26.9081 27.542 26.9084 27.6079 26.9084C27.7258 26.9084 27.8436 26.9082 27.9615 26.9081C28.2987 26.9077 28.636 26.9072 28.9732 26.9102C29.0623 26.911 29.0828 26.8877 29.0519 26.8053C29.0261 26.7363 29.0035 26.6661 28.9809 26.5959C28.971 26.5651 28.9611 26.5343 28.9509 26.5036L28.5472 25.2867C27.5264 22.2093 26.5056 19.132 25.4869 16.054C25.457 15.9639 25.4239 15.9271 25.32 15.9277C24.4341 15.9332 23.548 15.9329 22.662 15.9281C22.5613 15.9275 22.5224 15.9587 22.4918 16.0518C21.7835 18.2077 21.0724 20.3626 20.3606 22.5173C20.0636 23.4167 19.7657 24.3159 19.4678 25.215C19.298 25.7276 19.1282 26.2402 18.9586 26.7528C18.9072 26.908 18.9079 26.9083 19.0763 26.9083C19.2424 26.9084 19.4085 26.908 19.5747 26.9077C20.0428 26.9068 20.5109 26.906 20.979 26.9123C21.1034 26.914 21.1433 26.8681 21.1764 26.762C21.2798 26.4302 21.3852 26.099 21.4905 25.7678C21.593 25.4459 21.6954 25.124 21.796 24.8015C21.825 24.7083 21.8643 24.6762 21.9661 24.6765C23.2878 24.6808 24.6096 24.6809 25.9313 24.6764C26.0402 24.6761 26.0791 24.7139 26.1101 24.8113C26.2652 25.2993 26.4255 25.7858 26.5882 26.2793ZM23.7185 22.7218C23.8503 22.7219 23.9828 22.722 24.1162 22.722C24.2283 22.722 24.3392 22.7216 24.4492 22.7212C24.729 22.7201 25.0034 22.7191 25.2777 22.7249C25.4029 22.7275 25.4314 22.7074 25.3892 22.5796C25.0762 21.63 24.7669 20.6793 24.4575 19.7285C24.3772 19.4815 24.2968 19.2345 24.2164 18.9875C24.1596 18.8131 24.1031 18.6387 24.0445 18.4574C24.0168 18.3719 23.9886 18.285 23.9598 18.1958C23.9532 18.2125 23.948 18.2254 23.9438 18.236C23.9367 18.2535 23.9323 18.2647 23.9286 18.276C23.8272 18.5859 23.7258 18.8958 23.6245 19.2057C23.2533 20.3407 22.8821 21.4758 22.5084 22.61C22.4762 22.7077 22.4985 22.7241 22.5917 22.7235C22.9653 22.7211 23.3389 22.7214 23.7185 22.7218Z" fill="#FEFEFE"/>
</svg>
