<svg width="48" height="48" viewBox="0 0 48 48" fill="none" xmlns="http://www.w3.org/2000/svg">
<g clip-path="url(#clip0_2388_15524)">
<path d="M24 0C37.2561 0 48 10.7461 48 24C48 37.2561 37.2561 48 24 48C10.7461 48 0 37.255 0 24C0 10.7461 10.7461 0 24 0Z" fill="#F5AC37"/>
<path d="M24.8845 25.6947H34.0041C34.1985 25.6947 34.2903 25.6947 34.3044 25.4399C34.3789 24.5121 34.3789 23.579 34.3044 22.6502C34.3044 22.4698 34.2147 22.3953 34.0193 22.3953H15.8697C15.645 22.3953 15.5846 22.4698 15.5846 22.6804V25.3502C15.5846 25.6947 15.5846 25.6947 15.9442 25.6947H24.8845ZM33.2859 19.2752C33.3119 19.2071 33.3119 19.1326 33.2859 19.0656C33.1337 18.7341 32.9533 18.4176 32.7438 18.1206C32.4284 17.613 32.0569 17.1454 31.6335 16.7252C31.4337 16.4714 31.2026 16.2436 30.9434 16.0502C29.6452 14.9454 28.1019 14.1635 26.443 13.7703C25.606 13.5824 24.7506 13.4928 23.8931 13.5003H15.8384C15.6137 13.5003 15.5835 13.59 15.5835 13.7855V19.1099C15.5835 19.3346 15.5835 19.395 15.8686 19.395H33.1779C33.1779 19.395 33.3281 19.3648 33.3583 19.2752H33.2849H33.2859ZM33.2859 28.8149C33.0311 28.7868 32.774 28.7868 32.5191 28.8149H15.8848C15.6602 28.8149 15.5846 28.8149 15.5846 29.1151V34.3208C15.5846 34.5605 15.5846 34.621 15.8848 34.621H23.5648C23.932 34.6491 24.2992 34.6232 24.6588 34.5465C25.7734 34.4666 26.8696 34.2247 27.915 33.8261C28.2952 33.6944 28.6624 33.5227 29.0091 33.3164H29.1139C30.9142 32.38 32.3766 30.909 33.2989 29.1032C33.2989 29.1032 33.4037 28.8764 33.2859 28.817V28.8149ZM12.5702 37.32V37.2303V33.7354V32.5506V29.0255C12.5702 28.83 12.5702 28.8008 12.3305 28.8008H9.07533C8.89497 28.8008 8.82045 28.8008 8.82045 28.5611V25.7109H12.3002C12.4946 25.7109 12.5702 25.7109 12.5702 25.4561V22.6361C12.5702 22.4558 12.5702 22.4115 12.3305 22.4115H9.07533C8.89497 22.4115 8.82045 22.4115 8.82045 22.1717V19.5322C8.82045 19.367 8.82045 19.3227 9.06021 19.3227H12.2851C12.5098 19.3227 12.5702 19.3227 12.5702 19.0375V10.9526C12.5702 10.7128 12.5702 10.6523 12.8705 10.6523H24.1199C24.9364 10.6847 25.7475 10.7744 26.5499 10.9223C28.2034 11.228 29.7921 11.8188 31.2447 12.6622C32.2081 13.2292 33.0948 13.914 33.8843 14.7024C34.4783 15.3191 35.014 15.9865 35.4892 16.6972C35.9611 17.4175 36.3532 18.1876 36.661 18.9922C36.6988 19.2017 36.8997 19.3432 37.1092 19.3076H39.7941C40.1386 19.3076 40.1386 19.3076 40.1537 19.638V22.0983C40.1537 22.3381 40.0641 22.3985 39.8232 22.3985H37.7529C37.5433 22.3985 37.4829 22.3985 37.498 22.6685C37.5801 23.5822 37.5801 24.4992 37.498 25.4129C37.498 25.6677 37.498 25.698 37.7842 25.698H40.1526C40.2574 25.833 40.1526 25.968 40.1526 26.1041C40.1678 26.2779 40.1678 26.454 40.1526 26.6279V28.4434C40.1526 28.6982 40.0781 28.7738 39.8524 28.7738H37.0174C36.8197 28.736 36.6275 28.8624 36.5821 29.059C35.9071 30.814 34.8271 32.3876 33.4317 33.649C32.922 34.108 32.3863 34.54 31.8268 34.9385C31.2264 35.2842 30.6421 35.6438 30.0265 35.9289C28.8935 36.4387 27.7055 36.8145 26.4862 37.0532C25.3284 37.2606 24.1544 37.3545 22.9762 37.3383H12.5659V37.3232L12.5702 37.32Z" fill="#FEFEFD"/>
</g>
<defs>
<clipPath id="clip0_2388_15524">
<rect width="48" height="48" fill="white"/>
</clipPath>
</defs>
</svg>
