<svg width="48" height="48" viewBox="0 0 48 48" fill="none" xmlns="http://www.w3.org/2000/svg">
<circle cx="24" cy="24" r="24" fill="#2775CA"/>
<path d="M24.5383 41C25.6785 41 26.6042 40.1292 26.6042 39.0536C26.6042 37.9793 26.6042 37.1085 26.6042 37.1085C32.2443 36.5919 35.978 33.6128 35.978 28.7665V28.6873C35.978 23.7617 32.8002 21.498 26.4849 20.0288V15.4213C27.3941 15.6435 28.3357 15.9583 29.2558 16.3667C30.7367 17.0231 32.5363 16.6117 33.4354 15.1418C34.3352 13.6728 33.8492 11.6092 32.1822 10.8609C30.5223 10.1165 28.7006 9.60374 26.6827 9.38315V8.19114C26.6827 7.534 25.7585 7 24.6176 7C23.4767 7 22.5517 7.50729 22.5517 8.13065C22.5517 8.75647 22.5517 9.26289 22.5517 9.26289C16.4735 9.70031 13.0578 12.9573 13.0578 17.6442V17.7243C13.0578 22.6491 16.3148 24.8351 22.7102 26.3034V31.0704C21.176 30.8231 19.6739 30.3135 18.1451 29.5329C16.5165 28.7021 14.5214 28.9959 13.5344 30.4547C12.5466 31.9128 12.9455 33.9842 14.5874 34.7898C16.9995 35.9747 19.7257 36.7488 22.4716 37.03V39.0157C22.4725 40.1112 23.3974 41 24.5383 41ZM26.4441 26.9395C28.5108 27.5347 29.1058 28.1315 29.1058 29.2032V29.2833C29.1058 30.4352 28.272 31.1097 26.4441 31.3092V26.9395ZM20.0485 17.1275V17.0483C20.0485 16.0158 20.8038 15.2211 22.7495 15.0625V19.3529C20.6053 18.7568 20.0485 18.16 20.0485 17.1275Z" fill="white"/>
</svg>
