<svg width="48" height="48" viewBox="0 0 48 48" fill="none" xmlns="http://www.w3.org/2000/svg">
<circle cx="24" cy="24" r="24" fill="#2775CA"/>
<g clip-path="url(#clip0_2388_15552)">
<path d="M26.9287 35.3636C23.5877 35.3636 20.6607 33.1149 19.0709 29.7694H29.5849V25.1331H17.849C17.8198 24.758 17.804 24.3824 17.804 23.9987C17.804 23.6186 17.8197 23.2383 17.849 22.8683H29.5851V18.231H19.071C20.6608 14.8858 23.5877 12.6379 26.9288 12.6379C30.1221 12.6379 33.129 14.7756 34.7756 18.2143L38.9591 16.2147C36.5339 11.1463 31.9245 8 26.9287 8C23.1731 8 19.6678 9.71611 17.0582 12.8364C15.7458 14.4061 14.743 16.2376 14.0838 18.231H9.04089V22.8682H13.2001C13.1778 23.2407 13.1662 23.621 13.1662 23.9986C13.1662 24.38 13.1778 24.7555 13.2001 25.1329H9.04089V29.7693H14.0838C14.743 31.7625 15.7458 33.592 17.0583 35.1602C19.6679 38.2807 23.1732 40 26.9288 40C31.9247 40 36.5339 36.8541 38.9591 31.7859L34.7756 29.7826C33.1289 33.2257 30.122 35.3636 26.9287 35.3636Z" fill="white"/>
</g>
<defs>
<clipPath id="clip0_2388_15552">
<rect width="32" height="32" fill="white" transform="translate(8 8)"/>
</clipPath>
</defs>
</svg>
