<svg width="48" height="48" viewBox="0 0 48 48" fill="none" xmlns="http://www.w3.org/2000/svg">
<rect width="48" height="48" rx="24" fill="#12FF80"/>
<path d="M39.0661 23.9902H35.4878C34.419 23.9902 33.5531 24.8824 33.5531 25.9834V31.3343C33.5531 32.4352 32.6871 33.3274 31.6185 33.3274H17.3829C16.3142 33.3274 15.4482 34.2196 15.4482 35.3207V39.0072C15.4482 40.1082 16.3142 41.0004 17.3829 41.0004H32.4424C33.5112 41.0004 34.3647 40.1082 34.3647 39.0072V36.0494C34.3647 34.9484 35.2308 34.1674 36.2995 34.1674H39.0654C40.134 34.1674 41 33.2752 41 32.1741V25.9603C41 24.8593 40.1347 23.9902 39.0661 23.9902Z" fill="black"/>
<path d="M15.4475 16.6662C15.4475 15.5652 16.3136 14.673 17.3823 14.673H31.6091C32.6778 14.673 33.5438 13.7808 33.5438 12.6798V8.99321C33.5438 7.89217 32.6778 7 31.6091 7H16.5575C15.4889 7 14.6229 7.89217 14.6229 8.99321V11.8339C14.6229 12.9348 13.757 13.827 12.6882 13.827H9.93466C8.86596 13.827 8 14.7192 8 15.8203V22.0408C8 23.1419 8.86958 23.9893 9.93829 23.9893H13.5165C14.5852 23.9893 15.4513 23.0972 15.4513 21.9961L15.4475 16.6662Z" fill="black"/>
<path d="M22.8161 20.1152H26.2532C27.3734 20.1152 28.2821 21.0521 28.2821 22.2054V25.7465C28.2821 26.9004 27.3727 27.8366 26.2532 27.8366H22.8161C21.6961 27.8366 20.7874 26.8997 20.7874 25.7465V22.2054C20.7874 21.0514 21.6968 20.1152 22.8161 20.1152Z" fill="black"/>
</svg>
