<svg width="48" height="48" viewBox="0 0 48 48" fill="none" xmlns="http://www.w3.org/2000/svg">
<circle cx="24" cy="24" r="24" fill="white"/>
<g clip-path="url(#clip0_2388_15544)">
<path d="M20.549 14.1917C20.1497 14.136 20.1307 14.1174 20.3209 14.0988C20.6821 14.0431 21.5187 14.1174 22.1081 14.2474C23.4771 14.5632 24.713 15.3805 26.025 16.8109L26.3672 17.201L26.8616 17.1267C28.9721 16.7923 31.1396 17.0524 32.9459 17.8697C33.4403 18.0926 34.2198 18.5384 34.3149 18.6499C34.3529 18.687 34.41 18.9285 34.448 19.17C34.5811 20.0431 34.5241 20.6932 34.2389 21.1948C34.0867 21.4734 34.0867 21.5477 34.1818 21.7892C34.2579 21.975 34.486 22.105 34.6952 22.105C35.1515 22.105 35.6269 21.3991 35.855 20.4146L35.9501 20.0245L36.1212 20.2103C37.0909 21.2691 37.8515 22.7366 37.9655 23.7768L38.0036 24.0555L37.8324 23.814C37.5472 23.3867 37.281 23.1081 36.9198 22.8666C36.2733 22.4394 35.5888 22.3093 33.7825 22.2164C32.1474 22.1236 31.2157 21.9935 30.303 21.6963C28.7439 21.1948 27.9453 20.5446 26.101 18.1483C25.2834 17.0895 24.7701 16.5137 24.2567 16.0307C23.1349 14.9719 22.0131 14.4146 20.549 14.1917Z" fill="#FF007A"/>
<path d="M34.7142 16.552C34.7522 15.8461 34.8473 15.3817 35.0564 14.9545C35.1325 14.7873 35.2085 14.6387 35.2276 14.6387C35.2466 14.6387 35.2085 14.7687 35.1515 14.9173C34.9994 15.326 34.9804 15.9018 35.0755 16.552C35.2085 17.3879 35.2656 17.4994 36.1782 18.4096C36.5965 18.8368 37.0909 19.3755 37.281 19.5984L37.6043 20.0071L37.281 19.7099C36.8817 19.3384 35.9691 18.6325 35.7599 18.5396C35.6268 18.4653 35.6078 18.4653 35.5128 18.5582C35.4367 18.6325 35.4177 18.7439 35.4177 19.2826C35.3987 20.1185 35.2846 20.6387 34.9994 21.1774C34.8473 21.456 34.8283 21.4003 34.9614 21.0845C35.0564 20.843 35.0755 20.7316 35.0755 19.9328C35.0755 18.3167 34.8853 17.9266 33.7255 17.2764C33.4403 17.1093 32.9459 16.8678 32.6607 16.7377C32.3565 16.6077 32.1283 16.4963 32.1473 16.4963C32.1854 16.4591 33.3072 16.7749 33.7445 16.9607C34.41 17.2207 34.5241 17.2393 34.6001 17.2207C34.6571 17.165 34.6952 17.0164 34.7142 16.552Z" fill="#FF007A"/>
<path d="M21.3286 19.3194C20.53 18.242 20.0166 16.5702 20.1307 15.3256L20.1688 14.9355L20.3589 14.9727C20.7011 15.0284 21.2906 15.2513 21.5758 15.4185C22.3363 15.8643 22.6786 16.4773 23.0018 18.0006C23.0969 18.4464 23.23 18.9665 23.287 19.1337C23.3821 19.4123 23.7433 20.0625 24.0475 20.4712C24.2567 20.7684 24.1236 20.917 23.6483 20.8798C22.9257 20.8055 21.956 20.1554 21.3286 19.3194Z" fill="#FF007A"/>
<path d="M33.7445 27.3998C29.9798 25.9138 28.6488 24.632 28.6488 22.4587C28.6488 22.1429 28.6678 21.8828 28.6678 21.8828C28.6869 21.8828 28.82 21.9943 28.9911 22.1243C29.7516 22.7187 30.6072 22.9788 32.9839 23.3132C34.3719 23.5175 35.1705 23.6661 35.893 23.9076C38.1937 24.6506 39.6197 26.1738 39.962 28.2358C40.057 28.8302 40 29.9633 39.8479 30.5577C39.7148 31.0221 39.3345 31.8766 39.2394 31.8952C39.2204 31.8952 39.1824 31.8023 39.1824 31.6537C39.1444 30.8735 38.7451 30.1305 38.0796 29.5546C37.281 28.8859 36.2543 28.3844 33.7445 27.3998Z" fill="#FF007A"/>
<path d="M31.0826 28.0119C31.0446 27.7333 30.9495 27.3804 30.8925 27.2318L30.7974 26.9531L30.9685 27.1575C31.2157 27.4361 31.4058 27.7705 31.5769 28.2349C31.71 28.5878 31.71 28.6993 31.71 29.2751C31.71 29.8324 31.691 29.9624 31.5769 30.2782C31.3868 30.7797 31.1586 31.1327 30.7784 31.5228C30.0939 32.2101 29.2002 32.5816 27.9263 32.7488C27.6982 32.7674 27.0517 32.8231 26.4813 32.8602C25.0553 32.9345 24.1046 33.0832 23.249 33.3804C23.1349 33.4175 23.0208 33.4547 23.0018 33.4361C22.9638 33.3989 23.5532 33.0646 24.0285 32.8417C24.694 32.5259 25.3785 32.3587 26.8806 32.0986C27.6221 31.9872 28.3826 31.8386 28.5728 31.7643C30.4551 31.1884 31.3868 29.7581 31.0826 28.0119Z" fill="#FF007A"/>
<path d="M32.8128 31.0036C32.3185 29.9448 32.2044 28.9417 32.4706 27.9944C32.5086 27.9015 32.5466 27.8086 32.5847 27.8086C32.6227 27.8086 32.7368 27.8643 32.8509 27.9386C33.079 28.0872 33.5544 28.3473 34.7712 28.9974C36.3114 29.8148 37.186 30.4464 37.7944 31.1708C38.3268 31.8024 38.65 32.5269 38.8021 33.4185C38.8972 33.9201 38.8402 35.1275 38.7071 35.629C38.2888 37.208 37.3381 38.4711 35.9501 39.1956C35.7409 39.307 35.5698 39.3813 35.5508 39.3813C35.5318 39.3813 35.6078 39.1956 35.7219 38.9727C36.1783 38.0253 36.2353 37.1151 35.8931 36.0934C35.6839 35.4618 35.2466 34.7002 34.372 33.4185C33.3262 31.9324 33.079 31.5423 32.8128 31.0036Z" fill="#FF007A"/>
<path d="M18.6476 36.6873C20.0547 35.5356 21.7849 34.7183 23.382 34.4582C24.0665 34.3468 25.2074 34.3839 25.8348 34.5511C26.8425 34.8112 27.7552 35.3685 28.2305 36.0558C28.6869 36.7245 28.896 37.3003 29.1052 38.5821C29.1812 39.0836 29.2763 39.6038 29.2953 39.7152C29.4474 40.3839 29.7516 40.9041 30.1319 41.1827C30.7213 41.6099 31.7481 41.6285 32.7558 41.257C32.9269 41.2013 33.079 41.1455 33.079 41.1641C33.117 41.2013 32.6037 41.5356 32.2614 41.7028C31.7861 41.9443 31.4058 42.0186 30.8924 42.0186C29.9798 42.0186 29.2002 41.5542 28.5728 40.6254C28.4397 40.4397 28.1735 39.901 27.9453 39.3994C27.2798 37.8948 26.9376 37.449 26.158 36.9474C25.4735 36.5202 24.5989 36.4273 23.9334 36.7431C23.0588 37.1517 22.8306 38.2477 23.4391 38.9164C23.6863 39.1951 24.1426 39.418 24.5229 39.4737C25.2264 39.5666 25.8348 39.0279 25.8348 38.3406C25.8348 37.8948 25.6637 37.6347 25.2074 37.4304C24.5989 37.1703 23.9334 37.4675 23.9525 38.0434C23.9525 38.2849 24.0665 38.4335 24.3137 38.5449C24.4658 38.6192 24.4658 38.6192 24.3517 38.6007C23.8003 38.4892 23.6672 37.8205 24.1046 37.3932C24.6369 36.8731 25.7587 37.096 26.139 37.8205C26.2911 38.1177 26.3101 38.7121 26.1771 39.0836C25.8538 39.901 24.9412 40.3282 24.0095 40.0867C23.382 39.9195 23.1159 39.7524 22.3553 38.9907C21.0243 37.6533 20.511 37.3932 18.6096 37.1146L18.2484 37.0589L18.6476 36.6873Z" fill="#FF007A"/>
<path fill-rule="evenodd" clip-rule="evenodd" d="M8.64655 6.79876C13.0767 12.0557 19.9026 20.2291 20.2449 20.6749C20.5301 21.0464 20.416 21.3994 19.9407 21.6594C19.6745 21.808 19.1231 21.9567 18.8569 21.9567C18.5527 21.9567 18.1914 21.808 17.9442 21.5666C17.7731 21.3994 17.0316 20.3406 15.3584 17.7957C14.0845 15.8452 13.0007 14.2291 12.9817 14.2105C12.9056 14.1734 12.9056 14.1734 15.2253 18.2229C16.6893 20.7678 17.1647 21.678 17.1647 21.7895C17.1647 22.031 17.0886 22.161 16.7844 22.4954C16.271 23.0526 16.0429 23.6842 15.8717 25.0031C15.6816 26.4706 15.1682 27.5108 13.7042 29.2755C12.8486 30.3158 12.7155 30.5015 12.5063 30.9288C12.2401 31.4489 12.1641 31.7461 12.126 32.4149C12.088 33.1207 12.1641 33.5666 12.3732 34.2353C12.5634 34.8297 12.7725 35.2198 13.2859 35.9814C13.7232 36.6502 13.9894 37.1517 13.9894 37.3375C13.9894 37.4861 14.0274 37.4861 14.7119 37.3375C16.3471 36.9659 17.6971 36.3344 18.4386 35.5542C18.8949 35.0712 19.009 34.8111 19.009 34.1424C19.009 33.7152 18.99 33.6223 18.8759 33.3622C18.6858 32.9536 18.3245 32.6192 17.5449 32.0991C16.5182 31.4118 16.0809 30.8545 15.9668 30.1115C15.8717 29.4799 15.9858 29.0526 16.5562 27.8824C17.1457 26.6749 17.2978 26.1734 17.3928 24.9474C17.4499 24.1672 17.5449 23.8514 17.7731 23.6099C18.0203 23.3498 18.2294 23.257 18.8189 23.1827C19.7886 23.0526 20.416 22.8111 20.9104 22.3467C21.3477 21.9567 21.5378 21.5666 21.5568 20.9907L21.5758 20.5635L21.3287 20.3034C20.435 19.3003 8.05712 6 8.00008 6C7.98107 6 8.28529 6.35294 8.64655 6.79876ZM14.4837 33.2136C14.6929 32.8607 14.5788 32.4149 14.2366 32.1919C13.9133 31.9876 13.419 32.0805 13.419 32.3591C13.419 32.4334 13.457 32.5077 13.5711 32.5449C13.7422 32.6378 13.7612 32.7306 13.6281 32.935C13.495 33.1393 13.495 33.3251 13.6662 33.4551C13.9323 33.6594 14.2936 33.548 14.4837 33.2136Z" fill="#FF007A"/>
<path fill-rule="evenodd" clip-rule="evenodd" d="M22.1842 23.4419C21.7279 23.5719 21.2905 24.0549 21.1574 24.5379C21.0814 24.8351 21.1194 25.3738 21.2525 25.541C21.4617 25.801 21.6518 25.8753 22.1842 25.8753C23.2299 25.8753 24.1236 25.4295 24.2186 24.8908C24.3137 24.445 23.9144 23.832 23.363 23.5533C23.0778 23.4047 22.4884 23.349 22.1842 23.4419ZM23.4011 24.3707C23.5532 24.1478 23.4961 23.9063 23.2109 23.7391C22.6976 23.4233 21.918 23.6834 21.918 24.1664C21.918 24.4078 22.3173 24.6679 22.6976 24.6679C22.9447 24.6679 23.287 24.5193 23.4011 24.3707Z" fill="#FF007A"/>
</g>
<defs>
<clipPath id="clip0_2388_15544">
<rect width="32" height="36" fill="white" transform="translate(8 6)"/>
</clipPath>
</defs>
</svg>
