<svg width="48" height="48" viewBox="0 0 48 48" fill="none" xmlns="http://www.w3.org/2000/svg">
<circle cx="24" cy="24" r="24" fill="#50AF95"/>
<path fill-rule="evenodd" clip-rule="evenodd" d="M27.2555 25.1266C27.0736 25.1404 26.1342 25.1975 24.0386 25.1975C22.3719 25.1975 21.1885 25.1466 20.7733 25.1266C14.3321 24.8382 9.52431 23.697 9.52431 22.3306C9.52431 20.9642 14.3321 19.8246 20.7733 19.5315V23.99C21.1946 24.0208 22.4007 24.0933 24.0674 24.0933C26.0675 24.0933 27.0691 24.0085 27.2494 23.9915V19.5346C33.677 19.8261 38.4742 20.9673 38.4742 22.3306C38.4742 23.6939 33.6785 24.8351 27.2494 25.125L27.2555 25.1266ZM27.2555 19.0735V15.0839H36.2256V9H11.8032V15.0839H20.7718V19.072C13.4821 19.4128 8 20.8825 8 22.6437C8 24.4048 13.4821 25.873 20.7718 26.2153V39H27.2539V26.2107C34.527 25.8699 40 24.4017 40 22.6421C40 20.8825 34.5316 19.4143 27.2539 19.072L27.2555 19.0735Z" fill="white"/>
</svg>
