<svg width="17" height="17" viewBox="0 0 17 17" fill="none" xmlns="http://www.w3.org/2000/svg">
<path d="M16.8867 0.877909C16.743 0.531915 16.4681 0.256965 16.1221 0.113278C15.9519 0.0407222 15.7691 0.00223723 15.584 0H1.42419C1.04865 0 0.688491 0.149184 0.422942 0.414732C0.157394 0.68028 0.00821035 1.04044 0.00821035 1.41598C0.00821035 1.79152 0.157394 2.15168 0.422942 2.41723C0.688491 2.68278 1.04865 2.83196 1.42419 2.83196H12.1715L0.418845 14.5705C0.286127 14.7021 0.180787 14.8587 0.108899 15.0313C0.0370116 15.2038 0 15.3889 0 15.5758C0 15.7627 0.0370116 15.9478 0.108899 16.1204C0.180787 16.2929 0.286127 16.4495 0.418845 16.5812C0.550479 16.7139 0.707088 16.8192 0.879639 16.8911C1.05219 16.963 1.23727 17 1.42419 17C1.61112 17 1.7962 16.963 1.96875 16.8911C2.1413 16.8192 2.29791 16.7139 2.42954 16.5812L14.168 4.8285V15.5758C14.168 15.9513 14.3172 16.3115 14.5828 16.5771C14.8483 16.8426 15.2085 16.9918 15.584 16.9918C15.9596 16.9918 16.3197 16.8426 16.5853 16.5771C16.8508 16.3115 17 15.9513 17 15.5758V1.41598C16.9978 1.23095 16.9593 1.04814 16.8867 0.877909Z" fill="#F4F4F4"/>
</svg>
