<svg width="39" height="39" viewBox="0 0 39 39" fill="none" xmlns="http://www.w3.org/2000/svg">
<path d="M18.2632 0.24356C17.8646 0.398116 17.5005 0.629863 17.1916 0.925502L0.95501 17.1621C0.652234 17.4649 0.41206 17.8243 0.248199 18.2199C0.0843383 18.6155 -8.70387e-07 19.0395 -8.5167e-07 19.4677C-8.1387e-07 20.3325 0.343527 21.1618 0.95501 21.7733C1.25779 22.0761 1.61723 22.3163 2.01283 22.4801C2.40842 22.644 2.83242 22.7283 3.26061 22.7283C4.12538 22.7283 4.95473 22.3848 5.56621 21.7733L16.2499 11.0571L16.2499 35.7043C16.2499 36.5656 16.592 37.3915 17.201 38.0005C17.81 38.6095 18.636 38.9517 19.4972 38.9517C20.3585 38.9517 21.1844 38.6095 21.7934 38.0005C22.4024 37.3915 22.7446 36.5656 22.7446 35.7043L22.7446 11.0571L33.4282 21.7733C33.7301 22.0777 34.0893 22.3193 34.485 22.4841C34.8807 22.649 35.3052 22.7339 35.7338 22.7339C36.1625 22.7339 36.587 22.649 36.9827 22.4841C37.3784 22.3193 37.7376 22.0777 38.0394 21.7733C38.3438 21.4714 38.5854 21.1123 38.7503 20.7166C38.9151 20.3208 39 19.8964 39 19.4677C39 19.039 38.9151 18.6146 38.7503 18.2189C38.5854 17.8232 38.3438 17.464 38.0394 17.1621L21.8028 0.925502C21.494 0.629863 21.1298 0.398116 20.7312 0.24356C19.9406 -0.081231 19.0538 -0.081231 18.2632 0.24356Z" fill="white"/>
</svg>
