<svg width="32" height="32" viewBox="0 0 32 32" fill="none" xmlns="http://www.w3.org/2000/svg">
<path d="M1.55998 22.9011C0.561075 23.9013 0 25.257 0 26.6706C0 28.0841 0.561075 29.4399 1.55998 30.44C2.56013 31.4389 3.91588 32 5.32942 32C6.74297 32 8.09871 31.4389 9.09886 30.44C10.0411 29.4289 10.554 28.0914 10.5297 26.7095C10.5053 25.3276 9.94546 24.0091 8.96815 23.0318C7.99085 22.0545 6.67237 21.4947 5.29047 21.4703C3.90857 21.446 2.57115 21.9589 1.55998 22.9011ZM6.59183 27.933C6.25702 28.2678 5.80292 28.4559 5.32942 28.4559C4.85593 28.4559 4.40183 28.2678 4.06701 27.933C3.7322 27.5982 3.54411 27.1441 3.54411 26.6706C3.54411 26.1971 3.7322 25.743 4.06701 25.4082C4.23231 25.2415 4.42896 25.1092 4.64563 25.019C4.8623 24.9287 5.0947 24.8822 5.32942 24.8822C5.56414 24.8822 5.79654 24.9287 6.01321 25.019C6.22988 25.1092 6.42654 25.2415 6.59183 25.4082C6.75848 25.5735 6.89076 25.7701 6.98103 25.9868C7.07129 26.2035 7.11777 26.4359 7.11777 26.6706C7.11777 26.9053 7.07129 27.1377 6.98103 27.3544C6.89076 27.571 6.75848 27.7677 6.59183 27.933ZM5.32942 14.2243C4.85786 14.2243 4.40561 14.4116 4.07216 14.7451C3.73871 15.0785 3.55138 15.5308 3.55138 16.0023C3.55138 16.4739 3.73871 16.9262 4.07216 17.2596C4.40561 17.5931 4.85786 17.7804 5.32942 17.7804C7.68725 17.7804 9.9485 18.717 11.6157 20.3843C13.283 22.0515 14.2196 24.3128 14.2196 26.6706C14.2196 27.1421 14.4069 27.5944 14.7404 27.9278C15.0738 28.2613 15.5261 28.4486 15.9977 28.4486C16.4692 28.4486 16.9215 28.2613 17.2549 27.9278C17.5884 27.5944 17.7757 27.1421 17.7757 26.6706C17.7757 23.3696 16.4644 20.2039 14.1303 17.8697C11.7961 15.5356 8.63038 14.2243 5.32942 14.2243ZM5.32942 7.11215C4.85786 7.11215 4.40561 7.29948 4.07216 7.63293C3.73871 7.96638 3.55138 8.41863 3.55138 8.89019C3.55138 9.36176 3.73871 9.81401 4.07216 10.1475C4.40561 10.4809 4.85786 10.6682 5.32942 10.6682C9.57351 10.6682 13.6438 12.3542 16.6448 15.3552C19.6458 18.3562 21.3318 22.4265 21.3318 26.6706C21.3318 27.1421 21.5191 27.5944 21.8525 27.9278C22.186 28.2613 22.6382 28.4486 23.1098 28.4486C23.5814 28.4486 24.0336 28.2613 24.3671 27.9278C24.7005 27.5944 24.8878 27.1421 24.8878 26.6706C24.8741 21.4858 22.8169 16.5154 19.1626 12.8374C15.4846 9.18307 10.5142 7.12593 5.32942 7.11215ZM24.1944 7.80559C19.1782 2.8227 12.3999 0.018108 5.32942 0C4.85786 0 4.40561 0.187329 4.07216 0.520776C3.73871 0.854223 3.55138 1.30647 3.55138 1.77804C3.55138 2.2496 3.73871 2.70185 4.07216 3.0353C4.40561 3.36875 4.85786 3.55608 5.32942 3.55608C11.4598 3.55608 17.339 5.99135 21.6738 10.3262C26.0087 14.661 28.4439 20.5402 28.4439 26.6706C28.4439 27.1421 28.6313 27.5944 28.9647 27.9278C29.2981 28.2613 29.7504 28.4486 30.222 28.4486C30.6935 28.4486 31.1458 28.2613 31.4792 27.9278C31.8127 27.5944 32 27.1421 32 26.6706C31.9819 19.6001 29.1773 12.8218 24.1944 7.80559Z" fill="white"/>
</svg>
