<svg width="1512" height="868" viewBox="0 0 1512 868" fill="none" xmlns="http://www.w3.org/2000/svg">
<g opacity="0.7">
<g opacity="0.6" filter="url(#filter0_f_425_3142)">
<path d="M722.01 433.28L395.344 293.541C380.522 287.2 368.388 275.87 361.048 261.516C336.725 213.948 373.363 157.975 426.689 161.232L799.413 184.002C819.808 185.248 839.728 190.676 857.934 199.95L1042.6 294.012C1074.04 310.029 1098.78 336.689 1112.4 369.243L1202.62 584.883C1210.24 603.092 1214.16 622.634 1214.16 642.372V646.843C1216.09 703.946 1143.1 729.261 1109.25 683.229L1088.61 655.148C1084.18 649.125 1078.8 643.863 1072.68 639.568L904.441 521.467C897.418 516.537 889.983 512.223 882.218 508.574L722.01 433.28Z" fill="url(#paint0_linear_425_3142)"/>
</g>
<g filter="url(#filter1_f_425_3142)">
<path d="M1174.21 617.512C1170.6 621.314 1150.7 584.989 1108.98 550.567C1055.17 506.172 981.181 441.917 895.568 360.66C743.575 216.402 644.629 178.624 652.892 169.919C661.154 161.213 817.546 170.482 969.539 314.74C1057.96 419.794 1098.54 499.279 1135.17 541.865C1171.8 584.451 1177.93 613.587 1174.21 617.512Z" fill="url(#paint1_linear_425_3142)"/>
</g>
<g filter="url(#filter2_f_425_3142)">
<path d="M1055.07 579.877C1049.44 585.22 983.182 521.854 902.967 444.282C870.34 412.731 828.882 384.771 794.394 348.453C675.113 222.843 520.749 290.948 528.664 283.431C536.579 275.915 764.586 214.728 883.868 340.337C1003.15 465.947 1062.98 572.361 1055.07 579.877Z" fill="#D02129"/>
</g>
<g filter="url(#filter3_f_425_3142)">
<path d="M846.704 437.512C836.838 447.378 729.545 356.081 607.059 233.594C484.572 111.108 708.537 404.36 718.403 394.494C728.269 384.628 520.3 75.3804 642.786 197.867C765.273 320.353 856.57 427.646 846.704 437.512Z" fill="url(#paint2_linear_425_3142)"/>
</g>
</g>
<g opacity="0.4">
<line x1="79.3826" y1="93" x2="79.3826" y2="822" stroke="#F1F3F5" stroke-opacity="0.1"/>
<line x1="183.324" y1="93" x2="183.324" y2="822" stroke="#F1F3F5" stroke-opacity="0.1"/>
<line x1="288.265" y1="93" x2="288.265" y2="822" stroke="#F1F3F5" stroke-opacity="0.1"/>
<line x1="392.206" y1="93" x2="392.206" y2="822" stroke="#F1F3F5" stroke-opacity="0.1"/>
<line x1="496.147" y1="93" x2="496.147" y2="822" stroke="#F1F3F5" stroke-opacity="0.1"/>
<line x1="600.088" y1="93" x2="600.088" y2="822" stroke="#F1F3F5" stroke-opacity="0.1"/>
<line x1="704.03" y1="93" x2="704.03" y2="822" stroke="#F1F3F5" stroke-opacity="0.1"/>
<line x1="807.971" y1="93" x2="807.971" y2="822" stroke="#F1F3F5" stroke-opacity="0.1"/>
<line x1="912.912" y1="93" x2="912.912" y2="822" stroke="#F1F3F5" stroke-opacity="0.1"/>
<line x1="1016.85" y1="93" x2="1016.85" y2="822" stroke="#F1F3F5" stroke-opacity="0.1"/>
<line x1="1120.79" y1="93" x2="1120.79" y2="822" stroke="#F1F3F5" stroke-opacity="0.1"/>
<line x1="1224.74" y1="93" x2="1224.74" y2="822" stroke="#F1F3F5" stroke-opacity="0.1"/>
<line x1="1328.68" y1="93" x2="1328.68" y2="822" stroke="#F1F3F5" stroke-opacity="0.1"/>
<line x1="1432.62" y1="93" x2="1432.62" y2="822" stroke="#F1F3F5" stroke-opacity="0.1"/>
<line x1="-129" y1="92.5" x2="1640" y2="92.5002" stroke="#F1F3F5" stroke-opacity="0.1"/>
<line x1="-129" y1="196.653" x2="1640" y2="196.653" stroke="#F1F3F5" stroke-opacity="0.1"/>
<line x1="-129" y1="300.806" x2="1640" y2="300.806" stroke="#F1F3F5" stroke-opacity="0.1"/>
<line x1="-129" y1="404.959" x2="1640" y2="404.959" stroke="#F1F3F5" stroke-opacity="0.1"/>
<line x1="-129" y1="509.111" x2="1640" y2="509.111" stroke="#F1F3F5" stroke-opacity="0.1"/>
<line x1="-129" y1="613.265" x2="1640" y2="613.265" stroke="#F1F3F5" stroke-opacity="0.1"/>
<line x1="-129" y1="717.265" x2="1640" y2="717.265" stroke="#F1F3F5" stroke-opacity="0.1"/>
<line x1="-129" y1="822.265" x2="1640" y2="822.265" stroke="#F1F3F5" stroke-opacity="0.1"/>
<rect x="497.052" y="197.152" width="102.607" height="102.665" fill="white" fill-opacity="0.03"/>
<rect x="184.77" y="405.458" width="102.607" height="102.665" fill="white" fill-opacity="0.03"/>
<rect x="809.335" y="405.458" width="102.607" height="102.665" fill="white" fill-opacity="0.03"/>
<rect x="1121.62" y="197.152" width="102.607" height="102.665" fill="white" fill-opacity="0.04"/>
<rect x="1225.71" y="301.306" width="102.607" height="102.665" fill="white" fill-opacity="0.04"/>
</g>
<defs>
<filter id="filter0_f_425_3142" x="193.217" y="0.940369" width="1181.14" height="866.266" filterUnits="userSpaceOnUse" color-interpolation-filters="sRGB">
<feFlood flood-opacity="0" result="BackgroundImageFix"/>
<feBlend mode="normal" in="SourceGraphic" in2="BackgroundImageFix" result="shape"/>
<feGaussianBlur stdDeviation="80.0782" result="effect1_foregroundBlur_425_3142"/>
</filter>
<filter id="filter1_f_425_3142" x="596.356" y="111.545" width="634.853" height="562.296" filterUnits="userSpaceOnUse" color-interpolation-filters="sRGB">
<feFlood flood-opacity="0" result="BackgroundImageFix"/>
<feBlend mode="normal" in="SourceGraphic" in2="BackgroundImageFix" result="shape"/>
<feGaussianBlur stdDeviation="28.0274" result="effect1_foregroundBlur_425_3142"/>
</filter>
<filter id="filter2_f_425_3142" x="472.317" y="205.895" width="639.502" height="430.353" filterUnits="userSpaceOnUse" color-interpolation-filters="sRGB">
<feFlood flood-opacity="0" result="BackgroundImageFix"/>
<feBlend mode="normal" in="SourceGraphic" in2="BackgroundImageFix" result="shape"/>
<feGaussianBlur stdDeviation="28.0274" result="effect1_foregroundBlur_425_3142"/>
</filter>
<filter id="filter3_f_425_3142" x="514.472" y="113.159" width="389.016" height="381.137" filterUnits="userSpaceOnUse" color-interpolation-filters="sRGB">
<feFlood flood-opacity="0" result="BackgroundImageFix"/>
<feBlend mode="normal" in="SourceGraphic" in2="BackgroundImageFix" result="shape"/>
<feGaussianBlur stdDeviation="28.0274" result="effect1_foregroundBlur_425_3142"/>
</filter>
<linearGradient id="paint0_linear_425_3142" x1="306" y1="153.859" x2="1292.19" y2="281.777" gradientUnits="userSpaceOnUse">
<stop stop-color="#D02129"/>
<stop offset="1" stop-color="#750069"/>
</linearGradient>
<linearGradient id="paint1_linear_425_3142" x1="730.642" y1="88" x2="916.789" y2="713.128" gradientUnits="userSpaceOnUse">
<stop stop-color="#D02129"/>
<stop offset="1" stop-color="#750069"/>
</linearGradient>
<linearGradient id="paint2_linear_425_3142" x1="844.526" y1="455.753" x2="669.556" y2="243.546" gradientUnits="userSpaceOnUse">
<stop stop-color="#FEFFE6"/>
<stop offset="1" stop-color="#D02129"/>
</linearGradient>
</defs>
</svg>
