<svg width="200" height="200" viewBox="0 0 200 200" fill="none" xmlns="http://www.w3.org/2000/svg">
<path d="M103.057 191.473C156.597 191.473 200 174.295 200 153.105C200 131.914 156.597 114.736 103.057 114.736C49.5167 114.736 6.11377 131.914 6.11377 153.105C6.11377 174.295 49.5167 191.473 103.057 191.473Z" fill="#151515"/>
<path d="M93.7436 200C136.513 200 171.184 195.759 171.184 190.526C171.184 185.294 136.513 181.053 93.7436 181.053C50.9745 181.053 16.3032 185.294 16.3032 190.526C16.3032 195.759 50.9745 200 93.7436 200Z" fill="#151515"/>
<g clip-path="url(#clip0_2110_49263)">
<path d="M112.858 162.968C157.393 162.968 193.495 146.611 193.495 126.433C193.495 106.256 157.393 89.8984 112.858 89.8984C68.3234 89.8984 32.2209 106.256 32.2209 126.433C32.2209 146.611 68.3234 162.968 112.858 162.968Z" fill="#222222" stroke="#0F0F0F" stroke-width="1.09028" stroke-linecap="round" stroke-linejoin="round"/>
<path d="M146.646 93.2578L40.4093 142.48C45.0757 146.785 51.5847 150.637 59.4565 153.801L172.093 101.641C163.995 97.8182 155.447 95.0023 146.646 93.2578Z" fill="#FA7CFF"/>
<path d="M112.858 162.968C157.393 162.968 193.495 146.611 193.495 126.433C193.495 106.256 157.393 89.8984 112.858 89.8984C68.3234 89.8984 32.2209 106.256 32.2209 126.433C32.2209 146.611 68.3234 162.968 112.858 162.968Z" stroke="#0F0F0F" stroke-width="1.09028" stroke-linecap="round" stroke-linejoin="round"/>
<path d="M112.858 157.964C151.287 157.964 182.44 143.847 182.44 126.433C182.44 109.019 151.287 94.9023 112.858 94.9023C74.4294 94.9023 43.2766 109.019 43.2766 126.433C43.2766 143.847 74.4294 157.964 112.858 157.964Z" fill="#222222" stroke="#0F0F0F" stroke-width="1.09028" stroke-linecap="round" stroke-linejoin="round"/>
<path d="M45.5771 127.768C45.5771 110.356 76.7264 96.2368 115.159 96.2368C136.779 96.2368 156.088 100.703 168.855 107.708C156.175 99.9387 135.82 94.9023 112.858 94.9023C74.4259 94.9023 43.2766 109.01 43.2766 126.433C43.2766 134.052 49.2404 141.036 59.1729 146.482C50.636 141.252 45.5771 134.784 45.5771 127.768Z" fill="#0F0F0F" stroke="#0F0F0F" stroke-width="1.09028" stroke-linecap="round" stroke-linejoin="round"/>
<path d="M141.107 139.95L139.243 139.089C117.873 146.741 92.5244 141.123 86.2771 134.171H116.478V129.404H82.3194V124.54H116.456V119.719H85.9282C90.2893 116.114 96.2641 113.639 104.278 112.293C115.882 110.155 127.85 111.023 139.014 114.812H139.145L148.685 111.207L148.532 109.269C148.532 109.269 85.2195 105.288 72.7685 118.331C71.6783 119.536 70.3263 119.902 67.557 119.837C62.6507 119.73 57.7445 119.837 52.7728 119.837V124.691H68.7454V129.544H52.7074V134.29C58.1588 134.29 63.4685 134.29 68.7672 134.29C70.6534 134.29 71.5801 134.526 72.3433 135.366C81.5562 145.266 103.667 150.582 126.857 148.441C134.301 147.858 141.614 146.178 148.554 143.458V142.016L139.286 137.787L141.107 139.95Z" fill="#0F0F0F" stroke="#0F0F0F" stroke-width="1.09028" stroke-linecap="round" stroke-linejoin="round"/>
<path d="M139.243 137.659L148.51 141.888C141.57 144.608 134.257 146.288 126.814 146.871C103.667 149.023 81.5561 143.707 72.2996 133.807C71.5364 132.989 70.6097 132.73 68.7235 132.73C63.4248 132.73 58.1151 132.73 52.6637 132.73V128.06H68.7453V123.207H52.7836V118.375C57.7444 118.375 62.6616 118.299 67.5678 118.375C70.3371 118.439 71.6346 118.073 72.7793 116.868C85.2303 103.825 121.373 99.65 146.21 108.345C147.027 108.625 147.791 108.948 148.543 109.238L139.014 113.371C128.842 109.766 117.056 108.69 104.256 110.842C96.2422 112.198 90.2565 114.662 85.9063 118.278H116.434V123.099H82.3193V127.952H116.51V132.73H86.277C92.5243 139.693 117.873 145.278 139.243 137.659Z" fill="#222222" stroke="#0F0F0F" stroke-width="1.09028" stroke-linecap="round" stroke-linejoin="round"/>
<path d="M82.3195 127.964V123.11H116.456V118.289H92.579L61.0372 132.795C63.6248 132.795 66.2015 132.795 68.7673 132.795C70.6535 132.795 71.5802 133.021 72.3434 133.872C75.5379 137.304 80.2807 140.188 86.0918 142.395L95.4028 137.961C91.2162 136.497 88.0107 134.668 86.2772 132.742H106.545L116.478 128.082V127.964H82.3195Z" fill="#FA7CFF"/>
<path d="M139.014 113.371L148.532 109.217C147.78 108.927 147.016 108.604 146.199 108.324C138.926 105.89 131.352 104.442 123.685 104.02L110.47 110.1C120.113 109.13 129.853 110.246 139.014 113.371Z" fill="#FA7CFF"/>
<path d="M139.243 137.659L148.51 141.888C141.57 144.608 134.257 146.288 126.814 146.871C103.667 149.023 81.5561 143.707 72.2996 133.807C71.5364 132.989 70.6097 132.73 68.7235 132.73C63.4248 132.73 58.1151 132.73 52.6637 132.73V128.06H68.7453V123.207H52.7836V118.375C57.7444 118.375 62.6616 118.299 67.5678 118.375C70.3371 118.439 71.6346 118.073 72.7793 116.868C85.2303 103.825 121.373 99.65 146.21 108.345C147.027 108.625 147.791 108.948 148.543 109.238L139.014 113.371C128.842 109.766 117.056 108.69 104.256 110.842C96.2422 112.198 90.2565 114.662 85.9063 118.278H116.434V123.099H82.3193V127.952H116.51V132.73H86.277C92.5243 139.693 117.873 145.278 139.243 137.659Z" stroke="#0F0F0F" stroke-width="1.09028" stroke-linecap="round" stroke-linejoin="round"/>
<path d="M40.4089 142.469V152.574C35.1647 147.742 32.2209 142.275 32.2209 136.507V126.424C32.2209 132.192 35.1647 137.659 40.4089 142.469Z" fill="#222222" stroke="#0F0F0F" stroke-width="1.09028" stroke-linecap="round" stroke-linejoin="round"/>
<path d="M59.4236 153.8V163.884C56.0426 162.559 52.7632 160.995 49.6111 159.203C46.2809 157.341 43.1724 155.118 40.3438 152.574V142.49C45.0865 146.806 51.5954 150.658 59.4236 153.8Z" fill="#FA7CFF" stroke="#0F0F0F" stroke-width="1.09028" stroke-linecap="round" stroke-linejoin="round"/>
<path d="M193.528 126.424V136.507C193.419 141.063 191.734 145.446 188.753 148.926C186.742 151.407 184.411 153.617 181.818 155.501C167.645 166.026 142.1 173.053 112.902 173.053C100.338 173.134 87.8088 171.758 75.5707 168.953C70.0633 167.679 64.6647 165.985 59.4237 163.884V153.801C73.5973 159.504 92.3501 162.969 112.847 162.969C136.834 162.969 158.465 158.213 173.227 150.648C185.896 144.202 193.528 135.722 193.528 126.424Z" fill="#222222" stroke="#0F0F0F" stroke-width="1.09028" stroke-linecap="round" stroke-linejoin="round"/>
<path d="M40.4093 152.616V152.572" stroke="#0F0F0F" stroke-width="1.09028" stroke-linecap="round" stroke-linejoin="round"/>
<path d="M49.6873 149.465V159.204" stroke="#0F0F0F" stroke-width="1.09028" stroke-linecap="round" stroke-linejoin="round"/>
<path d="M59.4456 164.206V163.883" stroke="#0F0F0F" stroke-width="1.09028" stroke-linecap="round" stroke-linejoin="round"/>
<path d="M75.5708 159.203V169.222" stroke="#0F0F0F" stroke-width="1.09028" stroke-linecap="round" stroke-linejoin="round"/>
<path d="M90.5184 162.109V171.59" stroke="#0F0F0F" stroke-width="1.09028" stroke-linecap="round" stroke-linejoin="round"/>
<path d="M109.729 163.42V172.901" stroke="#0F0F0F" stroke-width="1.09028" stroke-linecap="round" stroke-linejoin="round"/>
<path d="M134.544 162.367V171.59" stroke="#0F0F0F" stroke-width="1.09028" stroke-linecap="round" stroke-linejoin="round"/>
<path d="M159.37 156.578V166.317" stroke="#0F0F0F" stroke-width="1.09028" stroke-linecap="round" stroke-linejoin="round"/>
<path d="M173.249 150.518V160.257" stroke="#0F0F0F" stroke-width="1.09028" stroke-linecap="round" stroke-linejoin="round"/>
<path d="M181.786 145.588V155.521" stroke="#0F0F0F" stroke-width="1.09028" stroke-linecap="round" stroke-linejoin="round"/>
<path d="M188.72 139.531V149.023" stroke="#0F0F0F" stroke-width="1.09028" stroke-linecap="round" stroke-linejoin="round"/>
<path d="M107.887 152.509C152.421 152.509 188.524 136.152 188.524 115.974C188.524 95.7967 152.421 79.4395 107.887 79.4395C63.3522 79.4395 27.2498 95.7967 27.2498 115.974C27.2498 136.152 63.3522 152.509 107.887 152.509Z" fill="#222222" stroke="#0F0F0F" stroke-width="1.09028" stroke-linecap="round" stroke-linejoin="round"/>
<path d="M141.707 82.8613L35.4375 132.019C40.1148 136.324 46.6238 140.187 54.4956 143.34L167.121 91.1906C159.033 87.3842 150.496 84.5863 141.707 82.8613Z" fill="#FA7CFF"/>
<path d="M107.887 152.509C152.421 152.509 188.524 136.152 188.524 115.974C188.524 95.7967 152.421 79.4395 107.887 79.4395C63.3522 79.4395 27.2498 95.7967 27.2498 115.974C27.2498 136.152 63.3522 152.509 107.887 152.509Z" stroke="#0F0F0F" stroke-width="1.09028" stroke-linecap="round" stroke-linejoin="round"/>
<path d="M107.886 147.507C146.315 147.507 177.468 133.39 177.468 115.976C177.468 98.5621 146.315 84.4453 107.886 84.4453C69.4576 84.4453 38.3048 98.5621 38.3048 115.976C38.3048 133.39 69.4576 147.507 107.886 147.507Z" fill="#222222" stroke="#0F0F0F" stroke-width="1.09028" stroke-linecap="round" stroke-linejoin="round"/>
<path d="M40.6053 117.298C40.6053 99.886 71.7546 85.767 110.187 85.767C131.807 85.767 151.116 90.233 163.872 97.2387C151.203 89.469 130.848 84.4219 107.886 84.4219C69.4541 84.4219 38.3048 98.5408 38.3048 115.953C38.3048 123.572 44.2686 130.567 54.2011 136.012C45.6642 130.803 40.6053 124.325 40.6053 117.298Z" fill="#0F0F0F" stroke="#0F0F0F" stroke-width="1.09028" stroke-linecap="round" stroke-linejoin="round"/>
<path d="M136.135 129.5L134.26 128.639C112.902 136.29 87.5526 130.673 81.3053 123.721H111.506V118.943H77.3149V114.068H111.452V109.247H80.9237C85.2848 105.642 91.2595 103.167 99.2731 101.811C110.897 99.6882 122.88 100.574 134.053 104.383L134.184 104.318L143.713 100.713L143.571 98.7871C143.571 98.7871 80.2586 94.8054 67.8076 107.848C66.6519 109.053 65.3654 109.419 62.5961 109.355C57.6898 109.247 52.7836 109.355 47.801 109.355V114.219H63.7845V119.061H47.7356V123.753C53.187 123.753 58.4967 123.753 63.7954 123.753C65.6816 123.753 66.6083 123.979 67.3606 124.83C76.5735 134.73 98.6952 140.046 121.875 137.894C129.316 137.323 136.628 135.643 143.56 132.911V131.48L134.293 127.251L136.135 129.5Z" fill="#0F0F0F" stroke="#0F0F0F" stroke-width="1.09028" stroke-linecap="round" stroke-linejoin="round"/>
<path d="M134.261 127.21L143.528 131.439C136.592 134.16 129.282 135.84 121.842 136.421C98.6956 138.574 76.5738 133.193 67.3283 123.357C66.576 122.539 65.6492 122.281 63.7631 122.281C58.4643 122.346 53.1546 122.281 47.7032 122.281V117.535H63.7849V112.682H47.8014V107.828C52.7621 107.828 57.6902 107.742 62.5965 107.828C65.3549 107.893 66.6523 107.516 67.808 106.322C80.259 93.3437 116.402 89.179 141.195 97.928C142.012 98.2078 142.776 98.5306 143.528 98.8212L134.01 102.975C122.854 99.1705 110.89 98.2844 99.2844 100.403C91.2708 101.748 85.2852 104.223 80.935 107.839H111.463V112.66H77.3152V117.514H111.506V122.281H81.3057C87.553 129.244 112.902 134.85 134.261 127.21Z" fill="#222222" stroke="#0F0F0F" stroke-width="1.09028" stroke-linecap="round" stroke-linejoin="round"/>
<path d="M77.3151 117.514V112.661H111.452V107.84H87.6073L56.0656 122.335C58.6495 122.335 61.2226 122.335 63.7956 122.335C65.6818 122.335 66.6086 122.572 67.3608 123.412C70.5663 126.844 75.309 129.718 81.1202 131.935L90.4312 127.565C86.2445 126.091 83.0391 124.272 81.3055 122.335H101.574L111.506 117.676V117.568L77.3151 117.514Z" fill="#FA7CFF"/>
<path d="M134.053 102.92L143.571 98.7661C142.819 98.4755 142.056 98.1527 141.238 97.8729C133.965 95.4392 126.391 93.9912 118.724 93.5684L105.51 99.6055C115.155 98.6385 124.898 99.7699 134.053 102.92Z" fill="#FA7CFF"/>
<path d="M134.261 127.21L143.528 131.439C136.592 134.16 129.282 135.84 121.842 136.421C98.6956 138.574 76.5738 133.193 67.3283 123.357C66.576 122.539 65.6492 122.281 63.7631 122.281C58.4643 122.346 53.1546 122.281 47.7032 122.281V117.535H63.7849V112.682H47.8014V107.828C52.7621 107.828 57.6902 107.742 62.5965 107.828C65.3549 107.893 66.6523 107.516 67.808 106.322C80.259 93.3437 116.402 89.179 141.195 97.928C142.012 98.2078 142.776 98.5306 143.528 98.8212L134.01 102.975C122.854 99.1705 110.89 98.2844 99.2844 100.403C91.2708 101.748 85.2852 104.223 80.935 107.839H111.463V112.66H77.3152V117.514H111.506V122.281H81.3057C87.553 129.244 112.902 134.85 134.261 127.21Z" stroke="#0F0F0F" stroke-width="1.09028" stroke-linecap="round" stroke-linejoin="round"/>
<path d="M35.4378 132.02V142.125C30.1935 137.293 27.2498 131.826 27.2498 126.058V115.975C27.2498 121.743 30.1935 127.199 35.4378 132.02Z" fill="#222222" stroke="#0F0F0F" stroke-width="1.09028" stroke-linecap="round" stroke-linejoin="round"/>
<path d="M54.4738 143.34V153.435C51.0938 152.108 47.8145 150.543 44.6613 148.753C41.3293 146.895 38.2205 144.671 35.3939 142.124V132.041C40.1148 136.356 46.6238 140.198 54.4738 143.34Z" fill="#FA7CFF" stroke="#0F0F0F" stroke-width="1.09028" stroke-linecap="round" stroke-linejoin="round"/>
<path d="M188.524 115.975V126.058C188.403 130.618 186.706 135 183.715 138.477C181.714 140.959 179.386 143.167 176.792 145.041C162.618 155.576 137.073 162.604 107.876 162.604C95.3216 162.663 82.8036 161.273 70.5771 158.46C65.0783 157.2 59.6871 155.52 54.4519 153.435V143.341C68.6255 149.055 87.3783 152.509 107.876 152.509C131.862 152.509 153.493 147.753 168.255 140.198C180.881 133.752 188.524 125.272 188.524 115.975Z" fill="#222222" stroke="#0F0F0F" stroke-width="1.09028" stroke-linecap="round" stroke-linejoin="round"/>
<path d="M35.4375 142.158V142.125" stroke="#0F0F0F" stroke-width="1.09028" stroke-linecap="round" stroke-linejoin="round"/>
<path d="M44.705 139.004V148.754" stroke="#0F0F0F" stroke-width="1.09028" stroke-linecap="round" stroke-linejoin="round"/>
<path d="M54.4738 153.758V153.436" stroke="#0F0F0F" stroke-width="1.09028" stroke-linecap="round" stroke-linejoin="round"/>
<path d="M70.599 148.754V158.762" stroke="#0F0F0F" stroke-width="1.09028" stroke-linecap="round" stroke-linejoin="round"/>
<path d="M85.5361 151.648V161.14" stroke="#0F0F0F" stroke-width="1.09028" stroke-linecap="round" stroke-linejoin="round"/>
<path d="M104.758 152.973V162.453" stroke="#0F0F0F" stroke-width="1.09028" stroke-linecap="round" stroke-linejoin="round"/>
<path d="M129.572 151.918V161.14" stroke="#0F0F0F" stroke-width="1.09028" stroke-linecap="round" stroke-linejoin="round"/>
<path d="M154.398 146.117V155.867" stroke="#0F0F0F" stroke-width="1.09028" stroke-linecap="round" stroke-linejoin="round"/>
<path d="M168.266 140.059V149.808" stroke="#0F0F0F" stroke-width="1.09028" stroke-linecap="round" stroke-linejoin="round"/>
<path d="M176.814 135.141V145.063" stroke="#0F0F0F" stroke-width="1.09028" stroke-linecap="round" stroke-linejoin="round"/>
<path d="M183.737 129.082V138.574" stroke="#0F0F0F" stroke-width="1.09028" stroke-linecap="round" stroke-linejoin="round"/>
<path d="M112.597 141.349C157.131 141.349 193.234 124.992 193.234 104.814C193.234 84.6365 157.131 68.2793 112.597 68.2793C68.062 68.2793 31.9596 84.6365 31.9596 104.814C31.9596 124.992 68.062 141.349 112.597 141.349Z" fill="#222222" stroke="#0F0F0F" stroke-width="1.09028" stroke-linecap="round" stroke-linejoin="round"/>
<path d="M146.428 71.6484L40.1473 120.86C44.8137 125.165 51.3227 129.028 59.1945 132.181L171.831 80.0315C163.748 76.2082 155.215 73.3922 146.428 71.6484Z" fill="#FA7CFF"/>
<path d="M112.597 141.349C157.131 141.349 193.234 124.992 193.234 104.814C193.234 84.6365 157.131 68.2793 112.597 68.2793C68.062 68.2793 31.9596 84.6365 31.9596 104.814C31.9596 124.992 68.062 141.349 112.597 141.349Z" stroke="#0F0F0F" stroke-width="1.09028" stroke-linecap="round" stroke-linejoin="round"/>
<path d="M112.597 136.345C151.026 136.345 182.178 122.228 182.178 104.814C182.178 87.4 151.026 73.2832 112.597 73.2832C74.1679 73.2832 43.0151 87.4 43.0151 104.814C43.0151 122.228 74.1679 136.345 112.597 136.345Z" fill="#222222" stroke="#0F0F0F" stroke-width="1.09028" stroke-linecap="round" stroke-linejoin="round"/>
<path d="M45.3154 106.159C45.3154 88.7473 76.4756 74.6284 114.897 74.6284C136.517 74.6284 155.826 79.0943 168.593 86.1C155.913 78.3303 135.558 73.2832 112.597 73.2832C74.1642 73.2832 43.0695 87.4021 43.0695 104.814C43.0695 112.433 48.9788 119.449 58.9112 124.83C50.3743 119.632 45.3154 113.165 45.3154 106.159Z" fill="#0F0F0F" stroke="#0F0F0F" stroke-width="1.09028" stroke-linecap="round" stroke-linejoin="round"/>
<path d="M140.846 118.376L138.982 117.526C117.612 125.167 92.263 119.56 86.0157 112.608H116.216V107.83H82.0253V102.934H116.118V98.1126H85.5905C89.9517 94.4968 95.9264 92.0325 103.94 90.6765C115.555 88.5324 127.535 89.4001 138.709 93.1947H138.84L148.38 89.5896L148.227 87.6526C148.227 87.6526 84.9691 83.6278 72.5072 96.6706C71.4169 97.8651 70.065 98.2418 67.2957 98.1772C62.3894 98.0696 57.4831 98.1772 52.5115 98.1772V103.031H68.4841V107.884H52.446V112.63C57.8974 112.63 63.2071 112.63 68.5059 112.63C70.392 112.63 71.3188 112.856 72.082 113.706C81.2948 123.606 103.406 128.912 126.596 126.77C134.039 126.187 141.353 124.508 148.292 121.788V120.356L139.025 116.116L140.846 118.376Z" fill="#0F0F0F" stroke="#0F0F0F" stroke-width="1.09028" stroke-linecap="round" stroke-linejoin="round"/>
<path d="M139.014 116.04L148.281 120.28C141.341 123 134.028 124.68 126.584 125.263C103.438 127.415 81.327 122.034 72.0705 112.187C71.3073 111.38 70.3806 111.111 68.4944 111.111C63.1956 111.176 57.886 111.111 52.4346 111.111V106.419H68.4835V101.566H52.5218V96.7126C57.4826 96.7126 62.3997 96.6265 67.306 96.7126C70.0753 96.7772 71.3727 96.4113 72.5175 95.206C84.9685 82.1633 121.111 77.9879 145.948 86.683C146.766 86.9736 147.529 87.2964 148.281 87.5762L138.763 91.7409C127.589 87.9463 115.609 87.0786 103.994 89.2227C95.9803 90.5679 89.9947 93.043 85.6445 96.6481H116.172V101.469H82.0248V106.333H116.216V111.101H86.0152C92.2625 118.074 117.611 123.691 139.014 116.04Z" fill="#222222" stroke="#0F0F0F" stroke-width="1.09028" stroke-linecap="round" stroke-linejoin="round"/>
<path d="M82.0254 106.353V101.489H116.118V96.668H92.3177L60.7759 111.174C63.3598 111.174 65.9329 111.174 68.506 111.174C70.3921 111.174 71.3189 111.411 72.0821 112.25C75.2766 115.683 80.0193 118.567 85.8305 120.773L95.1415 116.404C90.9657 114.941 87.7494 113.111 86.0158 111.185H106.306L116.238 106.525V106.418L82.0254 106.353Z" fill="#FA7CFF"/>
<path d="M138.763 91.7628L148.281 87.5981C147.529 87.3183 146.766 86.9955 145.948 86.7049C138.674 84.2764 131.101 82.8285 123.434 82.4004L110.22 88.4483C119.865 87.4813 129.608 88.6126 138.763 91.7628Z" fill="#FA7CFF"/>
<path d="M139.014 116.04L148.281 120.28C141.341 123 134.028 124.68 126.584 125.263C103.438 127.415 81.327 122.034 72.0705 112.187C71.3073 111.38 70.3806 111.111 68.4944 111.111C63.1956 111.176 57.886 111.111 52.4346 111.111V106.419H68.4835V101.566H52.5218V96.7126C57.4826 96.7126 62.3997 96.6265 67.306 96.7126C70.0753 96.7772 71.3727 96.4113 72.5175 95.206C84.9685 82.1633 121.111 77.9879 145.948 86.683C146.766 86.9736 147.529 87.2964 148.281 87.5762L138.763 91.7409C127.589 87.9463 115.609 87.0786 103.994 89.2227C95.9803 90.5679 89.9947 93.043 85.6445 96.6481H116.172V101.469H82.0248V106.333H116.216V111.101H86.0152C92.2625 118.074 117.611 123.691 139.014 116.04Z" stroke="#0F0F0F" stroke-width="1.09028" stroke-linecap="round" stroke-linejoin="round"/>
<path d="M40.1476 120.861V130.966C34.9033 126.123 31.9596 120.667 31.9596 114.899V104.805C31.9596 110.584 34.9033 116.04 40.1476 120.861Z" fill="#222222" stroke="#0F0F0F" stroke-width="1.09028" stroke-linecap="round" stroke-linejoin="round"/>
<path d="M59.1948 132.181V142.265C55.8133 140.945 52.5337 139.384 49.3822 137.594C46.052 135.733 42.9435 133.51 40.1149 130.965V120.871C44.8249 125.186 51.3338 129.028 59.1948 132.181Z" fill="#FA7CFF" stroke="#0F0F0F" stroke-width="1.09028" stroke-linecap="round" stroke-linejoin="round"/>
<path d="M193.234 104.805V114.899C193.121 119.454 191.437 123.836 188.458 127.317C186.444 129.792 184.113 131.999 181.524 133.882C167.351 144.407 141.816 151.434 112.608 151.434C100.053 151.498 87.5348 150.108 75.3091 147.291C69.8134 146.032 64.4256 144.351 59.1948 142.265V132.182C73.3685 137.896 92.1104 141.35 112.619 141.35C136.605 141.35 158.236 136.594 172.998 129.029C185.591 122.593 193.234 114.07 193.234 104.805Z" fill="#222222" stroke="#0F0F0F" stroke-width="1.09028" stroke-linecap="round" stroke-linejoin="round"/>
<path d="M40.1473 130.997V130.965" stroke="#0F0F0F" stroke-width="1.09028" stroke-linecap="round" stroke-linejoin="round"/>
<path d="M49.4259 127.846V137.595" stroke="#0F0F0F" stroke-width="1.09028" stroke-linecap="round" stroke-linejoin="round"/>
<path d="M59.1948 142.597V142.264" stroke="#0F0F0F" stroke-width="1.09028" stroke-linecap="round" stroke-linejoin="round"/>
<path d="M75.3088 137.594V147.602" stroke="#0F0F0F" stroke-width="1.09028" stroke-linecap="round" stroke-linejoin="round"/>
<path d="M90.2566 140.49V149.971" stroke="#0F0F0F" stroke-width="1.09028" stroke-linecap="round" stroke-linejoin="round"/>
<path d="M109.467 141.812V151.293" stroke="#0F0F0F" stroke-width="1.09028" stroke-linecap="round" stroke-linejoin="round"/>
<path d="M134.282 140.76V149.971" stroke="#0F0F0F" stroke-width="1.09028" stroke-linecap="round" stroke-linejoin="round"/>
<path d="M159.108 134.957V144.707" stroke="#0F0F0F" stroke-width="1.09028" stroke-linecap="round" stroke-linejoin="round"/>
<path d="M172.987 128.898V138.648" stroke="#0F0F0F" stroke-width="1.09028" stroke-linecap="round" stroke-linejoin="round"/>
<path d="M181.524 123.969V133.901" stroke="#0F0F0F" stroke-width="1.09028" stroke-linecap="round" stroke-linejoin="round"/>
<path d="M188.458 117.922V127.413" stroke="#0F0F0F" stroke-width="1.09028" stroke-linecap="round" stroke-linejoin="round"/>
<path d="M111.659 132.052C156.194 132.052 192.296 115.695 192.296 95.5173C192.296 75.3396 156.194 58.9824 111.659 58.9824C67.1245 58.9824 31.0221 75.3396 31.0221 95.5173C31.0221 115.695 67.1245 132.052 111.659 132.052Z" fill="#222222" stroke="#0F0F0F" stroke-width="1.09028" stroke-linecap="round" stroke-linejoin="round"/>
<path d="M145.48 62.3496L39.1992 111.561C43.8765 115.866 50.3855 119.718 58.2573 122.882L170.883 70.722C162.8 66.9011 154.267 64.0886 145.48 62.3496Z" fill="#FA7CFF"/>
<path d="M111.659 132.052C156.194 132.052 192.296 115.695 192.296 95.5173C192.296 75.3396 156.194 58.9824 111.659 58.9824C67.1245 58.9824 31.0221 75.3396 31.0221 95.5173C31.0221 115.695 67.1245 132.052 111.659 132.052Z" stroke="#0F0F0F" stroke-width="1.09028" stroke-linecap="round" stroke-linejoin="round"/>
<path d="M111.659 127.05C150.088 127.05 181.24 112.933 181.24 95.5191C181.24 78.1051 150.088 63.9883 111.659 63.9883C73.2299 63.9883 42.0771 78.1051 42.0771 95.5191C42.0771 112.933 73.2299 127.05 111.659 127.05Z" fill="#222222" stroke="#0F0F0F" stroke-width="1.09028" stroke-linecap="round" stroke-linejoin="round"/>
<path d="M44.3776 96.8535C44.3776 79.4416 75.5269 65.3227 113.937 65.3227C135.547 65.3227 154.866 69.7887 167.623 76.7943C154.954 69.0246 134.598 63.9883 111.637 63.9883C73.2046 63.9883 42.0553 78.1072 42.0553 95.5191C42.0553 103.138 48.0191 110.122 57.9407 115.578C49.4256 110.337 44.3776 103.87 44.3776 96.8535Z" fill="#0F0F0F" stroke="#0F0F0F" stroke-width="1.09028" stroke-linecap="round" stroke-linejoin="round"/>
<path d="M139.908 109.033L138.033 108.183C116.675 115.824 91.3255 110.206 85.0782 103.255H115.279V98.4873H81.0878V93.6232H115.224V88.8021H84.6966C89.0578 85.197 95.0216 82.7219 103.035 81.3768C114.661 79.2447 126.649 80.1272 137.826 83.938H137.957L147.486 80.3329L147.333 78.3959C147.333 78.3959 84.0316 74.4142 71.5697 87.4677C70.4794 88.6622 69.1275 89.0281 66.3581 88.9743C61.4628 88.8559 56.5456 88.9743 51.574 88.9743V93.8277H67.5466V98.681H51.5085V103.308C56.9599 103.308 62.2587 103.308 67.5684 103.308C69.4545 103.308 70.3813 103.545 71.1336 104.385C80.3464 114.274 102.468 119.59 125.648 117.449C133.088 116.866 140.397 115.186 147.333 112.466V111.024L138.066 106.795L139.908 109.033Z" fill="#0F0F0F" stroke="#0F0F0F" stroke-width="1.09028" stroke-linecap="round" stroke-linejoin="round"/>
<path d="M138.033 106.74L147.3 110.969C140.366 113.695 133.055 115.374 125.614 115.952C102.468 118.104 80.3461 112.788 71.1005 102.888C70.3482 102.07 69.4215 101.812 67.5353 101.812C62.2256 101.812 56.9269 101.812 51.4755 101.812V97.1088H67.5462V92.2662H51.5736V87.4021C56.5344 87.4021 61.4624 87.3268 66.3578 87.4021C69.1271 87.4667 70.4245 87.1008 71.5693 85.8955C84.0312 72.8527 120.174 68.6773 145.011 77.3725C145.828 77.6631 146.591 77.9751 147.333 78.2657L137.826 82.4303C126.642 78.6464 114.656 77.7863 103.035 79.9337C95.0212 81.2896 89.0465 83.754 84.6963 87.3698H115.224V92.1909H81.0875V97.0443H115.279V101.822H85.0779C91.3252 108.774 116.674 114.392 138.033 106.74Z" fill="#222222" stroke="#0F0F0F" stroke-width="1.09028" stroke-linecap="round" stroke-linejoin="round"/>
<path d="M81.0877 97.0456V92.1922H115.224V87.3711H91.3799L59.8273 101.877C62.4221 101.877 64.9952 101.877 67.5683 101.877C69.4544 101.877 70.3812 102.103 71.1335 102.954C74.328 106.386 79.0816 109.27 84.8819 111.477L94.2038 107.107C90.0171 105.644 86.8117 103.814 85.0781 101.888H105.336L115.279 97.2285V97.1101L81.0877 97.0456Z" fill="#FA7CFF"/>
<path d="M137.826 82.4639L147.333 78.2993C146.592 78.0087 145.829 77.6967 145.011 77.4061C137.737 74.9745 130.164 73.5265 122.497 73.1016L109.271 79.1387C118.921 78.1788 128.667 79.3137 137.826 82.4639Z" fill="#FA7CFF"/>
<path d="M138.033 106.74L147.3 110.969C140.366 113.695 133.055 115.374 125.614 115.952C102.468 118.104 80.3461 112.788 71.1005 102.888C70.3482 102.07 69.4215 101.812 67.5353 101.812C62.2256 101.812 56.9269 101.812 51.4755 101.812V97.1088H67.5462V92.2662H51.5736V87.4021C56.5344 87.4021 61.4624 87.3268 66.3578 87.4021C69.1271 87.4667 70.4245 87.1008 71.5693 85.8955C84.0312 72.8527 120.174 68.6773 145.011 77.3725C145.828 77.6631 146.591 77.9751 147.333 78.2657L137.826 82.4303C126.642 78.6464 114.656 77.7863 103.035 79.9337C95.0212 81.2896 89.0465 83.754 84.6963 87.3698H115.224V92.1909H81.0875V97.0443H115.279V101.822H85.0779C91.3252 108.774 116.674 114.392 138.033 106.74Z" stroke="#0F0F0F" stroke-width="1.09028" stroke-linecap="round" stroke-linejoin="round"/>
<path d="M39.199 111.551V121.656C33.9547 116.824 31.011 111.357 31.011 105.589V95.5059C31.011 101.274 33.9547 106.741 39.199 111.551Z" fill="#222222" stroke="#0F0F0F" stroke-width="1.09028" stroke-linecap="round" stroke-linejoin="round"/>
<path d="M58.2463 122.882V132.966C54.8633 131.646 51.5836 130.081 48.4338 128.285C45.0985 126.426 41.9861 124.202 39.1555 121.656V111.572C43.8873 115.888 50.3854 119.729 58.2463 122.882Z" fill="#FA7CFF" stroke="#0F0F0F" stroke-width="1.09028" stroke-linecap="round" stroke-linejoin="round"/>
<path d="M192.296 95.5059V105.589C192.183 110.147 190.494 114.529 187.51 118.008C185.5 120.486 183.173 122.696 180.586 124.583C166.413 135.108 140.867 142.135 111.659 142.135C99.1082 142.2 86.5933 140.809 74.3713 137.992C68.8716 136.734 63.4801 135.054 58.2461 132.966V122.883C72.4197 128.597 91.1725 132.051 111.67 132.051C135.656 132.051 157.287 127.295 172.06 119.73C184.642 113.294 192.296 104.814 192.296 95.5059Z" fill="#222222" stroke="#0F0F0F" stroke-width="1.09028" stroke-linecap="round" stroke-linejoin="round"/>
<path d="M39.1992 121.702V121.658" stroke="#0F0F0F" stroke-width="1.09028" stroke-linecap="round" stroke-linejoin="round"/>
<path d="M48.4773 118.547V128.297" stroke="#0F0F0F" stroke-width="1.09028" stroke-linecap="round" stroke-linejoin="round"/>
<path d="M58.2461 133.29V132.967" stroke="#0F0F0F" stroke-width="1.09028" stroke-linecap="round" stroke-linejoin="round"/>
<path d="M74.3607 128.297V138.305" stroke="#0F0F0F" stroke-width="1.09028" stroke-linecap="round" stroke-linejoin="round"/>
<path d="M89.3083 131.191V140.672" stroke="#0F0F0F" stroke-width="1.09028" stroke-linecap="round" stroke-linejoin="round"/>
<path d="M108.53 132.506V141.987" stroke="#0F0F0F" stroke-width="1.09028" stroke-linecap="round" stroke-linejoin="round"/>
<path d="M133.344 131.449V140.672" stroke="#0F0F0F" stroke-width="1.09028" stroke-linecap="round" stroke-linejoin="round"/>
<path d="M158.159 125.66V135.399" stroke="#0F0F0F" stroke-width="1.09028" stroke-linecap="round" stroke-linejoin="round"/>
<path d="M172.039 119.602V129.341" stroke="#0F0F0F" stroke-width="1.09028" stroke-linecap="round" stroke-linejoin="round"/>
<path d="M180.576 114.674V124.607" stroke="#0F0F0F" stroke-width="1.09028" stroke-linecap="round" stroke-linejoin="round"/>
<path d="M187.51 108.613V118.116" stroke="#0F0F0F" stroke-width="1.09028" stroke-linecap="round" stroke-linejoin="round"/>
<path d="M111.659 125.788C156.194 125.788 192.296 109.431 192.296 89.2536C192.296 69.076 156.194 52.7188 111.659 52.7188C67.1245 52.7188 31.0221 69.076 31.0221 89.2536C31.0221 109.431 67.1245 125.788 111.659 125.788Z" fill="#222222" stroke="#0F0F0F" stroke-width="1.09028" stroke-linecap="round" stroke-linejoin="round"/>
<path d="M145.48 56.0859L39.1992 105.298C43.8765 109.602 50.3855 113.466 58.2573 116.619L170.883 64.469C162.801 60.6444 154.267 57.8284 145.48 56.0859Z" fill="#FA7CFF"/>
<path d="M111.659 125.788C156.194 125.788 192.296 109.431 192.296 89.2536C192.296 69.076 156.194 52.7188 111.659 52.7188C67.1245 52.7188 31.0221 69.076 31.0221 89.2536C31.0221 109.431 67.1245 125.788 111.659 125.788Z" stroke="#0F0F0F" stroke-width="1.09028" stroke-linecap="round" stroke-linejoin="round"/>
<path d="M111.659 120.786C150.088 120.786 181.24 106.669 181.24 89.2554C181.24 71.8414 150.088 57.7246 111.659 57.7246C73.2299 57.7246 42.0771 71.8414 42.0771 89.2554C42.0771 106.669 73.2299 120.786 111.659 120.786Z" fill="#222222" stroke="#0F0F0F" stroke-width="1.09028" stroke-linecap="round" stroke-linejoin="round"/>
<path d="M44.3776 90.6006C44.3776 73.1779 75.5269 59.0698 113.937 59.0698C135.547 59.0698 154.867 63.5358 167.623 70.5414C154.976 62.7717 134.653 57.7246 111.659 57.7246C73.2264 57.7246 42.0771 71.8435 42.0771 89.2554C42.0771 96.8745 48.041 103.869 57.9625 109.315C49.4256 104.085 44.3776 97.6062 44.3776 90.6006Z" fill="#0F0F0F" stroke="#0F0F0F" stroke-width="1.09028" stroke-linecap="round" stroke-linejoin="round"/>
<path d="M139.908 102.769L138.033 101.919C116.675 109.559 91.3255 103.953 85.0782 97.0009H115.279V92.2228H81.0878V87.3694H115.224V82.5484H84.6966C89.0578 78.9325 95.0216 76.4682 103.035 75.1123C115.846 72.96 127.621 74.0361 137.815 77.6304H137.946L147.475 74.0254L147.322 72.0883C147.322 72.0883 84.0207 68.1174 71.5588 81.1601C70.4685 82.3654 69.1166 82.7313 66.3472 82.6667C61.4519 82.5591 56.5347 82.6667 51.5631 82.6667V87.5201H67.5466V92.3735H51.5085V97.1192C56.9599 97.1192 62.2587 97.1192 67.5684 97.1192C69.4545 97.1192 70.3813 97.3452 71.1336 98.1954C80.3464 108.096 102.468 113.401 125.648 111.26C133.088 110.677 140.397 108.997 147.333 106.277V104.717L138.066 100.488L139.908 102.769Z" fill="#0F0F0F" stroke="#0F0F0F" stroke-width="1.09028" stroke-linecap="round" stroke-linejoin="round"/>
<path d="M138.033 100.488L147.3 104.717C140.364 107.437 133.054 109.117 125.614 109.7C102.468 111.852 80.3461 106.471 71.1005 96.6354C70.3482 95.8175 69.4215 95.5593 67.5353 95.5593C62.2256 95.6238 56.9269 95.5593 51.4755 95.5593V90.8565H67.5462V86.0032H51.5736V81.1498C56.5344 81.1498 61.4624 81.0637 66.3578 81.1498C69.1271 81.1498 70.4245 80.8377 71.5693 79.6432C84.0312 66.5897 120.174 62.425 145.011 71.1094C145.828 71.4 146.591 71.7228 147.333 72.0026L137.826 76.1673C126.642 72.3816 114.654 71.5251 103.035 73.6814C95.0212 75.0266 89.0465 77.5017 84.6963 81.1067H115.224V85.9278H81.0875V90.792H115.279V95.5593H85.0779C91.3252 102.511 116.674 108.129 138.033 100.488Z" fill="#222222" stroke="#0F0F0F" stroke-width="1.09028" stroke-linecap="round" stroke-linejoin="round"/>
<path d="M81.0877 90.7927V85.9285H115.224V81.1074H91.3799L59.8273 95.6137C62.4221 95.6137 64.9952 95.6137 67.5683 95.6137C69.4544 95.6137 70.3812 95.8505 71.1335 96.6899C74.328 100.08 79.0489 102.942 84.8819 105.148L94.2038 100.844C90.0171 99.3695 86.8117 97.54 85.0781 95.6137H105.336L115.279 90.9541V90.8465L81.0877 90.7927Z" fill="#FA7CFF"/>
<path d="M137.826 76.2003L147.333 72.0356C146.592 71.7558 145.829 71.433 145.011 71.1424C137.736 68.7159 130.163 67.2681 122.497 66.8379L109.271 72.8858C118.921 71.9182 128.667 73.0496 137.826 76.2003Z" fill="#FA7CFF"/>
<path d="M138.033 100.488L147.3 104.717C140.364 107.437 133.054 109.117 125.614 109.7C102.468 111.852 80.3461 106.471 71.1005 96.6354C70.3482 95.8175 69.4215 95.5593 67.5353 95.5593C62.2256 95.6238 56.9269 95.5593 51.4755 95.5593V90.8565H67.5462V86.0032H51.5736V81.1498C56.5344 81.1498 61.4624 81.0637 66.3578 81.1498C69.1271 81.1498 70.4245 80.8377 71.5693 79.6432C84.0312 66.5897 120.174 62.425 145.011 71.1094C145.828 71.4 146.591 71.7228 147.333 72.0026L137.826 76.1673C126.642 72.3816 114.654 71.5251 103.035 73.6814C95.0212 75.0266 89.0465 77.5017 84.6963 81.1067H115.224V85.9278H81.0875V90.792H115.279V95.5593H85.0779C91.3252 102.511 116.674 108.129 138.033 100.488Z" stroke="#0F0F0F" stroke-width="1.09028" stroke-linecap="round" stroke-linejoin="round"/>
<path d="M39.199 105.299V115.404C33.9547 110.572 31.011 105.105 31.011 99.3373V89.2539C31.011 95.022 33.9547 100.478 39.199 105.299Z" fill="#222222" stroke="#0F0F0F" stroke-width="1.09028" stroke-linecap="round" stroke-linejoin="round"/>
<path d="M58.2463 116.619V126.713C54.8653 125.388 51.5859 123.824 48.4338 122.032C45.0985 120.173 41.9861 117.95 39.1555 115.403V105.309C43.8873 109.635 50.3854 113.466 58.2463 116.619Z" fill="#FA7CFF" stroke="#0F0F0F" stroke-width="1.09028" stroke-linecap="round" stroke-linejoin="round"/>
<path d="M192.296 89.2539V99.3373C192.18 103.894 190.491 108.275 187.51 111.756C185.5 114.231 183.173 116.438 180.586 118.32C166.413 128.845 140.867 135.883 111.659 135.883C99.1078 135.944 86.5928 134.55 74.3713 131.729C68.8733 130.47 63.4822 128.794 58.2461 126.714V116.62C72.4197 122.334 91.1725 125.789 111.67 125.789C135.656 125.789 157.287 121.032 172.06 113.467C184.642 107.032 192.296 98.5517 192.296 89.2539Z" fill="#222222" stroke="#0F0F0F" stroke-width="1.09028" stroke-linecap="round" stroke-linejoin="round"/>
<path d="M39.1992 115.437V115.404" stroke="#0F0F0F" stroke-width="1.09028" stroke-linecap="round" stroke-linejoin="round"/>
<path d="M48.4773 112.283V122.033" stroke="#0F0F0F" stroke-width="1.09028" stroke-linecap="round" stroke-linejoin="round"/>
<path d="M58.2461 127.038V126.715" stroke="#0F0F0F" stroke-width="1.09028" stroke-linecap="round" stroke-linejoin="round"/>
<path d="M74.3607 122.033V132.041" stroke="#0F0F0F" stroke-width="1.09028" stroke-linecap="round" stroke-linejoin="round"/>
<path d="M89.3083 124.928V134.409" stroke="#0F0F0F" stroke-width="1.09028" stroke-linecap="round" stroke-linejoin="round"/>
<path d="M108.53 126.252V135.733" stroke="#0F0F0F" stroke-width="1.09028" stroke-linecap="round" stroke-linejoin="round"/>
<path d="M133.344 125.197V134.409" stroke="#0F0F0F" stroke-width="1.09028" stroke-linecap="round" stroke-linejoin="round"/>
<path d="M158.159 119.396V129.146" stroke="#0F0F0F" stroke-width="1.09028" stroke-linecap="round" stroke-linejoin="round"/>
<path d="M172.039 113.338V123.088" stroke="#0F0F0F" stroke-width="1.09028" stroke-linecap="round" stroke-linejoin="round"/>
<path d="M180.576 108.42V118.342" stroke="#0F0F0F" stroke-width="1.09028" stroke-linecap="round" stroke-linejoin="round"/>
<path d="M187.51 102.361V111.853" stroke="#0F0F0F" stroke-width="1.09028" stroke-linecap="round" stroke-linejoin="round"/>
<path d="M106 116.492C150.535 116.492 186.637 100.134 186.637 79.9567C186.637 59.7791 150.535 43.4219 106 43.4219C61.4656 43.4219 25.3632 59.7791 25.3632 79.9567C25.3632 100.134 61.4656 116.492 106 116.492Z" fill="#222222" stroke="#0F0F0F" stroke-width="1.09028" stroke-linecap="round" stroke-linejoin="round"/>
<path d="M139.821 46.791L33.5402 96.0027C38.2175 100.307 44.7264 104.16 52.5982 107.324L165.235 55.1741C157.149 51.3492 148.612 48.5331 139.821 46.791Z" fill="#FA7CFF"/>
<path d="M106 116.492C150.535 116.492 186.637 100.134 186.637 79.9567C186.637 59.7791 150.535 43.4219 106 43.4219C61.4656 43.4219 25.3632 59.7791 25.3632 79.9567C25.3632 100.134 61.4656 116.492 106 116.492Z" stroke="#0F0F0F" stroke-width="1.09028" stroke-linecap="round" stroke-linejoin="round"/>
<path d="M106 111.487C144.429 111.487 175.582 97.3706 175.582 79.9566C175.582 62.5426 144.429 48.4258 106 48.4258C67.5715 48.4258 36.4187 62.5426 36.4187 79.9566C36.4187 97.3706 67.5715 111.487 106 111.487Z" fill="#222222" stroke="#0F0F0F" stroke-width="1.09028" stroke-linecap="round" stroke-linejoin="round"/>
<path d="M38.7083 81.291C38.7083 63.8791 69.8576 49.7602 108.29 49.7602C129.91 49.7602 149.219 54.2262 161.986 61.2318C149.317 53.4621 128.962 48.4258 106 48.4258C67.568 48.4258 36.4187 62.5447 36.4187 79.9566C36.4187 87.5756 42.3825 94.5598 52.315 100.016C43.7781 94.775 38.7083 88.3074 38.7083 81.291Z" fill="#0F0F0F" stroke="#0F0F0F" stroke-width="1.09028" stroke-linecap="round" stroke-linejoin="round"/>
<path d="M134.249 93.4729L132.385 92.6227C111.015 100.263 85.6665 94.6459 79.4192 87.694H109.576V82.9267H75.4288V78.0734H109.576V73.2415H79.0485C83.4096 69.6364 89.3843 67.1613 97.3979 65.8162C109.013 63.672 120.993 64.5397 132.167 68.3343H132.298L141.838 64.7293L141.685 62.7922C141.685 62.7922 78.3725 58.7567 65.9651 71.8102C64.8094 73.0048 63.5229 73.3706 60.7536 73.3168C55.8473 73.1985 50.9411 73.3168 45.9694 73.3168V78.1702H61.8875V83.0236H45.8495V87.7693C51.3009 87.7693 56.6105 87.7693 61.9093 87.7693C63.7955 87.7693 64.7222 88.0061 65.4854 88.8455C74.6983 98.7352 96.8091 104.051 119.999 101.91C127.429 101.3 134.724 99.5949 141.641 96.8519V95.4099L132.385 91.1807L134.249 93.4729Z" fill="#0F0F0F" stroke="#0F0F0F" stroke-width="1.09028" stroke-linecap="round" stroke-linejoin="round"/>
<path d="M132.385 91.1797L141.642 95.4089C134.709 98.1403 127.398 99.8202 119.956 100.391C96.8093 102.544 74.6984 97.2276 65.442 87.3272C64.6788 86.5093 63.752 86.251 61.8658 86.251C56.5671 86.251 51.2574 86.251 45.806 86.251V81.5483H61.8876V76.7057H45.926V71.8415C50.8867 71.8415 55.8039 71.7662 60.7101 71.8415C63.4795 71.9061 64.766 71.5402 65.9217 70.335C78.3727 57.2922 114.515 53.1168 139.352 61.812C140.17 62.1025 140.933 62.4146 141.685 62.7051L132.167 66.8698C120.993 63.0769 109.014 62.2056 97.398 64.3409C89.3845 65.7291 83.4098 68.1934 79.0486 71.8093H109.576V76.6304H75.4289V81.4837H109.576V86.2618H79.4193C85.6666 93.2136 111.016 98.8311 132.385 91.1797Z" fill="#222222" stroke="#0F0F0F" stroke-width="1.09028" stroke-linecap="round" stroke-linejoin="round"/>
<path d="M75.4289 81.485V76.6316H109.576V71.8105H85.7211L54.1793 86.3169C56.7669 86.3169 59.3436 86.3169 61.9094 86.3169C63.7956 86.3169 64.7223 86.5429 65.4855 87.393C68.68 90.8259 73.4227 93.7099 79.2339 95.916L88.5449 91.4716C84.3583 90.008 81.1528 88.1786 79.4193 86.2523H99.6876L109.576 81.6034V81.485H75.4289Z" fill="#FA7CFF"/>
<path d="M132.167 66.9034L141.685 62.7388C140.933 62.4482 140.17 62.1361 139.352 61.8456C132.078 59.417 124.505 57.9691 116.838 57.541L103.624 63.5781C113.27 62.6198 123.012 63.7548 132.167 66.9034Z" fill="#FA7CFF"/>
<path d="M132.385 91.1797L141.642 95.4089C134.709 98.1403 127.398 99.8202 119.956 100.391C96.8093 102.544 74.6984 97.2276 65.442 87.3272C64.6788 86.5093 63.752 86.251 61.8658 86.251C56.5671 86.251 51.2574 86.251 45.806 86.251V81.5483H61.8876V76.7057H45.926V71.8415C50.8867 71.8415 55.8039 71.7662 60.7101 71.8415C63.4795 71.9061 64.766 71.5402 65.9217 70.335C78.3727 57.2922 114.515 53.1168 139.352 61.812C140.17 62.1025 140.933 62.4146 141.685 62.7051L132.167 66.8698C120.993 63.0769 109.014 62.2056 97.398 64.3409C89.3845 65.7291 83.4098 68.1934 79.0486 71.8093H109.576V76.6304H75.4289V81.4837H109.576V86.2618H79.4193C85.6666 93.2136 111.016 98.8311 132.385 91.1797Z" stroke="#0F0F0F" stroke-width="1.09028" stroke-linecap="round" stroke-linejoin="round"/>
<path d="M33.5512 95.9905V106.095C28.3069 101.264 25.3632 95.7753 25.3632 90.0287V79.9453C25.3632 85.7134 28.3069 91.1802 33.5512 95.9905Z" fill="#222222" stroke="#0F0F0F" stroke-width="1.09028" stroke-linecap="round" stroke-linejoin="round"/>
<path d="M52.5876 107.324V117.407C49.2065 116.083 45.9271 114.518 42.7751 112.726C39.4448 110.865 36.3363 108.641 33.5077 106.097V96.0137C38.2286 100.329 44.7376 104.171 52.5876 107.324Z" fill="#FA7CFF" stroke="#0F0F0F" stroke-width="1.09028" stroke-linecap="round" stroke-linejoin="round"/>
<path d="M186.637 79.9453V90.0287C186.53 94.5871 184.84 98.9709 181.851 102.447C179.847 104.931 177.519 107.142 174.928 109.023C160.754 119.547 135.209 126.574 106.011 126.574C93.4571 126.639 80.9386 125.248 68.7129 122.431C63.2141 121.171 57.8228 119.49 52.5876 117.406V107.322C66.8158 113.037 85.5141 116.491 106.011 116.491C129.997 116.491 151.629 111.734 166.391 104.169C178.995 97.7339 186.637 89.2539 186.637 79.9453Z" fill="#222222" stroke="#0F0F0F" stroke-width="1.09028" stroke-linecap="round" stroke-linejoin="round"/>
<path d="M33.5514 106.139V106.096" stroke="#0F0F0F" stroke-width="1.09028" stroke-linecap="round" stroke-linejoin="round"/>
<path d="M42.8187 102.984V112.734" stroke="#0F0F0F" stroke-width="1.09028" stroke-linecap="round" stroke-linejoin="round"/>
<path d="M52.5876 117.729V117.406" stroke="#0F0F0F" stroke-width="1.09028" stroke-linecap="round" stroke-linejoin="round"/>
<path d="M68.7129 112.734V122.742" stroke="#0F0F0F" stroke-width="1.09028" stroke-linecap="round" stroke-linejoin="round"/>
<path d="M83.6605 115.629V125.11" stroke="#0F0F0F" stroke-width="1.09028" stroke-linecap="round" stroke-linejoin="round"/>
<path d="M102.871 116.943V126.424" stroke="#0F0F0F" stroke-width="1.09028" stroke-linecap="round" stroke-linejoin="round"/>
<path d="M127.686 115.889V125.111" stroke="#0F0F0F" stroke-width="1.09028" stroke-linecap="round" stroke-linejoin="round"/>
<path d="M152.512 110.1V119.839" stroke="#0F0F0F" stroke-width="1.09028" stroke-linecap="round" stroke-linejoin="round"/>
<path d="M166.38 104.039V113.789" stroke="#0F0F0F" stroke-width="1.09028" stroke-linecap="round" stroke-linejoin="round"/>
<path d="M174.928 99.1113V109.044" stroke="#0F0F0F" stroke-width="1.09028" stroke-linecap="round" stroke-linejoin="round"/>
<path d="M181.862 93.0527V102.555" stroke="#0F0F0F" stroke-width="1.09028" stroke-linecap="round" stroke-linejoin="round"/>
<path d="M101.497 105.245C146.032 105.245 182.134 88.8882 182.134 68.7106C182.134 48.533 146.032 32.1758 101.497 32.1758C56.9628 32.1758 20.8604 48.533 20.8604 68.7106C20.8604 88.8882 56.9628 105.245 101.497 105.245Z" fill="#222222" stroke="#0F0F0F" stroke-width="1.09028" stroke-linecap="round" stroke-linejoin="round"/>
<path d="M135.329 35.5117L29.0487 84.7557C33.7151 89.0603 40.2241 92.9236 48.1068 96.0767L160.733 43.9271C152.651 40.0926 144.118 37.2658 135.329 35.5117Z" fill="#FA7CFF"/>
<path d="M101.497 105.245C146.032 105.245 182.134 88.8882 182.134 68.7106C182.134 48.533 146.032 32.1758 101.497 32.1758C56.9628 32.1758 20.8604 48.533 20.8604 68.7106C20.8604 88.8882 56.9628 105.245 101.497 105.245Z" stroke="#0F0F0F" stroke-width="1.09028" stroke-linecap="round" stroke-linejoin="round"/>
<path d="M101.498 100.241C139.926 100.241 171.079 86.1245 171.079 68.7105C171.079 51.2965 139.926 37.1797 101.498 37.1797C63.0688 37.1797 31.916 51.2965 31.916 68.7105C31.916 86.1245 63.0688 100.241 101.498 100.241Z" fill="#222222" stroke="#0F0F0F" stroke-width="1.09028" stroke-linecap="round" stroke-linejoin="round"/>
<path d="M34.2165 70.0449C34.2165 52.633 65.3767 38.5249 103.798 38.5249C125.418 38.5249 144.727 42.9801 157.494 49.9857C144.814 42.216 124.459 37.1797 101.498 37.1797C63.0762 37.1797 31.916 51.2986 31.916 68.7105C31.916 76.3295 37.8798 83.3137 47.8123 88.7697C39.2754 83.5289 34.2165 77.0613 34.2165 70.0449Z" fill="#0F0F0F" stroke="#0F0F0F" stroke-width="1.09028" stroke-linecap="round" stroke-linejoin="round"/>
<path d="M129.758 82.2269L127.882 81.3768C106.524 89.0173 81.1638 83.4107 74.9274 76.405H105.117V71.6808H70.9261V66.8274H105.063V61.9955H74.5349C78.896 58.3905 84.8708 55.9154 92.8843 54.5702C104.499 52.4256 116.48 53.2933 127.653 57.0884H127.784L137.324 53.4833L137.171 51.5463C137.171 51.5463 73.8698 47.5646 61.4079 60.6181C60.3177 61.8126 58.9657 62.1785 56.1964 62.1247C51.2902 62.0063 46.3839 62.1247 41.4122 62.1247V66.9781H57.3848V71.8314H41.3468V76.5772C46.7982 76.5772 52.1079 76.5772 57.4066 76.5772C59.3037 76.5772 60.2195 76.8139 60.9827 77.6533C70.1956 87.543 92.3065 92.8591 115.497 90.7176C122.94 90.1346 130.253 88.4552 137.193 85.7351V84.164L127.926 79.9347L129.758 82.2269Z" fill="#0F0F0F" stroke="#0F0F0F" stroke-width="1.09028" stroke-linecap="round" stroke-linejoin="round"/>
<path d="M127.882 79.9356L137.149 84.1648C130.213 86.8947 122.898 88.5745 115.453 89.1473C92.3062 91.2996 70.1954 85.9835 60.9389 76.083C60.1757 75.2651 59.2599 75.0069 57.3628 75.0069C52.064 75.0069 46.7653 75.0069 41.303 75.0069V70.3042H57.3846V65.4615H41.4229V60.5974C46.3837 60.5974 51.3008 60.5221 56.2071 60.5974C58.9764 60.662 60.2738 60.2961 61.4186 59.0908C73.8805 46.048 110.023 41.8726 134.849 50.5678C135.667 50.8584 136.43 51.1704 137.182 51.461L127.664 55.6256C116.487 51.8431 104.509 50.9829 92.895 53.129C84.8814 54.4849 78.8958 56.9601 74.5456 60.5651H105.073V65.3862H70.9259V70.2396H105.117V75.0176H74.9272C81.1636 81.9695 106.523 87.5869 127.882 79.9356Z" fill="#222222" stroke="#0F0F0F" stroke-width="1.09028" stroke-linecap="round" stroke-linejoin="round"/>
<path d="M70.9262 70.2389V65.3855H105.063V60.5645H81.2293L49.6766 75.0708C52.257 75.0708 54.8337 75.0708 57.4067 75.0708C59.3038 75.0708 60.2196 75.2968 60.9828 76.1469C64.1773 79.5798 68.931 82.4638 74.7313 84.6699L84.0422 80.3008C79.8665 78.8373 76.6501 77.0078 74.9275 75.0815H95.1849L105.117 70.4219V70.3035L70.9262 70.2389Z" fill="#FA7CFF"/>
<path d="M127.664 55.6573L137.183 51.4927C136.43 51.2021 135.667 50.89 134.849 50.5995C127.579 48.172 120.009 46.7241 112.346 46.2949L99.121 52.332C108.767 51.3737 118.509 52.5087 127.664 55.6573Z" fill="#FA7CFF"/>
<path d="M127.882 79.9356L137.149 84.1648C130.213 86.8947 122.898 88.5745 115.453 89.1473C92.3062 91.2996 70.1954 85.9835 60.9389 76.083C60.1757 75.2651 59.2599 75.0069 57.3628 75.0069C52.064 75.0069 46.7653 75.0069 41.303 75.0069V70.3042H57.3846V65.4615H41.4229V60.5974C46.3837 60.5974 51.3008 60.5221 56.2071 60.5974C58.9764 60.662 60.2738 60.2961 61.4186 59.0908C73.8805 46.048 110.023 41.8726 134.849 50.5678C135.667 50.8584 136.43 51.1704 137.182 51.461L127.664 55.6256C116.487 51.8431 104.509 50.9829 92.895 53.129C84.8814 54.4849 78.8958 56.9601 74.5456 60.5651H105.073V65.3862H70.9259V70.2396H105.117V75.0176H74.9272C81.1636 81.9695 106.523 87.5869 127.882 79.9356Z" stroke="#0F0F0F" stroke-width="1.09028" stroke-linecap="round" stroke-linejoin="round"/>
<path d="M29.0483 84.7444V94.8493C23.8041 90.0175 20.8604 84.5615 20.8604 78.7826V68.6992C20.8604 74.4673 23.8041 79.9341 29.0483 84.7444Z" fill="#222222" stroke="#0F0F0F" stroke-width="1.09028" stroke-linecap="round" stroke-linejoin="round"/>
<path d="M48.0955 96.0758V106.159C44.7137 104.836 41.4342 103.272 38.283 101.478C34.9528 99.6169 31.8443 97.3933 29.0156 94.849V84.7656C33.7365 89.0809 40.2346 92.9227 48.0955 96.0758Z" fill="#FA7CFF" stroke="#0F0F0F" stroke-width="1.09028" stroke-linecap="round" stroke-linejoin="round"/>
<path d="M182.135 68.6992V78.7826C182.026 83.3388 180.34 87.7211 177.359 91.2012C175.348 93.6823 173.017 95.8928 170.425 97.7764C156.251 108.301 130.717 115.328 101.508 115.328C88.9541 115.393 76.4356 114.002 64.2099 111.185C58.7142 109.926 53.3264 108.246 48.0956 106.16V96.0761C62.2692 101.79 81.0111 105.245 101.519 105.245C125.56 105.245 147.137 100.488 161.899 92.9231C174.492 86.4878 182.135 78.0078 182.135 68.6992Z" fill="#222222" stroke="#0F0F0F" stroke-width="1.09028" stroke-linecap="round" stroke-linejoin="round"/>
<path d="M29.0487 94.8949V94.8516" stroke="#0F0F0F" stroke-width="1.09028" stroke-linecap="round" stroke-linejoin="round"/>
<path d="M38.3267 91.7402V101.49" stroke="#0F0F0F" stroke-width="1.09028" stroke-linecap="round" stroke-linejoin="round"/>
<path d="M48.0956 106.483V106.16" stroke="#0F0F0F" stroke-width="1.09028" stroke-linecap="round" stroke-linejoin="round"/>
<path d="M64.2102 101.49V111.498" stroke="#0F0F0F" stroke-width="1.09028" stroke-linecap="round" stroke-linejoin="round"/>
<path d="M79.1578 104.385V113.866" stroke="#0F0F0F" stroke-width="1.09028" stroke-linecap="round" stroke-linejoin="round"/>
<path d="M98.3687 105.697V115.178" stroke="#0F0F0F" stroke-width="1.09028" stroke-linecap="round" stroke-linejoin="round"/>
<path d="M123.194 104.643V113.865" stroke="#0F0F0F" stroke-width="1.09028" stroke-linecap="round" stroke-linejoin="round"/>
<path d="M148.009 98.8535V108.603" stroke="#0F0F0F" stroke-width="1.09028" stroke-linecap="round" stroke-linejoin="round"/>
<path d="M161.888 92.7949V102.545" stroke="#0F0F0F" stroke-width="1.09028" stroke-linecap="round" stroke-linejoin="round"/>
<path d="M170.425 87.8672V97.7999" stroke="#0F0F0F" stroke-width="1.09028" stroke-linecap="round" stroke-linejoin="round"/>
<path d="M177.359 81.8066V91.3089" stroke="#0F0F0F" stroke-width="1.09028" stroke-linecap="round" stroke-linejoin="round"/>
<path d="M100.342 95.3333C144.876 95.3333 180.979 78.9761 180.979 58.7985C180.979 38.6209 144.876 22.2637 100.342 22.2637C55.8073 22.2637 19.7048 38.6209 19.7048 58.7985C19.7048 78.9761 55.8073 95.3333 100.342 95.3333Z" fill="#222222" stroke="#0F0F0F" stroke-width="1.09028" stroke-linecap="round" stroke-linejoin="round"/>
<path d="M134.162 25.6328L27.8929 74.8445C32.5593 79.1491 39.0683 83.0124 46.9401 86.1655L159.577 34.0159C151.491 30.191 142.954 27.3749 134.162 25.6328Z" fill="#FA7CFF"/>
<path d="M100.342 95.3333C144.876 95.3333 180.979 78.9761 180.979 58.7985C180.979 38.6209 144.876 22.2637 100.342 22.2637C55.8073 22.2637 19.7048 38.6209 19.7048 58.7985C19.7048 78.9761 55.8073 95.3333 100.342 95.3333Z" stroke="#0F0F0F" stroke-width="1.09028" stroke-linecap="round" stroke-linejoin="round"/>
<path d="M100.342 90.3292C138.771 90.3292 169.923 76.2124 169.923 58.7984C169.923 41.3844 138.771 27.2676 100.342 27.2676C61.913 27.2676 30.7603 41.3844 30.7603 58.7984C30.7603 76.2124 61.913 90.3292 100.342 90.3292Z" fill="#222222" stroke="#0F0F0F" stroke-width="1.09028" stroke-linecap="round" stroke-linejoin="round"/>
<path d="M33.0607 60.1436C33.0607 42.7209 64.21 28.6127 102.642 28.6127C124.263 28.6127 143.571 33.0787 156.339 40.0844C143.659 32.2824 123.303 27.2676 100.342 27.2676C61.9095 27.2676 30.7603 41.3865 30.7603 58.7984C30.7603 66.4174 36.7241 73.4016 46.6565 78.8576C38.1196 73.6168 33.0607 67.1492 33.0607 60.1436Z" fill="#0F0F0F" stroke="#0F0F0F" stroke-width="1.09028" stroke-linecap="round" stroke-linejoin="round"/>
<path d="M128.591 72.3163L126.727 71.4661C105.357 79.1067 80.008 73.5 73.7607 66.5374H103.961V61.7701H69.7703V56.9167H103.907V52.0957H73.3791C77.7403 48.4798 83.715 46.0047 91.7285 44.6596C103.344 42.5154 115.324 43.3831 126.498 47.1777L126.628 47.1239L136.168 43.5188L136.016 41.5818C136.016 41.5818 72.7141 37.6647 60.2631 50.6536C59.1183 51.8481 57.8209 52.2248 55.0515 52.1602C50.1453 52.0419 45.239 52.1602 40.2674 52.1602V57.0351H56.229V61.8885H40.191V66.6343C45.6424 66.6343 50.9521 66.6343 56.2509 66.6343C58.137 66.6343 59.0638 66.871 59.827 67.7104C69.0398 77.4817 91.1507 82.8624 114.297 80.7101C121.741 80.1271 129.054 78.4477 135.994 75.7276V74.2533L126.727 70.0241L128.591 72.3163Z" fill="#0F0F0F" stroke="#0F0F0F" stroke-width="1.09028" stroke-linecap="round" stroke-linejoin="round"/>
<path d="M126.726 70.0235C129.866 71.4655 132.854 72.8322 135.994 74.2527C129.056 76.9816 121.742 78.6648 114.297 79.246C91.1505 81.3982 69.0396 76.0176 59.7831 66.1709C59.02 65.3638 58.0932 65.0948 56.207 65.0948C50.9083 65.0948 45.5986 65.0948 40.1472 65.0948V60.4028H56.2288V55.5494H40.2671V50.6853C45.2279 50.6853 50.1451 50.61 55.0513 50.6853C57.8206 50.7499 59.1181 50.384 60.2629 49.1787C72.7139 36.1359 108.857 31.9605 133.693 40.6557C134.511 40.9463 135.274 41.2583 136.026 41.5489L126.508 45.7135C115.334 41.9207 103.356 41.0494 91.7392 43.1846C83.7257 44.5406 77.74 47.0157 73.3898 50.6207H103.918V55.4418H69.7701V60.2952H103.961V65.1055H73.7605C80.0078 72.1004 105.357 77.6748 126.726 70.0235Z" fill="#222222" stroke="#0F0F0F" stroke-width="1.09028" stroke-linecap="round" stroke-linejoin="round"/>
<path d="M69.7704 60.3288V55.4754H103.907V50.6543H80.0627L48.5209 65.1606C51.1048 65.1606 53.6779 65.1606 56.251 65.1606C58.1371 65.1606 59.0639 65.3974 59.8271 66.2368C63.0216 69.6696 67.7643 72.5537 73.5755 74.7598L82.8865 70.3906C78.6998 68.9271 75.4944 67.0977 73.7608 65.1714H94.0291L103.962 60.5117V60.3933L69.7704 60.3288Z" fill="#FA7CFF"/>
<path d="M126.509 45.7472L136.027 41.5825C135.275 41.2919 134.511 40.9799 133.694 40.6893C126.421 38.2557 118.847 36.8076 111.179 36.3848L97.9652 42.4219C107.612 41.4636 117.353 42.5985 126.509 45.7472Z" fill="#FA7CFF"/>
<path d="M126.726 70.0235C129.866 71.4655 132.854 72.8322 135.994 74.2527C129.056 76.9816 121.742 78.6648 114.297 79.246C91.1505 81.3982 69.0396 76.0176 59.7831 66.1709C59.02 65.3638 58.0932 65.0948 56.207 65.0948C50.9083 65.0948 45.5986 65.0948 40.1472 65.0948V60.4028H56.2288V55.5494H40.2671V50.6853C45.2279 50.6853 50.1451 50.61 55.0513 50.6853C57.8206 50.7499 59.1181 50.384 60.2629 49.1787C72.7139 36.1359 108.857 31.9605 133.693 40.6557C134.511 40.9463 135.274 41.2583 136.026 41.5489L126.508 45.7135C115.334 41.9207 103.356 41.0494 91.7392 43.1846C83.7257 44.5406 77.74 47.0157 73.3898 50.6207H103.918V55.4418H69.7701V60.2952H103.961V65.1055H73.7605C80.0078 72.1004 105.357 77.6748 126.726 70.0235Z" stroke="#0F0F0F" stroke-width="1.09028" stroke-linecap="round" stroke-linejoin="round"/>
<path d="M27.8928 74.8343V84.9499C22.6486 80.1073 19.7048 74.6513 19.7048 68.8832V58.7891C19.7048 64.5679 22.6486 70.0239 27.8928 74.8343Z" fill="#222222" stroke="#0F0F0F" stroke-width="1.09028" stroke-linecap="round" stroke-linejoin="round"/>
<path d="M46.9291 86.1657V96.2491C43.5481 94.9245 40.2687 93.36 37.1166 91.5679C33.7844 89.714 30.6755 87.4938 27.8492 84.9496V74.8555C32.5702 79.1708 39.0791 83.0126 46.9291 86.1657Z" fill="#FA7CFF" stroke="#0F0F0F" stroke-width="1.09028" stroke-linecap="round" stroke-linejoin="round"/>
<path d="M180.979 58.7891V68.8725C180.868 73.4251 179.183 77.8035 176.203 81.2803C174.193 83.7614 171.862 85.9719 169.269 87.8555C155.117 98.3909 129.55 105.461 100.353 105.461C87.7985 105.526 75.28 104.135 63.0543 101.318C57.5555 100.057 52.1642 98.3771 46.9291 96.2924V86.166C61.1572 91.8803 79.8555 95.3347 100.353 95.3347C124.339 95.3347 145.97 90.5781 160.732 83.0129C173.336 76.5776 180.979 68.0976 180.979 58.7891Z" fill="#222222" stroke="#0F0F0F" stroke-width="1.09028" stroke-linecap="round" stroke-linejoin="round"/>
<path d="M27.8929 84.9817V84.9492" stroke="#0F0F0F" stroke-width="1.09028" stroke-linecap="round" stroke-linejoin="round"/>
<path d="M37.1709 81.8281V91.5779" stroke="#0F0F0F" stroke-width="1.09028" stroke-linecap="round" stroke-linejoin="round"/>
<path d="M46.9291 96.5816V96.248" stroke="#0F0F0F" stroke-width="1.09028" stroke-linecap="round" stroke-linejoin="round"/>
<path d="M63.0544 91.5781V101.586" stroke="#0F0F0F" stroke-width="1.09028" stroke-linecap="round" stroke-linejoin="round"/>
<path d="M78.0021 94.4727V103.953" stroke="#0F0F0F" stroke-width="1.09028" stroke-linecap="round" stroke-linejoin="round"/>
<path d="M97.2129 95.7852V105.277" stroke="#0F0F0F" stroke-width="1.09028" stroke-linecap="round" stroke-linejoin="round"/>
<path d="M122.027 94.7422V103.954" stroke="#0F0F0F" stroke-width="1.09028" stroke-linecap="round" stroke-linejoin="round"/>
<path d="M146.853 88.9434V98.6932" stroke="#0F0F0F" stroke-width="1.09028" stroke-linecap="round" stroke-linejoin="round"/>
<path d="M160.732 82.8828V92.6326" stroke="#0F0F0F" stroke-width="1.09028" stroke-linecap="round" stroke-linejoin="round"/>
<path d="M169.269 77.9531V87.8859" stroke="#0F0F0F" stroke-width="1.09028" stroke-linecap="round" stroke-linejoin="round"/>
<path d="M176.203 71.8965V81.3988" stroke="#0F0F0F" stroke-width="1.09028" stroke-linecap="round" stroke-linejoin="round"/>
<path d="M100.342 84.6576C144.876 84.6576 180.979 68.3004 180.979 48.1227C180.979 27.9451 144.876 11.5879 100.342 11.5879C55.8073 11.5879 19.7048 27.9451 19.7048 48.1227C19.7048 68.3004 55.8073 84.6576 100.342 84.6576Z" fill="#222222" stroke="#0F0F0F" stroke-width="1.09028" stroke-linecap="round" stroke-linejoin="round"/>
<path d="M134.162 14.959L27.8929 64.1707C32.5593 68.4753 39.0683 72.3386 46.9401 75.5024L159.577 23.3421C151.491 19.5172 142.954 16.7011 134.162 14.959Z" fill="#FA7CFF"/>
<path d="M100.342 84.6576C144.876 84.6576 180.979 68.3004 180.979 48.1227C180.979 27.9451 144.876 11.5879 100.342 11.5879C55.8073 11.5879 19.7048 27.9451 19.7048 48.1227C19.7048 68.3004 55.8073 84.6576 100.342 84.6576Z" stroke="#0F0F0F" stroke-width="1.09028" stroke-linecap="round" stroke-linejoin="round"/>
<path d="M100.342 79.6554C138.771 79.6554 169.923 65.5385 169.923 48.1246C169.923 30.7106 138.771 16.5938 100.342 16.5938C61.913 16.5938 30.7603 30.7106 30.7603 48.1246C30.7603 65.5385 61.913 79.6554 100.342 79.6554Z" fill="#222222" stroke="#0F0F0F" stroke-width="1.09028" stroke-linecap="round" stroke-linejoin="round"/>
<path d="M33.0607 49.5019C33.0607 32.09 64.21 17.9711 102.642 17.9711C124.263 17.9711 143.571 22.4371 156.339 29.4427C143.659 21.673 123.303 16.6367 100.342 16.6367C61.9095 16.6367 30.7603 30.7449 30.7603 48.1568C30.7603 55.7758 36.7241 62.7707 46.6565 68.2159C38.1196 62.9536 33.0607 56.4753 33.0607 49.5019Z" fill="#0F0F0F" stroke="#0F0F0F" stroke-width="1.09028" stroke-linecap="round" stroke-linejoin="round"/>
<path d="M128.591 61.6513L126.727 60.7904C105.357 68.4417 80.008 62.8243 73.7607 55.8724H103.961V51.0944H69.7703V46.2733H103.907V41.4199H73.3791C77.7403 37.8149 83.715 35.3398 91.7285 33.9838C103.345 31.8486 115.324 32.7199 126.498 36.5127L126.628 36.4482L136.168 32.8431L136.016 30.9168C136.016 30.9168 72.7141 26.9028 60.2631 39.9779C59.1183 41.1832 57.8209 41.5491 55.0515 41.4845C50.1453 41.3769 45.239 41.4845 40.2674 41.4845V46.2733H56.229V51.1159H40.191V55.9585C45.6424 55.9585 50.9521 55.9585 56.2509 55.9585C58.137 55.9585 59.0638 56.1845 59.827 57.0347C69.0398 66.9351 91.1507 72.2512 114.341 70.099C121.786 69.5261 129.101 67.8463 136.037 65.1165V63.5883L126.77 59.3591L128.591 61.6513Z" fill="#0F0F0F" stroke="#0F0F0F" stroke-width="1.09028" stroke-linecap="round" stroke-linejoin="round"/>
<path d="M126.726 59.3601L135.994 63.5893C129.054 66.3094 121.741 67.9888 114.297 68.5718C91.1505 70.7241 69.0396 65.3972 59.7831 55.5075C59.02 54.6897 58.0932 54.4314 56.207 54.4314C50.9083 54.496 45.5986 54.4314 40.1472 54.4314V49.7287H56.2288V44.8753H40.2671V40.0219C45.2279 40.0219 50.1451 39.9358 55.0513 40.0219C57.8206 40.0865 59.1181 39.7099 60.2629 38.5153C72.7139 25.4618 108.857 21.2972 133.693 29.9923C134.511 30.2721 135.274 30.595 136.026 30.8855L126.508 35.0394C115.335 31.2448 103.354 30.3771 91.7392 32.5213C83.7257 33.8987 77.74 36.3738 73.3898 39.9896H103.918V44.8107H69.7701V49.6641H103.961V54.4314H73.7605C80.0078 61.394 105.357 67.0007 126.726 59.3601Z" fill="#222222" stroke="#0F0F0F" stroke-width="1.09028" stroke-linecap="round" stroke-linejoin="round"/>
<path d="M69.7704 49.6628V44.8094H103.907V39.9883H80.0627L48.5209 54.4838C51.1012 54.4838 53.6779 54.4838 56.251 54.4838C58.1371 54.4838 59.0639 54.7206 59.8271 55.56C63.0216 58.939 67.7643 61.8123 73.5973 64.0292L82.9083 59.6601C78.7216 58.1857 75.5162 56.3671 73.7826 54.43H94.0291L103.962 49.7704V49.6628H69.7704Z" fill="#FA7CFF"/>
<path d="M126.509 35.0704L136.027 30.9165C135.275 30.6259 134.511 30.3031 133.694 30.0233C126.421 27.5896 118.847 26.1416 111.179 25.7188L97.9652 31.7559C107.611 30.7889 117.354 31.9202 126.509 35.0704Z" fill="#FA7CFF"/>
<path d="M126.726 59.3601L135.994 63.5893C129.054 66.3094 121.741 67.9888 114.297 68.5718C91.1505 70.7241 69.0396 65.3972 59.7831 55.5075C59.02 54.6897 58.0932 54.4314 56.207 54.4314C50.9083 54.496 45.5986 54.4314 40.1472 54.4314V49.7287H56.2288V44.8753H40.2671V40.0219C45.2279 40.0219 50.1451 39.9358 55.0513 40.0219C57.8206 40.0865 59.1181 39.7099 60.2629 38.5153C72.7139 25.4618 108.857 21.2972 133.693 29.9923C134.511 30.2721 135.274 30.595 136.026 30.8855L126.508 35.0394C115.335 31.2448 103.354 30.3771 91.7392 32.5213C83.7257 33.8987 77.74 36.3738 73.3898 39.9896H103.918V44.8107H69.7701V49.6641H103.961V54.4314H73.7605C80.0078 61.394 105.357 67.0007 126.726 59.3601Z" stroke="#0F0F0F" stroke-width="1.09028" stroke-linecap="round" stroke-linejoin="round"/>
<path d="M27.8928 64.1702V74.2536C22.6486 69.4217 19.7048 63.955 19.7048 58.1869V48.125C19.7048 53.8931 22.6486 59.3599 27.8928 64.1702Z" fill="#222222" stroke="#0F0F0F" stroke-width="1.09028" stroke-linecap="round" stroke-linejoin="round"/>
<path d="M46.9292 75.4908V85.585C43.5502 84.256 40.2711 82.6916 37.1167 80.9038C33.8006 79.0332 30.7068 76.8025 27.8929 74.2533V64.1914C32.5702 68.5067 39.0792 72.3485 46.9292 75.4908Z" fill="#FA7CFF" stroke="#0F0F0F" stroke-width="1.09028" stroke-linecap="round" stroke-linejoin="round"/>
<path d="M180.979 48.125V58.2084C180.868 62.7643 179.183 67.146 176.203 70.627C174.195 73.1072 171.864 75.3144 169.269 77.1915C155.096 87.7268 129.55 94.754 100.353 94.754C87.7988 94.8132 75.2809 93.4227 63.0543 90.6109C57.5555 89.3503 52.1642 87.67 46.9291 85.5853V75.4912C61.1572 81.2054 79.8555 84.6706 100.353 84.6706C124.339 84.6706 145.97 79.9141 160.732 72.3488C173.336 65.9028 180.979 57.4228 180.979 48.125Z" fill="#222222" stroke="#0F0F0F" stroke-width="1.09028" stroke-linecap="round" stroke-linejoin="round"/>
<path d="M27.8929 74.306V74.2734" stroke="#0F0F0F" stroke-width="1.09028" stroke-linecap="round" stroke-linejoin="round"/>
<path d="M37.1709 71.166V80.9051" stroke="#0F0F0F" stroke-width="1.09028" stroke-linecap="round" stroke-linejoin="round"/>
<path d="M46.9291 85.9068V85.584" stroke="#0F0F0F" stroke-width="1.09028" stroke-linecap="round" stroke-linejoin="round"/>
<path d="M63.0544 80.9023V90.9104" stroke="#0F0F0F" stroke-width="1.09028" stroke-linecap="round" stroke-linejoin="round"/>
<path d="M78.0021 83.7969V93.2884" stroke="#0F0F0F" stroke-width="1.09028" stroke-linecap="round" stroke-linejoin="round"/>
<path d="M97.2129 85.1211V94.6019" stroke="#0F0F0F" stroke-width="1.09028" stroke-linecap="round" stroke-linejoin="round"/>
<path d="M122.027 84.0664V93.2889" stroke="#0F0F0F" stroke-width="1.09028" stroke-linecap="round" stroke-linejoin="round"/>
<path d="M146.853 78.2676V88.0174" stroke="#0F0F0F" stroke-width="1.09028" stroke-linecap="round" stroke-linejoin="round"/>
<path d="M160.732 72.207V81.9568" stroke="#0F0F0F" stroke-width="1.09028" stroke-linecap="round" stroke-linejoin="round"/>
<path d="M169.269 67.2891V77.2218" stroke="#0F0F0F" stroke-width="1.09028" stroke-linecap="round" stroke-linejoin="round"/>
<path d="M176.203 61.2324V70.7239" stroke="#0F0F0F" stroke-width="1.09028" stroke-linecap="round" stroke-linejoin="round"/>
<path d="M101.116 73.6068C145.651 73.6068 181.753 57.2496 181.753 37.0719C181.753 16.8943 145.651 0.537109 101.116 0.537109C56.5813 0.537109 20.4789 16.8943 20.4789 37.0719C20.4789 57.2496 56.5813 73.6068 101.116 73.6068Z" fill="#222222" stroke="#0F0F0F" stroke-width="1.09028" stroke-linecap="round" stroke-linejoin="round"/>
<path d="M134.936 3.90625L28.6558 53.118C33.3331 57.444 39.7984 61.3397 47.7138 64.4389L160.351 12.2894C152.264 8.46608 143.727 5.65011 134.936 3.90625Z" fill="#FA7CFF"/>
<path d="M101.116 73.6068C145.651 73.6068 181.753 57.2496 181.753 37.0719C181.753 16.8943 145.651 0.537109 101.116 0.537109C56.5813 0.537109 20.4789 16.8943 20.4789 37.0719C20.4789 57.2496 56.5813 73.6068 101.116 73.6068Z" stroke="#0F0F0F" stroke-width="1.09028" stroke-linecap="round" stroke-linejoin="round"/>
<path d="M101.116 68.6026C139.545 68.6026 170.698 54.4858 170.698 37.0718C170.698 19.6578 139.545 5.54102 101.116 5.54102C62.6871 5.54102 31.5343 19.6578 31.5343 37.0718C31.5343 54.4858 62.6871 68.6026 101.116 68.6026Z" fill="#222222" stroke="#0F0F0F" stroke-width="1.09028" stroke-linecap="round" stroke-linejoin="round"/>
<path d="M33.8348 38.417C33.8348 21.0051 64.9841 6.88619 103.416 6.88619C125.037 6.88619 144.345 11.3522 157.102 18.3578C144.465 10.5881 124.077 5.54102 101.116 5.54102C62.6945 5.54102 31.5343 19.6599 31.5343 37.0718C31.5343 44.6909 37.4981 51.6535 47.4306 57.131C38.8937 51.901 33.8348 45.4226 33.8348 38.417Z" fill="#0F0F0F" stroke="#0F0F0F" stroke-width="1.09028" stroke-linecap="round" stroke-linejoin="round"/>
<path d="M129.365 50.5781L127.49 49.7172C106.131 57.3686 80.7821 51.7511 74.5348 44.7993H104.736V40.0428H70.5444V35.1894H104.681V30.3683H74.1532C78.5143 26.7632 84.489 24.2881 92.5026 22.9322C104.119 20.7975 116.098 21.6687 127.272 25.4611L127.402 25.3965L136.931 21.7915L136.833 19.8652C136.833 19.8652 73.5208 15.8835 61.0698 28.9263C59.9141 30.1315 58.6167 30.4974 55.8583 30.4329C50.952 30.3253 46.0458 30.4329 41.0632 30.4329V35.297H57.0031V40.1396H40.9651V44.8961C46.4165 44.8961 51.7261 44.8961 57.0249 44.8961C58.9111 44.8961 59.8378 45.1221 60.5901 45.9723C69.803 55.8727 91.9247 61.1889 115.104 59.0366C122.546 58.4653 129.857 56.7854 136.79 54.0541V52.5367L127.522 48.3075L129.365 50.5781Z" fill="#0F0F0F" stroke="#0F0F0F" stroke-width="1.09028" stroke-linecap="round" stroke-linejoin="round"/>
<path d="M127.49 48.3074L136.757 52.5366C129.808 55.2621 122.483 56.9417 115.028 57.5191C91.881 59.6714 69.7593 54.2907 60.5137 44.4548C59.7614 43.6369 58.8347 43.3787 56.9485 43.3787C51.6497 43.4432 46.3401 43.3787 40.8887 43.3787V38.6759H57.003V33.8226H41.0304V28.9692C45.9912 28.9692 50.9192 28.8831 55.8255 28.9692C58.5839 29.0338 59.8813 28.6571 61.037 27.4626C73.488 14.4091 109.631 10.2444 134.467 18.9396C135.285 19.2194 136.048 19.5422 136.801 19.8328L127.282 23.9867C116.104 20.2105 104.124 19.3614 92.5134 21.5223C84.4998 22.846 78.5142 25.3211 74.164 28.9369H104.692V33.758H70.5443V38.6114H104.735V43.3787H74.5347C80.782 50.3413 106.131 55.9587 127.49 48.3074Z" fill="#222222" stroke="#0F0F0F" stroke-width="1.09028" stroke-linecap="round" stroke-linejoin="round"/>
<path d="M70.5445 38.612V33.7586H104.681V28.9375H80.8367L49.2949 43.4331C51.8789 43.4331 54.4519 43.4331 57.025 43.4331C58.9112 43.4331 59.8379 43.6698 60.5902 44.5092C63.7956 47.9421 68.5383 50.8154 74.3495 53.0322L83.6605 48.6631C79.4739 47.1888 76.2684 45.3701 74.5349 43.4331H94.8032L104.736 38.7411V38.6335L70.5445 38.612Z" fill="#FA7CFF"/>
<path d="M127.283 24.0196L136.834 19.8657C136.081 19.5752 135.318 19.2523 134.5 18.9725C127.228 16.5389 119.654 15.0908 111.986 14.668L98.7393 20.7051C108.385 19.7381 118.128 20.8695 127.283 24.0196Z" fill="#FA7CFF"/>
<path d="M127.49 48.3074L136.757 52.5366C129.808 55.2621 122.483 56.9417 115.028 57.5191C91.881 59.6714 69.7593 54.2907 60.5137 44.4548C59.7614 43.6369 58.8347 43.3787 56.9485 43.3787C51.6497 43.4432 46.3401 43.3787 40.8887 43.3787V38.6759H57.003V33.8226H41.0304V28.9692C45.9912 28.9692 50.9192 28.8831 55.8255 28.9692C58.5839 29.0338 59.8813 28.6571 61.037 27.4626C73.488 14.4091 109.631 10.2444 134.467 18.9396C135.285 19.2194 136.048 19.5422 136.801 19.8328L127.282 23.9867C116.104 20.2105 104.124 19.3614 92.5134 21.5223C84.4998 22.846 78.5142 25.3211 74.164 28.9369H104.692V33.758H70.5443V38.6114H104.735V43.3787H74.5347C80.782 50.3413 106.131 55.9587 127.49 48.3074Z" fill="#FCADFF" stroke="#0F0F0F" stroke-width="1.09028" stroke-linecap="round" stroke-linejoin="round"/>
<path d="M28.6669 53.1175V63.2224C23.4226 58.3905 20.4789 52.9238 20.4789 47.1557V37.0723C20.4789 42.8404 23.4444 48.2964 28.6669 53.1175Z" fill="#222222" stroke="#0F0F0F" stroke-width="1.09028" stroke-linecap="round" stroke-linejoin="round"/>
<path d="M47.7032 64.4401V74.5342C44.3232 73.2074 41.0439 71.643 37.8907 69.853C34.5586 67.9946 31.4498 65.7709 28.6233 63.224V53.1406C33.3442 57.4559 39.8532 61.3408 47.7032 64.4401Z" fill="#FA7CFF" stroke="#0F0F0F" stroke-width="1.09028" stroke-linecap="round" stroke-linejoin="round"/>
<path d="M181.753 37.0723V47.1557C181.638 51.7127 179.95 56.0943 176.967 59.5743C174.962 62.0543 172.634 64.2616 170.043 66.1387C155.87 76.6741 130.325 83.7013 101.127 83.7013C88.5583 83.7644 76.0255 82.3739 63.7848 79.5581C58.286 78.2975 52.8947 76.6173 47.6595 74.5326V64.4384C61.8332 70.1527 80.586 73.6179 101.083 73.6179C125.069 73.6179 146.7 68.8613 161.463 61.2961C174.11 54.8823 181.753 46.3701 181.753 37.0723Z" fill="#222222" stroke="#0F0F0F" stroke-width="1.09028" stroke-linecap="round" stroke-linejoin="round"/>
<path d="M28.667 63.2552V63.2227" stroke="#0F0F0F" stroke-width="1.09028" stroke-linecap="round" stroke-linejoin="round"/>
<path d="M37.9343 60.1113V69.8504" stroke="#0F0F0F" stroke-width="1.09028" stroke-linecap="round" stroke-linejoin="round"/>
<path d="M47.7031 74.856V74.5332" stroke="#0F0F0F" stroke-width="1.09028" stroke-linecap="round" stroke-linejoin="round"/>
<path d="M63.8285 69.8516V79.8596" stroke="#0F0F0F" stroke-width="1.09028" stroke-linecap="round" stroke-linejoin="round"/>
<path d="M78.7655 72.7461V82.2376" stroke="#0F0F0F" stroke-width="1.09028" stroke-linecap="round" stroke-linejoin="round"/>
<path d="M97.9869 74.0703V83.5511" stroke="#0F0F0F" stroke-width="1.09028" stroke-linecap="round" stroke-linejoin="round"/>
<path d="M122.802 73.0156V82.2381" stroke="#0F0F0F" stroke-width="1.09028" stroke-linecap="round" stroke-linejoin="round"/>
<path d="M147.627 67.2148V76.9646" stroke="#0F0F0F" stroke-width="1.09028" stroke-linecap="round" stroke-linejoin="round"/>
<path d="M161.496 61.1562V70.906" stroke="#0F0F0F" stroke-width="1.09028" stroke-linecap="round" stroke-linejoin="round"/>
<path d="M170.043 56.2383V66.171" stroke="#0F0F0F" stroke-width="1.09028" stroke-linecap="round" stroke-linejoin="round"/>
<path d="M176.967 50.1797V59.6712" stroke="#0F0F0F" stroke-width="1.09028" stroke-linecap="round" stroke-linejoin="round"/>
<path d="M146.286 171.676C140.495 178.645 133.5 184.547 125.626 189.11L122.496 183.353C130.362 178.754 137.336 172.811 143.092 165.801L146.286 171.676Z" fill="#222222" stroke="#0F0F0F" stroke-width="1.09028" stroke-linecap="round" stroke-linejoin="round"/>
<path d="M125.626 189.109C119.909 192.415 113.781 194.973 107.396 196.717L104.322 191.046C110.698 189.275 116.812 186.689 122.507 183.352L125.626 189.109Z" fill="#FA7CFF" stroke="#0F0F0F" stroke-width="1.09028" stroke-linecap="round" stroke-linejoin="round"/>
<path d="M107.396 196.716C100.702 198.542 93.7888 199.465 86.8442 199.46H86.4626L83.4098 193.897C90.4656 193.898 97.4878 192.939 104.278 191.045L107.396 196.716Z" fill="#222222" stroke="#0F0F0F" stroke-width="1.09028" stroke-linecap="round" stroke-linejoin="round"/>
<path d="M86.4626 199.449C81.3049 199.438 76.1617 198.911 71.1114 197.878L68.1459 192.4C73.1711 193.397 78.2842 193.898 83.4098 193.896L86.4626 199.449Z" fill="#222222" stroke="#0F0F0F" stroke-width="1.09028" stroke-linecap="round" stroke-linejoin="round"/>
<path d="M71.1115 197.88C66.6403 196.954 62.2618 195.636 58.0282 193.941L55.1281 188.561C59.3661 190.211 63.7445 191.486 68.2114 192.37L71.1115 197.88Z" fill="#222222" stroke="#0F0F0F" stroke-width="1.09028" stroke-linecap="round" stroke-linejoin="round"/>
<path d="M57.9955 193.941C53.6068 192.18 49.3945 190.019 45.4137 187.484L42.6117 182.34C46.5605 184.794 50.7281 186.887 55.0627 188.592L57.9955 193.941Z" fill="#222222" stroke="#0F0F0F" stroke-width="1.09028" stroke-linecap="round" stroke-linejoin="round"/>
<path d="M45.4136 187.495C34.6976 180.706 25.8475 171.409 19.6503 160.43C25.6767 169.233 33.4969 176.699 42.6116 182.351L45.4136 187.495Z" fill="#222222" stroke="#0F0F0F" stroke-width="1.09028" stroke-linecap="round" stroke-linejoin="round"/>
<path d="M157.396 153.684C154.561 160.163 150.821 166.219 146.286 171.677L143.092 165.801C147.613 160.303 151.331 154.207 154.136 147.689L157.396 153.684Z" fill="#222222" stroke="#0F0F0F" stroke-width="1.09028" stroke-linecap="round" stroke-linejoin="round"/>
<path d="M161.91 139.822C160.873 144.578 159.361 149.221 157.396 153.683L154.125 147.689C156.073 143.182 157.563 138.496 158.574 133.699L161.91 139.822Z" fill="#222222" stroke="#0F0F0F" stroke-width="1.09028" stroke-linecap="round" stroke-linejoin="round"/>
<path d="M163.676 123.615C163.679 129.064 163.087 134.497 161.91 139.821L158.639 133.709C159.738 128.556 160.29 123.305 160.286 118.04C160.286 117.459 160.286 116.878 160.286 116.286C160.012 104.011 156.707 91.9869 150.658 81.2578C159.187 93.776 163.722 108.529 163.676 123.615Z" fill="#222222" stroke="#0F0F0F" stroke-width="1.09028" stroke-linecap="round" stroke-linejoin="round"/>
<path d="M45.4243 187.516L45.4135 187.494" stroke="#0F0F0F" stroke-width="1.09028" stroke-linecap="round" stroke-linejoin="round"/>
<path d="M160.208 116.274L160.198 116.264" stroke="#0F0F0F" stroke-width="1.09028" stroke-linecap="round" stroke-linejoin="round"/>
<path d="M163.654 122.615L160.209 116.287" stroke="#0F0F0F" stroke-width="1.09028" stroke-linecap="round" stroke-linejoin="round"/>
<path d="M137.724 171.682C167.733 142.062 167.733 94.0392 137.724 64.4195C107.715 34.7997 59.0611 34.7997 29.0521 64.4195C-0.956948 94.0392 -0.956953 142.062 29.0521 171.682C59.0611 201.302 107.715 201.302 137.724 171.682Z" fill="#222222" stroke="#0F0F0F" stroke-width="1.09028" stroke-linecap="round" stroke-linejoin="round"/>
<path d="M137.724 171.682C167.733 142.062 167.733 94.0392 137.724 64.4195C107.715 34.7997 59.0611 34.7997 29.0521 64.4195C-0.956948 94.0392 -0.956953 142.062 29.0521 171.682C59.0611 201.302 107.715 201.302 137.724 171.682Z" stroke="#0F0F0F" stroke-width="1.09028" stroke-linecap="round" stroke-linejoin="round"/>
<path d="M83.3879 183.503C120.01 183.503 149.699 154.2 149.699 118.052C149.699 81.9048 120.01 52.6016 83.3879 52.6016C46.7655 52.6016 17.0771 81.9048 17.0771 118.052C17.0771 154.2 46.7655 183.503 83.3879 183.503Z" fill="#222222" stroke="#0F0F0F" stroke-width="1.09028" stroke-linecap="round" stroke-linejoin="round"/>
<path d="M19.2688 120.828C19.2742 107.35 23.4944 94.2024 31.3531 83.1803C39.2117 72.1582 50.3257 63.799 63.1773 59.2442C76.0289 54.6894 89.9917 54.1611 103.159 57.7313C116.326 61.3016 128.056 68.7964 136.746 79.1923C131.485 72.163 124.85 66.2451 117.234 61.7876C109.617 57.3301 101.174 54.4233 92.4009 53.2387C83.6281 52.0542 74.7038 52.6158 66.1544 54.8905C57.605 57.1652 49.6038 61.1069 42.6227 66.483C35.6416 71.8591 29.8221 78.5609 25.5075 86.1928C21.1929 93.8247 18.4705 102.232 17.5011 110.919C16.5316 119.606 17.3347 128.397 19.8628 136.773C22.391 145.149 26.5931 152.94 32.2213 159.687C23.7915 148.441 19.2503 134.817 19.2688 120.828Z" fill="#0F0F0F" stroke="#0F0F0F" stroke-width="1.09028" stroke-linecap="round" stroke-linejoin="round"/>
<path d="M109.784 142.597L118.604 151.378C112.785 156.628 105.621 160.205 97.8886 161.72C75.8323 166.164 54.7572 155.134 45.9695 134.59C45.7677 133.883 45.31 133.273 44.6831 132.876C44.0561 132.48 43.3035 132.324 42.5679 132.438C37.5199 132.567 32.461 132.438 27.304 132.438V122.581H42.5679V112.519H27.3912V102.457C32.1121 102.457 36.8112 102.285 41.4776 102.522C44.1161 102.651 45.3481 101.887 46.4493 99.39C49.219 93.0752 53.416 87.4696 58.7188 83.0025C64.0217 78.5354 70.2899 75.3252 77.0435 73.6176C83.7971 71.9101 90.857 71.7506 97.6827 73.1512C104.508 74.5518 110.919 77.4755 116.423 81.6983C117.197 82.2902 117.928 82.9467 118.604 83.5493L109.533 92.1584C99.8184 84.6254 88.5995 82.4732 76.3992 86.9284C68.7673 89.7371 63.0651 94.8595 58.9548 102.36H88.0325V112.368H55.5095V122.452H88.087V132.363H59.3146C65.2675 146.815 89.4281 158.459 109.784 142.597Z" fill="#0F0F0F" stroke="#0F0F0F" stroke-width="1.09028" stroke-linecap="round" stroke-linejoin="round"/>
<path d="M108.486 141.363L117.307 150.144C111.503 155.385 104.359 158.961 96.6458 160.485C74.6876 164.93 53.558 153.889 44.7703 133.356C44.5685 132.649 44.1108 132.039 43.4838 131.642C42.8569 131.245 42.1043 131.089 41.3686 131.204C36.3207 131.333 31.2618 131.204 26.1047 131.204V121.346H41.3686V111.285H26.1047V101.223C30.8256 101.223 35.5247 101.05 40.1911 101.287C42.8296 101.416 44.0616 100.652 45.1628 98.1556C47.9325 91.8408 52.1295 86.2352 57.4324 81.7681C62.7353 77.301 69.0035 74.0908 75.7571 72.3833C82.5107 70.6757 89.5706 70.5162 96.3963 71.9168C103.222 73.3174 109.632 76.2411 115.137 80.464C115.922 81.0558 116.642 81.7123 117.317 82.3149L108.246 90.924C98.532 83.3911 87.313 81.2388 75.1128 85.6832C67.4808 88.4919 61.7787 93.6251 57.6683 101.115H86.7788V111.123H54.2557V121.206H86.8333V131.107H58.0608C64.0137 145.581 88.1743 157.225 108.486 141.363Z" fill="#FCADFF" stroke="#0F0F0F" stroke-width="1.09028" stroke-linecap="round" stroke-linejoin="round"/>
<path d="M54.2559 121.237V111.154H86.7789V101.156H64.0575L33.9985 131.288C36.4735 131.288 38.9157 131.288 41.3688 131.213C42.1044 131.098 42.8571 131.254 43.484 131.651C44.111 132.048 44.5687 132.657 44.7705 133.365C47.648 140.203 52.1326 146.267 57.8538 151.057L66.7287 141.996C62.9142 139.191 59.9077 135.452 58.0065 131.148H77.3698L86.8335 121.463V121.237H54.2559Z" fill="#FA7CFF"/>
<path d="M108.323 90.9546L117.394 82.3455C116.674 81.7429 115.955 81.0865 115.213 80.4946C108.972 75.7069 101.579 72.5997 93.7564 71.4766L81.1201 84.0566C91.0417 82.1303 100.211 84.6915 108.323 90.9546Z" fill="#FA7CFF"/>
<path d="M108.486 141.363L117.307 150.144C111.503 155.385 104.359 158.961 96.6458 160.485C74.6876 164.93 53.558 153.889 44.7703 133.356C44.5685 132.649 44.1108 132.039 43.4838 131.642C42.8569 131.245 42.1043 131.089 41.3686 131.204C36.3207 131.333 31.2618 131.204 26.1047 131.204V121.346H41.3686V111.285H26.1047V101.223C30.8256 101.223 35.5247 101.05 40.1911 101.287C42.8296 101.416 44.0616 100.652 45.1628 98.1556C47.9325 91.8408 52.1295 86.2352 57.4324 81.7681C62.7353 77.301 69.0035 74.0908 75.7571 72.3833C82.5107 70.6757 89.5706 70.5162 96.3963 71.9168C103.222 73.3174 109.632 76.2411 115.137 80.464C115.922 81.0558 116.642 81.7123 117.317 82.3149L108.246 90.924C98.532 83.3911 87.313 81.2388 75.1128 85.6832C67.4808 88.4919 61.7787 93.6251 57.6683 101.115H86.7788V111.123H54.2557V121.206H86.8333V131.107H58.0608C64.0137 145.581 88.1743 157.225 108.486 141.363Z" stroke="#0F0F0F" stroke-width="1.09028" stroke-linecap="round" stroke-linejoin="round"/>
</g>
<defs>
<clipPath id="clip0_2110_49263">
<rect width="188.04" height="200" fill="white" transform="translate(6)"/>
</clipPath>
</defs>
</svg>
