<svg width="103" height="82" viewBox="0 0 103 82" fill="none" xmlns="http://www.w3.org/2000/svg">
<path d="M0 71.0667V10.9333C0 4.92 4.87895 0 10.8421 0H92.1579C98.121 0 103 4.92 103 10.9333V71.0667C103 77.08 98.121 82 92.1579 82H10.8421C4.87895 82 0 77.08 0 71.0667Z" fill="#FF9800"/>
<path d="M103 29.816V24.395H70.4737C67.4921 24.395 65.0526 21.9555 65.0526 18.9739C65.0526 15.9924 67.4921 13.5529 70.4737 13.5529H73.1842V8.13184H70.4737C64.5105 8.13184 59.6316 13.0108 59.6316 18.9739C59.6316 24.9371 64.5105 29.816 70.4737 29.816H78.6053V46.0792H70.4737C62.8842 46.0792 56.9211 52.0424 56.9211 59.6318C56.9211 67.2213 62.8842 73.1845 70.4737 73.1845H75.8947V67.7634H70.4737C65.8658 67.7634 62.3421 64.2397 62.3421 59.6318C62.3421 55.0239 65.8658 51.5003 70.4737 51.5003H103V46.0792H84.0263V29.816H103Z" fill="#FFD54F"/>
<path d="M32.5263 46.0792H24.3947V29.816H32.5263C38.4895 29.816 43.3684 24.9371 43.3684 18.9739C43.3684 13.0108 38.4895 8.13184 32.5263 8.13184H24.3947V13.5529H32.5263C35.5079 13.5529 37.9474 15.9924 37.9474 18.9739C37.9474 21.9555 35.5079 24.395 32.5263 24.395H0V29.816H18.9737V46.0792H0V51.5003H32.5263C37.1342 51.5003 40.6579 55.0239 40.6579 59.6318C40.6579 64.2397 37.1342 67.7634 32.5263 67.7634H27.1053V73.1845H32.5263C40.1158 73.1845 46.0789 67.2213 46.0789 59.6318C46.0789 52.0424 40.1158 46.0792 32.5263 46.0792Z" fill="#FFD54F"/>
</svg>
