<svg width="39" height="39" viewBox="0 0 39 39" fill="none" xmlns="http://www.w3.org/2000/svg">
<path d="M20.7368 38.7081C21.1354 38.5535 21.4995 38.3218 21.8084 38.0262L38.045 21.7895C38.3478 21.4868 38.5879 21.1273 38.7518 20.7317C38.9157 20.3361 39 19.9121 39 19.4839C39 18.6192 38.6565 17.7898 38.045 17.1783C37.7422 16.8756 37.3828 16.6354 36.9872 16.4715C36.5916 16.3077 36.1676 16.2233 35.7394 16.2233C34.8746 16.2233 34.0453 16.5669 33.4338 17.1783L22.7501 27.8945L22.7501 3.24732C22.7501 2.38608 22.408 1.56011 21.799 0.95112C21.19 0.342128 20.364 0 19.5028 0C18.6415 0 17.8156 0.342128 17.2066 0.95112C16.5976 1.56011 16.2554 2.38608 16.2554 3.24732L16.2554 27.8945L5.57175 17.1783C5.26987 16.874 4.91071 16.6324 4.515 16.4675C4.11928 16.3027 3.69484 16.2178 3.26615 16.2178C2.83747 16.2178 2.41302 16.3027 2.01731 16.4675C1.62159 16.6324 1.26244 16.874 0.960556 17.1783C0.656189 17.4802 0.4146 17.8394 0.249741 18.2351C0.084877 18.6308 0 19.0553 0 19.4839C0 19.9126 0.084877 20.3371 0.249741 20.7328C0.4146 21.1285 0.656189 21.4877 0.960556 21.7895L17.1972 38.0262C17.506 38.3218 17.8702 38.5535 18.2688 38.7081C19.0594 39.0329 19.9462 39.0329 20.7368 38.7081Z" fill="#77777F"/>
</svg>
