<svg width="57" height="40" viewBox="0 0 57 40" fill="none" xmlns="http://www.w3.org/2000/svg">
<path d="M11.3969 25.6712C11.3969 26.4272 11.6972 27.1522 12.2318 27.6868C12.7664 28.2214 13.4914 28.5217 14.2474 28.5217L47.2849 28.5217L40.7287 35.0494C40.192 35.5861 39.8904 36.3141 39.8904 37.0732C39.8904 37.8323 40.192 38.5603 40.7287 39.0971C41.2655 39.6339 41.9935 39.9354 42.7526 39.9354C43.5117 39.9354 44.2397 39.6339 44.7765 39.0971L56.1785 27.695C56.5741 27.2942 56.842 26.7852 56.9485 26.2322C57.0551 25.6792 56.9954 25.1071 56.7771 24.588C56.5633 24.0674 56.2001 23.6218 55.7334 23.3073C55.2668 22.9928 54.7174 22.8235 54.1547 22.8207L14.2474 22.8207C13.4914 22.8207 12.7664 23.121 12.2318 23.6556C11.6972 24.1901 11.3969 24.9152 11.3969 25.6712ZM0.222872 15.3523C0.43672 15.8729 0.799868 16.3185 1.26656 16.633C1.73324 16.9475 2.28258 17.1168 2.84535 17.1196L42.7526 17.1196C43.5086 17.1196 44.2336 16.8193 44.7682 16.2847C45.3028 15.7501 45.6031 15.0251 45.6031 14.2691C45.6031 13.5131 45.3028 12.7881 44.7682 12.2535C44.2336 11.7189 43.5086 11.4186 42.7526 11.4186L9.71509 11.4186L16.2713 4.8909C16.5385 4.62591 16.7505 4.31064 16.8952 3.96328C17.04 3.61591 17.1145 3.24334 17.1145 2.86704C17.1145 2.49073 17.04 2.11815 16.8952 1.77079C16.7505 1.42343 16.5385 1.10816 16.2713 0.84317C16.0063 0.575997 15.691 0.36393 15.3437 0.219212C14.9963 0.0744936 14.6237 -1.1334e-05 14.2474 -1.13669e-05C13.8711 -1.13998e-05 13.4985 0.0744934 13.1512 0.219212C12.8038 0.36393 12.4885 0.575996 12.2236 0.84317L0.821486 12.2452C0.425955 12.6461 0.158015 13.1551 0.0514778 13.7081C-0.0550553 14.2611 0.00458365 14.8332 0.222872 15.3523Z" fill="#77777F"/>
</svg>
